G04 Layer_Color=65535*
%FSLAX44Y44*%
%MOMM*%
G71*
G01*
G75*
%ADD49C,0.2540*%
%ADD50C,0.2000*%
%ADD56C,0.6000*%
%ADD75C,0.2500*%
%ADD76C,0.0762*%
%ADD77C,0.1524*%
%ADD78C,0.1500*%
%ADD79C,0.1000*%
%ADD80C,0.1270*%
%ADD81R,0.5000X1.0000*%
%ADD82R,1.0000X0.5000*%
%ADD83R,1.4224X0.9770*%
%ADD84R,2.5400X0.4318*%
%ADD85R,3.0480X0.5842*%
%ADD86R,0.1778X0.1270*%
%ADD87R,0.2540X0.3663*%
%ADD88R,0.3169X0.1119*%
%ADD89R,0.1270X0.3862*%
%ADD90R,0.5080X0.3810*%
%ADD91R,0.3810X0.3810*%
%ADD92R,0.2540X0.3810*%
%ADD93R,0.2540X0.3532*%
%ADD94R,2.1590X0.2870*%
%ADD95R,2.1590X0.2870*%
%ADD96R,1.5494X2.5782*%
%ADD97R,1.5240X2.5782*%
%ADD98R,0.3169X0.1119*%
%ADD99R,1.0226X2.5782*%
%ADD100R,0.9652X2.5782*%
%ADD101R,1.0480X2.5782*%
%ADD102R,1.0480X2.5782*%
G36*
X627775Y399879D02*
X628884Y399800D01*
X630071Y399641D01*
X631495Y399483D01*
X633078Y399245D01*
X634740Y398929D01*
X636482Y398533D01*
X638381Y398058D01*
X640281Y397504D01*
X642180Y396792D01*
X644080Y396001D01*
X646058Y395130D01*
X647958Y394101D01*
X648037Y394022D01*
X648433Y393864D01*
X648908Y393468D01*
X649620Y393072D01*
X650490Y392439D01*
X651440Y391806D01*
X652548Y390935D01*
X653736Y389985D01*
X655002Y388956D01*
X656268Y387769D01*
X657614Y386503D01*
X658959Y385158D01*
X660305Y383654D01*
X661571Y382071D01*
X662758Y380409D01*
X663945Y378667D01*
Y378588D01*
X664104Y378430D01*
X664262Y378193D01*
X664500Y377797D01*
X664737Y377322D01*
X665053Y376768D01*
X665370Y376135D01*
X665766Y375423D01*
X666557Y373760D01*
X667349Y371861D01*
X668219Y369803D01*
X668932Y367587D01*
Y367508D01*
X669011Y367350D01*
X669090Y366954D01*
X669169Y366558D01*
X669327Y366004D01*
X669486Y365371D01*
X669644Y364579D01*
X669802Y363788D01*
X670119Y361888D01*
X670435Y359752D01*
X670594Y357456D01*
X670673Y355003D01*
Y354924D01*
Y354686D01*
Y354370D01*
Y353895D01*
X670594Y353341D01*
Y352628D01*
X670515Y351916D01*
X670435Y351045D01*
X670277Y349146D01*
X669961Y347088D01*
X669486Y344872D01*
X668932Y342577D01*
Y342498D01*
X668852Y342339D01*
X668773Y342023D01*
X668615Y341548D01*
X668378Y340994D01*
X668219Y340440D01*
X667903Y339727D01*
X667665Y338936D01*
X666953Y337195D01*
X666082Y335374D01*
X665053Y333396D01*
X663945Y331496D01*
X663866Y331417D01*
X663708Y331101D01*
X663312Y330546D01*
X662837Y329913D01*
X662283Y329122D01*
X661571Y328172D01*
X660700Y327143D01*
X659751Y326035D01*
X658643Y324848D01*
X657455Y323582D01*
X656110Y322315D01*
X654685Y321049D01*
X653182Y319703D01*
X651519Y318516D01*
X649778Y317250D01*
X647958Y316142D01*
X647879Y316063D01*
X647483Y315904D01*
X646929Y315588D01*
X646217Y315192D01*
X645267Y314796D01*
X644159Y314321D01*
X642813Y313767D01*
X641389Y313213D01*
X639806Y312659D01*
X638144Y312105D01*
X636244Y311630D01*
X634345Y311235D01*
X632287Y310839D01*
X630150Y310522D01*
X628013Y310364D01*
X625718Y310285D01*
X625164D01*
X624530Y310364D01*
X623660D01*
X622631Y310443D01*
X621365Y310602D01*
X620019Y310760D01*
X618436Y310997D01*
X616774Y311314D01*
X615033Y311710D01*
X613213Y312185D01*
X611313Y312738D01*
X609414Y313372D01*
X607435Y314163D01*
X605535Y315034D01*
X603636Y316063D01*
X603557Y316142D01*
X603161Y316300D01*
X602686Y316696D01*
X601974Y317092D01*
X601103Y317725D01*
X600153Y318437D01*
X599045Y319228D01*
X597858Y320178D01*
X596592Y321207D01*
X595326Y322394D01*
X593980Y323661D01*
X592635Y325006D01*
X591368Y326510D01*
X590023Y328014D01*
X588835Y329676D01*
X587648Y331417D01*
Y331496D01*
X587490Y331655D01*
X587332Y331971D01*
X587094Y332288D01*
X586857Y332763D01*
X586540Y333396D01*
X586224Y334029D01*
X585828Y334741D01*
X585037Y336403D01*
X584166Y338303D01*
X583374Y340361D01*
X582662Y342577D01*
Y342656D01*
X582583Y342814D01*
X582504Y343131D01*
X582425Y343606D01*
X582266Y344160D01*
X582108Y344793D01*
X581950Y345505D01*
X581791Y346376D01*
X581475Y348196D01*
X581158Y350333D01*
X581000Y352628D01*
X580921Y355003D01*
Y355082D01*
Y355319D01*
Y355636D01*
Y356111D01*
X581000Y356744D01*
Y357377D01*
X581079Y358168D01*
X581158Y359039D01*
X581317Y360939D01*
X581633Y363076D01*
X582108Y365292D01*
X582662Y367508D01*
Y367587D01*
X582741Y367745D01*
X582820Y368062D01*
X582979Y368537D01*
X583137Y369091D01*
X583374Y369724D01*
X583612Y370357D01*
X583928Y371149D01*
X584641Y372890D01*
X585511Y374789D01*
X586540Y376689D01*
X587648Y378667D01*
X587728Y378747D01*
X587965Y379063D01*
X588282Y379617D01*
X588756Y380250D01*
X589310Y381042D01*
X590023Y381992D01*
X590893Y383021D01*
X591843Y384208D01*
X592951Y385395D01*
X594138Y386661D01*
X595484Y387928D01*
X596829Y389194D01*
X598412Y390539D01*
X599995Y391727D01*
X601736Y392993D01*
X603557Y394101D01*
X603715Y394180D01*
X604032Y394338D01*
X604586Y394655D01*
X605298Y395051D01*
X606248Y395447D01*
X607435Y395921D01*
X608701Y396475D01*
X610126Y397029D01*
X611709Y397584D01*
X613450Y398138D01*
X615270Y398612D01*
X617170Y399008D01*
X619228Y399404D01*
X621286Y399720D01*
X623502Y399879D01*
X625718Y399958D01*
X626905D01*
X627775Y399879D01*
D02*
G37*
G36*
X894736Y347721D02*
Y347484D01*
Y347088D01*
Y346613D01*
Y345901D01*
Y345030D01*
Y344081D01*
Y342972D01*
X888405D01*
Y343052D01*
Y343289D01*
Y343606D01*
Y344081D01*
Y344793D01*
Y345584D01*
Y346455D01*
Y347563D01*
X889434D01*
Y347484D01*
Y347326D01*
Y347088D01*
Y346692D01*
Y346217D01*
Y345663D01*
Y344951D01*
Y344081D01*
X891096D01*
Y344160D01*
Y344318D01*
Y344555D01*
Y344872D01*
Y345347D01*
Y345901D01*
Y346534D01*
Y347246D01*
X892045D01*
Y347167D01*
Y347009D01*
Y346772D01*
Y346455D01*
Y345980D01*
Y345426D01*
Y344793D01*
Y344081D01*
X893707D01*
Y344160D01*
Y344318D01*
Y344635D01*
Y345030D01*
Y345584D01*
Y346217D01*
Y346930D01*
Y347800D01*
X894736D01*
Y347721D01*
D02*
G37*
G36*
X729399Y391489D02*
X730270Y391410D01*
X731220Y391331D01*
X732328Y391093D01*
X733436Y390856D01*
X734544Y390460D01*
X734702Y390381D01*
X735019Y390223D01*
X735573Y389985D01*
X736285Y389590D01*
X737156Y389115D01*
X738027Y388561D01*
X738976Y387848D01*
X739847Y386978D01*
X739926Y386899D01*
X740243Y386582D01*
X740638Y386107D01*
X741192Y385474D01*
X741746Y384683D01*
X742380Y383812D01*
X742934Y382862D01*
X743408Y381833D01*
X743488Y381675D01*
X743567Y381358D01*
X743804Y380725D01*
X744042Y380013D01*
X744200Y379063D01*
X744437Y377955D01*
X744517Y376768D01*
X744596Y375502D01*
Y375343D01*
Y374948D01*
X744517Y374314D01*
X744437Y373444D01*
X744279Y372494D01*
X744121Y371465D01*
X743804Y370357D01*
X743408Y369249D01*
X743329Y369091D01*
X743171Y368774D01*
X742934Y368220D01*
X742538Y367508D01*
X741984Y366716D01*
X741430Y365846D01*
X740717Y364975D01*
X739847Y364104D01*
X739768Y364025D01*
X739451Y363709D01*
X738976Y363313D01*
X738264Y362759D01*
X737472Y362205D01*
X736602Y361572D01*
X735652Y361018D01*
X734544Y360543D01*
X734386Y360464D01*
X734069Y360385D01*
X733436Y360147D01*
X732645Y359989D01*
X731695Y359752D01*
X730587Y359514D01*
X729399Y359435D01*
X728133Y359356D01*
X727579D01*
X726867Y359435D01*
X725996Y359514D01*
X725046Y359672D01*
X723938Y359831D01*
X722751Y360147D01*
X721643Y360543D01*
X721485Y360622D01*
X721168Y360780D01*
X720614Y361018D01*
X719902Y361414D01*
X719110Y361968D01*
X718240Y362522D01*
X717290Y363234D01*
X716420Y364104D01*
X716340Y364184D01*
X716024Y364500D01*
X715549Y364975D01*
X715074Y365608D01*
X714441Y366321D01*
X713887Y367191D01*
X713254Y368220D01*
X712779Y369249D01*
X712700Y369407D01*
X712620Y369724D01*
X712462Y370357D01*
X712304Y371069D01*
X712066Y372019D01*
X711908Y373127D01*
X711829Y374235D01*
X711750Y375502D01*
Y375581D01*
Y375660D01*
Y376056D01*
X711829Y376768D01*
X711908Y377639D01*
X711987Y378588D01*
X712225Y379696D01*
X712462Y380804D01*
X712779Y381912D01*
X712858Y382071D01*
X713016Y382387D01*
X713254Y382941D01*
X713649Y383654D01*
X714203Y384366D01*
X714837Y385237D01*
X715549Y386107D01*
X716420Y386978D01*
X716499Y387057D01*
X716815Y387374D01*
X717290Y387769D01*
X717923Y388323D01*
X718715Y388877D01*
X719585Y389431D01*
X720614Y389985D01*
X721643Y390460D01*
X721802Y390539D01*
X722197Y390619D01*
X722751Y390777D01*
X723543Y391014D01*
X724492Y391252D01*
X725601Y391410D01*
X726867Y391489D01*
X728133Y391568D01*
X728687D01*
X729399Y391489D01*
D02*
G37*
G36*
X893470Y353736D02*
X893707Y353578D01*
X893787D01*
X893866Y353420D01*
X894261Y353103D01*
X894341Y353024D01*
X894420Y352866D01*
X894578Y352391D01*
X894657Y352312D01*
X894736Y352074D01*
X894816Y351758D01*
Y351362D01*
Y351204D01*
Y350887D01*
X894657Y350412D01*
X894499Y349937D01*
X894420Y349779D01*
X894341Y349462D01*
X894103Y349067D01*
X893787Y348592D01*
X893707Y348671D01*
X893549Y348750D01*
X893312Y349067D01*
X892916Y349383D01*
X892995Y349462D01*
X893153Y349700D01*
X893391Y350017D01*
X893628Y350333D01*
X893707Y350412D01*
X893787Y350650D01*
X893866Y350966D01*
Y351362D01*
Y351441D01*
Y351520D01*
X893787Y351837D01*
Y351916D01*
X893707Y351995D01*
X893549Y352233D01*
X893470Y352312D01*
X893312Y352470D01*
X893233Y352549D01*
X892599D01*
X892520Y352470D01*
X892362Y352312D01*
X892283Y352233D01*
Y352153D01*
X892204Y351916D01*
Y351837D01*
X892124Y351758D01*
X892045Y351283D01*
Y351204D01*
X891966Y351045D01*
X891887Y350570D01*
Y350412D01*
X891729Y350175D01*
X891650Y350096D01*
X891491Y349779D01*
X891412Y349700D01*
X891333Y349542D01*
Y349462D01*
X891254Y349304D01*
X891096Y349146D01*
X890858Y348988D01*
X890779D01*
X890621Y348908D01*
X890383Y348829D01*
X889829D01*
X889513Y348908D01*
X889275Y349067D01*
X889196Y349146D01*
X889117Y349225D01*
X888642Y349621D01*
Y349700D01*
X888484Y349779D01*
X888405Y350017D01*
X888326Y350333D01*
Y350412D01*
Y350650D01*
X888246Y351204D01*
Y351283D01*
Y351441D01*
X888326Y351837D01*
Y351916D01*
Y352074D01*
X888405Y352470D01*
Y352549D01*
X888484Y352707D01*
X888642Y353103D01*
X888721Y353182D01*
X888800Y353261D01*
X888959Y353578D01*
X889038D01*
X889117Y353420D01*
X889354Y353261D01*
X889671Y353024D01*
X889592Y352945D01*
X889434Y352707D01*
X889354Y352549D01*
X889275Y352233D01*
Y352153D01*
X889354Y352074D01*
Y351599D01*
Y351441D01*
X889275Y351124D01*
Y350966D01*
X889354Y350729D01*
Y350650D01*
X889434Y350570D01*
Y350412D01*
Y350333D01*
X889513Y350254D01*
X889671Y350096D01*
X889750D01*
X890067Y350017D01*
X890225D01*
X890383Y350096D01*
X890462Y350175D01*
X890700Y350333D01*
X890779Y350412D01*
Y350570D01*
X890858Y350887D01*
Y350966D01*
X890937Y351124D01*
X891016Y351362D01*
X891096Y351679D01*
Y351758D01*
X891175Y351995D01*
X891333Y352628D01*
Y352707D01*
X891491Y352866D01*
X891808Y353261D01*
Y353341D01*
X891966Y353420D01*
X892283Y353578D01*
X892362Y353657D01*
X892520Y353736D01*
X892679Y353815D01*
X893233D01*
X893470Y353736D01*
D02*
G37*
G36*
X894736Y340994D02*
Y340835D01*
Y340440D01*
Y339965D01*
X888405D01*
Y340044D01*
Y340202D01*
Y340598D01*
Y341073D01*
X894736D01*
Y340994D01*
D02*
G37*
G36*
Y331734D02*
Y331496D01*
Y331101D01*
Y330626D01*
Y329913D01*
Y329043D01*
Y328093D01*
Y326906D01*
X888405D01*
Y326985D01*
Y327222D01*
Y327539D01*
Y328093D01*
Y328726D01*
Y329597D01*
Y330546D01*
Y331655D01*
X889434D01*
Y331575D01*
Y331417D01*
Y331180D01*
Y330784D01*
Y330230D01*
Y329676D01*
Y328964D01*
Y328093D01*
X891096D01*
Y328172D01*
Y328251D01*
Y328568D01*
Y328884D01*
Y329280D01*
Y329834D01*
Y330467D01*
Y331180D01*
X892045D01*
Y331101D01*
Y331021D01*
Y330784D01*
Y330467D01*
Y329992D01*
Y329518D01*
Y328805D01*
Y328093D01*
X893707D01*
Y328172D01*
Y328330D01*
Y328568D01*
Y329043D01*
Y329518D01*
Y330151D01*
Y330942D01*
Y331813D01*
X894736D01*
Y331734D01*
D02*
G37*
G36*
X893470Y325639D02*
X893707Y325481D01*
X893787D01*
X893866Y325402D01*
X894261Y325006D01*
X894341Y324927D01*
X894420Y324769D01*
X894578Y324294D01*
X894657Y324215D01*
X894736Y323977D01*
X894816Y323661D01*
Y323265D01*
Y323107D01*
Y322790D01*
X894657Y322315D01*
X894499Y321840D01*
X894420Y321682D01*
X894341Y321366D01*
X894103Y320970D01*
X893787Y320495D01*
X893707Y320574D01*
X893549Y320653D01*
X893312Y320970D01*
X892916Y321286D01*
X892995Y321366D01*
X893153Y321603D01*
X893391Y321920D01*
X893628Y322236D01*
X893707Y322315D01*
X893787Y322553D01*
X893866Y322869D01*
Y323265D01*
Y323344D01*
Y323423D01*
X893787Y323740D01*
Y323819D01*
X893707Y323898D01*
X893549Y324136D01*
X893470Y324215D01*
X893312Y324373D01*
X893233Y324452D01*
X893153Y324531D01*
X892837D01*
X892599Y324452D01*
X892520Y324373D01*
X892362Y324294D01*
X892283Y324136D01*
X892204Y323819D01*
Y323740D01*
X892124Y323661D01*
X892045Y323186D01*
Y323107D01*
X891966Y322948D01*
X891887Y322473D01*
Y322315D01*
X891729Y322078D01*
X891650Y321999D01*
X891491Y321682D01*
X891412Y321603D01*
X891333Y321445D01*
Y321366D01*
X891254Y321207D01*
X891096Y321049D01*
X890858Y320891D01*
X890621D01*
X890383Y320811D01*
X889829D01*
X889275Y320970D01*
X889196D01*
X889117Y321128D01*
X888879Y321286D01*
X888642Y321524D01*
Y321603D01*
X888484Y321761D01*
X888326Y322236D01*
Y322315D01*
Y322473D01*
X888246Y322790D01*
Y323107D01*
Y323186D01*
Y323344D01*
X888326Y323740D01*
Y323819D01*
Y323977D01*
X888405Y324452D01*
Y324531D01*
X888484Y324610D01*
X888642Y325006D01*
X888721Y325085D01*
X888800Y325164D01*
X888959Y325481D01*
X889038D01*
X889117Y325323D01*
X889354Y325164D01*
X889671Y324927D01*
X889592Y324848D01*
X889434Y324610D01*
X889354Y324531D01*
X889275Y324136D01*
Y324057D01*
X889354Y323898D01*
Y323502D01*
Y323344D01*
X889275Y323027D01*
Y322869D01*
X889354Y322553D01*
X889434Y322473D01*
Y322236D01*
X889513Y322157D01*
X889671Y321999D01*
X889750D01*
X890067Y321920D01*
X890225D01*
X890383Y321999D01*
X890462Y322078D01*
X890700Y322236D01*
X890779Y322394D01*
Y322553D01*
X890858Y322790D01*
Y322869D01*
X890937Y323027D01*
X891016Y323265D01*
X891096Y323582D01*
Y323661D01*
X891175Y323898D01*
X891333Y324531D01*
Y324610D01*
X891491Y324769D01*
X891808Y325164D01*
Y325244D01*
X891966Y325323D01*
X892283Y325481D01*
X892362Y325560D01*
X892520Y325639D01*
X892679Y325718D01*
X893233D01*
X893470Y325639D01*
D02*
G37*
G36*
X894736Y338540D02*
Y338303D01*
Y337828D01*
Y337195D01*
X894578Y337116D01*
X894182Y336799D01*
X893549Y336324D01*
X892599Y335691D01*
Y335612D01*
Y335295D01*
Y334820D01*
Y334187D01*
X894736D01*
Y334108D01*
Y333950D01*
Y333633D01*
Y333158D01*
X888405D01*
Y333317D01*
Y333792D01*
Y334504D01*
Y335533D01*
Y335691D01*
Y336008D01*
X888484Y336403D01*
X888563Y336799D01*
Y336878D01*
X888642Y337116D01*
X888800Y337353D01*
X888959Y337670D01*
X889038Y337749D01*
X889117Y337907D01*
X889354Y338065D01*
X889592Y338224D01*
X889671D01*
X889829Y338303D01*
X890146Y338382D01*
X890700D01*
X890937Y338303D01*
X891412Y338224D01*
X891808Y337986D01*
X891887Y337907D01*
X892045Y337749D01*
X892283Y337353D01*
X892441Y336878D01*
X892599Y337037D01*
X892995Y337353D01*
X893707Y337907D01*
X894736Y338619D01*
Y338540D01*
D02*
G37*
G36*
X870438Y353736D02*
X884368D01*
Y353657D01*
Y353341D01*
Y352945D01*
Y352312D01*
Y351520D01*
Y350650D01*
Y349621D01*
Y348513D01*
Y347326D01*
Y345980D01*
Y343210D01*
Y340202D01*
Y337037D01*
Y336957D01*
Y336641D01*
Y336245D01*
Y335612D01*
Y334899D01*
Y334029D01*
Y333000D01*
Y331892D01*
Y330626D01*
Y329359D01*
Y326589D01*
Y323502D01*
Y320416D01*
X874396D01*
Y320495D01*
Y320732D01*
Y321049D01*
Y321524D01*
Y322078D01*
Y322711D01*
X874475Y323502D01*
Y324294D01*
Y326193D01*
Y328330D01*
X874554Y330546D01*
Y332842D01*
Y332921D01*
Y333158D01*
Y333475D01*
Y333950D01*
Y334504D01*
Y335137D01*
Y335928D01*
Y336720D01*
Y338619D01*
Y340756D01*
X874633Y342972D01*
Y345268D01*
X873050D01*
Y345188D01*
X872892Y345030D01*
X872734Y344635D01*
X872496Y344239D01*
X872259Y343685D01*
X871863Y342972D01*
X871467Y342260D01*
X871072Y341390D01*
X870122Y339490D01*
X869093Y337432D01*
X867985Y335137D01*
X866798Y332842D01*
Y332763D01*
X866639Y332604D01*
X866481Y332209D01*
X866244Y331813D01*
X866006Y331259D01*
X865690Y330546D01*
X865294Y329834D01*
X864819Y328964D01*
X863869Y327064D01*
X862840Y325006D01*
X861653Y322711D01*
X860466Y320416D01*
X852076D01*
Y320495D01*
X851918Y320732D01*
X851760Y321049D01*
X851522Y321524D01*
X851285Y322078D01*
X850889Y322711D01*
X850493Y323502D01*
X850098Y324294D01*
X849148Y326193D01*
X848040Y328330D01*
X846932Y330546D01*
X845745Y332842D01*
Y332921D01*
X845586Y333158D01*
X845428Y333475D01*
X845191Y333950D01*
X844953Y334504D01*
X844557Y335137D01*
X844162Y335928D01*
X843766Y336720D01*
X842816Y338619D01*
X841708Y340756D01*
X840600Y342972D01*
X839413Y345268D01*
X789551D01*
Y345188D01*
Y345109D01*
Y344635D01*
Y343922D01*
Y343131D01*
Y343052D01*
Y342972D01*
Y342498D01*
Y341864D01*
Y341073D01*
X815036D01*
Y340994D01*
Y340756D01*
Y340440D01*
Y339965D01*
Y339411D01*
Y338857D01*
Y337511D01*
Y337432D01*
Y337195D01*
Y336799D01*
Y336324D01*
Y335770D01*
Y335137D01*
Y333792D01*
X789551D01*
Y333712D01*
Y333554D01*
Y333317D01*
Y333000D01*
Y332129D01*
Y331180D01*
Y331101D01*
Y330942D01*
Y330705D01*
Y330309D01*
Y329518D01*
Y328489D01*
X818914D01*
Y328568D01*
X818993Y328647D01*
X819231Y329122D01*
X819626Y329834D01*
X820180Y330784D01*
X820734Y331892D01*
X821368Y333158D01*
X822792Y335770D01*
Y335849D01*
X822871Y335928D01*
X823109Y336403D01*
X823505Y337116D01*
X824059Y338065D01*
X824613Y339173D01*
X825325Y340440D01*
X826037Y341785D01*
X826750Y343131D01*
X830153D01*
X832132Y343052D01*
X837672D01*
X837593Y342972D01*
X837434Y342656D01*
X837197Y342181D01*
X836880Y341548D01*
X836485Y340835D01*
X836089Y339965D01*
X835139Y338144D01*
X835060Y338065D01*
X834902Y337749D01*
X834664Y337274D01*
X834348Y336641D01*
X833952Y335928D01*
X833556Y335058D01*
X832686Y333317D01*
X843370D01*
Y333237D01*
X843529Y333000D01*
X843687Y332683D01*
X843845Y332288D01*
X844162Y331734D01*
X844399Y331101D01*
X845032Y329755D01*
Y329676D01*
X845191Y329438D01*
X845349Y329122D01*
X845507Y328647D01*
X845824Y328093D01*
X846061Y327460D01*
X846694Y326114D01*
X829045D01*
Y326035D01*
X828966Y325877D01*
X828807Y325560D01*
X828649Y325244D01*
X828174Y324294D01*
X827699Y323265D01*
Y323186D01*
X827541Y323027D01*
X827462Y322790D01*
X827225Y322394D01*
X826829Y321524D01*
X826275Y320495D01*
X779816D01*
Y320574D01*
Y320811D01*
Y321128D01*
Y321603D01*
Y322157D01*
Y322790D01*
Y323582D01*
Y324373D01*
Y326273D01*
Y328410D01*
Y330626D01*
Y332921D01*
Y333000D01*
Y333237D01*
Y333554D01*
Y333950D01*
Y334583D01*
Y335216D01*
Y335928D01*
Y336799D01*
Y338619D01*
Y340756D01*
Y342972D01*
Y345268D01*
X777362D01*
X776808Y345188D01*
X776096D01*
Y345109D01*
Y345030D01*
Y344793D01*
Y344476D01*
Y343764D01*
Y342893D01*
Y342814D01*
Y342735D01*
Y342260D01*
Y341548D01*
Y340677D01*
Y340598D01*
X776017Y340281D01*
X775938Y339807D01*
X775858Y339253D01*
X775621Y337907D01*
X775463Y337195D01*
X775304Y336562D01*
Y336482D01*
X775225Y336324D01*
X775067Y336008D01*
X774829Y335612D01*
X774434Y335216D01*
X774038Y334820D01*
X773484Y334425D01*
X772851Y334029D01*
X772772D01*
X772455Y333950D01*
X771980Y333792D01*
X771505Y333633D01*
X771426D01*
X771189Y333554D01*
X770793Y333475D01*
X770318Y333317D01*
X770793D01*
X771347Y333237D01*
X771980Y333079D01*
X772693Y332842D01*
X773405Y332525D01*
X774038Y332129D01*
X774513Y331496D01*
X774592Y331417D01*
X774671Y331180D01*
X774909Y330784D01*
X775067Y330230D01*
X775304Y329597D01*
X775542Y328805D01*
X775700Y327935D01*
X775779Y326906D01*
Y326827D01*
Y326668D01*
Y326352D01*
X775858Y325956D01*
Y325006D01*
Y323819D01*
Y323740D01*
Y323502D01*
Y323186D01*
Y322790D01*
X775779Y321682D01*
Y320495D01*
X765886D01*
Y320574D01*
Y320811D01*
Y321207D01*
Y321761D01*
Y322394D01*
Y323186D01*
X765807Y323977D01*
Y324927D01*
Y325006D01*
Y325323D01*
X765728Y325798D01*
X765649Y326273D01*
X765411Y327381D01*
X765095Y327855D01*
X764778Y328251D01*
X764620Y328330D01*
X764382Y328489D01*
X764145Y328647D01*
X763749Y328726D01*
X763274Y328884D01*
X762720Y328964D01*
X744912D01*
Y328884D01*
Y328568D01*
Y328172D01*
Y327618D01*
Y326985D01*
Y326273D01*
Y324690D01*
Y324610D01*
Y324294D01*
Y323898D01*
Y323344D01*
Y322711D01*
Y321999D01*
Y320416D01*
X734781D01*
Y320495D01*
Y320653D01*
Y320970D01*
Y321366D01*
Y321920D01*
Y322553D01*
Y323186D01*
Y323977D01*
Y325718D01*
Y327618D01*
Y329676D01*
Y331813D01*
Y331892D01*
Y332050D01*
Y332367D01*
Y332763D01*
Y333237D01*
Y333871D01*
Y334504D01*
Y335295D01*
Y336957D01*
Y338857D01*
Y340915D01*
Y343052D01*
X744912D01*
Y342972D01*
Y342814D01*
Y342498D01*
Y342102D01*
Y341152D01*
Y340123D01*
Y340044D01*
Y339886D01*
Y339569D01*
Y339173D01*
Y338224D01*
Y337116D01*
X762958D01*
X763353Y337195D01*
X764224Y337353D01*
X764620Y337511D01*
X765015Y337749D01*
X765095D01*
X765174Y337907D01*
X765332Y338065D01*
X765490Y338382D01*
X765649Y338778D01*
X765807Y339253D01*
X765965Y339965D01*
X766044Y340756D01*
Y340835D01*
Y341152D01*
X766123Y341548D01*
X766044Y342023D01*
X765965Y343131D01*
X765807Y343685D01*
X765569Y344160D01*
Y344239D01*
X765411Y344397D01*
X765174Y344555D01*
X764778Y344793D01*
X764303Y345030D01*
X763670Y345268D01*
X762878Y345347D01*
X760108D01*
X759317Y345268D01*
X731299D01*
Y345188D01*
Y345030D01*
Y344635D01*
Y344239D01*
Y343685D01*
Y342972D01*
Y342260D01*
Y341390D01*
Y339569D01*
Y337432D01*
Y335216D01*
Y332921D01*
Y332842D01*
Y332683D01*
Y332288D01*
Y331892D01*
Y331338D01*
Y330626D01*
Y329913D01*
Y329043D01*
Y327143D01*
Y325085D01*
Y322790D01*
Y320495D01*
X720693D01*
Y320574D01*
Y320811D01*
Y321128D01*
Y321603D01*
Y322157D01*
Y322790D01*
Y323582D01*
Y324373D01*
Y326273D01*
Y328410D01*
Y330626D01*
Y332921D01*
Y333000D01*
Y333237D01*
Y333554D01*
Y333950D01*
Y334583D01*
Y335216D01*
Y335928D01*
Y336799D01*
Y338619D01*
Y340756D01*
Y342972D01*
Y345268D01*
X689747D01*
X689431Y345188D01*
X688956Y345109D01*
X688481Y344951D01*
X687927Y344714D01*
X687373Y344318D01*
X687056Y343843D01*
X686819Y343131D01*
X686898Y343052D01*
X686977Y342814D01*
X687294Y342577D01*
X687689Y342181D01*
X688243Y341864D01*
X688956Y341627D01*
X689905Y341469D01*
X691568D01*
X692201Y341548D01*
X693863D01*
X694812Y341469D01*
X696712Y341310D01*
X698137D01*
X699007Y341231D01*
X700511D01*
X701302Y341152D01*
X702886D01*
X703439Y341073D01*
X704706Y340994D01*
X705339D01*
X705814Y340915D01*
X706843D01*
X708109Y340835D01*
X708347D01*
X708584Y340756D01*
X708980Y340677D01*
X709850Y340440D01*
X710958Y340123D01*
X712146Y339727D01*
X713412Y339173D01*
X714520Y338540D01*
X715391Y337828D01*
X715470Y337749D01*
X715707Y337432D01*
X716103Y336799D01*
X716420Y335928D01*
X716578Y335453D01*
X716736Y334820D01*
X716894Y334108D01*
X717053Y333317D01*
X717132Y332446D01*
Y331496D01*
Y330467D01*
X717053Y329280D01*
Y329201D01*
Y329043D01*
X716973Y328726D01*
Y328330D01*
X716815Y327301D01*
X716657Y326193D01*
Y326114D01*
X716578Y325956D01*
X716499Y325718D01*
X716420Y325323D01*
X716103Y324531D01*
X715707Y323661D01*
X715628Y323582D01*
X715391Y323265D01*
X715074Y322869D01*
X714599Y322394D01*
X713966Y321840D01*
X713175Y321445D01*
X712304Y321049D01*
X711275Y320891D01*
X711117D01*
X710800Y320811D01*
X710246D01*
X709455Y320732D01*
X708505Y320574D01*
X707476Y320495D01*
X706210Y320257D01*
X704943Y320099D01*
X690697D01*
X689905Y320178D01*
X687531D01*
X687294Y320257D01*
X686977Y320337D01*
X686027Y320495D01*
X684919Y320653D01*
X683653Y320891D01*
X682386Y321128D01*
X681120Y321445D01*
X680012Y321682D01*
X679933Y321761D01*
X679616Y321840D01*
X679141Y322157D01*
X678587Y322632D01*
X677954Y323344D01*
X677717Y323819D01*
X677400Y324373D01*
X677163Y325006D01*
X676925Y325718D01*
X676688Y326510D01*
X676530Y327460D01*
Y327618D01*
X676451Y328014D01*
X676371Y328647D01*
X676292Y329518D01*
Y329597D01*
Y329755D01*
Y329992D01*
Y330230D01*
Y330942D01*
X676451Y331655D01*
X686106D01*
Y331575D01*
Y331496D01*
Y331021D01*
X686186Y330388D01*
X686344Y329676D01*
X686423Y329518D01*
X686581Y329201D01*
X686819Y328726D01*
X687215Y328330D01*
X687294Y328251D01*
X687610Y328093D01*
X688164Y327935D01*
X688560Y327855D01*
X689035Y327776D01*
X689272D01*
X689589Y327697D01*
X689905D01*
X690855Y327618D01*
X697820D01*
X698295Y327697D01*
X698928D01*
X700274Y327776D01*
X704785D01*
X705102Y327855D01*
X705814Y328014D01*
X706447Y328251D01*
X706526Y328330D01*
X706764Y328568D01*
X707001Y328964D01*
X707238Y329597D01*
Y329676D01*
Y329755D01*
X707318Y330230D01*
Y330863D01*
X707238Y331655D01*
Y331734D01*
X707159Y331813D01*
X707001Y332050D01*
X706843Y332288D01*
X706526Y332525D01*
X706131Y332763D01*
X705656Y332921D01*
X705022Y333000D01*
X704943D01*
X704706Y333079D01*
X704310D01*
X703835Y333158D01*
X703202D01*
X702490Y333237D01*
X700274D01*
X699561Y333158D01*
X698612D01*
X698137Y333237D01*
X697583D01*
X696949Y333317D01*
X696791D01*
X696475Y333396D01*
X695921Y333475D01*
X695129Y333554D01*
X694258Y333633D01*
X687768D01*
X686740Y333712D01*
X684523Y333871D01*
X684286D01*
X683969Y333950D01*
X683574Y334029D01*
X682624Y334108D01*
X681595Y334346D01*
X681516D01*
X681358Y334425D01*
X681120Y334504D01*
X680804Y334662D01*
X680012Y335058D01*
X679221Y335612D01*
X679141Y335691D01*
X678983Y335849D01*
X678746Y336087D01*
X678429Y336403D01*
X677875Y337353D01*
X677559Y337828D01*
X677400Y338461D01*
Y338540D01*
X677321Y338778D01*
Y339173D01*
X677242Y339648D01*
X677084Y340202D01*
X677005Y340915D01*
X676925Y341706D01*
X676767Y342577D01*
Y342656D01*
Y342735D01*
X676688Y343131D01*
Y343685D01*
Y344397D01*
Y344476D01*
Y344555D01*
Y345030D01*
X676767Y345663D01*
X676925Y346376D01*
Y346455D01*
X677005Y346692D01*
X677084Y347088D01*
X677163Y347563D01*
X677479Y348671D01*
X677875Y349858D01*
Y349937D01*
X677954Y350096D01*
X678113Y350412D01*
X678350Y350729D01*
X678983Y351520D01*
X679379Y351916D01*
X679854Y352312D01*
X679933Y352391D01*
X680250Y352549D01*
X680724Y352787D01*
X681437Y353103D01*
X682307Y353341D01*
X683336Y353578D01*
X684603Y353815D01*
X846694D01*
Y353736D01*
X846774Y353578D01*
X846932Y353261D01*
X847169Y352866D01*
X847328Y352391D01*
X847644Y351837D01*
X847961Y351124D01*
X848277Y350412D01*
X848990Y348750D01*
X849860Y346930D01*
X850731Y344951D01*
X851601Y342972D01*
Y342893D01*
X851681Y342735D01*
X851839Y342418D01*
X851997Y342102D01*
X852235Y341548D01*
X852551Y340994D01*
X853185Y339648D01*
X853897Y338065D01*
X854767Y336245D01*
X855638Y334346D01*
X856588Y332367D01*
X856667D01*
Y332446D01*
X856746D01*
Y332525D01*
X856825Y332683D01*
X856983Y333000D01*
X857142Y333396D01*
X857379Y333871D01*
X857617Y334425D01*
X858250Y335770D01*
X858962Y337353D01*
X859833Y339173D01*
X860703Y341073D01*
X861653Y343052D01*
Y343131D01*
X861732Y343289D01*
X861891Y343606D01*
X862049Y344001D01*
X862286Y344476D01*
X862524Y345030D01*
X863157Y346455D01*
X863948Y348038D01*
X864740Y349858D01*
X865611Y351837D01*
X866481Y353815D01*
X869172D01*
X870438Y353736D01*
D02*
G37*
G36*
X883972Y391568D02*
X884843Y391489D01*
X885872Y391331D01*
X886980Y391093D01*
X888167Y390777D01*
X889354Y390302D01*
X889513Y390223D01*
X889829Y390065D01*
X890462Y389748D01*
X891175Y389273D01*
X892045Y388719D01*
X892916Y388086D01*
X893866Y387294D01*
X894816Y386345D01*
X894736Y386265D01*
X894578Y386107D01*
X894341Y385791D01*
X893945Y385395D01*
X893470Y384920D01*
X892916Y384208D01*
X892204Y383495D01*
X891412Y382625D01*
X891333Y382704D01*
X891254Y382783D01*
X890779Y383258D01*
X890067Y383891D01*
X889275Y384445D01*
X889196D01*
X889117Y384603D01*
X888642Y384841D01*
X888009Y385237D01*
X887297Y385632D01*
X887217D01*
X887138Y385712D01*
X886663Y385870D01*
X885951Y386107D01*
X885080Y386345D01*
X884843D01*
X884606Y386424D01*
X884289D01*
X883497Y386503D01*
X881677D01*
X881123Y386424D01*
X880490Y386345D01*
X879778Y386186D01*
X878195Y385712D01*
X878116D01*
X877878Y385553D01*
X877482Y385395D01*
X877008Y385158D01*
X875900Y384445D01*
X875266Y383970D01*
X874633Y383416D01*
X874554Y383337D01*
X874396Y383179D01*
X874079Y382862D01*
X873763Y382387D01*
X873367Y381912D01*
X872971Y381279D01*
X872180Y379934D01*
Y379855D01*
X872021Y379617D01*
X871942Y379221D01*
X871784Y378667D01*
X871626Y378034D01*
X871546Y377243D01*
X871388Y375581D01*
Y375502D01*
Y375185D01*
X871467Y374710D01*
Y374156D01*
X871546Y373523D01*
X871705Y372811D01*
X872180Y371228D01*
X872259Y371149D01*
X872338Y370911D01*
X872496Y370515D01*
X872813Y370041D01*
X873525Y368932D01*
X874554Y367666D01*
X874633Y367587D01*
X874871Y367429D01*
X875187Y367112D01*
X875583Y366796D01*
X876058Y366400D01*
X876691Y366004D01*
X877957Y365292D01*
X878036D01*
X878274Y365213D01*
X878670Y365054D01*
X879145Y364975D01*
X879778Y364817D01*
X880411Y364659D01*
X881994Y364579D01*
X882785D01*
X883656Y364659D01*
X884527Y364817D01*
X884606D01*
X884685Y364896D01*
X885239Y364975D01*
X885951Y365213D01*
X886742Y365529D01*
X886822D01*
X886901Y365608D01*
X887376Y365846D01*
X887930Y366162D01*
X888642Y366637D01*
X888721D01*
X888800Y366796D01*
X889354Y367191D01*
X890067Y367745D01*
X890858Y368458D01*
X890937Y368378D01*
X891096Y368220D01*
X891333Y367983D01*
X891729Y367587D01*
X892204Y367033D01*
X892758Y366479D01*
X893470Y365767D01*
X894261Y364896D01*
X894182Y364738D01*
X893866Y364421D01*
X893312Y363946D01*
X892679Y363313D01*
X891887Y362680D01*
X890937Y361968D01*
X889908Y361334D01*
X888800Y360780D01*
X888642Y360701D01*
X888326Y360543D01*
X887692Y360305D01*
X886901Y360068D01*
X885951Y359831D01*
X884764Y359593D01*
X883577Y359435D01*
X882231Y359356D01*
X881677D01*
X880965Y359435D01*
X880094Y359514D01*
X879145Y359672D01*
X878036Y359831D01*
X876928Y360147D01*
X875820Y360543D01*
X875662Y360622D01*
X875346Y360780D01*
X874791Y361018D01*
X874079Y361414D01*
X873208Y361888D01*
X872338Y362522D01*
X871467Y363234D01*
X870518Y364025D01*
X870438Y364104D01*
X870122Y364421D01*
X869726Y364896D01*
X869251Y365529D01*
X868697Y366241D01*
X868143Y367112D01*
X867589Y368062D01*
X867114Y369091D01*
X867035Y369249D01*
X866956Y369566D01*
X866719Y370199D01*
X866560Y370990D01*
X866323Y371861D01*
X866085Y372969D01*
X866006Y374156D01*
X865927Y375423D01*
Y375502D01*
Y375581D01*
Y375976D01*
X866006Y376689D01*
X866085Y377559D01*
X866244Y378509D01*
X866402Y379617D01*
X866719Y380725D01*
X867114Y381833D01*
X867193Y381992D01*
X867352Y382308D01*
X867668Y382862D01*
X868064Y383574D01*
X868539Y384366D01*
X869172Y385237D01*
X869884Y386186D01*
X870676Y387057D01*
X870755Y387136D01*
X871072Y387453D01*
X871626Y387848D01*
X872259Y388402D01*
X873050Y388956D01*
X874000Y389590D01*
X874950Y390144D01*
X876058Y390619D01*
X876216Y390698D01*
X876612Y390777D01*
X877166Y390935D01*
X878036Y391173D01*
X878986Y391331D01*
X880094Y391489D01*
X881361Y391568D01*
X882627Y391647D01*
X883260D01*
X883972Y391568D01*
D02*
G37*
G36*
X845270Y390777D02*
Y390460D01*
Y389827D01*
Y388956D01*
Y387928D01*
Y386582D01*
Y384999D01*
Y383179D01*
Y381121D01*
Y378826D01*
Y376214D01*
Y373444D01*
Y370436D01*
Y367112D01*
Y363630D01*
Y359831D01*
X839888D01*
Y359910D01*
Y360226D01*
Y360701D01*
Y361334D01*
Y362205D01*
Y363234D01*
Y364500D01*
Y365925D01*
Y367508D01*
Y369328D01*
Y371307D01*
Y373523D01*
Y375897D01*
Y378430D01*
Y381200D01*
Y384049D01*
X839730Y383812D01*
X839492Y383337D01*
X839255Y382783D01*
X838859Y381992D01*
X838384Y381121D01*
X837830Y380013D01*
X837197Y378747D01*
X836485Y377322D01*
X835693Y375660D01*
X834822Y373919D01*
X833794Y371940D01*
X832765Y369882D01*
X831578Y367587D01*
X830390Y365133D01*
X829045Y362522D01*
X826196D01*
X826116Y362601D01*
X826037Y362838D01*
X825800Y363313D01*
X825483Y363867D01*
X825167Y364659D01*
X824692Y365529D01*
X824138Y366637D01*
X823505Y367904D01*
X822792Y369328D01*
X821922Y370990D01*
X821051Y372732D01*
X820101Y374710D01*
X818993Y376768D01*
X817885Y379063D01*
X816698Y381517D01*
X815352Y384129D01*
Y384049D01*
Y383733D01*
Y383258D01*
Y382625D01*
Y381754D01*
Y380725D01*
Y379459D01*
Y378034D01*
Y376451D01*
Y374631D01*
Y372652D01*
Y370436D01*
Y368062D01*
Y365529D01*
Y362759D01*
Y359831D01*
X810050D01*
Y359989D01*
Y360305D01*
Y360939D01*
Y361809D01*
Y362838D01*
Y364184D01*
Y365767D01*
Y367587D01*
Y369645D01*
Y372019D01*
Y374552D01*
Y377322D01*
Y380330D01*
Y383654D01*
Y387136D01*
Y390935D01*
X818281D01*
Y390856D01*
X818439Y390619D01*
X818597Y390223D01*
X818914Y389748D01*
X819231Y389036D01*
X819626Y388165D01*
X820101Y387215D01*
X820655Y386028D01*
X821289Y384762D01*
X822001Y383258D01*
X822713Y381675D01*
X823584Y379934D01*
X824533Y378034D01*
X825483Y375976D01*
X826591Y373760D01*
X827699Y371386D01*
X827778Y371465D01*
X827858Y371703D01*
X828016Y372098D01*
X828333Y372573D01*
X828649Y373285D01*
X829045Y374156D01*
X829520Y375106D01*
X830074Y376293D01*
X830707Y377559D01*
X831419Y378984D01*
X832211Y380646D01*
X833081Y382387D01*
X833952Y384287D01*
X834981Y386345D01*
X836089Y388561D01*
X837197Y390935D01*
X845270D01*
Y390777D01*
D02*
G37*
G36*
X946220Y197970D02*
X936060D01*
Y204320D01*
X946220D01*
Y197970D01*
D02*
G37*
G36*
Y163680D02*
X936060D01*
Y170030D01*
X946220D01*
Y163680D01*
D02*
G37*
G36*
X709771Y390777D02*
X709692Y390460D01*
X709455Y389827D01*
X709059Y388956D01*
X708663Y387928D01*
X708109Y386582D01*
X707476Y384999D01*
X706764Y383179D01*
X705893Y381121D01*
X704943Y378826D01*
X703914Y376214D01*
X702806Y373444D01*
X701540Y370436D01*
X700274Y367112D01*
X698770Y363630D01*
X697266Y359831D01*
X691409D01*
X691330Y359989D01*
X691251Y360305D01*
X690934Y360939D01*
X690618Y361809D01*
X690222Y362838D01*
X689668Y364184D01*
X689035Y365767D01*
X688243Y367587D01*
X687452Y369645D01*
X686502Y372019D01*
X685473Y374552D01*
X684365Y377322D01*
X683099Y380330D01*
X681753Y383654D01*
X680329Y387136D01*
X678825Y390935D01*
X684761D01*
X684840Y390856D01*
X684919Y390539D01*
X685078Y390144D01*
X685394Y389510D01*
X685711Y388640D01*
X686106Y387611D01*
X686581Y386424D01*
X687215Y385078D01*
X687848Y383574D01*
X688560Y381833D01*
X689351Y379934D01*
X690222Y377797D01*
X691172Y375581D01*
X692201Y373127D01*
X693230Y370436D01*
X694417Y367666D01*
X694496Y367745D01*
X694575Y368062D01*
X694733Y368458D01*
X695050Y369091D01*
X695367Y369961D01*
X695762Y370911D01*
X696237Y372098D01*
X696791Y373523D01*
X697424Y375027D01*
X698137Y376768D01*
X698928Y378667D01*
X699799Y380725D01*
X700669Y383021D01*
X701698Y385474D01*
X702806Y388086D01*
X703914Y390935D01*
X709850D01*
X709771Y390777D01*
D02*
G37*
G36*
X859120D02*
Y390460D01*
Y389827D01*
Y388956D01*
Y387928D01*
Y386582D01*
Y384999D01*
Y383179D01*
Y381121D01*
Y378826D01*
Y376214D01*
Y373444D01*
Y370436D01*
Y367112D01*
Y363630D01*
Y359831D01*
X853897D01*
Y359989D01*
Y360305D01*
Y360939D01*
Y361809D01*
Y362838D01*
Y364184D01*
Y365767D01*
Y367587D01*
Y369645D01*
Y372019D01*
Y374552D01*
Y377322D01*
Y380330D01*
Y383654D01*
Y387136D01*
Y390935D01*
X859120D01*
Y390777D01*
D02*
G37*
G36*
X756468Y390856D02*
Y390539D01*
Y389985D01*
Y389273D01*
Y388402D01*
Y387294D01*
Y385949D01*
Y384366D01*
Y382625D01*
Y380725D01*
Y378588D01*
Y376214D01*
Y373681D01*
Y370911D01*
Y367904D01*
Y364738D01*
X770714D01*
Y364659D01*
Y364421D01*
Y364025D01*
Y363471D01*
Y362838D01*
Y361968D01*
Y360939D01*
Y359831D01*
X751244D01*
Y359989D01*
Y360305D01*
Y360939D01*
Y361809D01*
Y362838D01*
Y364184D01*
Y365767D01*
Y367587D01*
Y369645D01*
Y372019D01*
Y374552D01*
Y377322D01*
Y380330D01*
Y383654D01*
Y387136D01*
Y390935D01*
X756468D01*
Y390856D01*
D02*
G37*
G36*
X801818D02*
Y390698D01*
Y390302D01*
Y389827D01*
Y389273D01*
Y388482D01*
Y387611D01*
Y386582D01*
Y385395D01*
Y384129D01*
Y382704D01*
Y381121D01*
Y379380D01*
Y377559D01*
Y375581D01*
Y373444D01*
Y373285D01*
Y372890D01*
X801739Y372257D01*
Y371465D01*
X801581Y370515D01*
X801423Y369566D01*
X801185Y368537D01*
X800869Y367508D01*
X800790Y367429D01*
X800710Y367112D01*
X800473Y366558D01*
X800156Y366004D01*
X799761Y365292D01*
X799286Y364500D01*
X798732Y363788D01*
X798099Y363076D01*
X798019Y362996D01*
X797782Y362759D01*
X797386Y362443D01*
X796832Y362126D01*
X796199Y361651D01*
X795487Y361176D01*
X793825Y360385D01*
X793745D01*
X793429Y360226D01*
X792954Y360068D01*
X792321Y359910D01*
X791529Y359752D01*
X790659Y359593D01*
X789630Y359514D01*
X788601Y359435D01*
X788126D01*
X787572Y359514D01*
X786860Y359593D01*
X786068Y359672D01*
X785198Y359831D01*
X784248Y360068D01*
X783298Y360385D01*
X783219Y360464D01*
X782903Y360543D01*
X782507Y360780D01*
X781874Y361097D01*
X781240Y361493D01*
X780528Y361888D01*
X779024Y363076D01*
X778945Y363155D01*
X778708Y363392D01*
X778391Y363788D01*
X777995Y364342D01*
X777521Y364975D01*
X777125Y365687D01*
X776650Y366558D01*
X776254Y367508D01*
Y367666D01*
X776096Y367983D01*
X776017Y368537D01*
X775858Y369249D01*
X775700Y370120D01*
X775542Y371149D01*
X775463Y372257D01*
X775384Y373444D01*
Y373523D01*
Y373681D01*
Y374077D01*
Y374552D01*
Y375185D01*
Y375897D01*
Y376768D01*
Y377797D01*
Y378984D01*
Y380330D01*
Y381754D01*
Y383258D01*
Y384999D01*
Y386819D01*
Y388798D01*
Y390935D01*
X780686D01*
Y390856D01*
Y390698D01*
Y390302D01*
Y389827D01*
Y389273D01*
Y388482D01*
Y387611D01*
Y386582D01*
Y385474D01*
Y384129D01*
Y382783D01*
Y381200D01*
Y379459D01*
Y377639D01*
Y375739D01*
Y373602D01*
Y373523D01*
Y373285D01*
Y372890D01*
Y372336D01*
X780766Y371782D01*
X780845Y371149D01*
X781161Y369803D01*
Y369724D01*
X781240Y369566D01*
X781399Y369249D01*
X781557Y368853D01*
X782032Y367904D01*
X782744Y367033D01*
X782823Y366954D01*
X782903Y366796D01*
X783140Y366558D01*
X783456Y366321D01*
X784248Y365687D01*
X785277Y365054D01*
X785356D01*
X785514Y364975D01*
X785831Y364896D01*
X786227Y364817D01*
X786702Y364659D01*
X787255Y364579D01*
X788601Y364500D01*
X789234D01*
X789709Y364579D01*
X790738Y364738D01*
X791846Y365054D01*
X791925D01*
X792084Y365213D01*
X792400Y365371D01*
X792717Y365608D01*
X793587Y366162D01*
X794458Y367033D01*
X794537Y367112D01*
X794616Y367270D01*
X794854Y367508D01*
X795012Y367824D01*
X795329Y368220D01*
X795566Y368774D01*
X796041Y369961D01*
Y370041D01*
X796120Y370278D01*
X796199Y370594D01*
X796278Y371069D01*
X796357Y371623D01*
X796436Y372257D01*
X796516Y373681D01*
Y373760D01*
Y373919D01*
Y374314D01*
Y374789D01*
Y375343D01*
Y376135D01*
Y377005D01*
Y378034D01*
Y379142D01*
Y380409D01*
Y381833D01*
Y383416D01*
Y385078D01*
Y386899D01*
Y388877D01*
Y390935D01*
X801818D01*
Y390856D01*
D02*
G37*
%LPC*%
G36*
X625797Y391647D02*
X624926D01*
X624451Y391568D01*
X623897D01*
X622552Y391489D01*
X621048Y391331D01*
X619307Y391014D01*
X617486Y390698D01*
X615666Y390223D01*
X615587D01*
X615429Y390144D01*
X615191Y390065D01*
X614795Y389985D01*
X614400Y389827D01*
X613846Y389669D01*
X612659Y389194D01*
X611234Y388640D01*
X609730Y387928D01*
X608068Y387136D01*
X606485Y386265D01*
X606406Y386186D01*
X606169Y386028D01*
X605773Y385791D01*
X605219Y385395D01*
X604506Y384841D01*
X603794Y384287D01*
X602924Y383574D01*
X602053Y382783D01*
X601024Y381912D01*
X599995Y380884D01*
X598966Y379855D01*
X597937Y378667D01*
X596908Y377401D01*
X595880Y376056D01*
X594930Y374631D01*
X593980Y373127D01*
X593901Y373048D01*
X593743Y372732D01*
X593505Y372336D01*
X593268Y371703D01*
X592872Y370911D01*
X592476Y370041D01*
X592080Y368932D01*
X591606Y367745D01*
X591131Y366479D01*
X590735Y365054D01*
X590339Y363630D01*
X589944Y362047D01*
X589706Y360385D01*
X589469Y358643D01*
X589310Y356823D01*
X589231Y355003D01*
Y354924D01*
Y354765D01*
Y354449D01*
Y354132D01*
X589310Y353657D01*
Y353103D01*
X589389Y351758D01*
X589548Y350175D01*
X589864Y348513D01*
X590181Y346692D01*
X590656Y344872D01*
Y344793D01*
X590735Y344635D01*
X590814Y344397D01*
X590973Y344001D01*
X591052Y343606D01*
X591289Y343052D01*
X591764Y341864D01*
X592318Y340440D01*
X593030Y338936D01*
X593822Y337274D01*
X594692Y335691D01*
X594771Y335612D01*
X594930Y335374D01*
X595167Y334979D01*
X595563Y334425D01*
X596117Y333792D01*
X596671Y333000D01*
X597383Y332209D01*
X598175Y331259D01*
X599045Y330309D01*
X600074Y329280D01*
X601103Y328251D01*
X602290Y327222D01*
X603557Y326193D01*
X604823Y325164D01*
X606248Y324215D01*
X607752Y323265D01*
X607831Y323186D01*
X608147Y323027D01*
X608622Y322790D01*
X609176Y322553D01*
X609968Y322157D01*
X610917Y321761D01*
X611946Y321366D01*
X613133Y320891D01*
X614400Y320416D01*
X615824Y320020D01*
X617328Y319624D01*
X618911Y319228D01*
X620494Y318991D01*
X622235Y318754D01*
X623977Y318595D01*
X625797Y318516D01*
X626747D01*
X627459Y318595D01*
X628330Y318675D01*
X629358Y318754D01*
X630546Y318912D01*
X631812Y319149D01*
X633158Y319387D01*
X634582Y319703D01*
X636086Y320099D01*
X637669Y320495D01*
X639252Y321049D01*
X640835Y321682D01*
X642418Y322394D01*
X644000Y323265D01*
X644080Y323344D01*
X644396Y323502D01*
X644792Y323740D01*
X645346Y324136D01*
X646058Y324610D01*
X646850Y325164D01*
X647720Y325877D01*
X648670Y326589D01*
X649699Y327460D01*
X650728Y328410D01*
X651836Y329438D01*
X652944Y330546D01*
X653973Y331734D01*
X655002Y333000D01*
X656981Y335770D01*
Y335849D01*
X657060Y335928D01*
X657218Y336166D01*
X657376Y336482D01*
X657851Y337353D01*
X658405Y338461D01*
X659118Y339807D01*
X659751Y341390D01*
X660384Y343052D01*
X661017Y344872D01*
Y344951D01*
X661096Y345109D01*
X661175Y345347D01*
X661255Y345743D01*
X661334Y346138D01*
X661492Y346692D01*
X661729Y347959D01*
X661967Y349542D01*
X662204Y351204D01*
X662363Y353103D01*
X662442Y355003D01*
Y355082D01*
Y355478D01*
Y355952D01*
X662363Y356665D01*
X662283Y357535D01*
X662204Y358564D01*
X662046Y359752D01*
X661888Y361018D01*
X661571Y362363D01*
X661255Y363788D01*
X660938Y365292D01*
X660463Y366875D01*
X659909Y368458D01*
X659276Y370041D01*
X658564Y371623D01*
X657693Y373206D01*
X657614Y373285D01*
X657455Y373602D01*
X657218Y373998D01*
X656822Y374552D01*
X656347Y375264D01*
X655793Y376056D01*
X655081Y376926D01*
X654369Y377876D01*
X653498Y378905D01*
X652548Y380013D01*
X651519Y381042D01*
X650411Y382150D01*
X649224Y383258D01*
X647958Y384287D01*
X645188Y386265D01*
X645109D01*
X645029Y386345D01*
X644792Y386503D01*
X644475Y386661D01*
X643605Y387136D01*
X642497Y387690D01*
X641151Y388323D01*
X639568Y389036D01*
X637906Y389669D01*
X636086Y390223D01*
X636007D01*
X635849Y390302D01*
X635611Y390381D01*
X635215Y390460D01*
X634820Y390539D01*
X634266Y390698D01*
X632999Y390935D01*
X631416Y391173D01*
X629675Y391410D01*
X627775Y391568D01*
X625797Y391647D01*
D02*
G37*
%LPD*%
G36*
X608226Y375106D02*
X608306Y375027D01*
X608385Y374789D01*
X608464Y374473D01*
X608622Y373998D01*
X608780Y373523D01*
X609018Y372890D01*
X609176Y372178D01*
X609493Y371386D01*
X609730Y370515D01*
X610126Y369566D01*
X610443Y368458D01*
X610838Y367350D01*
X611234Y366083D01*
X611709Y364738D01*
X612184Y363313D01*
X612659Y361730D01*
X613213Y360147D01*
X613767Y358406D01*
X614400Y356586D01*
X615033Y354686D01*
X615745Y352707D01*
X616378Y350650D01*
X617170Y348513D01*
X617882Y346217D01*
X618674Y343843D01*
X619544Y341390D01*
X620415Y338857D01*
X621286Y336245D01*
X622235Y333475D01*
X623185Y330705D01*
X624135Y327776D01*
X617249D01*
Y327855D01*
X617170Y327935D01*
X617091Y328172D01*
X617012Y328489D01*
X616853Y328964D01*
X616695Y329438D01*
X616458Y330072D01*
X616220Y330705D01*
X615983Y331496D01*
X615666Y332367D01*
X615350Y333396D01*
X615033Y334425D01*
X614637Y335612D01*
X614241Y336799D01*
X613767Y338144D01*
X613292Y339648D01*
X612738Y341152D01*
X612184Y342735D01*
X611630Y344476D01*
X611076Y346297D01*
X610363Y348196D01*
X609730Y350175D01*
X609018Y352233D01*
X608306Y354449D01*
X607514Y356665D01*
X606723Y359039D01*
X605931Y361493D01*
X605061Y364025D01*
X604190Y366716D01*
X603240Y369407D01*
X602290Y372257D01*
X601341Y375185D01*
X608226D01*
Y375106D01*
D02*
G37*
G36*
X616537D02*
X616616Y374868D01*
X616774Y374473D01*
X616932Y373919D01*
X617170Y373206D01*
X617486Y372336D01*
X617803Y371386D01*
X618199Y370199D01*
X618674Y368853D01*
X619149Y367350D01*
X619703Y365687D01*
X620336Y363867D01*
X620969Y361888D01*
X621681Y359752D01*
X622473Y357456D01*
X623264Y355003D01*
X623185Y354844D01*
X623027Y354449D01*
X622789Y353657D01*
X622394Y352628D01*
X621919Y351283D01*
X621365Y349700D01*
X620652Y347800D01*
X619861Y345584D01*
Y345663D01*
X619703Y346059D01*
X619544Y346613D01*
X619228Y347405D01*
X618911Y348513D01*
X618436Y349779D01*
X617961Y351283D01*
X617328Y353024D01*
X616695Y355003D01*
X615983Y357140D01*
X615112Y359593D01*
X614241Y362284D01*
X613213Y365133D01*
X612184Y368220D01*
X610997Y371623D01*
X609809Y375185D01*
X616537D01*
Y375106D01*
D02*
G37*
G36*
X641389Y375027D02*
X641230Y374552D01*
X640993Y373760D01*
X640597Y372652D01*
X640122Y371228D01*
X639568Y369487D01*
X638856Y367429D01*
X638065Y365133D01*
X637194Y362443D01*
X636165Y359435D01*
X635057Y356111D01*
X633870Y352549D01*
X632524Y348592D01*
X631100Y344318D01*
X629596Y339807D01*
X627934Y334899D01*
X627855Y335058D01*
X627696Y335533D01*
X627459Y336324D01*
X627063Y337432D01*
X626509Y338778D01*
X626193Y339648D01*
X625876Y340519D01*
X625559Y341548D01*
X625164Y342577D01*
X624768Y343764D01*
X624293Y344951D01*
X624372Y345109D01*
X624451Y345426D01*
X624689Y345980D01*
X624926Y346851D01*
X625322Y347879D01*
X625718Y349225D01*
X626272Y350729D01*
X626905Y352470D01*
X627538Y354528D01*
X628330Y356744D01*
X629200Y359198D01*
X630071Y361968D01*
X631100Y364896D01*
X632208Y368062D01*
X633316Y371544D01*
X634582Y375185D01*
X641468D01*
X641389Y375027D01*
D02*
G37*
G36*
X650095Y375106D02*
X650016Y375027D01*
X649937Y374789D01*
X649857Y374473D01*
X649699Y373998D01*
X649541Y373523D01*
X649303Y372890D01*
X649066Y372178D01*
X648829Y371386D01*
X648512Y370515D01*
X648195Y369566D01*
X647800Y368458D01*
X647404Y367350D01*
X647008Y366083D01*
X646533Y364738D01*
X646058Y363313D01*
X645583Y361730D01*
X645029Y360147D01*
X644475Y358406D01*
X643842Y356586D01*
X643209Y354686D01*
X642497Y352707D01*
X641784Y350650D01*
X641072Y348513D01*
X640281Y346217D01*
X639489Y343843D01*
X638698Y341390D01*
X637827Y338857D01*
X636956Y336245D01*
X636007Y333475D01*
X635057Y330705D01*
X634107Y327776D01*
X627221D01*
Y327855D01*
X627301Y327935D01*
X627380Y328172D01*
X627459Y328489D01*
X627617Y328964D01*
X627775Y329438D01*
X628013Y330072D01*
X628250Y330705D01*
X628488Y331496D01*
X628804Y332367D01*
X629121Y333396D01*
X629438Y334425D01*
X629833Y335612D01*
X630308Y336799D01*
X630704Y338144D01*
X631179Y339648D01*
X631733Y341152D01*
X632287Y342735D01*
X632841Y344476D01*
X633474Y346297D01*
X634107Y348196D01*
X634740Y350175D01*
X635453Y352233D01*
X636165Y354449D01*
X636956Y356665D01*
X637748Y359039D01*
X638539Y361493D01*
X639410Y364025D01*
X640281Y366716D01*
X641230Y369407D01*
X642180Y372257D01*
X643130Y375185D01*
X650095D01*
Y375106D01*
D02*
G37*
%LPC*%
G36*
X729083Y386899D02*
X727817D01*
X727421Y386819D01*
X726788D01*
X726154Y386661D01*
X725442Y386503D01*
X724730Y386345D01*
X723938Y386028D01*
X723859D01*
X723622Y385870D01*
X723226Y385712D01*
X722751Y385395D01*
X722197Y385078D01*
X721643Y384683D01*
X721010Y384129D01*
X720456Y383574D01*
X720377Y383495D01*
X720219Y383258D01*
X719902Y382941D01*
X719506Y382467D01*
X719110Y381912D01*
X718715Y381279D01*
X718319Y380646D01*
X718002Y379855D01*
Y379776D01*
X717844Y379538D01*
X717765Y379142D01*
X717607Y378588D01*
X717448Y377955D01*
X717369Y377164D01*
X717211Y375502D01*
Y375423D01*
Y375106D01*
X717290Y374631D01*
Y374077D01*
X717369Y373444D01*
X717527Y372732D01*
X718002Y371149D01*
X718082Y371069D01*
X718161Y370832D01*
X718319Y370436D01*
X718636Y369961D01*
X718952Y369407D01*
X719348Y368774D01*
X719902Y368141D01*
X720456Y367508D01*
X720535Y367429D01*
X720772Y367270D01*
X721089Y366954D01*
X721485Y366558D01*
X722039Y366162D01*
X722593Y365767D01*
X723938Y364975D01*
X724018D01*
X724255Y364817D01*
X724651Y364738D01*
X725205Y364579D01*
X725838Y364421D01*
X726550Y364342D01*
X728212Y364184D01*
X728608D01*
X729083Y364263D01*
X729637D01*
X730270Y364342D01*
X730982Y364500D01*
X732486Y364975D01*
X732565Y365054D01*
X732803Y365133D01*
X733198Y365371D01*
X733673Y365608D01*
X734781Y366400D01*
X735969Y367508D01*
X736048Y367587D01*
X736206Y367824D01*
X736523Y368141D01*
X736918Y368616D01*
X737314Y369091D01*
X737710Y369724D01*
X738106Y370436D01*
X738422Y371149D01*
Y371228D01*
X738501Y371544D01*
X738660Y371940D01*
X738818Y372494D01*
X738897Y373127D01*
X739055Y373839D01*
X739135Y375502D01*
Y375581D01*
Y375897D01*
Y376372D01*
X739055Y377005D01*
X738976Y377639D01*
X738818Y378430D01*
X738422Y379934D01*
Y380013D01*
X738264Y380250D01*
X738106Y380646D01*
X737789Y381200D01*
X737472Y381754D01*
X737077Y382308D01*
X736523Y382941D01*
X735969Y383574D01*
X735890Y383654D01*
X735731Y383812D01*
X735335Y384129D01*
X734940Y384524D01*
X734465Y384920D01*
X733832Y385316D01*
X733198Y385712D01*
X732486Y386028D01*
X732407Y386107D01*
X732170Y386186D01*
X731774Y386345D01*
X731220Y386503D01*
X730587Y386661D01*
X729874Y386740D01*
X729083Y386899D01*
D02*
G37*
G36*
X890858Y337195D02*
X890304D01*
X889908Y337116D01*
X889829Y337037D01*
X889592Y336878D01*
X889513Y336799D01*
X889434Y336403D01*
Y336324D01*
Y336166D01*
X889354Y335928D01*
Y335612D01*
Y335533D01*
Y335216D01*
Y334741D01*
Y334108D01*
X891571D01*
Y334187D01*
Y334504D01*
Y334979D01*
Y335533D01*
Y335612D01*
Y335849D01*
Y336166D01*
X891491Y336403D01*
Y336482D01*
X891412Y336562D01*
X891333Y336878D01*
X891254Y336957D01*
X891016Y337116D01*
X890858Y337195D01*
D02*
G37*
%LPD*%
D49*
X62977Y737997D02*
G03*
X62977Y688499I24749J-24749D01*
G01*
X112474D02*
G03*
X112474Y737997I-24749J24749D01*
G01*
X67220Y733754D02*
G03*
X67220Y692742I20506J-20506D01*
G01*
X108232Y692742D02*
G03*
X108232Y733754I-20506J20506D01*
G01*
X71462Y729511D02*
G03*
X71462Y696985I16264J-16264D01*
G01*
X103989Y696984D02*
G03*
X103989Y729511I-16264J16264D01*
G01*
X1376472Y375989D02*
G03*
X1376472Y408516I-16264J16264D01*
G01*
X1343945Y408516D02*
G03*
X1343945Y375989I16264J-16264D01*
G01*
X1380714Y371746D02*
G03*
X1380714Y412758I-20506J20506D01*
G01*
X1339702Y412758D02*
G03*
X1339702Y371746I20506J-20506D01*
G01*
X1384957Y367504D02*
G03*
X1384957Y417001I-24749J24749D01*
G01*
X1335459D02*
G03*
X1335459Y367504I24749J-24749D01*
G01*
X61903Y63179D02*
G03*
X61903Y13681I24749J-24749D01*
G01*
X111401D02*
G03*
X111401Y63179I-24749J24749D01*
G01*
X66146Y58936D02*
G03*
X66146Y17924I20506J-20506D01*
G01*
X107158Y17924D02*
G03*
X107158Y58936I-20506J20506D01*
G01*
X70389Y54694D02*
G03*
X70389Y22167I16264J-16264D01*
G01*
X102915Y22167D02*
G03*
X102915Y54694I-16264J16264D01*
G01*
X1306763Y13030D02*
G03*
X1306763Y13030I-10925J0D01*
G01*
X867601Y14300D02*
G03*
X867601Y14300I-10925J0D01*
G01*
X782511Y13792D02*
G03*
X782511Y13792I-10925J0D01*
G01*
X531559Y14300D02*
G03*
X531559Y14300I-10925J0D01*
G01*
X615379Y13538D02*
G03*
X615379Y13538I-10925J0D01*
G01*
X699199Y13792D02*
G03*
X699199Y13792I-10925J0D01*
G01*
X1206433Y13030D02*
G03*
X1206433Y13030I-10925J0D01*
G01*
X1106465D02*
G03*
X1106465Y13030I-10925J0D01*
G01*
X1337999Y60893D02*
G03*
X1337999Y11395I24749J-24749D01*
G01*
X1387497D02*
G03*
X1387497Y60893I-24749J24749D01*
G01*
X1342242Y56650D02*
G03*
X1342242Y15638I20506J-20506D01*
G01*
X1383254Y15638D02*
G03*
X1383254Y56650I-20506J20506D01*
G01*
X1346485Y52408D02*
G03*
X1346485Y19881I16264J-16264D01*
G01*
X1379012Y19881D02*
G03*
X1379012Y52408I-16264J16264D01*
G01*
X816968Y500638D02*
G03*
X816968Y506988I0J3175D01*
G01*
X664568Y500638D02*
G03*
X664568Y506988I0J3175D01*
G01*
X1275088Y500634D02*
G03*
X1275088Y506984I0J3175D01*
G01*
X1121688Y500638D02*
G03*
X1121688Y506988I0J3175D01*
G01*
X969288Y500638D02*
G03*
X969288Y506988I0J3175D01*
G01*
X512168Y500638D02*
G03*
X512168Y506988I0J3175D01*
G01*
X1120832Y25782D02*
Y95782D01*
X1220832D01*
Y25782D02*
Y95782D01*
X1120832Y25782D02*
X1220832D01*
X1021010D02*
X1121010D01*
Y95782D01*
X1021010D02*
X1121010D01*
X1021010Y25782D02*
Y95782D01*
X1221162Y25782D02*
Y95782D01*
X1321162D01*
Y25782D02*
Y95782D01*
X1221162Y25782D02*
X1321162D01*
X408682Y547380D02*
Y557540D01*
X410714Y548904D02*
Y556270D01*
X413000Y551190D02*
Y555000D01*
X415032Y551444D02*
Y554492D01*
X875980Y27052D02*
Y97052D01*
X800980Y27052D02*
X875980D01*
X800980D02*
Y97052D01*
X875980D01*
X715890Y96544D02*
X790890D01*
X715890Y26544D02*
Y96544D01*
Y26544D02*
X790890D01*
Y96544D01*
X707578Y26544D02*
Y96544D01*
X632578Y26544D02*
X707578D01*
X632578D02*
Y96544D01*
X707578D01*
X62977Y737997D02*
X71462Y729511D01*
X103989D02*
X112474Y737997D01*
X103989Y696985D02*
X112475Y688499D01*
X62977D02*
X71462Y696985D01*
X1335459Y367504D02*
X1343945Y375989D01*
X1376472Y375989D02*
X1384957Y367503D01*
X1376472Y408516D02*
X1384957Y417001D01*
X1335459Y417001D02*
X1343945Y408515D01*
X1252430Y677440D02*
Y747440D01*
X1397430D01*
Y677440D02*
Y747440D01*
X1252430Y677440D02*
X1397430D01*
X61903Y63179D02*
X70388Y54694D01*
X102916D02*
X111401Y63179D01*
X102916Y22167D02*
X111401Y13681D01*
X61903D02*
X70388Y22167D01*
X1277404Y408000D02*
Y429590D01*
X1202728Y407238D02*
Y428828D01*
X1050459Y407238D02*
Y428828D01*
X898436Y407238D02*
Y428828D01*
X746036Y407492D02*
Y429082D01*
X592874Y407238D02*
Y428828D01*
Y407238D02*
X1277658D01*
X208746Y51032D02*
X209000Y51286D01*
X205698Y51032D02*
X208746D01*
X205190Y49000D02*
X209000D01*
X203920Y46714D02*
X211286D01*
X202650Y44682D02*
X212810D01*
X371348Y313004D02*
X371602Y313258D01*
X374650D01*
X371348Y315290D02*
X375158D01*
X369062Y317576D02*
X376428D01*
X367538Y319608D02*
X377698D01*
X299758Y719658D02*
Y729818D01*
X297726Y720928D02*
Y728294D01*
X295440Y722198D02*
Y726008D01*
X293408Y722706D02*
Y725754D01*
X293154Y726008D02*
X293408Y725754D01*
X483146Y720928D02*
Y731088D01*
X481114Y722452D02*
Y729818D01*
X478828Y723722D02*
Y727532D01*
X476796Y724230D02*
Y727278D01*
X476542Y727532D02*
X476796Y727278D01*
X164046Y175000D02*
X191000D01*
X947781Y677440D02*
Y747440D01*
X1092781D01*
Y677440D02*
Y747440D01*
X947781Y677440D02*
X1092781D01*
X1100106Y677440D02*
Y747440D01*
X1245106D01*
Y677440D02*
Y747440D01*
X1100106Y677440D02*
X1245106D01*
X490808D02*
Y747440D01*
X635808D01*
Y677440D02*
Y747440D01*
X490808Y677440D02*
X635808D01*
X643132D02*
Y747440D01*
X788132D01*
Y677440D02*
Y747440D01*
X643132Y677440D02*
X788132D01*
X795457Y677440D02*
Y747440D01*
X940456D01*
Y677440D02*
Y747440D01*
X795457Y677440D02*
X940456D01*
X1338000Y60893D02*
X1346485Y52407D01*
X1379011D02*
X1387496Y60893D01*
X1379012Y19881D02*
X1387497Y11395D01*
X1337999D02*
X1346484Y19881D01*
X816968Y481080D02*
Y500765D01*
Y507115D02*
Y526800D01*
X817222D02*
X867006D01*
X820778Y481080D02*
X867006D01*
Y526800D01*
X816968Y481080D02*
X866968D01*
X664568D02*
X714568D01*
X714606D02*
Y526800D01*
X668378Y481080D02*
X714606D01*
X664822Y526800D02*
X714606D01*
X664568Y507115D02*
Y526800D01*
Y481080D02*
Y500765D01*
X1275088Y481076D02*
X1325088D01*
X1325126D02*
Y526796D01*
X1278898Y481076D02*
X1325126D01*
X1275342Y526796D02*
X1325126D01*
X1275088Y507111D02*
Y526796D01*
Y481076D02*
Y500761D01*
X1121688Y481080D02*
X1171688D01*
X1171726D02*
Y526800D01*
X1125498Y481080D02*
X1171726D01*
X1121942Y526800D02*
X1171726D01*
X1121688Y507115D02*
Y526800D01*
Y481080D02*
Y500765D01*
X969288Y481080D02*
Y500765D01*
Y507115D02*
Y526800D01*
X969542D02*
X1019326D01*
X973098Y481080D02*
X1019326D01*
Y526800D01*
X969288Y481080D02*
X1019288D01*
X512168D02*
Y500765D01*
Y507115D02*
Y526800D01*
X512422D02*
X562206D01*
X515978Y481080D02*
X562206D01*
Y526800D01*
X512168Y481080D02*
X562168D01*
X539938Y27052D02*
Y97052D01*
X464938Y27052D02*
X539938D01*
X464938D02*
Y97052D01*
X539938D01*
X548758Y96290D02*
X623758D01*
X548758Y26290D02*
Y96290D01*
Y26290D02*
X623758D01*
Y96290D01*
X138540Y79629D02*
Y71298D01*
X140206Y69632D01*
X143538D01*
X145204Y71298D01*
Y79629D01*
X155201Y77963D02*
X153535Y79629D01*
X150203D01*
X148537Y77963D01*
Y76297D01*
X150203Y74630D01*
X153535D01*
X155201Y72964D01*
Y71298D01*
X153535Y69632D01*
X150203D01*
X148537Y71298D01*
X158534Y79629D02*
Y69632D01*
X163532D01*
X165198Y71298D01*
Y72964D01*
X163532Y74630D01*
X158534D01*
X163532D01*
X165198Y76297D01*
Y77963D01*
X163532Y79629D01*
X158534D01*
X138540Y51540D02*
Y61537D01*
X143538D01*
X145204Y59871D01*
Y56538D01*
X143538Y54872D01*
X138540D01*
X148537Y61537D02*
Y51540D01*
X151869Y54872D01*
X155201Y51540D01*
Y61537D01*
X158534Y51540D02*
Y61537D01*
X163532D01*
X165198Y59871D01*
Y56538D01*
X163532Y54872D01*
X158534D01*
X161866D02*
X165198Y51540D01*
X1142500Y117497D02*
Y107500D01*
Y112498D01*
X1149165D01*
Y117497D01*
Y107500D01*
X1152497Y117497D02*
Y107500D01*
X1157495D01*
X1159161Y109166D01*
Y110832D01*
X1157495Y112498D01*
X1152497D01*
X1157495D01*
X1159161Y114164D01*
Y115831D01*
X1157495Y117497D01*
X1152497D01*
X1162494Y112498D02*
X1169158D01*
X1172490Y107500D02*
Y117497D01*
X1177489D01*
X1179155Y115831D01*
Y112498D01*
X1177489Y110832D01*
X1172490D01*
X1182487Y117497D02*
Y107500D01*
X1185819Y110832D01*
X1189152Y107500D01*
Y117497D01*
X1192484Y107500D02*
Y117497D01*
X1197482D01*
X1199148Y115831D01*
Y112498D01*
X1197482Y110832D01*
X1192484D01*
X1195816D02*
X1199148Y107500D01*
X1035000D02*
Y117497D01*
X1038332Y114164D01*
X1041665Y117497D01*
Y107500D01*
X1044997D02*
Y114164D01*
X1048329Y117497D01*
X1051661Y114164D01*
Y107500D01*
Y112498D01*
X1044997D01*
X1054994Y117497D02*
X1058326D01*
X1056660D01*
Y107500D01*
X1054994D01*
X1058326D01*
X1063324D02*
Y117497D01*
X1069989Y107500D01*
Y117497D01*
X1073321Y112498D02*
X1079986D01*
X1083318Y107500D02*
Y117497D01*
X1088316D01*
X1089982Y115831D01*
Y112498D01*
X1088316Y110832D01*
X1083318D01*
X1093315Y117497D02*
Y107500D01*
X1096647Y110832D01*
X1099979Y107500D01*
Y117497D01*
X1103311Y107500D02*
Y117497D01*
X1108310D01*
X1109976Y115831D01*
Y112498D01*
X1108310Y110832D01*
X1103311D01*
X1106644D02*
X1109976Y107500D01*
X1245000Y117497D02*
Y107500D01*
Y112498D01*
X1251665D01*
Y117497D01*
Y107500D01*
X1254997Y117497D02*
Y107500D01*
X1259995D01*
X1261661Y109166D01*
Y110832D01*
X1259995Y112498D01*
X1254997D01*
X1259995D01*
X1261661Y114164D01*
Y115831D01*
X1259995Y117497D01*
X1254997D01*
X1264994Y112498D02*
X1271658D01*
X1279989Y117497D02*
X1276656D01*
X1274990Y115831D01*
Y109166D01*
X1276656Y107500D01*
X1279989D01*
X1281655Y109166D01*
Y115831D01*
X1279989Y117497D01*
X1284987D02*
Y109166D01*
X1286653Y107500D01*
X1289986D01*
X1291652Y109166D01*
Y117497D01*
X1294984D02*
X1301648D01*
X1298316D01*
Y107500D01*
X1282722Y426791D02*
X1292879D01*
Y424252D01*
X1282722Y414095D01*
Y411556D01*
X1292879D01*
X1297957Y426791D02*
Y411556D01*
X1305574D01*
X1308114Y414095D01*
Y424252D01*
X1305574Y426791D01*
X1297957D01*
X420332Y305562D02*
X423664D01*
X421998D01*
Y315559D01*
X420332Y313893D01*
X435327Y305562D02*
X428663D01*
X435327Y312227D01*
Y313893D01*
X433661Y315559D01*
X430329D01*
X428663Y313893D01*
X438659Y315559D02*
Y308894D01*
X441992Y305562D01*
X445324Y308894D01*
Y315559D01*
X245933Y318175D02*
X239268D01*
Y308178D01*
X245933D01*
X239268Y313177D02*
X242600D01*
X249265Y318175D02*
X255929Y308178D01*
Y318175D02*
X249265Y308178D01*
X259262D02*
Y318175D01*
X264260D01*
X265926Y316509D01*
Y313177D01*
X264260Y311511D01*
X259262D01*
X269258Y316509D02*
X270924Y318175D01*
X274257D01*
X275923Y316509D01*
Y314843D01*
X274257Y313177D01*
X272591D01*
X274257D01*
X275923Y311511D01*
Y309844D01*
X274257Y308178D01*
X270924D01*
X269258Y309844D01*
X401000Y590000D02*
Y599997D01*
X405998D01*
X407664Y598331D01*
Y594998D01*
X405998Y593332D01*
X401000D01*
X404332D02*
X407664Y590000D01*
X415995D02*
X412663D01*
X410997Y591666D01*
Y594998D01*
X412663Y596665D01*
X415995D01*
X417661Y594998D01*
Y593332D01*
X410997D01*
X420994Y590000D02*
X425992D01*
X427658Y591666D01*
X425992Y593332D01*
X422660D01*
X420994Y594998D01*
X422660Y596665D01*
X427658D01*
X435989Y590000D02*
X432657D01*
X430990Y591666D01*
Y594998D01*
X432657Y596665D01*
X435989D01*
X437655Y594998D01*
Y593332D01*
X430990D01*
X442653Y598331D02*
Y596665D01*
X440987D01*
X444319D01*
X442653D01*
Y591666D01*
X444319Y590000D01*
X544674Y346477D02*
X541342D01*
X543008D01*
Y338146D01*
X541342Y336480D01*
X539676D01*
X538010Y338146D01*
X548007Y346477D02*
X554671D01*
X551339D01*
Y336480D01*
X558004D02*
Y343145D01*
X561336Y346477D01*
X564668Y343145D01*
Y336480D01*
Y341479D01*
X558004D01*
X574665Y344811D02*
X572999Y346477D01*
X569666D01*
X568000Y344811D01*
Y338146D01*
X569666Y336480D01*
X572999D01*
X574665Y338146D01*
Y341479D01*
X571333D01*
X405664Y669997D02*
X399000D01*
Y660000D01*
X405664D01*
X399000Y664998D02*
X402332D01*
X408997Y669997D02*
X415661Y660000D01*
Y669997D02*
X408997Y660000D01*
X418993D02*
Y669997D01*
X423992D01*
X425658Y668331D01*
Y664998D01*
X423992Y663332D01*
X418993D01*
X435655Y660000D02*
X428990D01*
X435655Y666665D01*
Y668331D01*
X433989Y669997D01*
X430657D01*
X428990Y668331D01*
X822000Y427235D02*
X832157D01*
Y424696D01*
X822000Y414539D01*
Y412000D01*
X832157D01*
X847392Y424696D02*
X844853Y427235D01*
X839774D01*
X837235Y424696D01*
Y414539D01*
X839774Y412000D01*
X844853D01*
X847392Y414539D01*
Y419618D01*
X842313D01*
X133896Y659805D02*
X140561Y649808D01*
Y659805D02*
X133896Y649808D01*
X143893Y654807D02*
X150557D01*
X133896Y634659D02*
X140561Y624662D01*
Y634659D02*
X133896Y624662D01*
X143893Y629661D02*
X150557D01*
X147225Y632993D02*
Y626328D01*
X134404Y608497D02*
Y606831D01*
X137736Y603499D01*
X141068Y606831D01*
Y608497D01*
X137736Y603499D02*
Y598500D01*
X144401Y603499D02*
X151065D01*
X134658Y582589D02*
Y580923D01*
X137990Y577591D01*
X141322Y580923D01*
Y582589D01*
X137990Y577591D02*
Y572592D01*
X144655Y577591D02*
X151319D01*
X147987Y580923D02*
Y574258D01*
X527088Y412577D02*
X516931Y427812D01*
Y412577D02*
X527088Y427812D01*
X134658Y557189D02*
X141322D01*
Y555523D01*
X134658Y548858D01*
Y547192D01*
X141322D01*
X144655Y552191D02*
X151319D01*
X134404Y532043D02*
X141068D01*
Y530377D01*
X134404Y523712D01*
Y522046D01*
X141068D01*
X144401Y527045D02*
X151065D01*
X147733Y530377D02*
Y523712D01*
X425000Y146648D02*
X431665D01*
X428332D01*
Y136651D01*
X434997Y146648D02*
X441661Y136651D01*
Y146648D02*
X434997Y136651D01*
X426000Y119535D02*
Y129531D01*
X430998D01*
X432664Y127865D01*
Y124533D01*
X430998Y122867D01*
X426000D01*
X429332D02*
X432664Y119535D01*
X435997Y129531D02*
X442661Y119535D01*
Y129531D02*
X435997Y119535D01*
X300095Y660077D02*
Y650080D01*
X306759D01*
X316756Y660077D02*
X310092D01*
Y650080D01*
X316756D01*
X310092Y655078D02*
X313424D01*
X320089Y660077D02*
Y650080D01*
X325087D01*
X326753Y651746D01*
Y658411D01*
X325087Y660077D01*
X320089D01*
X330085Y650080D02*
X333418D01*
X331751D01*
Y660077D01*
X330085Y658411D01*
X176665Y669997D02*
X170000D01*
Y660000D01*
X176665D01*
X170000Y664998D02*
X173332D01*
X179997Y669997D02*
X186661Y660000D01*
Y669997D02*
X179997Y660000D01*
X189993D02*
Y669997D01*
X194992D01*
X196658Y668331D01*
Y664998D01*
X194992Y663332D01*
X189993D01*
X199990Y660000D02*
X203323D01*
X201656D01*
Y669997D01*
X199990Y668331D01*
X1136993Y426791D02*
X1126837D01*
Y411556D01*
X1136993D01*
X1126837Y419174D02*
X1131915D01*
X1142072Y411556D02*
X1147150D01*
X1144611D01*
Y426791D01*
X1142072Y424252D01*
X988220Y426283D02*
X978064D01*
Y411048D01*
X988220D01*
X978064Y418666D02*
X983142D01*
X993299Y423744D02*
X995838Y426283D01*
X1000916D01*
X1003455Y423744D01*
Y413587D01*
X1000916Y411048D01*
X995838D01*
X993299Y413587D01*
Y423744D01*
X670019Y426791D02*
Y424252D01*
X675098Y419174D01*
X680176Y424252D01*
Y426791D01*
X675098Y419174D02*
Y411556D01*
X227307Y632040D02*
Y642037D01*
X232306D01*
X233972Y640371D01*
Y637038D01*
X232306Y635372D01*
X227307D01*
X243969Y640371D02*
X242303Y642037D01*
X238970D01*
X237304Y640371D01*
Y638704D01*
X238970Y637038D01*
X242303D01*
X243969Y635372D01*
Y633706D01*
X242303Y632040D01*
X238970D01*
X237304Y633706D01*
X247301Y630374D02*
X253965D01*
X262296Y642037D02*
X258964D01*
X257298Y640371D01*
Y633706D01*
X258964Y632040D01*
X262296D01*
X263962Y633706D01*
Y640371D01*
X262296Y642037D01*
X267295Y632040D02*
Y642037D01*
X273959Y632040D01*
Y642037D01*
X439442Y256123D02*
X432778D01*
Y251124D01*
X436110Y252791D01*
X437776D01*
X439442Y251124D01*
Y247792D01*
X437776Y246126D01*
X434444D01*
X432778Y247792D01*
X442775Y256123D02*
Y249458D01*
X446107Y246126D01*
X449439Y249458D01*
Y256123D01*
X431038Y67132D02*
Y76129D01*
X435537D01*
X437036Y74630D01*
Y71631D01*
X435537Y70131D01*
X431038D01*
X440035Y76129D02*
Y67132D01*
X443034Y70131D01*
X446033Y67132D01*
Y76129D01*
X449032Y67132D02*
Y76129D01*
X453531D01*
X455030Y74630D01*
Y71631D01*
X453531Y70131D01*
X449032D01*
X452031D02*
X455030Y67132D01*
X417348Y432659D02*
Y442656D01*
X422347D01*
X424013Y440989D01*
Y437657D01*
X422347Y435991D01*
X417348D01*
X427345Y442656D02*
Y432659D01*
X430677Y435991D01*
X434009Y432659D01*
Y442656D01*
X437342Y432659D02*
Y442656D01*
X442340D01*
X444006Y440989D01*
Y437657D01*
X442340Y435991D01*
X437342D01*
X440674D02*
X444006Y432659D01*
X1204665Y312997D02*
X1198000D01*
Y307998D01*
X1201332Y309664D01*
X1202998D01*
X1204665Y307998D01*
Y304666D01*
X1202998Y303000D01*
X1199666D01*
X1198000Y304666D01*
X1207997Y312997D02*
Y306332D01*
X1211329Y303000D01*
X1214661Y306332D01*
Y312997D01*
X898000Y304000D02*
X901332D01*
X899666D01*
Y313997D01*
X898000Y312331D01*
X912995Y304000D02*
X906331D01*
X912995Y310665D01*
Y312331D01*
X911329Y313997D01*
X907997D01*
X906331Y312331D01*
X916328Y313997D02*
Y307332D01*
X919660Y304000D01*
X922992Y307332D01*
Y313997D01*
X408939Y547380D02*
X419096Y552458D01*
X408939Y557537D01*
X191057Y343230D02*
Y336566D01*
Y339898D01*
X181060D01*
X191057Y333233D02*
X181060D01*
X186058D01*
X187724Y331567D01*
Y328235D01*
X186058Y326569D01*
X181060D01*
Y318238D02*
Y321571D01*
X182726Y323237D01*
X186058D01*
X187724Y321571D01*
Y318238D01*
X186058Y316572D01*
X184392D01*
Y323237D01*
X187724Y313240D02*
X181060D01*
X184392D01*
X186058Y311574D01*
X187724Y309908D01*
Y308242D01*
X181060Y303243D02*
X187724D01*
Y301577D01*
X186058Y299911D01*
X181060D01*
X186058D01*
X187724Y298245D01*
X186058Y296579D01*
X181060D01*
Y293246D02*
Y289914D01*
Y291580D01*
X187724D01*
Y293246D01*
X181060Y284916D02*
Y279917D01*
X182726Y278251D01*
X184392Y279917D01*
Y283249D01*
X186058Y284916D01*
X187724Y283249D01*
Y278251D01*
X189391Y273253D02*
X187724D01*
Y274919D01*
Y271587D01*
Y273253D01*
X182726D01*
X181060Y271587D01*
Y264922D02*
Y261590D01*
X182726Y259924D01*
X186058D01*
X187724Y261590D01*
Y264922D01*
X186058Y266588D01*
X182726D01*
X181060Y264922D01*
X187724Y256591D02*
X181060D01*
X184392D01*
X186058Y254925D01*
X187724Y253259D01*
Y251593D01*
X181060Y246595D02*
Y241596D01*
X182726Y239930D01*
X184392Y241596D01*
Y244928D01*
X186058Y246595D01*
X187724Y244928D01*
Y239930D01*
X144120Y502945D02*
X142454Y504611D01*
X139122D01*
X137456Y502945D01*
Y496280D01*
X139122Y494614D01*
X142454D01*
X144120Y496280D01*
X112056Y504611D02*
Y494614D01*
X117054D01*
X118720Y496280D01*
Y502945D01*
X117054Y504611D01*
X112056D01*
X86910Y499359D02*
X93574D01*
X61256D02*
X67920D01*
X64588Y502691D02*
Y496026D01*
X178907Y496900D02*
Y493568D01*
Y495234D01*
X168910D01*
Y496900D01*
Y493568D01*
Y481905D02*
Y488570D01*
X175574Y481905D01*
X177241D01*
X178907Y483571D01*
Y486903D01*
X177241Y488570D01*
Y471908D02*
X178907Y473574D01*
Y476907D01*
X177241Y478573D01*
X170576D01*
X168910Y476907D01*
Y473574D01*
X170576Y471908D01*
X178907Y451915D02*
Y458579D01*
X168910D01*
Y451915D01*
X173908Y458579D02*
Y455247D01*
X168910Y448582D02*
X175574D01*
Y443584D01*
X173908Y441918D01*
X168910D01*
X175574Y431921D02*
Y436920D01*
X173908Y438586D01*
X170576D01*
X168910Y436920D01*
Y431921D01*
Y426923D02*
Y423591D01*
X170576Y421924D01*
X173908D01*
X175574Y423591D01*
Y426923D01*
X173908Y428589D01*
X170576D01*
X168910Y426923D01*
X178907Y411928D02*
X168910D01*
Y416926D01*
X170576Y418592D01*
X173908D01*
X175574Y416926D01*
Y411928D01*
X168910Y403597D02*
Y406929D01*
X170576Y408595D01*
X173908D01*
X175574Y406929D01*
Y403597D01*
X173908Y401931D01*
X172242D01*
Y408595D01*
X175574Y398599D02*
X168910D01*
X172242D01*
X173908Y396932D01*
X175574Y395266D01*
Y393600D01*
X168910Y388602D02*
Y383603D01*
X170576Y381937D01*
X172242Y383603D01*
Y386936D01*
X173908Y388602D01*
X175574Y386936D01*
Y381937D01*
X175097Y622316D02*
Y628980D01*
X165100D01*
Y622316D01*
X170098Y628980D02*
Y625648D01*
X165100Y618983D02*
X171765D01*
Y613985D01*
X170098Y612319D01*
X165100D01*
X175097Y602322D02*
X165100D01*
Y607321D01*
X166766Y608987D01*
X170098D01*
X171765Y607321D01*
Y602322D01*
X165100Y598990D02*
Y593992D01*
X166766Y592325D01*
X168432Y593992D01*
Y597324D01*
X170098Y598990D01*
X171765Y597324D01*
Y592325D01*
X173431Y587327D02*
X171765D01*
Y588993D01*
Y585661D01*
Y587327D01*
X166766D01*
X165100Y585661D01*
Y578996D02*
Y575664D01*
X166766Y573998D01*
X170098D01*
X171765Y575664D01*
Y578996D01*
X170098Y580662D01*
X166766D01*
X165100Y578996D01*
X161768Y570666D02*
X171765D01*
Y565667D01*
X170098Y564001D01*
X166766D01*
X165100Y565667D01*
Y570666D01*
Y560669D02*
Y555671D01*
X166766Y554004D01*
X168432Y555671D01*
Y559003D01*
X170098Y560669D01*
X171765Y559003D01*
Y554004D01*
X212810Y44939D02*
X207732Y55096D01*
X202653Y44939D01*
X367538Y319351D02*
X372616Y309194D01*
X377695Y319351D01*
X299501Y729818D02*
X289344Y724740D01*
X299501Y719661D01*
X482889Y731342D02*
X472732Y726264D01*
X482889Y721186D01*
X427594Y288803D02*
X434258D01*
X427594Y262955D02*
X434258D01*
X430926Y266287D02*
Y259623D01*
X507746Y309539D02*
Y299542D01*
Y304541D01*
X514411D01*
Y309539D01*
Y299542D01*
X524407Y309539D02*
X517743D01*
Y299542D01*
X524407D01*
X517743Y304541D02*
X521075D01*
X527740Y307873D02*
X529406Y309539D01*
X532738D01*
X534404Y307873D01*
Y301208D01*
X532738Y299542D01*
X529406D01*
X527740Y301208D01*
Y307873D01*
X590296Y309539D02*
Y299542D01*
Y304541D01*
X596960D01*
Y309539D01*
Y299542D01*
X606957Y309539D02*
X600293D01*
Y299542D01*
X606957D01*
X600293Y304541D02*
X603625D01*
X610290Y299542D02*
X613622D01*
X611956D01*
Y309539D01*
X610290Y307873D01*
X659798Y309539D02*
Y299542D01*
X664796D01*
X666462Y301208D01*
Y302875D01*
X664796Y304541D01*
X659798D01*
X664796D01*
X666462Y306207D01*
Y307873D01*
X664796Y309539D01*
X659798D01*
X669795D02*
Y299542D01*
X676459D01*
X684790Y309539D02*
X681458D01*
X679792Y307873D01*
Y301208D01*
X681458Y299542D01*
X684790D01*
X686456Y301208D01*
Y307873D01*
X684790Y309539D01*
X689788D02*
Y299542D01*
X693121Y302875D01*
X696453Y299542D01*
Y309539D01*
X755695Y309285D02*
X749030D01*
Y304287D01*
X752362D01*
X749030D01*
Y299288D01*
X759027D02*
Y305953D01*
X762359Y309285D01*
X765691Y305953D01*
Y299288D01*
Y304287D01*
X759027D01*
X769024Y299288D02*
Y309285D01*
X775688Y299288D01*
Y309285D01*
X785685Y307619D02*
X784019Y309285D01*
X780686D01*
X779020Y307619D01*
Y305953D01*
X780686Y304287D01*
X784019D01*
X785685Y302621D01*
Y300954D01*
X784019Y299288D01*
X780686D01*
X779020Y300954D01*
X806628Y309539D02*
Y299542D01*
Y304541D01*
X813292D01*
Y309539D01*
Y299542D01*
X823289Y309539D02*
X816625D01*
Y299542D01*
X823289D01*
X816625Y304541D02*
X819957D01*
X843283Y309539D02*
X836618D01*
Y304541D01*
X839951D01*
X836618D01*
Y299542D01*
X846615D02*
Y306207D01*
X849947Y309539D01*
X853280Y306207D01*
Y299542D01*
Y304541D01*
X846615D01*
X856612Y299542D02*
Y309539D01*
X863276Y299542D01*
Y309539D01*
X1297216Y396407D02*
Y386410D01*
Y391409D01*
X1303880D01*
Y396407D01*
Y386410D01*
X1307213Y396407D02*
Y386410D01*
X1312211D01*
X1313877Y388076D01*
Y389743D01*
X1312211Y391409D01*
X1307213D01*
X1312211D01*
X1313877Y393075D01*
Y394741D01*
X1312211Y396407D01*
X1307213D01*
X420116Y46416D02*
X426781D01*
X420116Y20569D02*
X426781D01*
X423448Y23901D02*
Y17236D01*
X1015000Y26000D02*
Y29332D01*
Y27666D01*
X1005003D01*
X1006669Y26000D01*
X1015000Y40995D02*
Y34331D01*
X1008335Y40995D01*
X1006669D01*
X1005003Y39329D01*
Y35997D01*
X1006669Y34331D01*
X1005003Y44327D02*
X1011668D01*
X1015000Y47660D01*
X1011668Y50992D01*
X1005003D01*
X1015000Y54324D02*
X1013334D01*
Y55990D01*
X1015000D01*
Y54324D01*
Y62655D02*
X1013334D01*
Y64321D01*
X1015000D01*
Y62655D01*
X1006669Y70985D02*
X1005003Y72652D01*
Y75984D01*
X1006669Y77650D01*
X1008335D01*
X1010002Y75984D01*
Y74318D01*
Y75984D01*
X1011668Y77650D01*
X1013334D01*
X1015000Y75984D01*
Y72652D01*
X1013334Y70985D01*
X1005003Y87647D02*
Y80982D01*
X1010002D01*
X1008335Y84314D01*
Y85981D01*
X1010002Y87647D01*
X1013334D01*
X1015000Y85981D01*
Y82648D01*
X1013334Y80982D01*
X1005003Y90979D02*
X1011668D01*
X1015000Y94311D01*
X1011668Y97643D01*
X1005003D01*
X440436Y204211D02*
X447100D01*
X443768Y207543D02*
Y200878D01*
X440436Y230058D02*
X447100D01*
X130000Y179997D02*
Y171666D01*
X131666Y170000D01*
X134998D01*
X136664Y171666D01*
Y179997D01*
X146661Y178331D02*
X144995Y179997D01*
X141663D01*
X139997Y178331D01*
Y176665D01*
X141663Y174998D01*
X144995D01*
X146661Y173332D01*
Y171666D01*
X144995Y170000D01*
X141663D01*
X139997Y171666D01*
X149994Y179997D02*
Y170000D01*
X154992D01*
X156658Y171666D01*
Y173332D01*
X154992Y174998D01*
X149994D01*
X154992D01*
X156658Y176665D01*
Y178331D01*
X154992Y179997D01*
X149994D01*
X61252Y675889D02*
X67916D01*
X64584Y679221D02*
Y672556D01*
X86906Y675889D02*
X93570D01*
X118716Y679475D02*
X117050Y681141D01*
X113718D01*
X112052Y679475D01*
Y677809D01*
X113718Y676143D01*
X117050D01*
X118716Y674476D01*
Y672810D01*
X117050Y671144D01*
X113718D01*
X112052Y672810D01*
X593924Y631774D02*
Y641771D01*
X600588Y631774D01*
Y641771D01*
X568524D02*
Y635107D01*
X571856Y631774D01*
X575188Y635107D01*
Y641771D01*
X543124D02*
Y631774D01*
X548122D01*
X549788Y633440D01*
Y635107D01*
X548122Y636773D01*
X543124D01*
X548122D01*
X549788Y638439D01*
Y640105D01*
X548122Y641771D01*
X543124D01*
X517724Y631774D02*
Y641771D01*
X522722D01*
X524388Y640105D01*
Y636773D01*
X522722Y635107D01*
X517724D01*
X521056D02*
X524388Y631774D01*
X1238688Y12867D02*
X1252017D01*
X1289488D02*
X1302817D01*
X1296152Y19532D02*
Y6202D01*
X850326Y14137D02*
X863655D01*
X856991Y20801D02*
Y7473D01*
X814004Y15407D02*
X827333D01*
X765236Y13629D02*
X778565D01*
X771900Y20294D02*
Y6964D01*
X728914Y14899D02*
X742243D01*
X514284Y14137D02*
X527613D01*
X520948Y20801D02*
Y7473D01*
X477962Y15407D02*
X491291D01*
X598104Y13375D02*
X611433D01*
X604768Y20040D02*
Y6711D01*
X561782Y14645D02*
X575111D01*
X681924Y13629D02*
X695253D01*
X688588Y20294D02*
Y6964D01*
X645602Y14899D02*
X658931D01*
X1189158Y12867D02*
X1202487D01*
X1195823Y19532D02*
Y6202D01*
X1138358Y12867D02*
X1151687D01*
X1038390D02*
X1051719D01*
X1089190D02*
X1102519D01*
X1095854Y19532D02*
Y6202D01*
X147964Y245277D02*
X154629D01*
X151296D01*
Y235280D01*
X157961Y245277D02*
Y235280D01*
X162959D01*
X164625Y236946D01*
Y238612D01*
X162959Y240279D01*
X157961D01*
X162959D01*
X164625Y241945D01*
Y243611D01*
X162959Y245277D01*
X157961D01*
X147964Y270677D02*
X154629D01*
X151296D01*
Y260680D01*
X157961Y269011D02*
X159627Y270677D01*
X162959D01*
X164625Y269011D01*
Y267345D01*
X162959Y265679D01*
X161293D01*
X162959D01*
X164625Y264013D01*
Y262346D01*
X162959Y260680D01*
X159627D01*
X157961Y262346D01*
X147964Y346877D02*
X154629D01*
X151296D01*
Y336880D01*
X157961Y345211D02*
X159627Y346877D01*
X162959D01*
X164625Y345211D01*
Y338546D01*
X162959Y336880D01*
X159627D01*
X157961Y338546D01*
Y345211D01*
X147964Y321477D02*
X154629D01*
X151296D01*
Y311480D01*
X157961D02*
X161293D01*
X159627D01*
Y321477D01*
X157961Y319811D01*
X147964Y296077D02*
X154629D01*
X151296D01*
Y286080D01*
X164625D02*
X157961D01*
X164625Y292745D01*
Y294411D01*
X162959Y296077D01*
X159627D01*
X157961Y294411D01*
X670307Y631774D02*
Y641771D01*
X675305D01*
X676971Y640105D01*
Y636773D01*
X675305Y635107D01*
X670307D01*
X673639D02*
X676971Y631774D01*
X695707Y641771D02*
Y631774D01*
X700705D01*
X702371Y633440D01*
Y635107D01*
X700705Y636773D01*
X695707D01*
X700705D01*
X702371Y638439D01*
Y640105D01*
X700705Y641771D01*
X695707D01*
X721107D02*
Y635107D01*
X724439Y631774D01*
X727771Y635107D01*
Y641771D01*
X746507Y631774D02*
Y641771D01*
X753171Y631774D01*
Y641771D01*
X822890D02*
Y635107D01*
X826222Y631774D01*
X829555Y635107D01*
Y641771D01*
X854955D02*
X851622D01*
X853288D01*
Y633440D01*
X851622Y631774D01*
X849956D01*
X848290Y633440D01*
X873690Y631774D02*
Y641771D01*
X878689D01*
X880355Y640105D01*
Y636773D01*
X878689Y635107D01*
X873690D01*
X877022D02*
X880355Y631774D01*
X905755Y640105D02*
X904089Y641771D01*
X900756D01*
X899090Y640105D01*
Y633440D01*
X900756Y631774D01*
X904089D01*
X905755Y633440D01*
Y636773D01*
X902422D01*
X975473Y631774D02*
Y641771D01*
X980472D01*
X982138Y640105D01*
Y636772D01*
X980472Y635106D01*
X975473D01*
X978806D02*
X982138Y631774D01*
X1000873Y641771D02*
Y631774D01*
X1005872D01*
X1007538Y633440D01*
Y635106D01*
X1005872Y636772D01*
X1000873D01*
X1005872D01*
X1007538Y638438D01*
Y640105D01*
X1005872Y641771D01*
X1000873D01*
X1026273D02*
Y635106D01*
X1029606Y631774D01*
X1032938Y635106D01*
Y641771D01*
X1051673Y631774D02*
Y641771D01*
X1058338Y631774D01*
Y641771D01*
X1128056Y631774D02*
Y641771D01*
X1133055D01*
X1134721Y640105D01*
Y636772D01*
X1133055Y635106D01*
X1128056D01*
X1131389D02*
X1134721Y631774D01*
X1153456Y641771D02*
Y631774D01*
X1158455D01*
X1160121Y633440D01*
Y635106D01*
X1158455Y636772D01*
X1153456D01*
X1158455D01*
X1160121Y638438D01*
Y640105D01*
X1158455Y641771D01*
X1153456D01*
X1178857D02*
Y635106D01*
X1182189Y631774D01*
X1185521Y635106D01*
Y641771D01*
X1204257Y631774D02*
Y641771D01*
X1210921Y631774D01*
Y641771D01*
X1280640D02*
Y635106D01*
X1283972Y631774D01*
X1287304Y635106D01*
Y641771D01*
X1312704D02*
X1309372D01*
X1311038D01*
Y633440D01*
X1309372Y631774D01*
X1307706D01*
X1306040Y633440D01*
X1331440Y631774D02*
Y641771D01*
X1336438D01*
X1338104Y640105D01*
Y636772D01*
X1336438Y635106D01*
X1331440D01*
X1334772D02*
X1338104Y631774D01*
X1363504Y640105D02*
X1361838Y641771D01*
X1358506D01*
X1356840Y640105D01*
Y633440D01*
X1358506Y631774D01*
X1361838D01*
X1363504Y633440D01*
Y636772D01*
X1360172D01*
D50*
X351982Y108736D02*
Y167736D01*
X292982Y108736D02*
Y167736D01*
X351982D01*
X292982Y108736D02*
X351982D01*
X347600Y415671D02*
Y540671D01*
X222600Y415671D02*
Y540671D01*
Y415671D02*
X347600D01*
X222600Y540671D02*
X347600D01*
X392000Y639500D02*
X452000D01*
X392000Y604500D02*
X452000D01*
X392000D02*
Y639500D01*
X452000Y604500D02*
Y639500D01*
X430784Y60528D02*
X456184D01*
Y9728D02*
Y60528D01*
X430784Y9728D02*
X456184D01*
X430784D02*
Y60528D01*
X407924Y191592D02*
Y242392D01*
Y191592D02*
X433324D01*
Y242392D01*
X407924D02*
X433324D01*
X278008Y646340D02*
Y671740D01*
X227208Y646340D02*
X278008D01*
X227208D02*
Y671740D01*
X278008D01*
X395478Y251028D02*
Y301828D01*
Y251028D02*
X420878D01*
Y301828D01*
X395478D02*
X420878D01*
X729274Y132184D02*
Y157584D01*
X780074D01*
Y132184D02*
Y157584D01*
X729274Y132184D02*
X780074D01*
X815636Y132180D02*
X866436D01*
Y157580D01*
X815636D02*
X866436D01*
X815636Y132180D02*
Y157580D01*
X304466Y675324D02*
Y747324D01*
X122466Y675324D02*
Y747324D01*
Y675324D02*
X304466D01*
X122466Y747324D02*
X304466D01*
X304584D02*
X486584D01*
X304584Y675324D02*
X486584D01*
X304584D02*
Y747324D01*
X486584Y675324D02*
Y747324D01*
X207518Y301828D02*
X385318D01*
X207518Y251028D02*
X385318D01*
Y301828D01*
X207518Y251028D02*
Y301828D01*
X52620Y227660D02*
X103420D01*
X52620Y354660D02*
X103420D01*
Y227660D02*
Y354660D01*
X52620Y227660D02*
Y354660D01*
X449364Y403428D02*
X576364D01*
X449364Y352628D02*
X576364D01*
Y403428D01*
X449364Y352628D02*
Y403428D01*
X349081Y191592D02*
X397764D01*
X321564D02*
X397764D01*
X321564Y242392D02*
X397764D01*
X321564Y191592D02*
Y242392D01*
X397764Y191592D02*
Y242392D01*
X816845Y646252D02*
Y671652D01*
X918445D01*
X816845Y646252D02*
X918445D01*
Y671652D01*
X766200Y645998D02*
Y671398D01*
X664600Y645998D02*
X766200D01*
X664600Y671398D02*
X766200D01*
X664600Y645998D02*
Y671398D01*
X512356Y645998D02*
Y671398D01*
X613956D01*
X512356Y645998D02*
X613956D01*
Y671398D01*
X1375178Y645490D02*
Y670890D01*
X1273578Y645490D02*
X1375178D01*
X1273578Y670890D02*
X1375178D01*
X1273578Y645490D02*
Y670890D01*
X1121334Y645744D02*
Y671144D01*
X1222934D01*
X1121334Y645744D02*
X1222934D01*
Y671144D01*
X1070689Y645998D02*
Y671398D01*
X969089Y645998D02*
X1070689D01*
X969089Y671398D02*
X1070689D01*
X969089Y645998D02*
Y671398D01*
X154220Y465150D02*
Y490550D01*
X52620Y465150D02*
X154220D01*
X52620Y490550D02*
X154220D01*
X52620Y465150D02*
Y490550D01*
Y439750D02*
Y465150D01*
X154220D01*
X52620Y439750D02*
X154220D01*
Y465150D01*
Y414350D02*
Y439750D01*
X52620Y414350D02*
X154220D01*
X52620Y439750D02*
X154220D01*
X52620Y414350D02*
Y439750D01*
Y388950D02*
Y414350D01*
X154220D01*
X52620Y388950D02*
X154220D01*
Y414350D01*
X52616Y540080D02*
X128816D01*
X52616Y514680D02*
Y540080D01*
Y514680D02*
X128816D01*
Y540080D01*
X128816Y540080D02*
Y565480D01*
X52616Y540080D02*
X128816D01*
X52616D02*
Y565480D01*
X128816D01*
X52616Y590880D02*
X128816D01*
X52616Y565480D02*
Y590880D01*
Y565480D02*
X128816D01*
Y590880D01*
Y616280D01*
X52616Y590880D02*
X128816D01*
X52616D02*
Y616280D01*
X128816D01*
X52616Y641680D02*
X128816D01*
X52616Y616280D02*
Y641680D01*
Y616280D02*
X128816D01*
Y641680D01*
Y667080D01*
X52616Y641680D02*
X128816D01*
X52616D02*
Y667080D01*
X128816D01*
X175260Y209880D02*
Y347040D01*
X163830Y358470D02*
X175260Y347040D01*
X163830Y358470D02*
Y503250D01*
X157480Y509600D02*
X163830Y503250D01*
X157480Y509600D02*
Y667080D01*
X113000Y111500D02*
X129000D01*
X137000D02*
X153000D01*
X113000Y88500D02*
X129000D01*
X137000D02*
X153000D01*
X113000D02*
Y111500D01*
X153000Y88500D02*
Y111500D01*
X1110500Y206500D02*
X1173500D01*
Y209500D01*
X1110500Y206500D02*
Y209500D01*
X1173500Y264500D02*
Y267500D01*
X1110500Y264500D02*
Y267500D01*
X1173500D01*
X998000Y153000D02*
Y158000D01*
X918000D02*
X998000D01*
X918000Y153000D02*
Y158000D01*
X998000Y78000D02*
Y83000D01*
X918000Y78000D02*
X998000D01*
X918000D02*
Y83000D01*
X423006Y488962D02*
X473806D01*
X423006Y565162D02*
X473806D01*
Y488962D02*
Y565162D01*
X423006Y488962D02*
Y565162D01*
Y488962D02*
Y537645D01*
X220700Y57100D02*
Y184100D01*
X195300Y57100D02*
X220700D01*
X195300Y184100D02*
X220700D01*
X195300Y57100D02*
Y184100D01*
X933500Y248000D02*
Y280000D01*
X983500Y248000D02*
Y280000D01*
X1159902Y319436D02*
Y347936D01*
X1123152Y319436D02*
X1159902D01*
X1123152Y361436D02*
X1144402D01*
X1123152Y319436D02*
Y361436D01*
X1144402D02*
X1156402D01*
X1159902Y357936D01*
Y347936D02*
Y357936D01*
X134500Y159500D02*
X163000D01*
Y122750D02*
Y159500D01*
X121000Y122750D02*
Y144000D01*
Y122750D02*
X163000D01*
X121000Y144000D02*
Y156000D01*
X124500Y159500D01*
X134500D01*
D56*
X305982Y118736D02*
G03*
X305982Y118736I-3000J0D01*
G01*
X340600Y425670D02*
G03*
X340600Y425670I-3000J0D01*
G01*
D75*
X287482Y96736D02*
G03*
X287482Y96736I-1250J0D01*
G01*
X361850Y411170D02*
G03*
X361850Y411170I-1250J0D01*
G01*
X932200Y236750D02*
G03*
X932200Y236750I-1250J0D01*
G01*
X1163902Y362936D02*
G03*
X1163902Y362936I-1250J0D01*
G01*
X120750Y162250D02*
G03*
X120750Y162250I-1250J0D01*
G01*
X448750Y453000D02*
G03*
X448750Y453000I-1250J0D01*
G01*
D76*
X1074447Y298614D02*
G03*
X1074447Y357607I-9499J29496D01*
G01*
X1055449D02*
G03*
X1055449Y298614I9499J-29496D01*
G01*
X1223911Y225238D02*
G03*
X1223911Y284230I-9499J29496D01*
G01*
X1204913D02*
G03*
X1204913Y225238I9499J-29496D01*
G01*
X563237Y617722D02*
G03*
X563237Y558730I9499J-29496D01*
G01*
X582234D02*
G03*
X582234Y617722I-9499J29496D01*
G01*
X735153Y558730D02*
G03*
X735153Y617722I-9499J29496D01*
G01*
X716155D02*
G03*
X716155Y558730I9499J-29496D01*
G01*
X868063Y617722D02*
G03*
X868063Y558730I9499J-29496D01*
G01*
X887061D02*
G03*
X887061Y617722I-9499J29496D01*
G01*
X1039175Y558730D02*
G03*
X1039175Y617722I-9499J29496D01*
G01*
X1020177D02*
G03*
X1020177Y558730I9499J-29496D01*
G01*
X1172577Y617722D02*
G03*
X1172577Y558730I9499J-29496D01*
G01*
X1191575D02*
G03*
X1191575Y617722I-9499J29496D01*
G01*
X1344721Y558730D02*
G03*
X1344721Y617722I-9499J29496D01*
G01*
X1325723D02*
G03*
X1325723Y558730I9499J-29496D01*
G01*
X1014626Y351499D02*
G03*
X955634Y351499I-29496J-9499D01*
G01*
Y332501D02*
G03*
X1014626Y332501I29496J9499D01*
G01*
X989372Y48499D02*
G03*
X930380Y48499I-29496J-9499D01*
G01*
Y29501D02*
G03*
X989372Y29501I29496J9499D01*
G01*
X1097460Y312616D02*
Y360622D01*
X1080696Y295852D02*
X1097460Y312616D01*
X1032690D02*
X1049454Y295852D01*
X1032690Y312616D02*
Y360622D01*
X1074600D02*
X1097460D01*
Y312616D02*
Y360622D01*
X1080696Y295852D02*
X1097460Y312616D01*
X1074600Y295852D02*
X1080696D01*
X1049454D02*
X1055550D01*
X1032690Y312616D02*
X1049454Y295852D01*
X1032690Y312616D02*
Y360622D01*
X1055550D01*
X1223810Y222222D02*
X1246670D01*
Y270228D01*
X1229906Y286992D02*
X1246670Y270228D01*
X1223810Y286992D02*
X1229906D01*
X1198664D02*
X1204760D01*
X1181900Y270228D02*
X1198664Y286992D01*
X1181900Y222222D02*
Y270228D01*
Y222222D02*
X1204760D01*
X1246670D02*
Y270228D01*
X1229906Y286992D02*
X1246670Y270228D01*
X1181900D02*
X1198664Y286992D01*
X1181900Y222222D02*
Y270228D01*
X540224Y555714D02*
Y603720D01*
X556988Y620484D01*
X588230D02*
X604994Y603720D01*
Y555714D02*
Y603720D01*
X540224Y555714D02*
X563084D01*
X540224D02*
Y603720D01*
X556988Y620484D01*
X563084D01*
X582134D02*
X588230D01*
X604994Y603720D01*
Y555714D02*
Y603720D01*
X582134Y555714D02*
X604994D01*
X735052D02*
X757912D01*
Y603720D01*
X741148Y620484D02*
X757912Y603720D01*
X735052Y620484D02*
X741148D01*
X709906D02*
X716002D01*
X693142Y603720D02*
X709906Y620484D01*
X693142Y555714D02*
Y603720D01*
Y555714D02*
X716002D01*
X757912D02*
Y603720D01*
X741148Y620484D02*
X757912Y603720D01*
X693142D02*
X709906Y620484D01*
X693142Y555714D02*
Y603720D01*
X845050Y555714D02*
Y603720D01*
X861814Y620484D01*
X893056D02*
X909820Y603720D01*
Y555714D02*
Y603720D01*
X845050Y555714D02*
X867910D01*
X845050D02*
Y603720D01*
X861814Y620484D01*
X867910D01*
X886960D02*
X893056D01*
X909820Y603720D01*
Y555714D02*
Y603720D01*
X886960Y555714D02*
X909820D01*
X1039074D02*
X1061934D01*
Y603720D01*
X1045170Y620484D02*
X1061934Y603720D01*
X1039074Y620484D02*
X1045170D01*
X1013928D02*
X1020024D01*
X997164Y603720D02*
X1013928Y620484D01*
X997164Y555714D02*
Y603720D01*
Y555714D02*
X1020024D01*
X1061934D02*
Y603720D01*
X1045170Y620484D02*
X1061934Y603720D01*
X997164D02*
X1013928Y620484D01*
X997164Y555714D02*
Y603720D01*
X1149564Y555714D02*
Y603720D01*
X1166328Y620484D01*
X1197570D02*
X1214334Y603720D01*
Y555714D02*
Y603720D01*
X1149564Y555714D02*
X1172424D01*
X1149564D02*
Y603720D01*
X1166328Y620484D01*
X1172424D01*
X1191474D02*
X1197570D01*
X1214334Y603720D01*
Y555714D02*
Y603720D01*
X1191474Y555714D02*
X1214334D01*
X1344620D02*
X1367480D01*
Y603720D01*
X1350716Y620484D02*
X1367480Y603720D01*
X1344620Y620484D02*
X1350716D01*
X1319474D02*
X1325570D01*
X1302710Y603720D02*
X1319474Y620484D01*
X1302710Y555714D02*
Y603720D01*
Y555714D02*
X1325570D01*
X1367480D02*
Y603720D01*
X1350716Y620484D02*
X1367480Y603720D01*
X1302710D02*
X1319474Y620484D01*
X1302710Y555714D02*
Y603720D01*
X952618Y374512D02*
X1000624D01*
X1017388Y357748D01*
X1000624Y309742D02*
X1017388Y326506D01*
X952618Y309742D02*
X1000624D01*
X952618Y351652D02*
Y374512D01*
X1000624D01*
X1017388Y357748D01*
Y351652D02*
Y357748D01*
Y326506D02*
Y332602D01*
X1000624Y309742D02*
X1017388Y326506D01*
X952618Y309742D02*
X1000624D01*
X952618D02*
Y332602D01*
X992388Y48398D02*
Y71258D01*
X944382D02*
X992388D01*
X927618Y54494D02*
X944382Y71258D01*
X927618Y48398D02*
Y54494D01*
Y23252D02*
Y29348D01*
Y23252D02*
X944382Y6488D01*
X992388D01*
Y29348D01*
X944382Y71258D02*
X992388D01*
X927618Y54494D02*
X944382Y71258D01*
X927618Y23252D02*
X944382Y6488D01*
X992388D01*
D77*
X431541Y373710D02*
G03*
X427477Y373710I-2032J4064D01*
G01*
X1249018Y633192D02*
X1270608D01*
X1249018Y432532D02*
X1393798D01*
X1371954Y633192D02*
X1393798D01*
Y432532D02*
Y633192D01*
X1249018Y432532D02*
Y633192D01*
X424937Y367868D02*
X427477Y373710D01*
X423667Y368630D02*
X424937Y367868D01*
X420619Y366598D02*
X423667Y368630D01*
X418333Y368884D02*
X420619Y366598D01*
X418333Y368884D02*
X420365Y372186D01*
X419095Y375488D02*
X420365Y372186D01*
X415285Y376250D02*
X419095Y375488D01*
X415285Y376250D02*
Y379552D01*
X419095Y380060D01*
X420619Y383362D01*
X418333Y386664D02*
X420619Y383362D01*
X418333Y386664D02*
X420619Y388950D01*
X423921Y386664D01*
X426969Y387934D01*
X427731Y391998D01*
X431033D01*
X431795Y387934D01*
X434843Y386664D01*
X438399Y388950D01*
X440685Y386664D01*
X438399Y383362D02*
X440685Y386664D01*
X438399Y383362D02*
X439669Y380314D01*
X443479Y379552D01*
Y376250D02*
Y379552D01*
X439923Y375488D02*
X443479Y376250D01*
X438399Y372186D02*
X439923Y375488D01*
X438399Y372186D02*
X440685Y368884D01*
X438399Y366598D02*
X440685Y368884D01*
X435351Y368630D02*
X438399Y366598D01*
X433827Y367868D02*
X435351Y368630D01*
X431541Y373710D02*
X433827Y367868D01*
X638685Y432532D02*
Y633192D01*
X783465Y432532D02*
Y633192D01*
X761621D02*
X783465D01*
X638685Y432532D02*
X783465D01*
X638685Y633192D02*
X660275D01*
X943851Y633192D02*
X965441D01*
X943851Y432532D02*
X1088631D01*
X1066787Y633192D02*
X1088631D01*
Y432532D02*
Y633192D01*
X943851Y432532D02*
Y633192D01*
X1096434Y432532D02*
Y633192D01*
X1241215Y432532D02*
Y633192D01*
X1219370D02*
X1241215D01*
X1096434Y432532D02*
X1241215D01*
X1096434Y633192D02*
X1118025D01*
X486102Y633192D02*
X507692D01*
X486102Y432532D02*
X630882D01*
X609038Y633192D02*
X630882D01*
Y432532D02*
Y633192D01*
X486102Y432532D02*
Y633192D01*
X791268Y432532D02*
Y633192D01*
X936048Y432532D02*
Y633192D01*
X914204D02*
X936048D01*
X791268Y432532D02*
X936048D01*
X791268Y633192D02*
X812858D01*
D78*
X1270608Y432786D02*
Y633192D01*
X1371954Y432532D02*
Y633192D01*
X761621Y432532D02*
Y633192D01*
X660275Y432786D02*
Y633192D01*
X965441Y432786D02*
Y633192D01*
X1066787Y432532D02*
Y633192D01*
X1219370Y432532D02*
Y633192D01*
X1118025Y432786D02*
Y633192D01*
X507692Y432786D02*
Y633192D01*
X609038Y432532D02*
Y633192D01*
X914204Y432532D02*
Y633192D01*
X812858Y432786D02*
Y633192D01*
D79*
X896904Y230998D02*
X909096D01*
X896250Y231652D02*
X896904Y230998D01*
X896250Y231652D02*
Y243250D01*
X909750Y231652D02*
Y243000D01*
X909096Y230998D02*
X909750Y231652D01*
X909096Y263002D02*
X909750Y262348D01*
Y251000D02*
Y262348D01*
X896250Y251000D02*
Y262348D01*
X896904Y263002D01*
X909096D01*
X898260Y298510D02*
X907740D01*
X897760Y298510D02*
X899500Y300250D01*
X906500D01*
X896250Y268000D02*
Y279000D01*
X909750Y268000D02*
Y279000D01*
X896250Y268000D02*
X909750D01*
X896250Y288000D02*
Y297000D01*
X909750Y288000D02*
Y297000D01*
X907450Y299300D02*
X909750Y297000D01*
X906500Y300250D02*
X908000Y298750D01*
X898550Y299300D02*
X907450D01*
X896250Y297000D02*
X898550Y299300D01*
X1044698Y288990D02*
X1055198D01*
X1049948Y283990D02*
Y293990D01*
X1229412Y288854D02*
Y298854D01*
X1224162Y293854D02*
X1234662D01*
X582485Y627346D02*
X592986D01*
X587735Y622346D02*
Y632346D01*
X740654Y622346D02*
Y632346D01*
X735403Y627346D02*
X745904D01*
X887311D02*
X897812D01*
X892561Y622346D02*
Y632346D01*
X1044676Y622346D02*
Y632346D01*
X1039425Y627346D02*
X1049926D01*
X1191825D02*
X1202326D01*
X1197076Y622346D02*
Y632346D01*
X1350222Y622346D02*
Y632346D01*
X1344971Y627346D02*
X1355472D01*
X1024250Y321750D02*
Y332251D01*
X1019250Y327000D02*
X1029250D01*
X915756Y54000D02*
X925756D01*
X920756Y48750D02*
Y59250D01*
X140764Y216080D02*
Y229080D01*
X109764Y216080D02*
Y229080D01*
Y216080D02*
X140764D01*
X109764Y229080D02*
X140764D01*
Y246560D02*
Y259560D01*
X109764Y246560D02*
Y259560D01*
Y246560D02*
X140764D01*
X109764Y259560D02*
X140764D01*
Y277040D02*
Y290040D01*
X109764Y277040D02*
Y290040D01*
Y277040D02*
X140764D01*
X109764Y290040D02*
X140764D01*
Y307520D02*
Y320520D01*
X109764Y307520D02*
Y320520D01*
Y307520D02*
X140764D01*
X109764Y320520D02*
X140764D01*
Y338000D02*
Y351000D01*
X109764Y338000D02*
Y351000D01*
Y338000D02*
X140764D01*
X109764Y351000D02*
X140764D01*
X271500Y609500D02*
X302500D01*
X271500Y622500D02*
X302500D01*
Y609500D02*
Y622500D01*
X271500Y609500D02*
Y622500D01*
X930500Y209500D02*
X961500D01*
X930500Y222500D02*
X961500D01*
Y209500D02*
Y222500D01*
X930500Y209500D02*
Y222500D01*
X911904Y300002D02*
X924096D01*
X911250Y299348D02*
X911904Y300002D01*
X911250Y288000D02*
Y299348D01*
X924750Y288000D02*
Y299348D01*
X924096Y300002D02*
X924750Y299348D01*
X924096Y267998D02*
X924750Y268652D01*
Y280000D01*
X911250Y268652D02*
Y280250D01*
Y268652D02*
X911904Y267998D01*
X924096D01*
X820928Y260426D02*
X833120D01*
X820274Y261080D02*
X820928Y260426D01*
X820274Y261080D02*
Y272678D01*
X833774Y261080D02*
Y272428D01*
X833120Y260426D02*
X833774Y261080D01*
X833120Y292430D02*
X833774Y291776D01*
Y280428D02*
Y291776D01*
X820274Y280428D02*
Y291776D01*
X820928Y292430D01*
X833120D01*
X835914D02*
X848106D01*
X848760Y291776D01*
Y280178D02*
Y291776D01*
X835260Y280428D02*
Y291776D01*
X835914Y292430D01*
X835260Y261080D02*
X835914Y260426D01*
X835260Y261080D02*
Y272428D01*
X848760Y261080D02*
Y272428D01*
X848106Y260426D02*
X848760Y261080D01*
X835914Y260426D02*
X848106D01*
X806196D02*
X818388D01*
X805542Y261080D02*
X806196Y260426D01*
X805542Y261080D02*
Y272678D01*
X819042Y261080D02*
Y272428D01*
X818388Y260426D02*
X819042Y261080D01*
X818388Y292430D02*
X819042Y291776D01*
Y280428D02*
Y291776D01*
X805542Y280428D02*
Y291776D01*
X806196Y292430D01*
X818388D01*
X757427D02*
X769619D01*
X770273Y291776D01*
Y280178D02*
Y291776D01*
X756773Y280428D02*
Y291776D01*
X757427Y292430D01*
X756773Y261080D02*
X757427Y260426D01*
X756773Y261080D02*
Y272428D01*
X770273Y261080D02*
Y272428D01*
X769619Y260426D02*
X770273Y261080D01*
X757427Y260426D02*
X769619D01*
X740918D02*
X753110D01*
X740263Y261080D02*
X740918Y260426D01*
X740263Y261080D02*
Y272678D01*
X753763Y261080D02*
Y272428D01*
X753110Y260426D02*
X753763Y261080D01*
X753110Y292430D02*
X753763Y291776D01*
Y280428D02*
Y291776D01*
X740263Y280428D02*
Y291776D01*
X740918Y292430D01*
X753110D01*
X724408Y260426D02*
X736600D01*
X723754Y261080D02*
X724408Y260426D01*
X723754Y261080D02*
Y272678D01*
X737254Y261080D02*
Y272428D01*
X736600Y260426D02*
X737254Y261080D01*
X736600Y292430D02*
X737254Y291776D01*
Y280428D02*
Y291776D01*
X723754Y280428D02*
Y291776D01*
X724408Y292430D01*
X736600D01*
X667762D02*
X679954D01*
X680608Y291776D01*
Y280178D02*
Y291776D01*
X667108Y280428D02*
Y291776D01*
X667762Y292430D01*
X667108Y261080D02*
X667762Y260426D01*
X667108Y261080D02*
Y272428D01*
X680608Y261080D02*
Y272428D01*
X679954Y260426D02*
X680608Y261080D01*
X667762Y260426D02*
X679954D01*
X651253D02*
X663445D01*
X650599Y261080D02*
X651253Y260426D01*
X650599Y261080D02*
Y272678D01*
X664099Y261080D02*
Y272428D01*
X663445Y260426D02*
X664099Y261080D01*
X663445Y292430D02*
X664099Y291776D01*
Y280428D02*
Y291776D01*
X650599Y280428D02*
Y291776D01*
X651253Y292430D01*
X663445D01*
X634743Y260426D02*
X646936D01*
X634090Y261080D02*
X634743Y260426D01*
X634090Y261080D02*
Y272678D01*
X647589Y261080D02*
Y272428D01*
X646936Y260426D02*
X647589Y261080D01*
X646936Y292430D02*
X647589Y291776D01*
Y280428D02*
Y291776D01*
X634090Y280428D02*
Y291776D01*
X634743Y292430D01*
X646936D01*
X584194D02*
X596386D01*
X597040Y291776D01*
Y280178D02*
Y291776D01*
X583540Y280428D02*
Y291776D01*
X584194Y292430D01*
X583540Y261080D02*
X584194Y260426D01*
X583540Y261080D02*
Y272428D01*
X597040Y261080D02*
Y272428D01*
X596386Y260426D02*
X597040Y261080D01*
X584194Y260426D02*
X596386D01*
X567684D02*
X579876D01*
X567031Y261080D02*
X567684Y260426D01*
X567031Y261080D02*
Y272679D01*
X580530Y261080D02*
Y272428D01*
X579876Y260426D02*
X580530Y261080D01*
X579876Y292430D02*
X580530Y291776D01*
Y280428D02*
Y291776D01*
X567031Y280428D02*
Y291776D01*
X567684Y292430D01*
X579876D01*
X551175Y260426D02*
X563367D01*
X550521Y261080D02*
X551175Y260426D01*
X550521Y261080D02*
Y272678D01*
X564021Y261080D02*
Y272428D01*
X563367Y260426D02*
X564021Y261080D01*
X563367Y292430D02*
X564021Y291776D01*
Y280428D02*
Y291776D01*
X550521Y280428D02*
Y291776D01*
X551175Y292430D01*
X563367D01*
X504435Y292430D02*
X516627D01*
X517281Y291776D01*
Y280179D02*
Y291776D01*
X503781Y280428D02*
Y291776D01*
X504435Y292430D01*
X503781Y261080D02*
X504435Y260426D01*
X503781Y261080D02*
Y272428D01*
X517281Y261080D02*
Y272428D01*
X516627Y260426D02*
X517281Y261080D01*
X504435Y260426D02*
X516627D01*
X487926Y260426D02*
X500118D01*
X487272Y261080D02*
X487926Y260426D01*
X487272Y261080D02*
Y272679D01*
X500772Y261080D02*
Y272428D01*
X500118Y260426D02*
X500772Y261080D01*
X500118Y292430D02*
X500772Y291776D01*
Y280428D02*
Y291776D01*
X487272Y280428D02*
Y291776D01*
X487926Y292430D01*
X500118D01*
X471416Y260426D02*
X483608D01*
X470762Y261080D02*
X471416Y260426D01*
X470762Y261080D02*
Y272679D01*
X484262Y261080D02*
Y272428D01*
X483608Y260426D02*
X484262Y261080D01*
X483608Y292430D02*
X484262Y291776D01*
Y280428D02*
Y291776D01*
X470762Y280428D02*
Y291776D01*
X471416Y292430D01*
X483608D01*
X911904Y230998D02*
X924096D01*
X924750Y231652D01*
Y243000D01*
X911250Y231652D02*
Y243000D01*
Y231652D02*
X911904Y230998D01*
X911250Y262348D02*
X911904Y263002D01*
X911250Y251000D02*
Y262348D01*
X924750Y250750D02*
Y262348D01*
X924096Y263002D02*
X924750Y262348D01*
X911904Y263002D02*
X924096D01*
X1116390Y291408D02*
Y322408D01*
X1103390Y291408D02*
Y322408D01*
X1116390D01*
X1103390Y291408D02*
X1116390D01*
X354706Y386816D02*
X385706D01*
X354706Y399816D02*
X385706D01*
Y386816D02*
Y399816D01*
X354706Y386816D02*
Y399816D01*
X182500Y469500D02*
Y500500D01*
X195500Y469500D02*
Y500500D01*
X182500Y469500D02*
X195500D01*
X182500Y500500D02*
X195500D01*
X389500Y445500D02*
Y476500D01*
X376500Y445500D02*
Y476500D01*
X389500D01*
X376500Y445500D02*
X389500D01*
X232500Y373500D02*
X263500D01*
X232500Y386500D02*
X263500D01*
Y373500D02*
Y386500D01*
X232500Y373500D02*
Y386500D01*
X339500Y601500D02*
X370500D01*
X339500Y588500D02*
X370500D01*
X339500D02*
Y601500D01*
X370500Y588500D02*
Y601500D01*
X175500Y126500D02*
Y157500D01*
X188500Y126500D02*
Y157500D01*
X175500Y126500D02*
X188500D01*
X175500Y157500D02*
X188500D01*
X229376Y151583D02*
X260376D01*
X229376Y164582D02*
X260376D01*
Y151583D02*
Y164582D01*
X229376Y151583D02*
Y164582D01*
X319060Y81760D02*
X350060D01*
X319060Y68760D02*
X350060D01*
X319060D02*
Y81760D01*
X350060Y68760D02*
Y81760D01*
X249056Y66662D02*
X280056D01*
X249056Y53663D02*
X280056D01*
X249056D02*
Y66662D01*
X280056Y53663D02*
Y66662D01*
X319056Y53663D02*
X350056D01*
X319056Y66662D02*
X350056D01*
Y53663D02*
Y66662D01*
X319056Y53663D02*
Y66662D01*
X390392Y168956D02*
X421392D01*
X390392Y181956D02*
X421392D01*
Y168956D02*
Y181956D01*
X390392Y168956D02*
Y181956D01*
X1165382Y324936D02*
Y355936D01*
X1178382Y324936D02*
Y355936D01*
X1165382Y324936D02*
X1178382D01*
X1165382Y355936D02*
X1178382D01*
X311500Y622500D02*
X342500D01*
X311500Y609500D02*
X342500D01*
X311500D02*
Y622500D01*
X342500Y609500D02*
Y622500D01*
X323002Y624904D02*
Y637096D01*
X322348Y624250D02*
X323002Y624904D01*
X310750Y624250D02*
X322348D01*
X311000Y637750D02*
X322348D01*
X323002Y637096D01*
X290998D02*
X291652Y637750D01*
X303000D01*
X291652Y624250D02*
X303000D01*
X290998Y624904D02*
X291652Y624250D01*
X290998Y624904D02*
Y637096D01*
X240498Y232904D02*
Y245096D01*
X241152Y245750D01*
X252750D01*
X241152Y232250D02*
X252500D01*
X240498Y232904D02*
X241152Y232250D01*
X271848D02*
X272502Y232904D01*
X260500Y232250D02*
X271848D01*
X260500Y245750D02*
X271848D01*
X272502Y245096D01*
Y232904D02*
Y245096D01*
X175904Y116002D02*
X188096D01*
X188750Y115348D01*
Y103750D02*
Y115348D01*
X175250Y104000D02*
Y115348D01*
X175904Y116002D01*
X175250Y84652D02*
X175904Y83998D01*
X175250Y84652D02*
Y96000D01*
X188750Y84652D02*
Y96000D01*
X188096Y83998D02*
X188750Y84652D01*
X175904Y83998D02*
X188096D01*
X1181138Y324434D02*
X1193330D01*
X1180484Y325088D02*
X1181138Y324434D01*
X1180484Y325088D02*
Y336686D01*
X1193984Y325088D02*
Y336436D01*
X1193330Y324434D02*
X1193984Y325088D01*
X1193330Y356438D02*
X1193984Y355784D01*
Y344436D02*
Y355784D01*
X1180484Y344436D02*
Y355784D01*
X1181138Y356438D01*
X1193330D01*
X1104302Y358470D02*
X1116494D01*
X1117148Y357816D01*
Y346218D02*
Y357816D01*
X1103648Y346468D02*
Y357816D01*
X1104302Y358470D01*
X1103648Y327120D02*
X1104302Y326466D01*
X1103648Y327120D02*
Y338468D01*
X1117148Y327120D02*
Y338468D01*
X1116494Y326466D02*
X1117148Y327120D01*
X1104302Y326466D02*
X1116494D01*
X228980Y114858D02*
Y127050D01*
X229634Y127704D01*
X241232D01*
X229634Y114204D02*
X240982D01*
X228980Y114858D02*
X229634Y114204D01*
X260330D02*
X260984Y114858D01*
X248982Y114204D02*
X260330D01*
X248982Y127704D02*
X260330D01*
X260984Y127050D01*
Y114858D02*
Y127050D01*
X228980Y133317D02*
Y145509D01*
X229634Y146164D01*
X241232D01*
X229634Y132663D02*
X240982D01*
X228980Y133317D02*
X229634Y132663D01*
X260330D02*
X260984Y133317D01*
X248982Y132663D02*
X260330D01*
X248982Y146164D02*
X260330D01*
X260984Y145509D01*
Y133317D02*
Y145509D01*
X338998Y573904D02*
Y586096D01*
X339652Y586750D01*
X351250D01*
X339652Y573250D02*
X351000D01*
X338998Y573904D02*
X339652Y573250D01*
X370348D02*
X371002Y573904D01*
X359000Y573250D02*
X370348D01*
X359000Y586750D02*
X370348D01*
X371002Y586096D01*
Y573904D02*
Y586096D01*
X306502Y212404D02*
Y224596D01*
X305848Y211750D02*
X306502Y212404D01*
X294250Y211750D02*
X305848D01*
X294500Y225250D02*
X305848D01*
X306502Y224596D01*
X274498D02*
X275152Y225250D01*
X286500D01*
X275152Y211750D02*
X286500D01*
X274498Y212404D02*
X275152Y211750D01*
X274498Y212404D02*
Y224596D01*
X339998Y632904D02*
Y645096D01*
X340652Y645750D01*
X352250D01*
X340652Y632250D02*
X352000D01*
X339998Y632904D02*
X340652Y632250D01*
X371348D02*
X372002Y632904D01*
X360000Y632250D02*
X371348D01*
X360000Y645750D02*
X371348D01*
X372002Y645096D01*
Y632904D02*
Y645096D01*
X421894Y152411D02*
Y164603D01*
X421240Y151756D02*
X421894Y152411D01*
X409642Y151756D02*
X421240D01*
X409892Y165257D02*
X421240D01*
X421894Y164603D01*
X389890D02*
X390544Y165257D01*
X401892D01*
X390544Y151756D02*
X401892D01*
X389890Y152411D02*
X390544Y151756D01*
X389890Y152411D02*
Y164603D01*
X421838Y83612D02*
Y95804D01*
X421184Y82958D02*
X421838Y83612D01*
X409586Y82958D02*
X421184D01*
X409836Y96458D02*
X421184D01*
X421838Y95804D01*
X389834D02*
X390488Y96458D01*
X401836D01*
X390488Y82958D02*
X401836D01*
X389834Y83612D02*
X390488Y82958D01*
X389834Y83612D02*
Y95804D01*
X421838Y100812D02*
Y113004D01*
X421184Y100158D02*
X421838Y100812D01*
X409586Y100158D02*
X421184D01*
X409836Y113658D02*
X421184D01*
X421838Y113004D01*
X389834D02*
X390488Y113658D01*
X401836D01*
X390488Y100158D02*
X401836D01*
X389834Y100812D02*
X390488Y100158D01*
X389834Y100812D02*
Y113004D01*
X421838Y49212D02*
Y61405D01*
X421184Y48559D02*
X421838Y49212D01*
X409586Y48559D02*
X421184D01*
X409836Y62058D02*
X421184D01*
X421838Y61405D01*
X389834D02*
X390488Y62058D01*
X401836D01*
X390488Y48559D02*
X401836D01*
X389834Y49212D02*
X390488Y48559D01*
X389834Y49212D02*
Y61405D01*
X421838Y66412D02*
Y78604D01*
X421184Y65758D02*
X421838Y66412D01*
X409586Y65758D02*
X421184D01*
X409836Y79258D02*
X421184D01*
X421838Y78604D01*
X389834D02*
X390488Y79258D01*
X401836D01*
X390488Y65758D02*
X401836D01*
X389834Y66412D02*
X390488Y65758D01*
X389834Y66412D02*
Y78604D01*
X593558Y460980D02*
Y473172D01*
X592904Y460326D02*
X593558Y460980D01*
X581306Y460326D02*
X592904D01*
X581556Y473826D02*
X592904D01*
X593558Y473172D01*
X561554D02*
X562208Y473826D01*
X573556D01*
X562208Y460326D02*
X573556D01*
X561554Y460980D02*
X562208Y460326D01*
X561554Y460980D02*
Y473172D01*
X566634Y487142D02*
X578826D01*
X565980Y487796D02*
X566634Y487142D01*
X565980Y487796D02*
Y499394D01*
X579480Y487796D02*
Y499144D01*
X578826Y487142D02*
X579480Y487796D01*
X578826Y519146D02*
X579480Y518492D01*
Y507144D02*
Y518492D01*
X565980Y507144D02*
Y518492D01*
X566634Y519146D01*
X578826D01*
X746212Y460980D02*
Y473172D01*
X745558Y460326D02*
X746212Y460980D01*
X733960Y460326D02*
X745558D01*
X734210Y473826D02*
X745558D01*
X746212Y473172D01*
X714208D02*
X714862Y473826D01*
X726210D01*
X714862Y460326D02*
X726210D01*
X714208Y460980D02*
X714862Y460326D01*
X714208Y460980D02*
Y473172D01*
X720050Y486380D02*
X732242D01*
X719396Y487034D02*
X720050Y486380D01*
X719396Y487034D02*
Y498632D01*
X732896Y487034D02*
Y498382D01*
X732242Y486380D02*
X732896Y487034D01*
X732242Y518384D02*
X732896Y517730D01*
Y506382D02*
Y517730D01*
X719396Y506382D02*
Y517730D01*
X720050Y518384D01*
X732242D01*
X896580Y459964D02*
Y472156D01*
X895926Y459310D02*
X896580Y459964D01*
X884328Y459310D02*
X895926D01*
X884578Y472810D02*
X895926D01*
X896580Y472156D01*
X864576D02*
X865230Y472810D01*
X876578D01*
X865230Y459310D02*
X876578D01*
X864576Y459964D02*
X865230Y459310D01*
X864576Y459964D02*
Y472156D01*
X871688Y486380D02*
X883880D01*
X871034Y487034D02*
X871688Y486380D01*
X871034Y487034D02*
Y498632D01*
X884534Y487034D02*
Y498382D01*
X883880Y486380D02*
X884534Y487034D01*
X883880Y518384D02*
X884534Y517730D01*
Y506382D02*
Y517730D01*
X871034Y506382D02*
Y517730D01*
X871688Y518384D01*
X883880D01*
X1048726Y459710D02*
Y471902D01*
X1048072Y459056D02*
X1048726Y459710D01*
X1036474Y459056D02*
X1048072D01*
X1036724Y472556D02*
X1048072D01*
X1048726Y471902D01*
X1016722D02*
X1017376Y472556D01*
X1028724D01*
X1017376Y459056D02*
X1028724D01*
X1016722Y459710D02*
X1017376Y459056D01*
X1016722Y459710D02*
Y471902D01*
X1023834Y486380D02*
X1036026D01*
X1023180Y487034D02*
X1023834Y486380D01*
X1023180Y487034D02*
Y498632D01*
X1036680Y487034D02*
Y498382D01*
X1036026Y486380D02*
X1036680Y487034D01*
X1036026Y518384D02*
X1036680Y517730D01*
Y506382D02*
Y517730D01*
X1023180Y506382D02*
Y517730D01*
X1023834Y518384D01*
X1036026D01*
X1200618Y460218D02*
Y472410D01*
X1199964Y459564D02*
X1200618Y460218D01*
X1188366Y459564D02*
X1199964D01*
X1188616Y473064D02*
X1199964D01*
X1200618Y472410D01*
X1168614D02*
X1169268Y473064D01*
X1180616D01*
X1169268Y459564D02*
X1180616D01*
X1168614Y460218D02*
X1169268Y459564D01*
X1168614Y460218D02*
Y472410D01*
X1176110Y486622D02*
X1188302D01*
X1175456Y487276D02*
X1176110Y486622D01*
X1175456Y487276D02*
Y498874D01*
X1188956Y487276D02*
Y498624D01*
X1188302Y486622D02*
X1188956Y487276D01*
X1188302Y518626D02*
X1188956Y517972D01*
Y506624D02*
Y517972D01*
X1175456Y506624D02*
Y517972D01*
X1176110Y518626D01*
X1188302D01*
X1250904Y345998D02*
X1263096D01*
X1250250Y346652D02*
X1250904Y345998D01*
X1250250Y346652D02*
Y358251D01*
X1263750Y346652D02*
Y358000D01*
X1263096Y345998D02*
X1263750Y346652D01*
X1263096Y378002D02*
X1263750Y377348D01*
Y366000D02*
Y377348D01*
X1250250Y366000D02*
Y377348D01*
X1250904Y378002D01*
X1263096D01*
X1282904Y378002D02*
X1295096D01*
X1295750Y377348D01*
Y365750D02*
Y377348D01*
X1282250Y366000D02*
Y377348D01*
X1282904Y378002D01*
X1282250Y346652D02*
X1282904Y345998D01*
X1282250Y346652D02*
Y358000D01*
X1295750Y346652D02*
Y358000D01*
X1295096Y345998D02*
X1295750Y346652D01*
X1282904Y345998D02*
X1295096D01*
X141266Y262204D02*
Y274396D01*
X140612Y261550D02*
X141266Y262204D01*
X129014Y261550D02*
X140612D01*
X129264Y275050D02*
X140612D01*
X141266Y274396D01*
X109262D02*
X109916Y275050D01*
X121264D01*
X109916Y261550D02*
X121264D01*
X109262Y262204D02*
X109916Y261550D01*
X109262Y262204D02*
Y274396D01*
X141266Y292684D02*
Y304876D01*
X140612Y292030D02*
X141266Y292684D01*
X129014Y292030D02*
X140612D01*
X129264Y305530D02*
X140612D01*
X141266Y304876D01*
X109262D02*
X109916Y305530D01*
X121264D01*
X109916Y292030D02*
X121264D01*
X109262Y292684D02*
X109916Y292030D01*
X109262Y292684D02*
Y304876D01*
X141266Y323164D02*
Y335356D01*
X140612Y322510D02*
X141266Y323164D01*
X129014Y322510D02*
X140612D01*
X129264Y336010D02*
X140612D01*
X141266Y335356D01*
X109262D02*
X109916Y336010D01*
X121264D01*
X109916Y322510D02*
X121264D01*
X109262Y323164D02*
X109916Y322510D01*
X109262Y323164D02*
Y335356D01*
X141266Y353644D02*
Y365836D01*
X140612Y352990D02*
X141266Y353644D01*
X129014Y352990D02*
X140612D01*
X129264Y366490D02*
X140612D01*
X141266Y365836D01*
X109262D02*
X109916Y366490D01*
X121264D01*
X109916Y352990D02*
X121264D01*
X109262Y353644D02*
X109916Y352990D01*
X109262Y353644D02*
Y365836D01*
X1266904Y345998D02*
X1279096D01*
X1266250Y346652D02*
X1266904Y345998D01*
X1266250Y346652D02*
Y358251D01*
X1279750Y346652D02*
Y358000D01*
X1279096Y345998D02*
X1279750Y346652D01*
X1279096Y378002D02*
X1279750Y377348D01*
Y366000D02*
Y377348D01*
X1266250Y366000D02*
Y377348D01*
X1266904Y378002D01*
X1279096D01*
X1329370Y485820D02*
X1341562D01*
X1328716Y486474D02*
X1329370Y485820D01*
X1328716Y486474D02*
Y498072D01*
X1342216Y486474D02*
Y497822D01*
X1341562Y485820D02*
X1342216Y486474D01*
X1341562Y517824D02*
X1342216Y517170D01*
Y505822D02*
Y517170D01*
X1328716Y505822D02*
Y517170D01*
X1329370Y517824D01*
X1341562D01*
X1353520Y459754D02*
Y471946D01*
X1352866Y459100D02*
X1353520Y459754D01*
X1341268Y459100D02*
X1352866D01*
X1341518Y472600D02*
X1352866D01*
X1353520Y471946D01*
X1321516D02*
X1322170Y472600D01*
X1333518D01*
X1322170Y459100D02*
X1333518D01*
X1321516Y459754D02*
X1322170Y459100D01*
X1321516Y459754D02*
Y471946D01*
X315976Y54178D02*
Y66370D01*
X315322Y53524D02*
X315976Y54178D01*
X303724Y53524D02*
X315322D01*
X303974Y67024D02*
X315322D01*
X315976Y66370D01*
X283972D02*
X284626Y67024D01*
X295974D01*
X284626Y53524D02*
X295974D01*
X283972Y54178D02*
X284626Y53524D01*
X283972Y54178D02*
Y66370D01*
X306502Y232904D02*
Y245096D01*
X305848Y232250D02*
X306502Y232904D01*
X294250Y232250D02*
X305848D01*
X294500Y245750D02*
X305848D01*
X306502Y245096D01*
X274498D02*
X275152Y245750D01*
X286500D01*
X275152Y232250D02*
X286500D01*
X274498Y232904D02*
X275152Y232250D01*
X274498Y232904D02*
Y245096D01*
X141266Y231724D02*
Y243916D01*
X140612Y231070D02*
X141266Y231724D01*
X129014Y231070D02*
X140612D01*
X129264Y244570D02*
X140612D01*
X141266Y243916D01*
X109262D02*
X109916Y244570D01*
X121264D01*
X109916Y231070D02*
X121264D01*
X109262Y231724D02*
X109916Y231070D01*
X109262Y231724D02*
Y243916D01*
X1309450Y346200D02*
X1311750Y348500D01*
X1300550Y346200D02*
X1309450D01*
X1300000Y346750D02*
X1301500Y345250D01*
X1298250Y348500D02*
X1300550Y346200D01*
X1298250Y348500D02*
Y357500D01*
X1311750Y348500D02*
Y357500D01*
X1298250Y377500D02*
X1311750D01*
X1298250Y366500D02*
Y377500D01*
X1311750Y366500D02*
Y377500D01*
X1301500Y345250D02*
X1308500D01*
X1310240Y346990D01*
X1300260Y346990D02*
X1309740D01*
X531450Y260630D02*
X533750Y262930D01*
X522550Y260630D02*
X531450D01*
X522000Y261180D02*
X523500Y259680D01*
X520250Y262930D02*
X522550Y260630D01*
X520250Y262930D02*
Y271930D01*
X533750Y262930D02*
Y271930D01*
X520250Y291930D02*
X533750D01*
X520250Y280930D02*
Y291930D01*
X533750Y280930D02*
Y291930D01*
X523500Y259680D02*
X530500D01*
X532240Y261420D01*
X522260Y261420D02*
X531740D01*
X611450Y260630D02*
X613750Y262930D01*
X602550Y260630D02*
X611450D01*
X602000Y261180D02*
X603500Y259680D01*
X600250Y262930D02*
X602550Y260630D01*
X600250Y262930D02*
Y271930D01*
X613750Y262930D02*
Y271930D01*
X600250Y291930D02*
X613750D01*
X600250Y280930D02*
Y291930D01*
X613750Y280930D02*
Y291930D01*
X603500Y259680D02*
X610500D01*
X612240Y261420D01*
X602260Y261420D02*
X611740D01*
X694345Y260630D02*
X696645Y262930D01*
X685445Y260630D02*
X694345D01*
X684895Y261180D02*
X686395Y259680D01*
X683145Y262930D02*
X685445Y260630D01*
X683145Y262930D02*
Y271930D01*
X696645Y262930D02*
Y271930D01*
X683145Y291930D02*
X696645D01*
X683145Y280930D02*
Y291930D01*
X696645Y280930D02*
Y291930D01*
X686395Y259680D02*
X693395D01*
X695135Y261420D01*
X685155Y261420D02*
X694635D01*
X784232Y260630D02*
X786532Y262930D01*
X775332Y260630D02*
X784232D01*
X774782Y261180D02*
X776282Y259680D01*
X773032Y262930D02*
X775332Y260630D01*
X773032Y262930D02*
Y271930D01*
X786532Y262930D02*
Y271930D01*
X773032Y291930D02*
X786532D01*
X773032Y280930D02*
Y291930D01*
X786532Y280930D02*
Y291930D01*
X776282Y259680D02*
X783282D01*
X785022Y261420D01*
X775042Y261420D02*
X784522D01*
X862240Y260630D02*
X864540Y262930D01*
X853340Y260630D02*
X862240D01*
X852790Y261180D02*
X854290Y259680D01*
X851040Y262930D02*
X853340Y260630D01*
X851040Y262930D02*
Y271930D01*
X864540Y262930D02*
Y271930D01*
X851040Y291930D02*
X864540D01*
X851040Y280930D02*
Y291930D01*
X864540Y280930D02*
Y291930D01*
X854290Y259680D02*
X861290D01*
X863030Y261420D01*
X853050Y261420D02*
X862530D01*
X340200Y650550D02*
X342500Y648250D01*
X340200Y650550D02*
Y659450D01*
X339250Y658500D02*
X340750Y660000D01*
X340200Y659450D02*
X342500Y661750D01*
X351500D01*
X342500Y648250D02*
X351500D01*
X371500D02*
Y661750D01*
X360500D02*
X371500D01*
X360500Y648250D02*
X371500D01*
X339250Y651500D02*
Y658500D01*
Y651500D02*
X340990Y649760D01*
X340990Y650260D02*
Y659740D01*
X169450Y84700D02*
X171750Y87000D01*
X160550Y84700D02*
X169450D01*
X160000Y85250D02*
X161500Y83750D01*
X158250Y87000D02*
X160550Y84700D01*
X158250Y87000D02*
Y96000D01*
X171750Y87000D02*
Y96000D01*
X158250Y116000D02*
X171750D01*
X158250Y105000D02*
Y116000D01*
X171750Y105000D02*
Y116000D01*
X161500Y83750D02*
X168500D01*
X170240Y85490D01*
X160260Y85490D02*
X169740D01*
X390717Y119657D02*
X393017Y117357D01*
X390717Y119657D02*
Y128557D01*
X389767Y127607D02*
X391267Y129107D01*
X390717Y128557D02*
X393017Y130857D01*
X402017D01*
X393017Y117357D02*
X402017D01*
X422017D02*
Y130857D01*
X411017D02*
X422017D01*
X411017Y117357D02*
X422017D01*
X389767Y120607D02*
Y127607D01*
Y120607D02*
X391507Y118867D01*
X391507Y119367D02*
Y128847D01*
X390717Y136857D02*
X393017Y134557D01*
X390717Y136857D02*
Y145757D01*
X389767Y144807D02*
X391267Y146307D01*
X390717Y145757D02*
X393017Y148057D01*
X402017D01*
X393017Y134557D02*
X402017D01*
X422017D02*
Y148057D01*
X411017D02*
X422017D01*
X411017Y134557D02*
X422017D01*
X389767Y137807D02*
Y144807D01*
Y137807D02*
X391507Y136067D01*
X391507Y136567D02*
Y146047D01*
X904500Y332000D02*
X935500D01*
X904500Y319000D02*
X935500D01*
X904500D02*
Y332000D01*
X935500Y319000D02*
Y332000D01*
X936002Y349404D02*
Y361596D01*
X935348Y362250D02*
X936002Y361596D01*
X924000Y362250D02*
X935348D01*
X924000Y348750D02*
X935348D01*
X936002Y349404D01*
X903998D02*
X904652Y348750D01*
X916000D01*
X904652Y362250D02*
X916250D01*
X903998Y361596D02*
X904652Y362250D01*
X903998Y349404D02*
Y361596D01*
X1002002Y209904D02*
Y222096D01*
X1001348Y222750D02*
X1002002Y222096D01*
X990000Y222750D02*
X1001348D01*
X990000Y209250D02*
X1001348D01*
X1002002Y209904D01*
X969998D02*
X970652Y209250D01*
X982000D01*
X970652Y222750D02*
X982250D01*
X969998Y222096D02*
X970652Y222750D01*
X969998Y209904D02*
Y222096D01*
X904500Y347000D02*
X935500D01*
X904500Y334000D02*
X935500D01*
X904500D02*
Y347000D01*
X935500Y334000D02*
Y347000D01*
X1176332Y290825D02*
X1178632Y293125D01*
X1167432Y290825D02*
X1176332D01*
X1166882Y291375D02*
X1168382Y289875D01*
X1165132Y293125D02*
X1167432Y290825D01*
X1165132Y293125D02*
Y302125D01*
X1178632Y293125D02*
Y302125D01*
X1165132Y322125D02*
X1178632D01*
X1165132Y311125D02*
Y322125D01*
X1178632Y311125D02*
Y322125D01*
X1168382Y289875D02*
X1175382D01*
X1177122Y291615D01*
X1167142Y291615D02*
X1176622D01*
X427450Y448200D02*
X429750Y450500D01*
X418550Y448200D02*
X427450D01*
X418000Y448750D02*
X419500Y447250D01*
X416250Y450500D02*
X418550Y448200D01*
X416250Y450500D02*
Y459500D01*
X429750Y450500D02*
Y459500D01*
X416250Y479500D02*
X429750D01*
X416250Y468500D02*
Y479500D01*
X429750Y468500D02*
Y479500D01*
X419500Y447250D02*
X426500D01*
X428240Y448990D01*
X418260Y448990D02*
X427740D01*
X1180904Y289998D02*
X1193096D01*
X1193750Y290652D01*
Y302000D01*
X1180250Y290652D02*
Y302000D01*
Y290652D02*
X1180904Y289998D01*
X1180250Y321348D02*
X1180904Y322002D01*
X1180250Y310000D02*
Y321348D01*
X1193750Y309750D02*
Y321348D01*
X1193096Y322002D02*
X1193750Y321348D01*
X1180904Y322002D02*
X1193096D01*
X431904Y447998D02*
X444096D01*
X444750Y448652D01*
Y460000D01*
X431250Y448652D02*
Y460000D01*
Y448652D02*
X431904Y447998D01*
X431250Y479348D02*
X431904Y480002D01*
X431250Y468000D02*
Y479348D01*
X444750Y467750D02*
Y479348D01*
X444096Y480002D02*
X444750Y479348D01*
X431904Y480002D02*
X444096D01*
X286000Y595000D02*
Y606000D01*
X288000Y608000D01*
X303000D01*
X281000Y47000D02*
X296000D01*
X279000Y45000D02*
X281000Y47000D01*
X279000Y34000D02*
Y45000D01*
X175904Y80002D02*
X188096D01*
X175250Y79348D02*
X175904Y80002D01*
X175250Y72000D02*
Y79348D01*
X188750Y72000D02*
Y79348D01*
X188096Y80002D02*
X188750Y79348D01*
X188096Y55998D02*
X188750Y56652D01*
Y64000D01*
X175250Y56652D02*
Y64000D01*
Y56652D02*
X175904Y55998D01*
X188096D01*
D80*
X1381070Y136000D02*
Y182000D01*
X1353070Y136000D02*
Y182000D01*
X1376070D02*
X1381070D01*
X1376070Y136000D02*
X1381070D01*
X1353070Y182000D02*
X1358070D01*
X1353070Y136000D02*
X1358070D01*
X1376070D02*
Y146000D01*
X1358070Y136000D02*
Y146000D01*
X1376180D02*
X1381070D01*
X1353070D02*
X1358070D01*
X1037000Y208000D02*
X1083000D01*
X1037000Y236000D02*
X1083000D01*
Y208000D02*
Y213000D01*
X1037000Y208000D02*
Y213000D01*
X1083000Y231000D02*
Y236000D01*
X1037000Y231000D02*
Y236000D01*
Y213000D02*
X1047000D01*
X1037000Y231000D02*
X1047000D01*
Y208000D02*
Y212890D01*
Y231000D02*
Y236000D01*
X1037000Y275000D02*
X1083000D01*
X1037000Y247000D02*
X1083000D01*
X1037000Y270000D02*
Y275000D01*
X1083000Y270000D02*
Y275000D01*
X1037000Y247000D02*
Y252000D01*
X1083000Y247000D02*
Y252000D01*
X1073000Y270000D02*
X1083000D01*
X1073000Y252000D02*
X1083000D01*
X1073000Y270110D02*
Y275000D01*
Y247000D02*
Y252000D01*
X243500Y211000D02*
X246500D01*
X243500D02*
X246500Y212500D01*
X243500Y211000D02*
X246500Y209500D01*
Y212500D01*
X243500Y209500D02*
Y212500D01*
X249250Y211000D02*
X261850D01*
X249250Y226000D02*
X261850D01*
X249250Y211000D02*
Y226000D01*
X390500Y572000D02*
Y575000D01*
X389000D02*
X390500Y572000D01*
X392000Y575000D01*
X389000D02*
X392000D01*
X389000Y572000D02*
X392000D01*
X390500Y577750D02*
Y590350D01*
X375500Y577750D02*
Y590350D01*
Y577750D02*
X390500D01*
X1128000Y291500D02*
X1156000D01*
X1128000Y310500D02*
X1156000D01*
X1153890Y309120D02*
Y312120D01*
X1150890Y309120D02*
Y312120D01*
X1153890Y310620D01*
X1150890Y309120D02*
X1153890Y310620D01*
X1150890D02*
X1153890D01*
X1315500Y178540D02*
Y183540D01*
Y201650D02*
Y206540D01*
Y183540D02*
X1325500D01*
X1315500Y201540D02*
X1325500D01*
Y178540D02*
Y183540D01*
X1279500Y178540D02*
Y183540D01*
X1325500Y201540D02*
Y206540D01*
X1279500Y201540D02*
Y206540D01*
Y178540D02*
X1325500D01*
X1279500Y206540D02*
X1325500D01*
X678000Y116000D02*
Y121000D01*
Y139110D02*
Y144000D01*
Y121000D02*
X688000D01*
X678000Y139000D02*
X688000D01*
Y116000D02*
Y121000D01*
X642000Y116000D02*
Y121000D01*
X688000Y139000D02*
Y144000D01*
X642000Y139000D02*
Y144000D01*
Y116000D02*
X688000D01*
X642000Y144000D02*
X688000D01*
X518000Y116000D02*
Y121000D01*
Y139110D02*
Y144000D01*
Y121000D02*
X528000D01*
X518000Y139000D02*
X528000D01*
Y116000D02*
Y121000D01*
X482000Y116000D02*
Y121000D01*
X528000Y139000D02*
Y144000D01*
X482000Y139000D02*
Y144000D01*
Y116000D02*
X528000D01*
X482000Y144000D02*
X528000D01*
X853000Y101000D02*
Y106000D01*
Y124110D02*
Y129000D01*
Y106000D02*
X863000D01*
X853000Y124000D02*
X863000D01*
Y101000D02*
Y106000D01*
X817000Y101000D02*
Y106000D01*
X863000Y124000D02*
Y129000D01*
X817000Y124000D02*
Y129000D01*
Y101000D02*
X863000D01*
X817000Y129000D02*
X863000D01*
X600500Y116000D02*
Y121000D01*
Y139110D02*
Y144000D01*
Y121000D02*
X610500D01*
X600500Y139000D02*
X610500D01*
Y116000D02*
Y121000D01*
X564500Y116000D02*
Y121000D01*
X610500Y139000D02*
Y144000D01*
X564500Y139000D02*
Y144000D01*
Y116000D02*
X610500D01*
X564500Y144000D02*
X610500D01*
X765500Y101000D02*
Y106000D01*
Y124110D02*
Y129000D01*
Y106000D02*
X775500D01*
X765500Y124000D02*
X775500D01*
Y101000D02*
Y106000D01*
X729500Y101000D02*
Y106000D01*
X775500Y124000D02*
Y129000D01*
X729500Y124000D02*
Y129000D01*
Y101000D02*
X775500D01*
X729500Y129000D02*
X775500D01*
X936060Y163680D02*
X946220D01*
X936060D02*
Y170030D01*
X946220Y163680D02*
X989400D01*
X946220D02*
Y170030D01*
X936060D02*
X946220D01*
X989400Y163680D02*
Y170030D01*
Y197970D02*
Y204320D01*
X936060Y197970D02*
X946220D01*
Y204320D01*
X989400D01*
X936060Y197970D02*
Y204320D01*
X946220D01*
X994000Y252000D02*
X1020000D01*
X994000Y260000D02*
X1020000D01*
D81*
X1378569Y141000D02*
D03*
X1355570D02*
D03*
D82*
X1042000Y210500D02*
D03*
X1042000Y233500D02*
D03*
X1078000Y272500D02*
D03*
X1078000Y249500D02*
D03*
X1320500Y181040D02*
D03*
Y204040D02*
D03*
X683000Y118500D02*
D03*
Y141500D02*
D03*
X523000Y118500D02*
D03*
Y141500D02*
D03*
X858000Y103500D02*
D03*
Y126500D02*
D03*
X605500Y118500D02*
D03*
Y141500D02*
D03*
X770500Y103500D02*
D03*
Y126500D02*
D03*
D83*
X206032Y742439D02*
D03*
X220256D02*
D03*
X402374D02*
D03*
X388150D02*
D03*
D84*
X512864Y406603D02*
D03*
D85*
X296926Y305765D02*
D03*
D86*
X1302569Y3505D02*
D03*
X863407Y4775D02*
D03*
X778317Y4267D02*
D03*
X527365Y4775D02*
D03*
X611185Y4013D02*
D03*
X695005Y4267D02*
D03*
X1202239Y3505D02*
D03*
X1102271D02*
D03*
D87*
X1288218Y1831D02*
D03*
X849056Y3101D02*
D03*
X763966Y2593D02*
D03*
X513014Y3101D02*
D03*
X596834Y2339D02*
D03*
X680654Y2593D02*
D03*
X1187888Y1831D02*
D03*
X1087920D02*
D03*
D88*
X1303772Y22631D02*
D03*
X1203443D02*
D03*
D89*
X1288853Y23851D02*
D03*
X849691Y25121D02*
D03*
X764601Y24613D02*
D03*
X513649Y25121D02*
D03*
X597469Y24359D02*
D03*
X681289Y24613D02*
D03*
X1188523Y23851D02*
D03*
X1088555D02*
D03*
D90*
X1285678Y4775D02*
D03*
X846516Y6045D02*
D03*
X761426Y5537D02*
D03*
X510474Y6045D02*
D03*
X594294Y5283D02*
D03*
X678114Y5537D02*
D03*
X1185348Y4775D02*
D03*
X1085380D02*
D03*
D91*
X1305363D02*
D03*
X866201Y6045D02*
D03*
X781111Y5537D02*
D03*
X530159Y6045D02*
D03*
X613979Y5283D02*
D03*
X697799Y5537D02*
D03*
X1205033Y4775D02*
D03*
X1105065D02*
D03*
D92*
X1304728Y21285D02*
D03*
X865566Y22555D02*
D03*
X780476Y22047D02*
D03*
X529524Y22555D02*
D03*
X613344Y21793D02*
D03*
X697164Y22047D02*
D03*
X1204398Y21285D02*
D03*
X1104430D02*
D03*
D93*
X1286948Y21146D02*
D03*
X847786Y22416D02*
D03*
X762696Y21908D02*
D03*
X511744Y22416D02*
D03*
X595564Y21654D02*
D03*
X679384Y21908D02*
D03*
X1186618Y21146D02*
D03*
X1086650D02*
D03*
D94*
X1296473Y24347D02*
D03*
X857311Y25617D02*
D03*
X772221Y25109D02*
D03*
X521269Y25617D02*
D03*
X605089Y24855D02*
D03*
X688909Y25109D02*
D03*
X1196143Y24347D02*
D03*
X1096175D02*
D03*
D95*
X1296473Y1435D02*
D03*
X857311Y2705D02*
D03*
X772221Y2197D02*
D03*
X521269Y2705D02*
D03*
X605089Y1943D02*
D03*
X688909Y2197D02*
D03*
X1196143Y1435D02*
D03*
X1096175D02*
D03*
D96*
X1313745Y12891D02*
D03*
X1213415D02*
D03*
X1113447D02*
D03*
D97*
X1278058D02*
D03*
X1177728D02*
D03*
X1077760D02*
D03*
D98*
X864610Y23901D02*
D03*
X779520Y23393D02*
D03*
X528568Y23901D02*
D03*
X612388Y23139D02*
D03*
X696208Y23393D02*
D03*
X1103475Y22631D02*
D03*
D99*
X871949Y14161D02*
D03*
X786859Y13653D02*
D03*
D100*
X841690Y14161D02*
D03*
X756600Y13653D02*
D03*
X505648Y14161D02*
D03*
X589468Y13399D02*
D03*
X673288Y13653D02*
D03*
D101*
X536034Y14161D02*
D03*
X619854Y13399D02*
D03*
D102*
X703674Y13653D02*
D03*
M02*
