G04 Layer_Color=16711935*
%FSLAX44Y44*%
%MOMM*%
G71*
G01*
G75*
%ADD49C,0.2540*%
%ADD118R,1.7032X1.7032*%
%ADD144O,3.2032X4.2032*%
%ADD145C,1.7128*%
%ADD146R,1.7032X1.7032*%
%ADD147C,1.7032*%
%ADD148O,2.2032X2.8032*%
%ADD149C,3.2032*%
%ADD150C,1.7272*%
%ADD151C,1.2032*%
G04:AMPARAMS|DCode=152|XSize=1.7032mm|YSize=2.1032mm|CornerRadius=0.4766mm|HoleSize=0mm|Usage=FLASHONLY|Rotation=90.000|XOffset=0mm|YOffset=0mm|HoleType=Round|Shape=RoundedRectangle|*
%AMROUNDEDRECTD152*
21,1,1.7032,1.1500,0,0,90.0*
21,1,0.7500,2.1032,0,0,90.0*
1,1,0.9532,0.5750,0.3750*
1,1,0.9532,0.5750,-0.3750*
1,1,0.9532,-0.5750,-0.3750*
1,1,0.9532,-0.5750,0.3750*
%
%ADD152ROUNDEDRECTD152*%
%ADD153C,1.6532*%
%ADD154C,0.9032*%
G36*
X602450Y292399D02*
Y291649D01*
Y291349D01*
Y291199D01*
X590452D01*
Y292099D01*
Y292849D01*
Y293149D01*
Y293299D01*
X602450D01*
Y292399D01*
D02*
G37*
G36*
X592401Y287299D02*
X593751Y286249D01*
X594501Y285649D01*
X594801Y285349D01*
X595101Y286249D01*
X595551Y286999D01*
X595851Y287299D01*
X596001Y287449D01*
X596751Y287899D01*
X597651Y288049D01*
X598101Y288199D01*
X599151D01*
X599751Y288049D01*
X600051Y287899D01*
X600201D01*
X600651Y287599D01*
X601101Y287299D01*
X601251Y286999D01*
X601401Y286849D01*
X601701Y286249D01*
X602001Y285799D01*
X602150Y285349D01*
Y285199D01*
X602300Y284449D01*
X602450Y283699D01*
Y283099D01*
Y282799D01*
Y280850D01*
Y279500D01*
Y278600D01*
Y278300D01*
X590452D01*
Y279200D01*
Y279800D01*
Y280100D01*
Y280250D01*
X594501D01*
Y281450D01*
Y282350D01*
Y282950D01*
Y283099D01*
X592701Y284299D01*
X591501Y285199D01*
X590751Y285799D01*
X590452Y285949D01*
Y287149D01*
Y288049D01*
Y288499D01*
Y288649D01*
X592401Y287299D01*
D02*
G37*
G36*
X594651Y317297D02*
X594951Y317147D01*
X595101Y316997D01*
X595701Y316697D01*
X596001Y316547D01*
Y316397D01*
X596601Y315647D01*
X596901Y315347D01*
Y315197D01*
X597201Y313997D01*
X597351Y313547D01*
Y313397D01*
X597501Y312797D01*
X597651Y312347D01*
X597801Y312047D01*
Y311897D01*
X597951Y311297D01*
Y310997D01*
X598101Y310847D01*
X598551Y310547D01*
X598701Y310397D01*
X599001Y310247D01*
X599301D01*
X599901Y310397D01*
X600051D01*
X600351Y310697D01*
X600501Y310847D01*
Y310997D01*
Y311297D01*
X600651Y311447D01*
Y311597D01*
X600801Y312047D01*
Y312347D01*
X600651Y312947D01*
Y313247D01*
Y314147D01*
X600801Y314297D01*
Y314447D01*
X600651Y315047D01*
X600501Y315347D01*
X600201Y315797D01*
X600051Y315947D01*
X600651Y316397D01*
X601101Y316697D01*
X601251Y316997D01*
X601401D01*
X601701Y316397D01*
X601851Y316247D01*
X602001Y316097D01*
X602300Y315347D01*
X602450Y315047D01*
Y314897D01*
X602601Y314147D01*
Y313847D01*
Y313697D01*
X602751Y312947D01*
Y312647D01*
Y312497D01*
X602601Y311447D01*
Y310997D01*
Y310847D01*
X602450Y310247D01*
X602300Y309797D01*
X602001Y309647D01*
Y309497D01*
X601101Y308747D01*
X600951Y308597D01*
X600801Y308447D01*
X600351Y308147D01*
X599751Y307997D01*
X598701D01*
X598251Y308147D01*
X597951Y308297D01*
X597801D01*
X597351Y308597D01*
X597051Y308897D01*
X596901Y309197D01*
Y309347D01*
X596751Y309647D01*
X596601Y309797D01*
X596301Y310397D01*
X596151Y310547D01*
X595851Y310997D01*
Y311297D01*
X595701Y312197D01*
X595551Y312497D01*
Y312647D01*
X595401Y313547D01*
X595251Y313697D01*
Y313847D01*
X595101Y314297D01*
Y314447D01*
X594951Y314597D01*
X594651Y314897D01*
X594501Y315047D01*
X593301D01*
X593151Y314897D01*
X592851Y314597D01*
X592701Y314447D01*
X592401Y313997D01*
X592251Y313847D01*
Y313697D01*
X592101Y313097D01*
Y312947D01*
Y312797D01*
Y312047D01*
X592251Y311447D01*
X592401Y310997D01*
X592551Y310847D01*
X593001Y310247D01*
X593451Y309647D01*
X593751Y309197D01*
X593901Y309047D01*
X593151Y308447D01*
X592701Y307847D01*
X592401Y307697D01*
X592251Y307547D01*
X591651Y308447D01*
X591202Y309197D01*
X591051Y309797D01*
X590901Y310097D01*
X590602Y310997D01*
X590302Y311897D01*
Y312497D01*
Y312797D01*
Y313547D01*
X590452Y314147D01*
X590602Y314597D01*
X590751Y314747D01*
X591051Y315647D01*
X591202Y315947D01*
X591351Y316097D01*
X592101Y316697D01*
X592251Y316997D01*
X592401D01*
X592851Y317297D01*
X593301Y317446D01*
X594351D01*
X594651Y317297D01*
D02*
G37*
G36*
X592401Y304398D02*
Y303048D01*
Y301848D01*
Y300798D01*
Y300048D01*
Y299448D01*
Y299148D01*
Y298998D01*
X595551D01*
Y300348D01*
Y301548D01*
Y302598D01*
Y303498D01*
Y304098D01*
Y304548D01*
Y304848D01*
Y304998D01*
X597351D01*
Y303648D01*
Y302448D01*
Y301398D01*
Y300498D01*
Y299898D01*
Y299448D01*
Y299148D01*
Y298998D01*
X600501D01*
Y300648D01*
Y301998D01*
Y303048D01*
Y303948D01*
Y304698D01*
Y305148D01*
Y305448D01*
Y305598D01*
X602450D01*
Y303498D01*
Y301848D01*
Y300348D01*
Y298998D01*
Y298098D01*
Y297498D01*
Y297048D01*
Y296898D01*
X590452D01*
Y298998D01*
Y300798D01*
Y302448D01*
Y303798D01*
Y304698D01*
Y305448D01*
Y305898D01*
Y306047D01*
X592401D01*
Y304398D01*
D02*
G37*
G36*
X594651Y264051D02*
X594951Y263901D01*
X595101Y263751D01*
X595701Y263451D01*
X596001Y263301D01*
Y263151D01*
X596601Y262401D01*
X596901Y262101D01*
Y261951D01*
X597201Y260751D01*
X597351Y260301D01*
Y260152D01*
X597501Y259552D01*
X597651Y259102D01*
X597801Y258802D01*
Y258652D01*
X597951Y258202D01*
Y257902D01*
X598101Y257602D01*
X598551Y257302D01*
X598701Y257152D01*
X599001Y257002D01*
X599301D01*
X599901Y257152D01*
X600051D01*
X600351Y257452D01*
X600501Y257602D01*
Y258052D01*
X600651Y258202D01*
X600801Y258802D01*
Y259102D01*
X600651Y259701D01*
Y260002D01*
Y260751D01*
X600801Y261051D01*
Y261201D01*
X600651Y261951D01*
X600501Y262101D01*
X600201Y262551D01*
X600051Y262701D01*
X600651Y263151D01*
X601101Y263451D01*
X601251Y263751D01*
X601401D01*
X601701Y263151D01*
X601851Y263001D01*
X602001Y262851D01*
X602300Y262101D01*
X602450Y261951D01*
Y261801D01*
X602601Y260901D01*
Y260602D01*
Y260452D01*
X602751Y259701D01*
Y259402D01*
Y259252D01*
Y258652D01*
X602601Y258052D01*
Y257752D01*
Y257602D01*
X602300Y256702D01*
X602001Y256402D01*
Y256252D01*
X601551Y255802D01*
X601101Y255502D01*
X600951Y255202D01*
X600801D01*
X599751Y254902D01*
X598701D01*
X598251Y255052D01*
X597801D01*
X597351Y255352D01*
X597051Y255652D01*
X596901Y255952D01*
Y256102D01*
X596751Y256402D01*
X596601Y256552D01*
X596301Y257152D01*
X596151Y257302D01*
X595851Y257752D01*
Y258052D01*
X595701Y258952D01*
X595551Y259252D01*
Y259402D01*
X595401Y260301D01*
X595251Y260452D01*
Y260602D01*
X595101Y261201D01*
X594951Y261501D01*
X594651Y261651D01*
X594501Y261801D01*
X594051Y261951D01*
X593451D01*
X593301Y261801D01*
X593151Y261651D01*
X592851Y261351D01*
X592701Y261201D01*
X592401Y260751D01*
X592251Y260602D01*
Y260452D01*
X592101Y259851D01*
Y259701D01*
Y259552D01*
Y258802D01*
X592251Y258202D01*
X592401Y257752D01*
X592551Y257602D01*
X593001Y257002D01*
X593451Y256402D01*
X593751Y255952D01*
X593901Y255802D01*
X593151Y255202D01*
X592701Y254602D01*
X592401Y254452D01*
X592251Y254302D01*
X591651Y255202D01*
X591202Y255952D01*
X591051Y256552D01*
X590901Y256852D01*
X590602Y257752D01*
X590302Y258652D01*
Y259252D01*
Y259552D01*
Y260301D01*
X590452Y260901D01*
X590602Y261351D01*
X590751Y261501D01*
X591051Y262401D01*
X591202Y262701D01*
X591351Y262851D01*
X592101Y263601D01*
X592251Y263751D01*
X592401D01*
X592851Y264051D01*
X593301Y264201D01*
X594351D01*
X594651Y264051D01*
D02*
G37*
G36*
X1104457Y404739D02*
X1108657Y404439D01*
X1112556Y403839D01*
X1116456Y403089D01*
X1120056Y402339D01*
X1123505Y401439D01*
X1126805Y400389D01*
X1129805Y399339D01*
X1132505Y398289D01*
X1134904Y397240D01*
X1137154Y396340D01*
X1138954Y395590D01*
X1140304Y394840D01*
X1141354Y394240D01*
X1141954Y393940D01*
X1142254Y393790D01*
X1145703Y391690D01*
X1149003Y389290D01*
X1152003Y387040D01*
X1155003Y384491D01*
X1157552Y382091D01*
X1160102Y379691D01*
X1162352Y377291D01*
X1164452Y375042D01*
X1166252Y372792D01*
X1167902Y370842D01*
X1169251Y369042D01*
X1170301Y367542D01*
X1171201Y366342D01*
X1171801Y365292D01*
X1172251Y364692D01*
X1172401Y364543D01*
X1174501Y360793D01*
X1176451Y357193D01*
X1178101Y353593D01*
X1179451Y350294D01*
X1180050Y348794D01*
X1180500Y347594D01*
X1180950Y346394D01*
X1181250Y345344D01*
X1181550Y344444D01*
X1181700Y343844D01*
X1181850Y343544D01*
Y343394D01*
X1182900Y339195D01*
X1183800Y334995D01*
X1184400Y330945D01*
X1184700Y327346D01*
X1184850Y325696D01*
X1185000Y324196D01*
Y322996D01*
X1185150Y321796D01*
Y320896D01*
Y320296D01*
Y319846D01*
Y319696D01*
X1185000Y315197D01*
X1184700Y310847D01*
X1184100Y306798D01*
X1183500Y303348D01*
X1183200Y301698D01*
X1182900Y300348D01*
X1182600Y299148D01*
X1182300Y298098D01*
X1182150Y297198D01*
X1182000Y296598D01*
X1181850Y296298D01*
Y296148D01*
X1180500Y291949D01*
X1179000Y288049D01*
X1177351Y284449D01*
X1175851Y281300D01*
X1175101Y279950D01*
X1174501Y278750D01*
X1173901Y277550D01*
X1173451Y276650D01*
X1173001Y276050D01*
X1172701Y275450D01*
X1172401Y275150D01*
Y275000D01*
X1170151Y271700D01*
X1167902Y268551D01*
X1165352Y265701D01*
X1162952Y262851D01*
X1160402Y260301D01*
X1157852Y257902D01*
X1155453Y255652D01*
X1153053Y253702D01*
X1150803Y251902D01*
X1148703Y250402D01*
X1146903Y249053D01*
X1145253Y247853D01*
X1143904Y247103D01*
X1143004Y246353D01*
X1142254Y246053D01*
X1142104Y245903D01*
X1138504Y243953D01*
X1134904Y242303D01*
X1131155Y240803D01*
X1127555Y239603D01*
X1123955Y238553D01*
X1120506Y237653D01*
X1117206Y236903D01*
X1114056Y236304D01*
X1111056Y235854D01*
X1108507Y235554D01*
X1106107Y235254D01*
X1104157Y235104D01*
X1102507D01*
X1101307Y234954D01*
X1100257D01*
X1095908Y235104D01*
X1091858Y235404D01*
X1087808Y236004D01*
X1083909Y236754D01*
X1080309Y237504D01*
X1076709Y238403D01*
X1073560Y239453D01*
X1070560Y240503D01*
X1067860Y241553D01*
X1065310Y242603D01*
X1063211Y243503D01*
X1061411Y244253D01*
X1060061Y245003D01*
X1059011Y245603D01*
X1058261Y245903D01*
X1058111Y246053D01*
X1054661Y248153D01*
X1051362Y250552D01*
X1048212Y252802D01*
X1045362Y255352D01*
X1042662Y257752D01*
X1040113Y260152D01*
X1037863Y262551D01*
X1035763Y264801D01*
X1033963Y266901D01*
X1032313Y268851D01*
X1030963Y270651D01*
X1029913Y272150D01*
X1029014Y273350D01*
X1028264Y274400D01*
X1027964Y275000D01*
X1027814Y275150D01*
X1025714Y278750D01*
X1023764Y282500D01*
X1022114Y285949D01*
X1020764Y289249D01*
X1020314Y290749D01*
X1019714Y292099D01*
X1019414Y293149D01*
X1018964Y294198D01*
X1018664Y295098D01*
X1018514Y295698D01*
X1018364Y295998D01*
Y296148D01*
X1017315Y300498D01*
X1016415Y304698D01*
X1015815Y308597D01*
X1015515Y312197D01*
X1015365Y313847D01*
X1015215Y315197D01*
Y316547D01*
X1015065Y317596D01*
Y318496D01*
Y319096D01*
Y319546D01*
Y319696D01*
X1015215Y324346D01*
X1015515Y328696D01*
X1016115Y332745D01*
X1016715Y336345D01*
X1017015Y337845D01*
X1017315Y339345D01*
X1017615Y340545D01*
X1017915Y341594D01*
X1018064Y342344D01*
X1018214Y343094D01*
X1018364Y343394D01*
Y343544D01*
X1019714Y347744D01*
X1021364Y351644D01*
X1022864Y355243D01*
X1024364Y358393D01*
X1025114Y359743D01*
X1025714Y360943D01*
X1026314Y361993D01*
X1026764Y362893D01*
X1027214Y363643D01*
X1027514Y364092D01*
X1027814Y364393D01*
Y364543D01*
X1030063Y367842D01*
X1032313Y370992D01*
X1034713Y373992D01*
X1037263Y376841D01*
X1039813Y379391D01*
X1042362Y381791D01*
X1044762Y384041D01*
X1047162Y385991D01*
X1049412Y387790D01*
X1051512Y389440D01*
X1053311Y390640D01*
X1054961Y391840D01*
X1056311Y392590D01*
X1057211Y393340D01*
X1057961Y393640D01*
X1058111Y393790D01*
X1061711Y395740D01*
X1065460Y397390D01*
X1069060Y398890D01*
X1072660Y400239D01*
X1076259Y401289D01*
X1079859Y402189D01*
X1083159Y402939D01*
X1086309Y403539D01*
X1089308Y403989D01*
X1092008Y404289D01*
X1094258Y404589D01*
X1096358Y404739D01*
X1098008Y404889D01*
X1100257D01*
X1104457Y404739D01*
D02*
G37*
G36*
X991067Y316997D02*
X993017Y316547D01*
X994667Y316097D01*
X996016Y315497D01*
X996916Y315047D01*
X997516Y314747D01*
X997666Y314597D01*
X998566Y313847D01*
X999316Y313097D01*
X1000516Y311597D01*
X1000966Y310997D01*
X1001266Y310397D01*
X1001416Y310097D01*
Y309947D01*
X1002166Y307697D01*
X1002766Y305598D01*
X1002916Y304698D01*
X1003066Y303948D01*
X1003216Y303498D01*
Y303348D01*
X1003516Y301998D01*
X1003666Y300798D01*
Y299898D01*
Y299748D01*
Y299598D01*
Y298248D01*
Y297198D01*
X1003516Y296448D01*
Y296298D01*
Y296148D01*
X1003216Y294499D01*
X1003066Y292999D01*
X1002916Y291649D01*
X1002616Y290599D01*
X1002466Y289699D01*
Y288949D01*
X1002316Y288499D01*
Y288349D01*
X1002016Y287149D01*
X1001416Y286249D01*
X1000366Y284449D01*
X999766Y283849D01*
X999316Y283400D01*
X999016Y283099D01*
X998866Y282950D01*
X997366Y281900D01*
X995866Y281150D01*
X995266Y280850D01*
X994817Y280700D01*
X994517Y280550D01*
X994367D01*
X992417Y280100D01*
X990617Y279950D01*
X989867Y279800D01*
X989267Y279650D01*
X988817D01*
X984617Y279350D01*
X982667Y279200D01*
X970369D01*
X968719Y279050D01*
X967219Y278900D01*
X966169Y278750D01*
X965569Y278600D01*
X965269D01*
X964069Y278450D01*
X963019D01*
X962119Y278300D01*
X960320D01*
X958970Y278450D01*
X954770D01*
X953420Y278300D01*
X952220D01*
X951320Y278150D01*
X950570D01*
X950120Y278000D01*
X949970D01*
X948771Y277850D01*
X947870Y277550D01*
X947121Y277100D01*
X946521Y276650D01*
X946221Y276200D01*
X945921Y275750D01*
X945771Y275600D01*
Y275450D01*
X945621Y273950D01*
Y272750D01*
X945771Y271850D01*
Y271700D01*
Y271551D01*
X946221Y270351D01*
X946671Y269601D01*
X947121Y269151D01*
X947271Y269001D01*
X948471Y268551D01*
X949820Y268251D01*
X950420Y268101D01*
X958970D01*
X961519Y267951D01*
X962719D01*
X963619Y267801D01*
X976818D01*
X978618Y267951D01*
X979218D01*
X979818Y268101D01*
X980268D01*
X981168Y268251D01*
X981918Y268401D01*
X982968Y268701D01*
X983568Y269001D01*
X983717Y269151D01*
X984467Y269901D01*
X984917Y270801D01*
X985217Y271401D01*
X985367Y271700D01*
X985667Y273050D01*
X985817Y274250D01*
Y275150D01*
Y275300D01*
Y275450D01*
X1004116D01*
X1004416Y274100D01*
Y272750D01*
Y272300D01*
Y271850D01*
Y271551D01*
Y271401D01*
X1004266Y269751D01*
X1004116Y268551D01*
X1003966Y267801D01*
Y267501D01*
X1003666Y265701D01*
X1003216Y264201D01*
X1002766Y262851D01*
X1002316Y261651D01*
X1001716Y260602D01*
X1001266Y259701D01*
X1000066Y258352D01*
X999016Y257452D01*
X998116Y256852D01*
X997516Y256702D01*
X997366Y256552D01*
X995266Y256102D01*
X992867Y255502D01*
X990467Y255052D01*
X988067Y254602D01*
X985967Y254302D01*
X984167Y254002D01*
X983568Y253852D01*
X983118Y253702D01*
X978618D01*
X977118Y253552D01*
X950120D01*
X947721Y253852D01*
X945321Y254302D01*
X943371Y254452D01*
X941571Y254752D01*
X940071Y254902D01*
X939021D01*
X938421Y255052D01*
X938121D01*
X936172Y255352D01*
X934522Y256102D01*
X933022Y256852D01*
X931822Y257902D01*
X930922Y258802D01*
X930322Y259552D01*
X929872Y260152D01*
X929722Y260301D01*
X928972Y261951D01*
X928372Y263451D01*
X928222Y264201D01*
X928072Y264651D01*
X927922Y264951D01*
Y265101D01*
X927622Y267201D01*
X927322Y269151D01*
Y269901D01*
X927172Y270501D01*
Y270801D01*
Y270951D01*
X927022Y273200D01*
Y275150D01*
Y276950D01*
X927172Y278600D01*
X927472Y280100D01*
X927772Y281450D01*
X928072Y282649D01*
X928372Y283549D01*
X928972Y285199D01*
X929722Y286399D01*
X930172Y286999D01*
X930322Y287149D01*
X931972Y288499D01*
X934072Y289699D01*
X936471Y290749D01*
X938721Y291499D01*
X940821Y292099D01*
X942471Y292549D01*
X943221Y292699D01*
X943671Y292849D01*
X944121D01*
X946521Y292999D01*
X948471D01*
X949370Y293149D01*
X950570D01*
X952970Y293299D01*
X954020Y293449D01*
X957020D01*
X958520Y293599D01*
X961369D01*
X963019Y293749D01*
X965719D01*
X969319Y294049D01*
X971118Y294198D01*
X974268D01*
X975468Y294049D01*
X978618D01*
X980418Y294349D01*
X981768Y294799D01*
X982818Y295398D01*
X983568Y296148D01*
X984167Y296598D01*
X984317Y297048D01*
X984467Y297198D01*
X984017Y298548D01*
X983418Y299448D01*
X982368Y300198D01*
X981318Y300648D01*
X980418Y300948D01*
X979518Y301098D01*
X978918Y301248D01*
X920273D01*
Y296898D01*
Y292699D01*
Y288649D01*
Y285199D01*
Y283549D01*
Y282200D01*
Y281000D01*
Y279800D01*
Y279050D01*
Y278450D01*
Y278000D01*
Y277850D01*
Y273500D01*
Y269301D01*
Y265251D01*
Y261651D01*
Y260152D01*
Y258652D01*
Y257452D01*
Y256402D01*
Y255502D01*
Y254902D01*
Y254452D01*
Y254302D01*
X900175D01*
Y258652D01*
Y263001D01*
Y266901D01*
Y270501D01*
Y272150D01*
Y273500D01*
Y274850D01*
Y275900D01*
Y276650D01*
Y277400D01*
Y277700D01*
Y277850D01*
Y282200D01*
Y286399D01*
Y290449D01*
Y293899D01*
Y295548D01*
Y296898D01*
Y298248D01*
Y299298D01*
Y300048D01*
Y300798D01*
Y301098D01*
Y301248D01*
X847079D01*
X845579Y301398D01*
X840330D01*
X838830Y301248D01*
X837630Y300798D01*
X836730Y300348D01*
X835980Y299898D01*
X835530Y299598D01*
X835230Y299298D01*
Y299148D01*
X834780Y298248D01*
X834480Y297198D01*
X834330Y295098D01*
X834180Y294198D01*
X834330Y293449D01*
Y292849D01*
Y292699D01*
X834480Y291199D01*
X834780Y289849D01*
X835080Y288949D01*
X835380Y288199D01*
X835680Y287599D01*
X835980Y287299D01*
X836130Y286999D01*
X836280D01*
X837030Y286549D01*
X837780Y286249D01*
X839430Y285949D01*
X840180Y285799D01*
X874377D01*
Y287899D01*
Y289699D01*
Y290449D01*
Y291049D01*
Y291349D01*
Y291499D01*
Y293449D01*
Y295249D01*
Y295998D01*
Y296598D01*
Y296898D01*
Y297048D01*
X893575D01*
Y292999D01*
Y289099D01*
Y285499D01*
Y282350D01*
Y280850D01*
Y279650D01*
Y278450D01*
Y277550D01*
Y276800D01*
Y276200D01*
Y275900D01*
Y275750D01*
Y271700D01*
Y267801D01*
Y264201D01*
Y260901D01*
Y259402D01*
Y258202D01*
Y257002D01*
Y255952D01*
Y255202D01*
Y254602D01*
Y254302D01*
Y254152D01*
X874377D01*
Y257152D01*
Y258502D01*
Y259701D01*
Y260751D01*
Y261501D01*
Y262101D01*
Y262251D01*
Y265251D01*
Y266601D01*
Y267801D01*
Y268851D01*
Y269601D01*
Y270201D01*
Y270351D01*
X840630D01*
X839580Y270201D01*
X838680Y269901D01*
X837930Y269751D01*
X837480Y269451D01*
X837030Y269151D01*
X836730Y269001D01*
X836130Y268251D01*
X835530Y267351D01*
X835080Y265251D01*
X834930Y264351D01*
X834780Y263451D01*
Y262851D01*
Y262701D01*
Y260901D01*
X834630Y259402D01*
Y257902D01*
Y256702D01*
Y255652D01*
Y254902D01*
Y254452D01*
Y254302D01*
X815882D01*
Y256552D01*
X815732Y258652D01*
Y259402D01*
Y260002D01*
Y260452D01*
Y260602D01*
Y262851D01*
Y264651D01*
X815882Y265401D01*
Y266001D01*
Y266301D01*
Y266451D01*
X816032Y268401D01*
X816332Y270051D01*
X816782Y271551D01*
X817232Y272750D01*
X817532Y273800D01*
X817982Y274550D01*
X818132Y275000D01*
X818282Y275150D01*
X819182Y276350D01*
X820382Y277100D01*
X821731Y277700D01*
X823081Y278150D01*
X824281Y278450D01*
X825331Y278600D01*
X826231D01*
X825331Y278900D01*
X824581Y279050D01*
X824131Y279200D01*
X823981D01*
X823081Y279500D01*
X822181Y279800D01*
X821581Y279950D01*
X821432D01*
X820232Y280700D01*
X819182Y281450D01*
X818432Y282200D01*
X817682Y282950D01*
X817232Y283699D01*
X816932Y284299D01*
X816782Y284599D01*
Y284749D01*
X816482Y285949D01*
X816182Y287299D01*
X815732Y289849D01*
X815582Y290899D01*
X815432Y291799D01*
X815282Y292399D01*
Y292549D01*
Y294198D01*
Y295548D01*
Y296448D01*
Y296598D01*
Y296748D01*
Y298398D01*
Y299748D01*
Y300348D01*
Y300798D01*
Y300948D01*
Y301098D01*
X813932D01*
X812882Y301248D01*
X808233D01*
Y296898D01*
Y292699D01*
Y288649D01*
Y285199D01*
Y283549D01*
Y282200D01*
Y281000D01*
Y279800D01*
Y279050D01*
Y278450D01*
Y278000D01*
Y277850D01*
Y273500D01*
Y269301D01*
Y265251D01*
Y261651D01*
Y260152D01*
Y258652D01*
Y257452D01*
Y256402D01*
Y255502D01*
Y254902D01*
Y254452D01*
Y254302D01*
X720190D01*
X719140Y256252D01*
X718390Y257902D01*
X717941Y258652D01*
X717791Y259102D01*
X717490Y259402D01*
Y259552D01*
X716591Y261501D01*
X715691Y263301D01*
X715391Y263901D01*
X715091Y264501D01*
X714941Y264801D01*
Y264951D01*
X681494D01*
X682693Y267501D01*
X683143Y268701D01*
X683743Y269751D01*
X684043Y270651D01*
X684343Y271250D01*
X684643Y271700D01*
Y271850D01*
X685843Y274400D01*
X686293Y275600D01*
X686893Y276650D01*
X687193Y277400D01*
X687493Y278000D01*
X687793Y278450D01*
Y278600D01*
X708041D01*
X706392Y281900D01*
X705641Y283549D01*
X704892Y284899D01*
X704292Y286099D01*
X703842Y286999D01*
X703542Y287599D01*
X703392Y287749D01*
X701592Y291199D01*
X700842Y292849D01*
X700092Y294198D01*
X699492Y295398D01*
X699042Y296298D01*
X698742Y296898D01*
X698592Y297048D01*
X709091D01*
X712841Y297198D01*
X719290D01*
X720640Y294648D01*
X721990Y292099D01*
X723340Y289699D01*
X724390Y287599D01*
X725440Y285799D01*
X726190Y284449D01*
X726640Y283549D01*
X726790Y283400D01*
Y283249D01*
X729490Y278300D01*
X730689Y275900D01*
X731739Y273800D01*
X732789Y272001D01*
X733539Y270651D01*
X733989Y269751D01*
X734139Y269601D01*
Y269451D01*
X789784D01*
Y271401D01*
Y272900D01*
Y273650D01*
Y274100D01*
Y274400D01*
Y274550D01*
Y276350D01*
Y278000D01*
Y278600D01*
Y279050D01*
Y279350D01*
Y279500D01*
X741488D01*
Y282050D01*
Y283249D01*
Y284299D01*
Y285199D01*
Y285949D01*
Y286399D01*
Y286549D01*
Y289099D01*
Y290149D01*
Y291199D01*
Y292099D01*
Y292699D01*
Y293149D01*
Y293299D01*
X789784D01*
Y294799D01*
Y295998D01*
Y296898D01*
Y297048D01*
Y297198D01*
Y298698D01*
Y300048D01*
Y300948D01*
Y301098D01*
Y301248D01*
X695292D01*
X693043Y296898D01*
X690943Y292699D01*
X688843Y288649D01*
X687043Y285049D01*
X686293Y283549D01*
X685543Y282050D01*
X684793Y280850D01*
X684343Y279800D01*
X683893Y278900D01*
X683594Y278300D01*
X683294Y277850D01*
Y277700D01*
X681044Y273350D01*
X678944Y269151D01*
X676844Y265101D01*
X675044Y261501D01*
X674294Y260002D01*
X673544Y258502D01*
X672794Y257302D01*
X672344Y256252D01*
X671895Y255352D01*
X671594Y254752D01*
X671294Y254302D01*
Y254152D01*
X655396D01*
X653146Y258502D01*
X650896Y262851D01*
X648947Y266751D01*
X647147Y270351D01*
X646247Y272001D01*
X645497Y273350D01*
X644897Y274700D01*
X644447Y275750D01*
X643997Y276500D01*
X643697Y277250D01*
X643397Y277550D01*
Y277700D01*
X641147Y282050D01*
X639047Y286399D01*
X637098Y290299D01*
X635298Y293899D01*
X634548Y295548D01*
X633798Y296898D01*
X633048Y298248D01*
X632598Y299298D01*
X632148Y300048D01*
X631848Y300798D01*
X631548Y301098D01*
Y301248D01*
X628548D01*
Y296898D01*
X628698Y292699D01*
Y288649D01*
Y285049D01*
Y283549D01*
Y282050D01*
Y280850D01*
Y279800D01*
Y278900D01*
Y278300D01*
Y277850D01*
Y277700D01*
Y273350D01*
X628848Y269151D01*
Y265101D01*
Y261501D01*
Y260002D01*
X628998Y258502D01*
Y257302D01*
Y256252D01*
Y255352D01*
Y254752D01*
Y254302D01*
Y254152D01*
X610100D01*
Y260002D01*
Y265851D01*
Y271101D01*
Y273500D01*
Y275900D01*
Y278000D01*
Y279950D01*
Y281600D01*
Y282950D01*
Y284149D01*
Y284899D01*
Y285499D01*
Y285649D01*
Y291649D01*
Y297348D01*
Y302598D01*
Y305148D01*
Y307397D01*
Y309497D01*
Y311447D01*
Y313097D01*
Y314597D01*
Y315797D01*
Y316547D01*
Y317147D01*
Y317297D01*
X636497D01*
X638897Y317446D01*
X643997D01*
X645647Y313697D01*
X647297Y309947D01*
X648796Y306497D01*
X650296Y303498D01*
X651496Y300798D01*
X651946Y299748D01*
X652396Y298848D01*
X652696Y298098D01*
X652996Y297498D01*
X653146Y297198D01*
Y297048D01*
X654946Y293299D01*
X656596Y289699D01*
X658246Y286249D01*
X659595Y283249D01*
X660795Y280700D01*
X661245Y279650D01*
X661695Y278750D01*
X661995Y278000D01*
X662295Y277400D01*
X662445Y277100D01*
Y276950D01*
X662595D01*
Y276800D01*
X662745D01*
X664545Y280550D01*
X666195Y284149D01*
X667845Y287599D01*
X669195Y290599D01*
X670395Y293149D01*
X670994Y294198D01*
X671444Y295249D01*
X671745Y295848D01*
X672045Y296448D01*
X672194Y296748D01*
Y296898D01*
X673844Y300648D01*
X675494Y304398D01*
X677144Y307847D01*
X678494Y310997D01*
X679094Y312347D01*
X679694Y313697D01*
X680294Y314747D01*
X680594Y315647D01*
X681044Y316397D01*
X681344Y316997D01*
X681494Y317297D01*
Y317446D01*
X988667D01*
X991067Y316997D01*
D02*
G37*
G36*
X592401Y274100D02*
Y272600D01*
Y271401D01*
Y270501D01*
Y269601D01*
Y269151D01*
Y268851D01*
Y268701D01*
X595551D01*
Y270051D01*
Y271401D01*
Y272300D01*
Y273200D01*
Y273800D01*
Y274250D01*
Y274400D01*
Y274550D01*
X597351D01*
Y273200D01*
Y272001D01*
Y270951D01*
Y270201D01*
Y269601D01*
Y269001D01*
Y268851D01*
Y268701D01*
X600501D01*
Y270351D01*
Y271700D01*
Y272750D01*
Y273800D01*
Y274550D01*
Y275000D01*
Y275300D01*
Y275450D01*
X602450D01*
Y273350D01*
Y271551D01*
Y269901D01*
Y268701D01*
Y267651D01*
Y267051D01*
Y266601D01*
Y266451D01*
X590452D01*
Y268701D01*
Y270501D01*
Y272150D01*
Y273500D01*
Y274400D01*
Y275150D01*
Y275600D01*
Y275750D01*
X592401D01*
Y274100D01*
D02*
G37*
G36*
X996766Y380591D02*
X994066Y373992D01*
X991517Y367692D01*
X989117Y361993D01*
X987017Y356743D01*
X985067Y351944D01*
X983268Y347444D01*
X981768Y343544D01*
X980268Y340095D01*
X979068Y337095D01*
X978018Y334545D01*
X977268Y332595D01*
X976668Y330945D01*
X976068Y329745D01*
X975918Y329146D01*
X975768Y328845D01*
X964669D01*
X961819Y336045D01*
X958970Y342644D01*
X956570Y348944D01*
X954170Y354643D01*
X952070Y359893D01*
X950120Y364842D01*
X948320Y369192D01*
X946671Y373092D01*
X945321Y376541D01*
X944121Y379541D01*
X943071Y382091D01*
X942321Y384041D01*
X941571Y385691D01*
X941121Y386890D01*
X940971Y387491D01*
X940821Y387790D01*
X952070D01*
X954170Y382391D01*
X956270Y377441D01*
X958220Y372792D01*
X959870Y368442D01*
X961519Y364543D01*
X963019Y360943D01*
X964369Y357643D01*
X965569Y354793D01*
X966619Y352094D01*
X967519Y349844D01*
X968269Y348044D01*
X968869Y346394D01*
X969469Y345194D01*
X969769Y344444D01*
X969919Y343844D01*
X970069Y343694D01*
X972318Y348944D01*
X974268Y354043D01*
X976218Y358693D01*
X978018Y362893D01*
X979668Y366942D01*
X981168Y370542D01*
X982517Y373842D01*
X983717Y376691D01*
X984917Y379241D01*
X985817Y381491D01*
X986567Y383441D01*
X987167Y385091D01*
X987767Y386291D01*
X988067Y387040D01*
X988217Y387640D01*
X988367Y387790D01*
X999616D01*
X996766Y380591D01*
D02*
G37*
G36*
X615799Y388990D02*
X618199Y388840D01*
X620299Y388540D01*
X622099Y388240D01*
X623749Y387790D01*
X624799Y387491D01*
X625549Y387341D01*
X625849Y387191D01*
X627948Y386291D01*
X629748Y385241D01*
X631548Y384041D01*
X633048Y382991D01*
X634248Y381941D01*
X635298Y381191D01*
X635898Y380591D01*
X636048Y380441D01*
X637547Y378791D01*
X638897Y376991D01*
X640097Y375341D01*
X640997Y373842D01*
X641747Y372492D01*
X642347Y371442D01*
X642647Y370842D01*
X642797Y370542D01*
X643547Y368442D01*
X644147Y366342D01*
X644447Y364243D01*
X644747Y362443D01*
X644897Y360793D01*
X645047Y359443D01*
Y358693D01*
Y358543D01*
Y358393D01*
X644897Y355993D01*
X644747Y353743D01*
X644297Y351644D01*
X643847Y349994D01*
X643547Y348494D01*
X643097Y347294D01*
X642947Y346694D01*
X642797Y346394D01*
X641897Y344444D01*
X640847Y342644D01*
X639797Y340994D01*
X638747Y339645D01*
X637847Y338445D01*
X637098Y337545D01*
X636497Y336945D01*
X636348Y336795D01*
X634548Y335295D01*
X632898Y333945D01*
X631248Y332745D01*
X629598Y331845D01*
X628248Y331095D01*
X627198Y330645D01*
X626598Y330345D01*
X626298Y330195D01*
X624199Y329445D01*
X622099Y328845D01*
X619999Y328546D01*
X618199Y328246D01*
X616549Y328096D01*
X615199Y327946D01*
X614150D01*
X611600Y328096D01*
X609350Y328396D01*
X607100Y328845D01*
X605300Y329296D01*
X603800Y329745D01*
X602601Y330195D01*
X602001Y330495D01*
X601701Y330645D01*
X599601Y331695D01*
X597651Y332895D01*
X595851Y334245D01*
X594351Y335445D01*
X593151Y336645D01*
X592101Y337545D01*
X591501Y338145D01*
X591351Y338445D01*
X592851Y340095D01*
X594201Y341445D01*
X595251Y342494D01*
X596151Y343544D01*
X596901Y344294D01*
X597351Y344744D01*
X597651Y345044D01*
X597801Y345194D01*
X599301Y343844D01*
X600651Y342794D01*
X601701Y342044D01*
X601851Y341744D01*
X602001D01*
X603350Y340844D01*
X604400Y340245D01*
X605300Y339795D01*
X605450Y339645D01*
X605600D01*
X607100Y339045D01*
X608450Y338595D01*
X609500Y338445D01*
X609650Y338295D01*
X609800D01*
X611450Y337995D01*
X613100Y337845D01*
X614599D01*
X617599Y337995D01*
X618799Y338295D01*
X619999Y338595D01*
X620899Y338745D01*
X621649Y339045D01*
X622099Y339195D01*
X622249D01*
X624649Y340545D01*
X625849Y341295D01*
X626748Y342044D01*
X627498Y342644D01*
X628098Y343244D01*
X628548Y343544D01*
X628698Y343694D01*
X630648Y346094D01*
X631998Y348194D01*
X632598Y349094D01*
X632898Y349844D01*
X633048Y350294D01*
X633198Y350444D01*
X634098Y353443D01*
X634398Y354793D01*
X634548Y355993D01*
Y357043D01*
X634698Y357943D01*
Y358543D01*
Y358693D01*
X634398Y361843D01*
X634248Y363343D01*
X633948Y364543D01*
X633648Y365592D01*
X633498Y366342D01*
X633198Y366792D01*
Y366942D01*
X631698Y369492D01*
X630948Y370692D01*
X630198Y371592D01*
X629598Y372492D01*
X628998Y373092D01*
X628698Y373392D01*
X628548Y373542D01*
X627348Y374592D01*
X626148Y375491D01*
X624049Y376841D01*
X623149Y377291D01*
X622399Y377591D01*
X621949Y377891D01*
X621799D01*
X618799Y378791D01*
X617449Y379091D01*
X616249Y379241D01*
X615199Y379391D01*
X611750D01*
X610250Y379241D01*
X609650D01*
X609200Y379091D01*
X608750D01*
X607100Y378641D01*
X605750Y378191D01*
X604850Y377891D01*
X604700Y377741D01*
X604550D01*
X603200Y376991D01*
X602001Y376241D01*
X601101Y375792D01*
X600951Y375491D01*
X600801D01*
X599301Y374442D01*
X597951Y373242D01*
X597051Y372342D01*
X596901Y372192D01*
X596751Y372042D01*
X595251Y373692D01*
X593901Y375042D01*
X592851Y376391D01*
X591951Y377291D01*
X591202Y378041D01*
X590751Y378641D01*
X590452Y378941D01*
X590302Y379091D01*
X592101Y380891D01*
X593901Y382391D01*
X595551Y383591D01*
X597201Y384641D01*
X598551Y385541D01*
X599751Y386141D01*
X600351Y386441D01*
X600651Y386590D01*
X602900Y387491D01*
X605150Y388090D01*
X607250Y388540D01*
X609200Y388840D01*
X610850Y388990D01*
X612200Y389140D01*
X613400D01*
X615799Y388990D01*
D02*
G37*
G36*
X816632Y383741D02*
Y379991D01*
Y376541D01*
Y373242D01*
Y370392D01*
Y367692D01*
Y365142D01*
Y362893D01*
Y360943D01*
Y359293D01*
Y357943D01*
Y356743D01*
Y355843D01*
Y355093D01*
Y354793D01*
Y354643D01*
X816482Y352393D01*
X816332Y350294D01*
X816032Y348344D01*
X815732Y346694D01*
X815432Y345344D01*
X815282Y344294D01*
X814982Y343694D01*
Y343394D01*
X814232Y341594D01*
X813332Y339945D01*
X812582Y338595D01*
X811682Y337395D01*
X810932Y336345D01*
X810332Y335595D01*
X809883Y335145D01*
X809733Y334995D01*
X806883Y332745D01*
X805533Y331995D01*
X804333Y331245D01*
X803133Y330645D01*
X802383Y330195D01*
X801783Y330045D01*
X801633Y329896D01*
X799833Y329296D01*
X798034Y328845D01*
X796384Y328546D01*
X794884Y328396D01*
X793534Y328246D01*
X792484Y328096D01*
X791584D01*
X789634Y328246D01*
X787684Y328396D01*
X786035Y328696D01*
X784535Y328996D01*
X783335Y329296D01*
X782435Y329595D01*
X781835Y329896D01*
X781685D01*
X778535Y331395D01*
X777185Y332295D01*
X775985Y333195D01*
X774936Y333795D01*
X774186Y334395D01*
X773736Y334845D01*
X773586Y334995D01*
X772386Y336345D01*
X771336Y337695D01*
X770436Y339195D01*
X769686Y340545D01*
X769086Y341594D01*
X768636Y342644D01*
X768486Y343244D01*
X768336Y343394D01*
X767736Y345344D01*
X767286Y347294D01*
X766986Y349094D01*
X766686Y350894D01*
Y352393D01*
X766536Y353593D01*
Y354343D01*
Y354643D01*
Y358693D01*
Y362443D01*
Y365892D01*
Y369192D01*
Y372192D01*
Y374892D01*
Y377291D01*
Y379541D01*
Y381491D01*
Y383141D01*
Y384641D01*
Y385691D01*
Y386590D01*
Y387341D01*
Y387640D01*
Y387790D01*
X776585D01*
Y383891D01*
Y380141D01*
Y376691D01*
Y373542D01*
Y370542D01*
Y367842D01*
Y365442D01*
Y363343D01*
Y361393D01*
Y359743D01*
Y358243D01*
Y357193D01*
Y356293D01*
Y355543D01*
Y355243D01*
Y355093D01*
X776735Y352393D01*
X776885Y351194D01*
X777035Y350144D01*
X777185Y349244D01*
X777335Y348644D01*
X777485Y348194D01*
Y348044D01*
X778385Y345794D01*
X778835Y344744D01*
X779435Y343994D01*
X779735Y343394D01*
X780185Y342944D01*
X780335Y342644D01*
X780485Y342494D01*
X782135Y340844D01*
X783785Y339795D01*
X784385Y339345D01*
X784985Y339045D01*
X785285Y338745D01*
X785435D01*
X787534Y338145D01*
X789484Y337845D01*
X790384Y337695D01*
X791584D01*
X794134Y337845D01*
X795184Y337995D01*
X796084Y338295D01*
X796834Y338445D01*
X797434Y338595D01*
X797734Y338745D01*
X797884D01*
X799833Y339945D01*
X801333Y341144D01*
X801933Y341594D01*
X802383Y342044D01*
X802533Y342344D01*
X802683Y342494D01*
X804033Y344144D01*
X804933Y345944D01*
X805233Y346694D01*
X805533Y347294D01*
X805683Y347594D01*
Y347744D01*
X806283Y350294D01*
X806433Y351494D01*
X806583Y352543D01*
Y353593D01*
Y354343D01*
Y354793D01*
Y354943D01*
Y358993D01*
Y362593D01*
Y366042D01*
Y369342D01*
Y372342D01*
Y374892D01*
Y377441D01*
Y379541D01*
Y381491D01*
Y383141D01*
Y384641D01*
Y385691D01*
Y386590D01*
Y387341D01*
Y387640D01*
Y387790D01*
X816632D01*
Y383741D01*
D02*
G37*
G36*
X862378Y380591D02*
Y373992D01*
Y367692D01*
Y361993D01*
Y356743D01*
Y351944D01*
Y347444D01*
Y343544D01*
Y340095D01*
Y337095D01*
Y334545D01*
Y332595D01*
Y330945D01*
Y329745D01*
Y329146D01*
Y328845D01*
X825481D01*
Y330945D01*
Y332895D01*
Y334545D01*
Y335745D01*
Y336795D01*
Y337545D01*
Y337995D01*
Y338145D01*
X852479D01*
Y344144D01*
Y349844D01*
Y355093D01*
Y359893D01*
Y364393D01*
Y368442D01*
Y372042D01*
Y375341D01*
Y378341D01*
Y380891D01*
Y382991D01*
Y384641D01*
Y385991D01*
Y387040D01*
Y387640D01*
Y387790D01*
X862378D01*
Y380591D01*
D02*
G37*
G36*
X750938D02*
Y373992D01*
Y367692D01*
Y361993D01*
Y356743D01*
Y351944D01*
Y347444D01*
Y343544D01*
Y340095D01*
Y337095D01*
Y334545D01*
Y332595D01*
Y330945D01*
Y329745D01*
Y329146D01*
Y328845D01*
X740889D01*
Y334395D01*
Y339645D01*
Y344444D01*
Y348944D01*
Y353143D01*
Y356893D01*
Y360343D01*
Y363343D01*
Y366042D01*
Y368442D01*
Y370392D01*
Y372042D01*
Y373242D01*
Y374142D01*
Y374742D01*
Y374892D01*
X738339Y369942D01*
X736089Y365292D01*
X733989Y360943D01*
X731889Y357043D01*
X730089Y353293D01*
X728440Y349994D01*
X726790Y346844D01*
X725440Y344144D01*
X724240Y341744D01*
X723190Y339645D01*
X722290Y337995D01*
X721690Y336495D01*
X721090Y335445D01*
X720640Y334545D01*
X720490Y334095D01*
X720340Y333945D01*
X714941D01*
X712391Y338895D01*
X710141Y343544D01*
X707891Y347894D01*
X705941Y351794D01*
X703992Y355543D01*
X702342Y358843D01*
X700842Y361993D01*
X699492Y364692D01*
X698292Y367092D01*
X697242Y369192D01*
X696342Y370842D01*
X695592Y372342D01*
X695143Y373392D01*
X694693Y374292D01*
X694392Y374742D01*
Y369342D01*
Y364092D01*
Y359293D01*
Y354793D01*
Y350594D01*
Y346844D01*
Y343394D01*
Y340395D01*
Y337695D01*
Y335295D01*
Y333345D01*
Y331695D01*
Y330495D01*
Y329595D01*
Y328996D01*
Y328845D01*
X684193D01*
Y336045D01*
Y342644D01*
Y348944D01*
Y354643D01*
Y359893D01*
Y364842D01*
Y369192D01*
Y373092D01*
Y376541D01*
Y379541D01*
Y382091D01*
Y384041D01*
Y385691D01*
Y386890D01*
Y387491D01*
Y387790D01*
X699492D01*
X701592Y383291D01*
X703692Y379091D01*
X705641Y375191D01*
X707291Y371592D01*
X708941Y368292D01*
X710441Y365142D01*
X711791Y362443D01*
X712991Y360043D01*
X714041Y357793D01*
X714941Y355993D01*
X715691Y354343D01*
X716291Y352994D01*
X716891Y352094D01*
X717190Y351344D01*
X717340Y350894D01*
X717490Y350744D01*
X719590Y355243D01*
X721690Y359443D01*
X723490Y363343D01*
X725290Y366942D01*
X726940Y370242D01*
X728290Y373242D01*
X729640Y376091D01*
X730839Y378491D01*
X731889Y380741D01*
X732789Y382541D01*
X733539Y384191D01*
X734139Y385541D01*
X734739Y386441D01*
X735039Y387191D01*
X735339Y387640D01*
Y387790D01*
X750938D01*
Y380591D01*
D02*
G37*
G36*
X908574Y388840D02*
X910974Y388690D01*
X913074Y388390D01*
X914873Y387940D01*
X916373Y387491D01*
X917423Y387191D01*
X918173Y387040D01*
X918473Y386890D01*
X920423Y385991D01*
X922373Y384941D01*
X924023Y383891D01*
X925523Y382841D01*
X926722Y381791D01*
X927622Y381041D01*
X928222Y380441D01*
X928372Y380291D01*
X930022Y378641D01*
X931372Y376991D01*
X932572Y375341D01*
X933622Y373992D01*
X934372Y372642D01*
X934822Y371592D01*
X935122Y370992D01*
X935272Y370692D01*
X935872Y368592D01*
X936321Y366492D01*
X936771Y364393D01*
X936921Y362593D01*
X937072Y360943D01*
X937222Y359593D01*
Y358843D01*
Y358693D01*
Y358543D01*
X937072Y356143D01*
X936921Y354043D01*
X936621Y351944D01*
X936172Y350144D01*
X935872Y348794D01*
X935572Y347594D01*
X935422Y346994D01*
X935272Y346694D01*
X934372Y344744D01*
X933172Y342794D01*
X932122Y341144D01*
X930922Y339795D01*
X930022Y338595D01*
X929122Y337695D01*
X928522Y337095D01*
X928372Y336945D01*
X926722Y335295D01*
X924922Y333945D01*
X923273Y332895D01*
X921773Y331845D01*
X920423Y331095D01*
X919373Y330645D01*
X918773Y330345D01*
X918473Y330195D01*
X916373Y329445D01*
X914124Y328845D01*
X912024Y328546D01*
X910224Y328246D01*
X908574Y328096D01*
X907224Y327946D01*
X906174D01*
X903774Y328096D01*
X901525Y328246D01*
X899425Y328696D01*
X897625Y329146D01*
X896125Y329445D01*
X894925Y329896D01*
X894325Y330045D01*
X894025Y330195D01*
X891925Y331095D01*
X890126Y332145D01*
X888476Y333345D01*
X886976Y334395D01*
X885626Y335445D01*
X884726Y336195D01*
X884126Y336795D01*
X883976Y336945D01*
X882326Y338595D01*
X880976Y340245D01*
X879926Y341894D01*
X878876Y343394D01*
X878127Y344744D01*
X877677Y345794D01*
X877377Y346394D01*
X877227Y346694D01*
X876477Y348794D01*
X875877Y350894D01*
X875577Y352844D01*
X875277Y354643D01*
X875127Y356293D01*
X874977Y357493D01*
Y358243D01*
Y358543D01*
X875127Y360943D01*
X875277Y363193D01*
X875727Y365292D01*
X876027Y367092D01*
X876477Y368442D01*
X876927Y369642D01*
X877077Y370242D01*
X877227Y370542D01*
X878127Y372492D01*
X879176Y374292D01*
X880376Y375942D01*
X881426Y377441D01*
X882476Y378641D01*
X883226Y379541D01*
X883826Y380141D01*
X883976Y380291D01*
X885626Y381941D01*
X887426Y383291D01*
X889076Y384341D01*
X890725Y385241D01*
X892075Y385991D01*
X893125Y386441D01*
X893725Y386740D01*
X894025Y386890D01*
X896125Y387640D01*
X898225Y388090D01*
X900325Y388540D01*
X902124Y388690D01*
X903774Y388840D01*
X905124Y388990D01*
X906174D01*
X908574Y388840D01*
D02*
G37*
G36*
X667845Y380591D02*
Y373992D01*
Y367692D01*
Y361993D01*
Y356743D01*
Y351944D01*
Y347444D01*
Y343544D01*
Y340095D01*
Y337095D01*
Y334545D01*
Y332595D01*
Y330945D01*
Y329745D01*
Y329146D01*
Y328845D01*
X657946D01*
Y336045D01*
Y342644D01*
Y348944D01*
Y354643D01*
Y359893D01*
Y364842D01*
Y369192D01*
Y373092D01*
Y376541D01*
Y379541D01*
Y382091D01*
Y384041D01*
Y385691D01*
Y386890D01*
Y387491D01*
Y387790D01*
X667845D01*
Y380591D01*
D02*
G37*
%LPC*%
G36*
X598851Y285949D02*
X597801D01*
X597501Y285799D01*
X597051Y285499D01*
X596901Y285349D01*
X596751Y284749D01*
X596601Y284599D01*
Y284449D01*
X596451Y283999D01*
Y283400D01*
Y282950D01*
Y282799D01*
Y281750D01*
Y280850D01*
Y280250D01*
Y280100D01*
X600651D01*
Y281300D01*
Y282200D01*
Y282799D01*
Y282950D01*
Y283549D01*
X600501Y283999D01*
Y284299D01*
Y284449D01*
X600351Y285199D01*
X600201Y285349D01*
X599751Y285649D01*
X599601Y285799D01*
X598851Y285949D01*
D02*
G37*
G36*
X1101757Y389140D02*
X1100107D01*
X1096358Y388990D01*
X1092758Y388690D01*
X1089458Y388240D01*
X1086459Y387790D01*
X1084059Y387341D01*
X1083009Y387040D01*
X1082259Y386890D01*
X1081509Y386740D01*
X1081059Y386590D01*
X1080759Y386441D01*
X1080609D01*
X1077159Y385391D01*
X1074010Y384191D01*
X1071010Y382841D01*
X1068460Y381641D01*
X1066360Y380591D01*
X1064710Y379691D01*
X1064110Y379391D01*
X1063661Y379091D01*
X1063511Y378941D01*
X1063361D01*
X1058111Y375191D01*
X1055711Y373242D01*
X1053461Y371142D01*
X1051362Y369042D01*
X1049412Y367092D01*
X1047612Y364992D01*
X1045962Y363043D01*
X1044612Y361243D01*
X1043262Y359593D01*
X1042212Y358093D01*
X1041312Y356743D01*
X1040563Y355693D01*
X1040113Y354943D01*
X1039813Y354343D01*
X1039663Y354193D01*
X1038013Y351194D01*
X1036663Y348194D01*
X1035463Y345194D01*
X1034413Y342194D01*
X1033513Y339195D01*
X1032913Y336345D01*
X1032313Y333645D01*
X1031713Y331095D01*
X1031413Y328696D01*
X1031113Y326446D01*
X1030963Y324496D01*
X1030813Y322846D01*
X1030663Y321496D01*
Y320596D01*
Y319846D01*
Y319696D01*
X1030813Y316097D01*
X1031113Y312497D01*
X1031563Y309347D01*
X1032013Y306348D01*
X1032463Y303948D01*
X1032763Y302898D01*
X1032913Y302148D01*
X1033063Y301398D01*
X1033213Y300948D01*
X1033363Y300648D01*
Y300498D01*
X1034563Y297048D01*
X1035763Y293899D01*
X1036963Y290899D01*
X1038313Y288349D01*
X1039363Y286249D01*
X1040263Y284599D01*
X1040563Y283999D01*
X1040863Y283549D01*
X1041012Y283400D01*
Y283249D01*
X1044762Y278000D01*
X1046712Y275600D01*
X1048662Y273350D01*
X1050762Y271250D01*
X1052861Y269301D01*
X1054811Y267501D01*
X1056761Y265851D01*
X1058561Y264501D01*
X1060211Y263151D01*
X1061711Y262101D01*
X1063061Y261201D01*
X1064110Y260452D01*
X1064860Y260002D01*
X1065460Y259701D01*
X1065610Y259552D01*
X1068610Y257902D01*
X1071610Y256552D01*
X1074610Y255352D01*
X1077609Y254302D01*
X1080609Y253552D01*
X1083459Y252802D01*
X1086159Y252202D01*
X1088708Y251752D01*
X1091108Y251302D01*
X1093358Y251002D01*
X1095308Y250852D01*
X1096958Y250702D01*
X1098307Y250552D01*
X1100107D01*
X1103557Y250702D01*
X1106857Y251002D01*
X1110156Y251452D01*
X1113156Y251902D01*
X1116156Y252652D01*
X1119006Y253402D01*
X1121705Y254152D01*
X1124105Y255052D01*
X1126355Y255952D01*
X1128305Y256702D01*
X1130105Y257452D01*
X1131605Y258202D01*
X1132654Y258652D01*
X1133555Y259102D01*
X1134154Y259402D01*
X1134304Y259552D01*
X1137154Y261351D01*
X1139854Y263151D01*
X1142254Y265101D01*
X1144653Y267051D01*
X1146903Y269001D01*
X1148853Y270951D01*
X1150803Y272900D01*
X1152453Y274700D01*
X1153953Y276500D01*
X1155303Y278000D01*
X1156352Y279500D01*
X1157402Y280700D01*
X1158152Y281750D01*
X1158602Y282500D01*
X1158902Y282950D01*
X1159052Y283099D01*
X1160702Y286099D01*
X1162202Y289249D01*
X1163552Y292099D01*
X1164602Y294799D01*
X1165502Y297048D01*
X1165952Y298098D01*
X1166102Y298848D01*
X1166402Y299598D01*
X1166552Y300048D01*
X1166702Y300348D01*
Y300498D01*
X1167601Y303948D01*
X1168201Y307397D01*
X1168801Y310547D01*
X1169101Y313547D01*
X1169251Y316097D01*
Y317147D01*
X1169401Y318046D01*
Y318646D01*
Y319246D01*
Y319546D01*
Y319696D01*
X1169251Y323146D01*
X1168951Y326596D01*
X1168501Y329896D01*
X1168052Y333045D01*
X1167301Y336045D01*
X1166552Y338745D01*
X1165802Y341445D01*
X1164902Y343844D01*
X1164002Y346094D01*
X1163252Y348194D01*
X1162502Y349844D01*
X1161752Y351344D01*
X1161302Y352543D01*
X1160852Y353293D01*
X1160552Y353893D01*
X1160402Y354043D01*
X1158602Y356893D01*
X1156802Y359593D01*
X1154853Y362143D01*
X1152903Y364543D01*
X1150953Y366792D01*
X1149003Y368742D01*
X1147053Y370692D01*
X1145104Y372342D01*
X1143454Y373842D01*
X1141804Y375191D01*
X1140454Y376241D01*
X1139104Y377291D01*
X1138054Y378041D01*
X1137304Y378491D01*
X1136854Y378791D01*
X1136704Y378941D01*
X1133704Y380591D01*
X1130555Y382091D01*
X1127705Y383441D01*
X1125005Y384491D01*
X1122755Y385391D01*
X1121705Y385691D01*
X1120956Y385991D01*
X1120206Y386141D01*
X1119756Y386291D01*
X1119456Y386441D01*
X1119306D01*
X1115856Y387341D01*
X1112406Y387940D01*
X1109107Y388540D01*
X1106257Y388840D01*
X1103707Y388990D01*
X1102657D01*
X1101757Y389140D01*
D02*
G37*
%LPD*%
G36*
X1085859Y351044D02*
X1087958Y344444D01*
X1090058Y338445D01*
X1092008Y332895D01*
X1093658Y327646D01*
X1095308Y322996D01*
X1096808Y318796D01*
X1098008Y314897D01*
X1099207Y311597D01*
X1100257Y308747D01*
X1101007Y306197D01*
X1101757Y304248D01*
X1102207Y302598D01*
X1102657Y301548D01*
X1102807Y300948D01*
X1102957Y300648D01*
X1102057Y298398D01*
X1101307Y296148D01*
X1100557Y294198D01*
X1099957Y292249D01*
X1099357Y290599D01*
X1098757Y288949D01*
X1097708Y286399D01*
X1096958Y284299D01*
X1096508Y282799D01*
X1096208Y281900D01*
X1096058Y281600D01*
X1092908Y290899D01*
X1090058Y299448D01*
X1087358Y307547D01*
X1084809Y315047D01*
X1082559Y321796D01*
X1080459Y328096D01*
X1078509Y333795D01*
X1076859Y338895D01*
X1075359Y343244D01*
X1074010Y347144D01*
X1072960Y350444D01*
X1072060Y353143D01*
X1071310Y355243D01*
X1070860Y356743D01*
X1070560Y357643D01*
X1070410Y357943D01*
X1083459D01*
X1085859Y351044D01*
D02*
G37*
G36*
X1128155Y351194D02*
X1125905Y344744D01*
X1123955Y338895D01*
X1122005Y333495D01*
X1120356Y328396D01*
X1118706Y323746D01*
X1117356Y319696D01*
X1116156Y315947D01*
X1114956Y312647D01*
X1114056Y309797D01*
X1113156Y307397D01*
X1112556Y305298D01*
X1111956Y303798D01*
X1111656Y302748D01*
X1111356Y301998D01*
Y301848D01*
X1109856Y306047D01*
X1108507Y309647D01*
X1107457Y312647D01*
X1106557Y315197D01*
X1105807Y317147D01*
X1105357Y318646D01*
X1105057Y319396D01*
X1104907Y319696D01*
X1106407Y324346D01*
X1107907Y328696D01*
X1109257Y332745D01*
X1110456Y336495D01*
X1111656Y339945D01*
X1112706Y343094D01*
X1113606Y345944D01*
X1114506Y348494D01*
X1115256Y350744D01*
X1115856Y352543D01*
X1116456Y354193D01*
X1116906Y355543D01*
X1117206Y356593D01*
X1117506Y357343D01*
X1117656Y357793D01*
Y357943D01*
X1130405D01*
X1128155Y351194D01*
D02*
G37*
G36*
X1069060Y352393D02*
X1070860Y346994D01*
X1072660Y341894D01*
X1074310Y336795D01*
X1075959Y331995D01*
X1077459Y327346D01*
X1078959Y322846D01*
X1080459Y318646D01*
X1081809Y314447D01*
X1083159Y310547D01*
X1084359Y306798D01*
X1085559Y303198D01*
X1086758Y299748D01*
X1087808Y296448D01*
X1088858Y293449D01*
X1089908Y290599D01*
X1090808Y287749D01*
X1091558Y285199D01*
X1092458Y282950D01*
X1093208Y280700D01*
X1093808Y278750D01*
X1094408Y276800D01*
X1095008Y275150D01*
X1095458Y273650D01*
X1095908Y272450D01*
X1096358Y271250D01*
X1096658Y270351D01*
X1096958Y269451D01*
X1097108Y268851D01*
X1097258Y268401D01*
X1097408Y268251D01*
Y268101D01*
X1084359D01*
X1082559Y273650D01*
X1080759Y278900D01*
X1078959Y284149D01*
X1077309Y289099D01*
X1075659Y293899D01*
X1074160Y298548D01*
X1072660Y303048D01*
X1071160Y307397D01*
X1069810Y311447D01*
X1068460Y315347D01*
X1067110Y319096D01*
X1065910Y322696D01*
X1064710Y326146D01*
X1063661Y329445D01*
X1062611Y332445D01*
X1061711Y335445D01*
X1060811Y338145D01*
X1059911Y340695D01*
X1059161Y343094D01*
X1058411Y345194D01*
X1057661Y347294D01*
X1057061Y349094D01*
X1056461Y350744D01*
X1056011Y352243D01*
X1055561Y353593D01*
X1055111Y354793D01*
X1054811Y355693D01*
X1054511Y356593D01*
X1054361Y357193D01*
X1054211Y357643D01*
X1054061Y357793D01*
Y357943D01*
X1067260D01*
X1069060Y352393D01*
D02*
G37*
G36*
X1144653D02*
X1142854Y346994D01*
X1141054Y341894D01*
X1139404Y336795D01*
X1137754Y331995D01*
X1136254Y327346D01*
X1134754Y322846D01*
X1133254Y318646D01*
X1131905Y314447D01*
X1130555Y310547D01*
X1129355Y306798D01*
X1128005Y303198D01*
X1126955Y299748D01*
X1125905Y296448D01*
X1124855Y293449D01*
X1123805Y290599D01*
X1122905Y287749D01*
X1122005Y285199D01*
X1121255Y282950D01*
X1120506Y280700D01*
X1119906Y278750D01*
X1119306Y276800D01*
X1118706Y275150D01*
X1118256Y273650D01*
X1117806Y272450D01*
X1117356Y271250D01*
X1117056Y270351D01*
X1116756Y269451D01*
X1116606Y268851D01*
X1116456Y268401D01*
X1116306Y268251D01*
Y268101D01*
X1103257D01*
X1105057Y273650D01*
X1106857Y278900D01*
X1108657Y284149D01*
X1110306Y289099D01*
X1111956Y293899D01*
X1113606Y298548D01*
X1115106Y303048D01*
X1116456Y307397D01*
X1117956Y311447D01*
X1119156Y315347D01*
X1120506Y319096D01*
X1121705Y322696D01*
X1122905Y326146D01*
X1123955Y329445D01*
X1125005Y332445D01*
X1125905Y335445D01*
X1126805Y338145D01*
X1127705Y340695D01*
X1128455Y343094D01*
X1129205Y345194D01*
X1129805Y347294D01*
X1130555Y349094D01*
X1131005Y350744D01*
X1131605Y352243D01*
X1131905Y353593D01*
X1132355Y354793D01*
X1132654Y355693D01*
X1132954Y356593D01*
X1133104Y357193D01*
X1133254Y357643D01*
X1133404Y357793D01*
Y357943D01*
X1146453D01*
X1144653Y352393D01*
D02*
G37*
%LPC*%
G36*
X906774Y380141D02*
X904374D01*
X902874Y379841D01*
X901525Y379691D01*
X900325Y379391D01*
X899275Y379091D01*
X898525Y378791D01*
X898075Y378641D01*
X897925Y378491D01*
X896575Y377891D01*
X895375Y377141D01*
X894175Y376391D01*
X893275Y375642D01*
X892525Y374892D01*
X891775Y374292D01*
X891475Y373992D01*
X891325Y373842D01*
X890275Y372642D01*
X889226Y371442D01*
X888476Y370392D01*
X887876Y369342D01*
X887276Y368292D01*
X886976Y367542D01*
X886676Y367092D01*
Y366942D01*
X885926Y364092D01*
X885626Y362593D01*
X885476Y361393D01*
X885326Y360193D01*
Y359293D01*
Y358693D01*
Y358543D01*
X885476Y355393D01*
X885776Y354043D01*
X885926Y352844D01*
X886226Y351794D01*
X886526Y351044D01*
X886676Y350444D01*
Y350294D01*
X887276Y348944D01*
X888026Y347594D01*
X888776Y346394D01*
X889526Y345494D01*
X890275Y344594D01*
X890875Y343994D01*
X891176Y343544D01*
X891325Y343394D01*
X893575Y341295D01*
X895675Y339795D01*
X896575Y339345D01*
X897325Y338895D01*
X897775Y338745D01*
X897925Y338595D01*
X900775Y337695D01*
X902124Y337395D01*
X903324Y337245D01*
X904374D01*
X905274Y337095D01*
X906024D01*
X909174Y337395D01*
X910524Y337545D01*
X911724Y337845D01*
X912774Y338145D01*
X913523Y338295D01*
X913973Y338595D01*
X914124D01*
X916673Y340095D01*
X917723Y340844D01*
X918773Y341594D01*
X919523Y342344D01*
X920123Y342944D01*
X920573Y343244D01*
X920723Y343394D01*
X921773Y344594D01*
X922823Y345794D01*
X923573Y346994D01*
X924173Y348044D01*
X924772Y348944D01*
X925072Y349694D01*
X925222Y350144D01*
X925372Y350294D01*
X926272Y353293D01*
X926572Y354643D01*
X926722Y355843D01*
Y356893D01*
X926872Y357793D01*
Y358393D01*
Y358543D01*
X926572Y361693D01*
X926422Y363193D01*
X926122Y364393D01*
X925823Y365442D01*
X925673Y366192D01*
X925372Y366642D01*
Y366792D01*
X924772Y368292D01*
X924023Y369492D01*
X923273Y370692D01*
X922523Y371742D01*
X921773Y372642D01*
X921173Y373242D01*
X920873Y373692D01*
X920723Y373842D01*
X919673Y374892D01*
X918473Y375942D01*
X917423Y376691D01*
X916373Y377291D01*
X915473Y377891D01*
X914723Y378191D01*
X914274Y378491D01*
X914124D01*
X912624Y379091D01*
X911274Y379391D01*
X909924Y379691D01*
X908724Y379991D01*
X907524D01*
X906774Y380141D01*
D02*
G37*
%LPD*%
D49*
X796000Y229997D02*
X792001Y222000D01*
X788003Y229997D01*
X784004Y222000D02*
X780005D01*
X782004D01*
Y233996D01*
X784004Y231997D01*
X774007Y222000D02*
Y223999D01*
X772008D01*
Y222000D01*
X774007D01*
X758012D02*
Y233996D01*
X764010Y227998D01*
X756013D01*
X740018Y233996D02*
Y222000D01*
X734020D01*
X732021Y223999D01*
Y225999D01*
Y227998D01*
X734020Y229997D01*
X740018D01*
X728022D02*
Y223999D01*
X726023Y222000D01*
X720025D01*
Y220001D01*
X722024Y218001D01*
X724023D01*
X720025Y222000D02*
Y229997D01*
X704030Y222000D02*
Y229997D01*
X700031Y233996D01*
X696032Y229997D01*
Y222000D01*
Y227998D01*
X704030D01*
X692034Y229997D02*
Y223999D01*
X690034Y222000D01*
X684036D01*
Y229997D01*
X680038Y222000D02*
X674040D01*
X672040Y223999D01*
X674040Y225999D01*
X678038D01*
X680038Y227998D01*
X678038Y229997D01*
X672040D01*
X668041Y231997D02*
X666042Y233996D01*
X662043D01*
X660044Y231997D01*
Y229997D01*
X662043Y227998D01*
X664043D01*
X662043D01*
X660044Y225999D01*
Y223999D01*
X662043Y222000D01*
X666042D01*
X668041Y223999D01*
X656045Y233996D02*
Y222000D01*
X650047D01*
X648048Y223999D01*
Y231997D01*
X650047Y233996D01*
X656045D01*
D118*
X239907Y659040D02*
D03*
X767374Y144884D02*
D03*
X853736Y144880D02*
D03*
X265308Y724440D02*
D03*
X447426D02*
D03*
X372618Y289128D02*
D03*
X563664Y390728D02*
D03*
X334264Y204292D02*
D03*
X905745Y658952D02*
D03*
X753500Y658698D02*
D03*
X601256D02*
D03*
X1362478Y658190D02*
D03*
X1210234Y658444D02*
D03*
X1057989Y658698D02*
D03*
X141520Y477850D02*
D03*
Y452450D02*
D03*
Y427050D02*
D03*
Y401650D02*
D03*
X116116Y527380D02*
D03*
X116116Y552780D02*
D03*
Y578180D02*
D03*
Y603580D02*
D03*
Y628980D02*
D03*
Y654380D02*
D03*
D144*
X1145832Y60782D02*
D03*
X1195832D02*
D03*
X1096010D02*
D03*
X1046010D02*
D03*
X1246162D02*
D03*
X1296162D02*
D03*
D145*
X1384908Y520162D02*
D03*
Y494762D02*
D03*
Y545562D02*
D03*
Y570962D02*
D03*
X1257908Y443962D02*
D03*
Y621762D02*
D03*
X1384908Y443962D02*
D03*
Y596362D02*
D03*
X1257908D02*
D03*
Y570962D02*
D03*
Y545562D02*
D03*
Y520162D02*
D03*
Y494762D02*
D03*
Y469362D02*
D03*
X1384908D02*
D03*
Y621762D02*
D03*
X774575Y621762D02*
D03*
Y469362D02*
D03*
X647575D02*
D03*
Y494762D02*
D03*
Y520162D02*
D03*
Y545562D02*
D03*
Y570962D02*
D03*
Y596362D02*
D03*
X774575D02*
D03*
Y443962D02*
D03*
X647575Y621762D02*
D03*
Y443962D02*
D03*
X774575Y570962D02*
D03*
Y545562D02*
D03*
Y494762D02*
D03*
Y520162D02*
D03*
X1079741Y520162D02*
D03*
Y494762D02*
D03*
Y545562D02*
D03*
Y570962D02*
D03*
X952741Y443962D02*
D03*
Y621762D02*
D03*
X1079741Y443962D02*
D03*
Y596362D02*
D03*
X952741D02*
D03*
Y570962D02*
D03*
Y545562D02*
D03*
Y520162D02*
D03*
Y494762D02*
D03*
Y469362D02*
D03*
X1079741D02*
D03*
Y621762D02*
D03*
X1232325D02*
D03*
Y469362D02*
D03*
X1105324D02*
D03*
Y494762D02*
D03*
Y520162D02*
D03*
Y545562D02*
D03*
Y570962D02*
D03*
Y596362D02*
D03*
X1232325D02*
D03*
Y443962D02*
D03*
X1105324Y621762D02*
D03*
Y443962D02*
D03*
X1232325Y570962D02*
D03*
Y545562D02*
D03*
Y494762D02*
D03*
Y520162D02*
D03*
X621992Y520162D02*
D03*
Y494762D02*
D03*
Y545562D02*
D03*
Y570962D02*
D03*
X494992Y443962D02*
D03*
Y621762D02*
D03*
X621992Y443962D02*
D03*
Y596362D02*
D03*
X494992D02*
D03*
Y570962D02*
D03*
Y545562D02*
D03*
Y520162D02*
D03*
Y494762D02*
D03*
Y469362D02*
D03*
X621992D02*
D03*
Y621762D02*
D03*
X927158D02*
D03*
Y469362D02*
D03*
X800158D02*
D03*
Y494762D02*
D03*
Y520162D02*
D03*
Y545562D02*
D03*
Y570962D02*
D03*
Y596362D02*
D03*
X927158D02*
D03*
Y443962D02*
D03*
X800158Y621762D02*
D03*
Y443962D02*
D03*
X927158Y570962D02*
D03*
Y545562D02*
D03*
Y494762D02*
D03*
Y520162D02*
D03*
D146*
X443484Y22428D02*
D03*
X420624Y204292D02*
D03*
X408178Y263728D02*
D03*
X65320Y341960D02*
D03*
X435706Y552462D02*
D03*
X208000Y69800D02*
D03*
D147*
X443484Y47828D02*
D03*
X420624Y229692D02*
D03*
X265308Y659040D02*
D03*
X408178Y289128D02*
D03*
X741974Y144884D02*
D03*
X828336Y144880D02*
D03*
X163708Y699040D02*
D03*
Y724440D02*
D03*
X189108Y699040D02*
D03*
Y724440D02*
D03*
X214508Y699040D02*
D03*
Y724440D02*
D03*
X239908Y699040D02*
D03*
Y724440D02*
D03*
X265308Y699040D02*
D03*
X447426D02*
D03*
X422026Y724440D02*
D03*
Y699040D02*
D03*
X396626Y724440D02*
D03*
Y699040D02*
D03*
X371226Y724440D02*
D03*
Y699040D02*
D03*
X345826Y724440D02*
D03*
Y699040D02*
D03*
X220218Y263728D02*
D03*
Y289128D02*
D03*
X245618Y263728D02*
D03*
Y289128D02*
D03*
X271018Y263728D02*
D03*
Y289128D02*
D03*
X296418Y263728D02*
D03*
Y289128D02*
D03*
X321818Y263728D02*
D03*
Y289128D02*
D03*
X347218Y263728D02*
D03*
Y289128D02*
D03*
X372618Y263728D02*
D03*
X90720Y341960D02*
D03*
X65320Y316560D02*
D03*
X90720D02*
D03*
X65320Y291160D02*
D03*
X90720D02*
D03*
X65320Y265760D02*
D03*
X90720D02*
D03*
X65320Y240360D02*
D03*
X90720D02*
D03*
X462064Y365328D02*
D03*
Y390728D02*
D03*
X487464Y365328D02*
D03*
Y390728D02*
D03*
X512864Y365328D02*
D03*
Y390728D02*
D03*
X538264Y365328D02*
D03*
Y390728D02*
D03*
X563664Y365328D02*
D03*
X385064Y229692D02*
D03*
Y204292D02*
D03*
X359664Y229692D02*
D03*
Y204292D02*
D03*
X334264Y229692D02*
D03*
X880345Y658952D02*
D03*
X854945D02*
D03*
X829545D02*
D03*
X677300Y658698D02*
D03*
X702700D02*
D03*
X728100D02*
D03*
X575856D02*
D03*
X550456D02*
D03*
X525056D02*
D03*
X1286278Y658190D02*
D03*
X1311678D02*
D03*
X1337078D02*
D03*
X1184834Y658444D02*
D03*
X1159434D02*
D03*
X1134034D02*
D03*
X981789Y658698D02*
D03*
X1007189D02*
D03*
X1032589D02*
D03*
X65320Y477850D02*
D03*
X90720D02*
D03*
X116120D02*
D03*
Y452450D02*
D03*
X90720D02*
D03*
X65320D02*
D03*
Y427050D02*
D03*
X90720D02*
D03*
X116120D02*
D03*
Y401650D02*
D03*
X90720D02*
D03*
X65320D02*
D03*
X90716Y527380D02*
D03*
X65316D02*
D03*
X65316Y552780D02*
D03*
X90716D02*
D03*
Y578180D02*
D03*
X65316D02*
D03*
Y603580D02*
D03*
X90716D02*
D03*
Y628980D02*
D03*
X65316D02*
D03*
Y654380D02*
D03*
X90716D02*
D03*
X461106Y552462D02*
D03*
X435706Y527062D02*
D03*
X461106D02*
D03*
X435706Y501662D02*
D03*
X461106D02*
D03*
X208000Y95200D02*
D03*
Y120600D02*
D03*
Y146000D02*
D03*
Y171400D02*
D03*
D148*
X855980Y62052D02*
D03*
X820980D02*
D03*
X735890Y61544D02*
D03*
X770890D02*
D03*
X687578D02*
D03*
X652578D02*
D03*
X1272430Y712440D02*
D03*
X1307430D02*
D03*
X1342430D02*
D03*
X1377430D02*
D03*
X967781Y712440D02*
D03*
X1002781D02*
D03*
X1037781D02*
D03*
X1072781D02*
D03*
X1120106Y712440D02*
D03*
X1155106D02*
D03*
X1190105D02*
D03*
X1225106D02*
D03*
X510808D02*
D03*
X545808D02*
D03*
X580808D02*
D03*
X615808D02*
D03*
X663132D02*
D03*
X698132D02*
D03*
X733132D02*
D03*
X768132D02*
D03*
X815456Y712440D02*
D03*
X850457D02*
D03*
X885456D02*
D03*
X920457D02*
D03*
X519938Y62052D02*
D03*
X484938D02*
D03*
X568758Y61290D02*
D03*
X603758D02*
D03*
D149*
X87726Y713248D02*
D03*
X1360208Y392252D02*
D03*
X86652Y38430D02*
D03*
X1362748Y36144D02*
D03*
D150*
X1202982Y345770D02*
D03*
X1367066Y196830D02*
D03*
X1347762Y181590D02*
D03*
X1387894Y182352D02*
D03*
X243000Y438000D02*
D03*
X328550Y521284D02*
D03*
D151*
X641731Y180416D02*
D03*
X656019Y154508D02*
D03*
X641731Y193370D02*
D03*
Y154508D02*
D03*
Y206324D02*
D03*
Y167462D02*
D03*
X670306Y154508D02*
D03*
X586486D02*
D03*
X557911Y167462D02*
D03*
Y206324D02*
D03*
X615061Y167462D02*
D03*
Y206324D02*
D03*
X557911Y154508D02*
D03*
Y193370D02*
D03*
X572198Y154508D02*
D03*
X600774D02*
D03*
X615061D02*
D03*
Y193370D02*
D03*
X557911Y180416D02*
D03*
X615061D02*
D03*
X530987Y180162D02*
D03*
X473837D02*
D03*
X530987Y193116D02*
D03*
Y154254D02*
D03*
X516699D02*
D03*
X488125D02*
D03*
X473837Y193116D02*
D03*
Y154254D02*
D03*
X530987Y206070D02*
D03*
Y167208D02*
D03*
X473837Y206070D02*
D03*
Y167208D02*
D03*
X502412Y154254D02*
D03*
X1315314Y245948D02*
D03*
X1329601D02*
D03*
X1343889D02*
D03*
X1358176Y297764D02*
D03*
Y284810D02*
D03*
Y271856D02*
D03*
Y258902D02*
D03*
Y245948D02*
D03*
Y232994D02*
D03*
X1343889D02*
D03*
X1329601D02*
D03*
X1315314D02*
D03*
X1301026D02*
D03*
Y245948D02*
D03*
Y258902D02*
D03*
Y271856D02*
D03*
Y284810D02*
D03*
Y297764D02*
D03*
X1290866Y239344D02*
D03*
Y252362D02*
D03*
Y265379D02*
D03*
Y278397D02*
D03*
Y291414D02*
D03*
X1367066D02*
D03*
Y278397D02*
D03*
Y265379D02*
D03*
Y252362D02*
D03*
Y239344D02*
D03*
D152*
X68250Y176000D02*
D03*
Y106000D02*
D03*
D153*
X95250Y166000D02*
D03*
Y116000D02*
D03*
D154*
X318482Y119998D02*
D03*
M02*
