G04 Layer_Color=8388736*
%FSLAX44Y44*%
%MOMM*%
G71*
G01*
G75*
%ADD103R,0.7000X0.6000*%
%ADD104R,0.9144X1.5240*%
%ADD105R,0.6032X0.4532*%
%ADD106R,1.8032X1.3032*%
%ADD107R,0.6032X0.7032*%
%ADD108R,1.2032X0.8032*%
%ADD109R,0.9652X1.4732*%
%ADD110R,1.3532X0.8032*%
%ADD111R,0.8032X1.3532*%
%ADD112R,1.6032X1.4032*%
%ADD113R,3.8032X2.6132*%
%ADD114O,0.8032X1.6532*%
%ADD115R,1.2032X1.3032*%
G04:AMPARAMS|DCode=116|XSize=1.0032mm|YSize=1.0032mm|CornerRadius=0.2016mm|HoleSize=0mm|Usage=FLASHONLY|Rotation=270.000|XOffset=0mm|YOffset=0mm|HoleType=Round|Shape=RoundedRectangle|*
%AMROUNDEDRECTD116*
21,1,1.0032,0.6000,0,0,270.0*
21,1,0.6000,1.0032,0,0,270.0*
1,1,0.4032,-0.3000,-0.3000*
1,1,0.4032,-0.3000,0.3000*
1,1,0.4032,0.3000,0.3000*
1,1,0.4032,0.3000,-0.3000*
%
%ADD116ROUNDEDRECTD116*%
%ADD117R,1.3032X1.2032*%
G04:AMPARAMS|DCode=118|XSize=2.9032mm|YSize=1.3532mm|CornerRadius=0.2454mm|HoleSize=0mm|Usage=FLASHONLY|Rotation=180.000|XOffset=0mm|YOffset=0mm|HoleType=Round|Shape=RoundedRectangle|*
%AMROUNDEDRECTD118*
21,1,2.9032,0.8625,0,0,180.0*
21,1,2.4125,1.3532,0,0,180.0*
1,1,0.4907,-1.2063,0.4313*
1,1,0.4907,1.2063,0.4313*
1,1,0.4907,1.2063,-0.4313*
1,1,0.4907,-1.2063,-0.4313*
%
%ADD118ROUNDEDRECTD118*%
G04:AMPARAMS|DCode=119|XSize=1.0032mm|YSize=1.0032mm|CornerRadius=0.2016mm|HoleSize=0mm|Usage=FLASHONLY|Rotation=180.000|XOffset=0mm|YOffset=0mm|HoleType=Round|Shape=RoundedRectangle|*
%AMROUNDEDRECTD119*
21,1,1.0032,0.6000,0,0,180.0*
21,1,0.6000,1.0032,0,0,180.0*
1,1,0.4032,-0.3000,0.3000*
1,1,0.4032,0.3000,0.3000*
1,1,0.4032,0.3000,-0.3000*
1,1,0.4032,-0.3000,-0.3000*
%
%ADD119ROUNDEDRECTD119*%
%ADD120R,2.1032X1.7032*%
%ADD121R,1.5532X0.6032*%
%ADD122R,3.0532X6.8032*%
%ADD123R,2.5532X5.3032*%
G04:AMPARAMS|DCode=124|XSize=2.7032mm|YSize=2.4032mm|CornerRadius=0.3766mm|HoleSize=0mm|Usage=FLASHONLY|Rotation=180.000|XOffset=0mm|YOffset=0mm|HoleType=Round|Shape=RoundedRectangle|*
%AMROUNDEDRECTD124*
21,1,2.7032,1.6500,0,0,180.0*
21,1,1.9500,2.4032,0,0,180.0*
1,1,0.7532,-0.9750,0.8250*
1,1,0.7532,0.9750,0.8250*
1,1,0.7532,0.9750,-0.8250*
1,1,0.7532,-0.9750,-0.8250*
%
%ADD124ROUNDEDRECTD124*%
G04:AMPARAMS|DCode=125|XSize=2.4032mm|YSize=1.7032mm|CornerRadius=0.2891mm|HoleSize=0mm|Usage=FLASHONLY|Rotation=0.000|XOffset=0mm|YOffset=0mm|HoleType=Round|Shape=RoundedRectangle|*
%AMROUNDEDRECTD125*
21,1,2.4032,1.1250,0,0,0.0*
21,1,1.8250,1.7032,0,0,0.0*
1,1,0.5782,0.9125,-0.5625*
1,1,0.5782,-0.9125,-0.5625*
1,1,0.5782,-0.9125,0.5625*
1,1,0.5782,0.9125,0.5625*
%
%ADD125ROUNDEDRECTD125*%
%ADD126R,5.2032X2.2032*%
%ADD127R,4.4032X3.4032*%
%ADD128R,0.9032X1.3532*%
%ADD129R,1.5032X1.7032*%
%ADD130R,3.2004X1.6002*%
%ADD131R,1.6002X3.2004*%
G04:AMPARAMS|DCode=132|XSize=1.4032mm|YSize=1.7032mm|CornerRadius=0.4016mm|HoleSize=0mm|Usage=FLASHONLY|Rotation=270.000|XOffset=0mm|YOffset=0mm|HoleType=Round|Shape=RoundedRectangle|*
%AMROUNDEDRECTD132*
21,1,1.4032,0.9000,0,0,270.0*
21,1,0.6000,1.7032,0,0,270.0*
1,1,0.8032,-0.4500,-0.3000*
1,1,0.8032,-0.4500,0.3000*
1,1,0.8032,0.4500,0.3000*
1,1,0.8032,0.4500,-0.3000*
%
%ADD132ROUNDEDRECTD132*%
%ADD133R,1.7032X1.7032*%
%ADD134O,0.5032X2.0032*%
%ADD135O,2.0032X0.5032*%
%ADD136O,0.7032X1.6032*%
%ADD137O,0.7032X1.8032*%
%ADD138O,1.6032X0.7032*%
%ADD139O,1.8032X0.7032*%
G04:AMPARAMS|DCode=140|XSize=0.8032mm|YSize=0.9032mm|CornerRadius=0.1766mm|HoleSize=0mm|Usage=FLASHONLY|Rotation=270.000|XOffset=0mm|YOffset=0mm|HoleType=Round|Shape=RoundedRectangle|*
%AMROUNDEDRECTD140*
21,1,0.8032,0.5500,0,0,270.0*
21,1,0.4500,0.9032,0,0,270.0*
1,1,0.3532,-0.2750,-0.2250*
1,1,0.3532,-0.2750,0.2250*
1,1,0.3532,0.2750,0.2250*
1,1,0.3532,0.2750,-0.2250*
%
%ADD140ROUNDEDRECTD140*%
G04:AMPARAMS|DCode=141|XSize=0.8032mm|YSize=0.9032mm|CornerRadius=0.1766mm|HoleSize=0mm|Usage=FLASHONLY|Rotation=180.000|XOffset=0mm|YOffset=0mm|HoleType=Round|Shape=RoundedRectangle|*
%AMROUNDEDRECTD141*
21,1,0.8032,0.5500,0,0,180.0*
21,1,0.4500,0.9032,0,0,180.0*
1,1,0.3532,-0.2250,0.2750*
1,1,0.3532,0.2250,0.2750*
1,1,0.3532,0.2250,-0.2750*
1,1,0.3532,-0.2250,-0.2750*
%
%ADD141ROUNDEDRECTD141*%
G04:AMPARAMS|DCode=142|XSize=2.4032mm|YSize=1.7032mm|CornerRadius=0.2891mm|HoleSize=0mm|Usage=FLASHONLY|Rotation=270.000|XOffset=0mm|YOffset=0mm|HoleType=Round|Shape=RoundedRectangle|*
%AMROUNDEDRECTD142*
21,1,2.4032,1.1250,0,0,270.0*
21,1,1.8250,1.7032,0,0,270.0*
1,1,0.5782,-0.5625,-0.9125*
1,1,0.5782,-0.5625,0.9125*
1,1,0.5782,0.5625,0.9125*
1,1,0.5782,0.5625,-0.9125*
%
%ADD142ROUNDEDRECTD142*%
%ADD143C,0.8032*%
%ADD144O,2.2032X2.8032*%
%ADD145C,1.7032*%
%ADD146R,1.7032X1.7032*%
G04:AMPARAMS|DCode=147|XSize=1.7032mm|YSize=2.1032mm|CornerRadius=0.4766mm|HoleSize=0mm|Usage=FLASHONLY|Rotation=270.000|XOffset=0mm|YOffset=0mm|HoleType=Round|Shape=RoundedRectangle|*
%AMROUNDEDRECTD147*
21,1,1.7032,1.1500,0,0,270.0*
21,1,0.7500,2.1032,0,0,270.0*
1,1,0.9532,-0.5750,-0.3750*
1,1,0.9532,-0.5750,0.3750*
1,1,0.9532,0.5750,0.3750*
1,1,0.9532,0.5750,-0.3750*
%
%ADD147ROUNDEDRECTD147*%
%ADD148C,1.6532*%
%ADD149C,1.7128*%
%ADD150C,3.2032*%
%ADD151C,1.2032*%
%ADD152C,1.7272*%
%ADD153O,3.2032X4.2032*%
%ADD154C,0.9032*%
D103*
X1237420Y502996D02*
D03*
X1250120D02*
D03*
X1262790Y502966D02*
D03*
X1084020Y503000D02*
D03*
X1096720D02*
D03*
X1109390Y502970D02*
D03*
X931620Y503000D02*
D03*
X944320D02*
D03*
X956990Y502970D02*
D03*
X779300Y503000D02*
D03*
X792000D02*
D03*
X804670Y502970D02*
D03*
X626900Y503000D02*
D03*
X639600D02*
D03*
X652270Y502970D02*
D03*
X499870D02*
D03*
X487200Y503000D02*
D03*
X474500D02*
D03*
D104*
X428000Y469998D02*
D03*
D105*
X410000Y474500D02*
D03*
D106*
Y468000D02*
D03*
D107*
X416500Y457500D02*
D03*
X403500D02*
D03*
D108*
X132000Y61000D02*
D03*
Y75000D02*
D03*
D109*
X499760Y542040D02*
D03*
X487060D02*
D03*
X474360D02*
D03*
X499760Y465840D02*
D03*
X487060D02*
D03*
X474360D02*
D03*
X956880Y542040D02*
D03*
X944180D02*
D03*
X931480D02*
D03*
X956880Y465840D02*
D03*
X944180D02*
D03*
X931480D02*
D03*
X1083880D02*
D03*
X1096580D02*
D03*
X1109280D02*
D03*
X1083880Y542040D02*
D03*
X1096580D02*
D03*
X1109280D02*
D03*
X1237280Y465836D02*
D03*
X1249980D02*
D03*
X1262680D02*
D03*
X1237280Y542036D02*
D03*
X1249980D02*
D03*
X1262680D02*
D03*
X626760Y465840D02*
D03*
X639460D02*
D03*
X652160D02*
D03*
X626760Y542040D02*
D03*
X639460D02*
D03*
X652160D02*
D03*
X804560D02*
D03*
X791860D02*
D03*
X779160D02*
D03*
X804560Y465840D02*
D03*
X791860D02*
D03*
X779160D02*
D03*
D110*
X104000Y141000D02*
D03*
X103750Y131500D02*
D03*
X80250D02*
D03*
Y141000D02*
D03*
Y150500D02*
D03*
X104000D02*
D03*
D111*
X1091402Y328436D02*
D03*
X1081902Y328686D02*
D03*
Y352186D02*
D03*
X1091402D02*
D03*
X1100902D02*
D03*
Y328436D02*
D03*
D112*
X239000Y38000D02*
D03*
X261000D02*
D03*
Y22000D02*
D03*
X239000D02*
D03*
X246000Y583000D02*
D03*
X268000D02*
D03*
Y599000D02*
D03*
X246000D02*
D03*
D113*
X908500Y264000D02*
D03*
D114*
X927550Y291250D02*
D03*
X914850D02*
D03*
X902150D02*
D03*
X889450D02*
D03*
X927550Y236750D02*
D03*
X914850D02*
D03*
X902150D02*
D03*
X889450D02*
D03*
D115*
X388000Y472500D02*
D03*
Y455500D02*
D03*
X1137000Y314500D02*
D03*
Y297500D02*
D03*
X1285466Y510322D02*
D03*
Y493322D02*
D03*
X1223000Y370500D02*
D03*
Y353500D02*
D03*
X1239000Y353500D02*
D03*
Y370500D02*
D03*
X1207000Y370500D02*
D03*
Y353500D02*
D03*
X1132206Y511124D02*
D03*
Y494124D02*
D03*
X979930Y510882D02*
D03*
Y493882D02*
D03*
X827784Y510882D02*
D03*
Y493882D02*
D03*
X676146Y510882D02*
D03*
Y493882D02*
D03*
X522730Y511644D02*
D03*
Y494644D02*
D03*
X1060398Y333968D02*
D03*
Y350968D02*
D03*
X1137234Y348936D02*
D03*
Y331936D02*
D03*
X132000Y91500D02*
D03*
Y108500D02*
D03*
X1121882Y348936D02*
D03*
Y331936D02*
D03*
X132000Y150500D02*
D03*
Y133500D02*
D03*
X333000Y452500D02*
D03*
Y469500D02*
D03*
X139000Y493500D02*
D03*
Y476500D02*
D03*
X1059890Y298408D02*
D03*
Y315408D02*
D03*
X868000Y255500D02*
D03*
Y238500D02*
D03*
X427512Y284929D02*
D03*
Y267928D02*
D03*
X444022Y284929D02*
D03*
Y267928D02*
D03*
X460531Y267929D02*
D03*
Y284928D02*
D03*
X507271Y284928D02*
D03*
Y267928D02*
D03*
X523780Y284929D02*
D03*
Y267928D02*
D03*
X540290D02*
D03*
Y284928D02*
D03*
X590840D02*
D03*
Y267928D02*
D03*
X607349Y284928D02*
D03*
Y267928D02*
D03*
X623858D02*
D03*
Y284928D02*
D03*
X680504D02*
D03*
Y267928D02*
D03*
X697013Y284928D02*
D03*
Y267928D02*
D03*
X713523D02*
D03*
Y284928D02*
D03*
X762292D02*
D03*
Y267928D02*
D03*
X792010D02*
D03*
Y284928D02*
D03*
X777024D02*
D03*
Y267928D02*
D03*
X868000Y275500D02*
D03*
Y292500D02*
D03*
X853000Y255500D02*
D03*
Y238500D02*
D03*
D116*
X373000Y455500D02*
D03*
Y472500D02*
D03*
X1121882Y298125D02*
D03*
Y315125D02*
D03*
X115000Y92000D02*
D03*
Y109000D02*
D03*
X807790Y267930D02*
D03*
Y284930D02*
D03*
X729782Y267930D02*
D03*
Y284930D02*
D03*
X639895Y267930D02*
D03*
Y284930D02*
D03*
X557000Y267930D02*
D03*
Y284930D02*
D03*
X477000Y267930D02*
D03*
Y284930D02*
D03*
X1255000Y353500D02*
D03*
Y370500D02*
D03*
X853000Y275000D02*
D03*
Y292000D02*
D03*
D117*
X878500Y340500D02*
D03*
X861500D02*
D03*
X927500Y216000D02*
D03*
X944500D02*
D03*
X861500Y355500D02*
D03*
X878500D02*
D03*
X878500Y325500D02*
D03*
X861500D02*
D03*
X66764Y269040D02*
D03*
X83764D02*
D03*
X232000Y239000D02*
D03*
X249000D02*
D03*
X241474Y60274D02*
D03*
X258474D02*
D03*
X1279018Y465850D02*
D03*
X1296018D02*
D03*
X66764Y387680D02*
D03*
X83764D02*
D03*
X66764Y358020D02*
D03*
X83764D02*
D03*
X66764Y328360D02*
D03*
X83764D02*
D03*
X66764Y298700D02*
D03*
X83764D02*
D03*
X1126116Y466314D02*
D03*
X1143116D02*
D03*
X974224Y465806D02*
D03*
X991224D02*
D03*
X822078Y466060D02*
D03*
X839078D02*
D03*
X671710Y467076D02*
D03*
X688710D02*
D03*
X519056D02*
D03*
X536056D02*
D03*
X347336Y72508D02*
D03*
X364336D02*
D03*
X347336Y55308D02*
D03*
X364336D02*
D03*
X347336Y106908D02*
D03*
X364336D02*
D03*
X347336Y89708D02*
D03*
X364336D02*
D03*
X347392Y158507D02*
D03*
X364392D02*
D03*
X314500Y639000D02*
D03*
X297500D02*
D03*
X232000Y218500D02*
D03*
X249000D02*
D03*
X313500Y580000D02*
D03*
X296500D02*
D03*
X203482Y139413D02*
D03*
X186482D02*
D03*
X203482Y120954D02*
D03*
X186482D02*
D03*
X215000Y239000D02*
D03*
X198000D02*
D03*
X248500Y631000D02*
D03*
X265500D02*
D03*
X285500Y616000D02*
D03*
X268500D02*
D03*
X347392Y175457D02*
D03*
X364392D02*
D03*
X276056Y60162D02*
D03*
X293056D02*
D03*
X223056D02*
D03*
X206056D02*
D03*
X293060Y75260D02*
D03*
X276060D02*
D03*
X186376Y158083D02*
D03*
X203376D02*
D03*
X313500Y595000D02*
D03*
X296500D02*
D03*
X189500Y380000D02*
D03*
X206500D02*
D03*
X311706Y393316D02*
D03*
X328706D02*
D03*
X887500Y216000D02*
D03*
X904500D02*
D03*
X228500Y616000D02*
D03*
X245500D02*
D03*
X66764Y372600D02*
D03*
X83764D02*
D03*
X66764Y342940D02*
D03*
X83764D02*
D03*
X66764Y313280D02*
D03*
X83764D02*
D03*
X66764Y283620D02*
D03*
X83764D02*
D03*
X66764Y253960D02*
D03*
X83764D02*
D03*
X66764Y224300D02*
D03*
X83764D02*
D03*
X66764Y194640D02*
D03*
X83764D02*
D03*
X66765Y239380D02*
D03*
X83764D02*
D03*
X66765Y209720D02*
D03*
X83764D02*
D03*
D118*
X957000Y241000D02*
D03*
Y271000D02*
D03*
D119*
X348017Y141307D02*
D03*
X365017D02*
D03*
X348017Y124107D02*
D03*
X365017D02*
D03*
X297500Y655000D02*
D03*
X314500D02*
D03*
D120*
X18250Y110500D02*
D03*
Y131000D02*
D03*
Y151000D02*
D03*
Y171500D02*
D03*
D121*
X45250Y141000D02*
D03*
Y134500D02*
D03*
Y128000D02*
D03*
Y147500D02*
D03*
Y154000D02*
D03*
D122*
X936250Y118000D02*
D03*
X879750D02*
D03*
D123*
X1112750Y237000D02*
D03*
X1071250D02*
D03*
D124*
X890000Y184000D02*
D03*
X938000D02*
D03*
D125*
X723500Y115000D02*
D03*
X681500D02*
D03*
X558500Y130000D02*
D03*
X516500D02*
D03*
X811000Y115000D02*
D03*
X769000D02*
D03*
X476000Y130000D02*
D03*
X434000D02*
D03*
X636000D02*
D03*
X594000D02*
D03*
X1273500Y192540D02*
D03*
X1231500D02*
D03*
X989000Y261000D02*
D03*
X1031000D02*
D03*
Y222000D02*
D03*
X989000D02*
D03*
D126*
X1278966Y263474D02*
D03*
X536486Y170764D02*
D03*
X703117Y171394D02*
D03*
X452438D02*
D03*
X788962D02*
D03*
X618287D02*
D03*
D127*
X1279220Y289354D02*
D03*
X536740Y196644D02*
D03*
X703371Y197274D02*
D03*
X452692D02*
D03*
X789216D02*
D03*
X618541D02*
D03*
D128*
X1260170Y319354D02*
D03*
X1272870D02*
D03*
X1285570D02*
D03*
X1298270D02*
D03*
X517690Y226644D02*
D03*
X530390D02*
D03*
X543090D02*
D03*
X555790D02*
D03*
X684321Y227274D02*
D03*
X697021D02*
D03*
X709721D02*
D03*
X722421D02*
D03*
X433642D02*
D03*
X446342D02*
D03*
X459042D02*
D03*
X471742D02*
D03*
X770166D02*
D03*
X782866D02*
D03*
X795566D02*
D03*
X808266D02*
D03*
X599491D02*
D03*
X612191D02*
D03*
X624891D02*
D03*
X637591D02*
D03*
D129*
X92500Y100000D02*
D03*
X73500D02*
D03*
D130*
X911000Y342000D02*
D03*
X959006D02*
D03*
D131*
X1285222Y612102D02*
D03*
Y564096D02*
D03*
X1132076D02*
D03*
Y612102D02*
D03*
X979676D02*
D03*
Y564096D02*
D03*
X827562D02*
D03*
Y612102D02*
D03*
X675654D02*
D03*
Y564096D02*
D03*
X522736D02*
D03*
Y612102D02*
D03*
X1164412Y278610D02*
D03*
Y230604D02*
D03*
X1014948Y352240D02*
D03*
Y304234D02*
D03*
D132*
X1081000Y301000D02*
D03*
X1103000D02*
D03*
D133*
X410500Y622000D02*
D03*
X333500D02*
D03*
X66116Y654380D02*
D03*
Y628980D02*
D03*
Y603580D02*
D03*
Y578180D02*
D03*
Y552780D02*
D03*
X66116Y527380D02*
D03*
X91520Y427050D02*
D03*
Y452450D02*
D03*
Y477850D02*
D03*
X1007989Y658698D02*
D03*
X1160234Y658444D02*
D03*
X1312478Y658190D02*
D03*
X551256Y658698D02*
D03*
X703500D02*
D03*
X855745Y658952D02*
D03*
X513664Y390728D02*
D03*
X397426Y724440D02*
D03*
X215308D02*
D03*
X803736Y144880D02*
D03*
X717374Y144884D02*
D03*
X189907Y659040D02*
D03*
X322618Y289128D02*
D03*
X284264Y204292D02*
D03*
D134*
X295100Y402670D02*
D03*
X290100D02*
D03*
X285100D02*
D03*
X280100D02*
D03*
X275100D02*
D03*
X270100D02*
D03*
X265100D02*
D03*
X260100D02*
D03*
X255100D02*
D03*
X250100D02*
D03*
X245100D02*
D03*
X240100D02*
D03*
X235100D02*
D03*
X230100D02*
D03*
X225100D02*
D03*
X220100D02*
D03*
X215100D02*
D03*
X210100D02*
D03*
X205100D02*
D03*
X200100D02*
D03*
X195100D02*
D03*
X190100D02*
D03*
X185100D02*
D03*
X180100D02*
D03*
X175100D02*
D03*
Y553670D02*
D03*
X180100D02*
D03*
X185100D02*
D03*
X190100D02*
D03*
X195100D02*
D03*
X200100D02*
D03*
X205100D02*
D03*
X210100D02*
D03*
X215100D02*
D03*
X220100D02*
D03*
X225100D02*
D03*
X230100D02*
D03*
X235100D02*
D03*
X240100D02*
D03*
X245100D02*
D03*
X250100D02*
D03*
X255100D02*
D03*
X260100D02*
D03*
X265100D02*
D03*
X270100D02*
D03*
X275100D02*
D03*
X280100D02*
D03*
X285100D02*
D03*
X290100D02*
D03*
X295100D02*
D03*
D135*
X159600Y418170D02*
D03*
Y423171D02*
D03*
Y428170D02*
D03*
Y433171D02*
D03*
Y438170D02*
D03*
Y443171D02*
D03*
Y448170D02*
D03*
Y453171D02*
D03*
Y458170D02*
D03*
Y463171D02*
D03*
Y468170D02*
D03*
Y473171D02*
D03*
Y478170D02*
D03*
Y483171D02*
D03*
Y488170D02*
D03*
Y493171D02*
D03*
Y498170D02*
D03*
Y503170D02*
D03*
Y508170D02*
D03*
Y513170D02*
D03*
Y518170D02*
D03*
Y523170D02*
D03*
Y528170D02*
D03*
Y533170D02*
D03*
Y538170D02*
D03*
X310600D02*
D03*
Y533170D02*
D03*
Y528170D02*
D03*
Y523170D02*
D03*
Y518170D02*
D03*
Y513170D02*
D03*
Y508170D02*
D03*
Y503170D02*
D03*
Y498170D02*
D03*
Y493171D02*
D03*
Y488170D02*
D03*
Y483171D02*
D03*
Y478170D02*
D03*
Y473171D02*
D03*
Y468170D02*
D03*
Y463171D02*
D03*
Y458170D02*
D03*
Y453171D02*
D03*
Y448170D02*
D03*
Y443171D02*
D03*
Y438170D02*
D03*
Y433171D02*
D03*
Y428170D02*
D03*
Y423171D02*
D03*
Y418170D02*
D03*
D136*
X244482Y95737D02*
D03*
X300482D02*
D03*
Y180736D02*
D03*
X244482D02*
D03*
D137*
X252482Y96736D02*
D03*
X260482D02*
D03*
X268482D02*
D03*
X276482D02*
D03*
X284482D02*
D03*
X292482D02*
D03*
Y179736D02*
D03*
X284482D02*
D03*
X276482D02*
D03*
X268482D02*
D03*
X260482D02*
D03*
X252482D02*
D03*
D138*
X314982Y110237D02*
D03*
Y166236D02*
D03*
X229982D02*
D03*
Y110237D02*
D03*
D139*
X313982Y118237D02*
D03*
Y126236D02*
D03*
Y134236D02*
D03*
Y142236D02*
D03*
Y150236D02*
D03*
Y158236D02*
D03*
X230982D02*
D03*
Y150236D02*
D03*
Y142236D02*
D03*
Y134236D02*
D03*
Y126236D02*
D03*
Y118237D02*
D03*
D140*
X333000Y571500D02*
D03*
Y596500D02*
D03*
D141*
X193000Y218500D02*
D03*
X218000D02*
D03*
D142*
X1317070Y180000D02*
D03*
Y138000D02*
D03*
D143*
X428000Y477620D02*
D03*
Y462380D02*
D03*
D144*
X553758Y61290D02*
D03*
X518758D02*
D03*
X434938Y62052D02*
D03*
X469938D02*
D03*
X870457Y712440D02*
D03*
X835456D02*
D03*
X800457D02*
D03*
X765456D02*
D03*
X718132Y712440D02*
D03*
X683132D02*
D03*
X648132D02*
D03*
X613132D02*
D03*
X565808D02*
D03*
X530808D02*
D03*
X495808D02*
D03*
X460808D02*
D03*
X1175106D02*
D03*
X1140105D02*
D03*
X1105106D02*
D03*
X1070106D02*
D03*
X1022781Y712440D02*
D03*
X987781D02*
D03*
X952781D02*
D03*
X917781D02*
D03*
X1327430Y712440D02*
D03*
X1292430D02*
D03*
X1257430D02*
D03*
X1222430D02*
D03*
X602578Y61544D02*
D03*
X637578D02*
D03*
X720890D02*
D03*
X685890D02*
D03*
X770980Y62052D02*
D03*
X805980D02*
D03*
D145*
X158000Y171400D02*
D03*
Y146000D02*
D03*
Y120600D02*
D03*
Y95200D02*
D03*
X411106Y501662D02*
D03*
X385706D02*
D03*
X411106Y527062D02*
D03*
X385706D02*
D03*
X411106Y552462D02*
D03*
X40716Y654380D02*
D03*
X15316D02*
D03*
Y628980D02*
D03*
X40716D02*
D03*
Y603580D02*
D03*
X15316D02*
D03*
Y578180D02*
D03*
X40716D02*
D03*
Y552780D02*
D03*
X15316D02*
D03*
X15316Y527380D02*
D03*
X40716D02*
D03*
X66120Y427050D02*
D03*
X40720D02*
D03*
X15320D02*
D03*
Y452450D02*
D03*
X40720D02*
D03*
X66120D02*
D03*
Y477850D02*
D03*
X40720D02*
D03*
X15320D02*
D03*
X982589Y658698D02*
D03*
X957189D02*
D03*
X931789D02*
D03*
X1084034Y658444D02*
D03*
X1109434D02*
D03*
X1134834D02*
D03*
X1287078Y658190D02*
D03*
X1261678D02*
D03*
X1236278D02*
D03*
X475056Y658698D02*
D03*
X500456D02*
D03*
X525856D02*
D03*
X678100D02*
D03*
X652700D02*
D03*
X627300D02*
D03*
X779545Y658952D02*
D03*
X804945D02*
D03*
X830345D02*
D03*
X513664Y365328D02*
D03*
X488264Y390728D02*
D03*
Y365328D02*
D03*
X462864Y390728D02*
D03*
Y365328D02*
D03*
X437464Y390728D02*
D03*
Y365328D02*
D03*
X412064Y390728D02*
D03*
Y365328D02*
D03*
X295826Y699040D02*
D03*
Y724440D02*
D03*
X321226Y699040D02*
D03*
Y724440D02*
D03*
X346626Y699040D02*
D03*
Y724440D02*
D03*
X372026Y699040D02*
D03*
Y724440D02*
D03*
X397426Y699040D02*
D03*
X215308D02*
D03*
X189908Y724440D02*
D03*
Y699040D02*
D03*
X164508Y724440D02*
D03*
Y699040D02*
D03*
X139108Y724440D02*
D03*
Y699040D02*
D03*
X113708Y724440D02*
D03*
Y699040D02*
D03*
X778336Y144880D02*
D03*
X691974Y144884D02*
D03*
X358178Y289128D02*
D03*
X215308Y659040D02*
D03*
X370624Y229692D02*
D03*
X393484Y47828D02*
D03*
X40720Y367360D02*
D03*
X15320Y341960D02*
D03*
X40720D02*
D03*
X15320Y316560D02*
D03*
X40720D02*
D03*
X15320Y291160D02*
D03*
X40720D02*
D03*
X15320Y265760D02*
D03*
X40720D02*
D03*
X15320Y240360D02*
D03*
X40720D02*
D03*
X15320Y214960D02*
D03*
X40720D02*
D03*
X144818Y263728D02*
D03*
Y289128D02*
D03*
X322618Y263728D02*
D03*
X297218Y289128D02*
D03*
Y263728D02*
D03*
X271818Y289128D02*
D03*
Y263728D02*
D03*
X246418Y289128D02*
D03*
Y263728D02*
D03*
X221018Y289128D02*
D03*
Y263728D02*
D03*
X195618Y289128D02*
D03*
Y263728D02*
D03*
X170218Y289128D02*
D03*
Y263728D02*
D03*
X284264Y229692D02*
D03*
X309664Y204292D02*
D03*
Y229692D02*
D03*
X335064Y204292D02*
D03*
Y229692D02*
D03*
X850684Y47828D02*
D03*
D146*
X158000Y69800D02*
D03*
X385706Y552462D02*
D03*
X358178Y263728D02*
D03*
X370624Y204292D02*
D03*
X393484Y22428D02*
D03*
X15320Y367360D02*
D03*
X850684Y22428D02*
D03*
D147*
X18250Y106000D02*
D03*
Y176000D02*
D03*
D148*
X45250Y116000D02*
D03*
Y166000D02*
D03*
D149*
X877158Y520162D02*
D03*
Y494762D02*
D03*
Y545562D02*
D03*
Y570962D02*
D03*
X750158Y443962D02*
D03*
Y621762D02*
D03*
X877158Y443962D02*
D03*
Y596362D02*
D03*
X750158D02*
D03*
Y570962D02*
D03*
Y545562D02*
D03*
Y520162D02*
D03*
Y494762D02*
D03*
Y469362D02*
D03*
X877158D02*
D03*
Y621762D02*
D03*
X571992D02*
D03*
Y469362D02*
D03*
X444992D02*
D03*
Y494762D02*
D03*
Y520162D02*
D03*
Y545562D02*
D03*
Y570962D02*
D03*
Y596362D02*
D03*
X571992D02*
D03*
Y443962D02*
D03*
X444992Y621762D02*
D03*
Y443962D02*
D03*
X571992Y570962D02*
D03*
Y545562D02*
D03*
Y494762D02*
D03*
Y520162D02*
D03*
X1182325Y520162D02*
D03*
Y494762D02*
D03*
Y545562D02*
D03*
Y570962D02*
D03*
X1055324Y443962D02*
D03*
Y621762D02*
D03*
X1182325Y443962D02*
D03*
Y596362D02*
D03*
X1055324D02*
D03*
Y570962D02*
D03*
Y545562D02*
D03*
Y520162D02*
D03*
Y494762D02*
D03*
Y469362D02*
D03*
X1182325D02*
D03*
Y621762D02*
D03*
X1029741D02*
D03*
Y469362D02*
D03*
X902741D02*
D03*
Y494762D02*
D03*
Y520162D02*
D03*
Y545562D02*
D03*
Y570962D02*
D03*
Y596362D02*
D03*
X1029741D02*
D03*
Y443962D02*
D03*
X902741Y621762D02*
D03*
Y443962D02*
D03*
X1029741Y570962D02*
D03*
Y545562D02*
D03*
Y494762D02*
D03*
Y520162D02*
D03*
X724575Y520162D02*
D03*
Y494762D02*
D03*
Y545562D02*
D03*
Y570962D02*
D03*
X597575Y443962D02*
D03*
Y621762D02*
D03*
X724575Y443962D02*
D03*
Y596362D02*
D03*
X597575D02*
D03*
Y570962D02*
D03*
Y545562D02*
D03*
Y520162D02*
D03*
Y494762D02*
D03*
Y469362D02*
D03*
X724575D02*
D03*
Y621762D02*
D03*
X1334908Y621762D02*
D03*
Y469362D02*
D03*
X1207908D02*
D03*
Y494762D02*
D03*
Y520162D02*
D03*
Y545562D02*
D03*
Y570962D02*
D03*
Y596362D02*
D03*
X1334908D02*
D03*
Y443962D02*
D03*
X1207908Y621762D02*
D03*
Y443962D02*
D03*
X1334908Y570962D02*
D03*
Y545562D02*
D03*
Y494762D02*
D03*
Y520162D02*
D03*
D150*
X1312748Y36144D02*
D03*
X36652Y38430D02*
D03*
X1310208Y392252D02*
D03*
X37726Y713248D02*
D03*
D151*
X1317066Y239344D02*
D03*
Y252362D02*
D03*
Y265379D02*
D03*
Y278397D02*
D03*
Y291414D02*
D03*
X1240866D02*
D03*
Y278397D02*
D03*
Y265379D02*
D03*
Y252362D02*
D03*
Y239344D02*
D03*
X1251026Y297764D02*
D03*
Y284810D02*
D03*
Y271856D02*
D03*
Y258902D02*
D03*
Y245948D02*
D03*
Y232994D02*
D03*
X1265313D02*
D03*
X1279601D02*
D03*
X1293889D02*
D03*
X1308176D02*
D03*
Y245948D02*
D03*
Y258902D02*
D03*
Y271856D02*
D03*
Y284810D02*
D03*
Y297764D02*
D03*
X1293889Y245948D02*
D03*
X1279601D02*
D03*
X1265313D02*
D03*
X452412Y154254D02*
D03*
X423837Y167208D02*
D03*
Y206070D02*
D03*
X480987Y167208D02*
D03*
Y206070D02*
D03*
X423837Y154254D02*
D03*
Y193116D02*
D03*
X438125Y154254D02*
D03*
X466699D02*
D03*
X480987D02*
D03*
Y193116D02*
D03*
X423837Y180162D02*
D03*
X480987D02*
D03*
X565061Y180416D02*
D03*
X507911D02*
D03*
X565061Y193370D02*
D03*
Y154508D02*
D03*
X550774D02*
D03*
X522198D02*
D03*
X507911Y193370D02*
D03*
Y154508D02*
D03*
X565061Y206324D02*
D03*
Y167462D02*
D03*
X507911Y206324D02*
D03*
Y167462D02*
D03*
X536486Y154508D02*
D03*
X620306D02*
D03*
X591731Y167462D02*
D03*
Y206324D02*
D03*
Y154508D02*
D03*
Y193370D02*
D03*
X606018Y154508D02*
D03*
X591731Y180416D02*
D03*
D152*
X278550Y521284D02*
D03*
X193000Y438000D02*
D03*
X1337894Y182352D02*
D03*
X1297762Y181590D02*
D03*
X1317066Y196830D02*
D03*
X1152982Y345770D02*
D03*
D153*
X1246162Y60782D02*
D03*
X1196162D02*
D03*
X996010D02*
D03*
X1046010D02*
D03*
X1145832D02*
D03*
X1095832D02*
D03*
D154*
X268482Y119998D02*
D03*
M02*
