M48
;Layer_Color=9474304
;FILE_FORMAT=4:4
METRIC
;TYPE=PLATED
T1F00S00C0.3500
T2F00S00C0.4000
T3F00S00C0.5000
T5F00S00C0.7620
T6F00S00C0.8500
T7F00S00C0.9000
T8F00S00C1.0000
T9F00S00C1.2000
T10F00S00C3.2000
%
T01
X00221000Y00085000
X00262000Y00078000
X00268482Y00119998
X00248000Y00125000
X00278000Y00140000
X00205000Y00175000
X00195000
X00185000
X00150000Y00200000
X00166000Y00226000
X00350000Y00200000
X00911000Y00203000
X00921000
X00961500Y00204500
Y00214500
Y00224500
X01052000Y00283000
X01060500
X01042500Y00296000
X01000000Y00100000
X01100000
X01111000Y00364000
X01119000
X01250000Y00400000
Y00600000
X01000000Y00500000
X01035000Y00368000
Y00358000
Y00348000
Y00338000
Y00328000
X01042500Y00304500
X01072000Y00336000
Y00344000
X00917500Y00360000
X00907500
X00897500
X00800000Y00300000
X00750000Y00400000
X00700000Y00500000
X00650000Y00400000
X00550000
X00427000Y00574000
Y00582000
Y00590000
X00150000Y00600000
X00200000Y00500000
T02
X00155442Y00031000
X00214000Y00045000
X00216000Y00016000
X00286000Y00015000
X00284000Y00044000
X00186000Y00110000
X00144000Y00109000
X00120000Y00133000
Y00148000
X00081000Y00160000
X00067000Y00142000
X00060000Y00128000
X00058420Y00209720
Y00239380
Y00269040
X00094648
Y00239380
Y00209720
X00193000Y00205000
X00182880Y00238760
X00256826Y00227412
X00297000Y00163000
X00379514Y00157810
X00387000Y00256000
X00407000Y00269000
X00405000Y00288000
X00394999Y00287000
X00384999Y00291000
X00412512Y00294630
X00450380Y00245948
X00458762
X00467398
X00463165Y00239090
X00471716
X00454613
X00446062
X00530136Y00238582
X00538687
X00547239
X00555790
X00551472Y00245440
X00542836
X00534454
X00616242Y00245186
X00624624
X00633260
X00629027Y00238328
X00637578
X00620475
X00611924
X00331000Y00093000
X00358000Y00042000
X00696506Y00239344
X00705057
X00713609
X00722160
X00717842Y00246202
X00709206
X00700824
X00786930
X00795312
X00803948
X00799715Y00239344
X00808266
X00791163
X00782612
X01010000Y00241194
Y00227478
Y00213000
X01142000
Y00227478
Y00241194
X01137522Y00167000
X01123806
X01152000
X01208000Y00183000
Y00197478
X01193876Y00370922
X01166190Y00370916
X01163142Y00438226
Y00448132
Y00458292
X01109280Y00451000
X01117533Y00493558
X01270932Y00493554
X01262680Y00450996
X01276934Y00337896
X01285316
X01293867
X01289718Y00331038
X01281167
X01272616
X01298270
X01010742Y00438226
X01000582
X00990676
X00956880Y00451000
X00965132Y00493554
X00812812Y00493558
X00804560Y00451000
X00838276Y00438480
X00848182
X00706450
X00696290
X00686384
X00652160Y00451000
X00660416Y00494238
X00507000Y00495000
X00499760Y00451000
X00533730Y00438480
X00543636
X00553796
X00428000Y00456000
X00431000Y00483000
X00388000Y00484000
X00358000Y00469000
X00363000Y00446000
X00381000Y00432000
X00391999Y00430999
X00403500Y00450000
X00329000Y00438000
X00339000Y00419000
X00334000Y00407000
X00319999Y00410999
X00331999Y00504999
X00342999Y00497999
X00362000Y00519000
X00361000Y00554000
X00307000Y00556000
X00314000Y00608000
X00299000Y00607000
X00302000Y00626000
X00383000Y00650000
X00396000Y00369000
X00393999Y00297999
X00377999Y00298541
X00355638Y00306908
X00345478
X00238760Y00363220
X00220980Y00368300
X00219000Y00385000
X00214000Y00427999
X00224000Y00434999
X00230999Y00425999
X00239000Y00418000
X00243000Y00449000
X00287000Y00448000
X00294000Y00434000
X00279000Y00425000
X00291000Y00468000
X00263000Y00479000
X00256999Y00524999
X00252999Y00535999
X00263999Y00533999
X00240999Y00526999
X00230000Y00534000
X00224000Y00505000
X00200000Y00520000
X00197000Y00530000
X00182000Y00507000
X00185000Y00497000
X00181000Y00474000
X00196000Y00480000
X00198000Y00423000
X00133000Y00453000
X00140000Y00462000
X00124000Y00466000
X00094648Y00387680
Y00358020
Y00328360
Y00298700
X00058420
Y00328360
Y00358020
Y00387680
X00257000Y00616000
T03
X00423837Y00154254
Y00167208
Y00180162
Y00193116
Y00206070
X00480987
Y00193116
Y00180162
Y00167208
Y00154254
X00466699
X00452412
X00438125
X00507911Y00154508
Y00167462
Y00180416
Y00193370
Y00206324
X00565061
Y00193370
Y00180416
Y00167462
Y00154508
X00550774
X00536486
X00522198
X00591731
Y00167462
Y00180416
Y00193370
Y00206324
X00606018Y00154508
X00620306
X01240866Y00239344
Y00252362
Y00265379
Y00278397
Y00291414
X01251026Y00284810
Y00271856
Y00258902
Y00245948
Y00232994
X01265313
Y00245948
X01279601
Y00232994
X01293889
Y00245948
X01308176
Y00232994
X01317066Y00239344
Y00252362
Y00265379
Y00278397
Y00291414
X01308176Y00284810
Y00271856
Y00258902
Y00297764
X01251026
T05
X01297762Y00181590
X01317066Y00196830
X01337894Y00182352
X01152982Y00345770
X00278550Y00521284
X00193000Y00438000
T06
X00045250Y00116000
Y00166000
T07
X00158000Y00069800
Y00095200
Y00120600
Y00146000
Y00171400
X00170218Y00263728
X00144818
Y00289128
X00170218
X00195618
X00221018
X00246418
X00271818
Y00263728
X00246418
X00221018
X00195618
X00284264Y00229692
Y00204292
X00040720Y00214960
Y00240360
Y00265760
Y00291160
X00015320
Y00265760
Y00240360
Y00214960
X00309664Y00204292
Y00229692
X00335064
Y00204292
X00370624
Y00229692
X00358178Y00263728
Y00289128
X00322618
Y00263728
X00297218
Y00289128
X00393484Y00047828
Y00022428
X00691974Y00144884
X00717374
X00778336Y00144880
X00803736
X00850684Y00047828
Y00022428
X01182325Y00443962
Y00469362
Y00494762
Y00520162
Y00545562
Y00570962
Y00596362
Y00621762
X01207908
Y00596362
Y00570962
Y00545562
Y00520162
Y00494762
Y00469362
Y00443962
X01334908
Y00469362
Y00494762
Y00520162
Y00545562
Y00570962
Y00596362
Y00621762
X01312478Y00658190
X01287078
X01261678
X01236278
X01160234Y00658444
X01134834
X01109434
X01084034
X01055324Y00621762
Y00596362
Y00570962
Y00545562
Y00520162
Y00494762
Y00469362
Y00443962
X01029741
Y00469362
Y00494762
Y00520162
Y00545562
Y00570962
Y00596362
Y00621762
X01007989Y00658698
X00982589
X00957189
X00931789
X00902741Y00621762
Y00596362
Y00570962
Y00545562
Y00520162
Y00494762
Y00469362
Y00443962
X00877158Y00443962
Y00469362
Y00494762
Y00520162
Y00545562
Y00570962
Y00596362
Y00621762
X00855745Y00658952
X00830345
X00804945
X00779545
X00750158Y00621762
Y00596362
Y00570962
Y00545562
Y00520162
Y00494762
Y00469362
Y00443962
X00724575
Y00469362
Y00494762
Y00520162
Y00545562
Y00570962
Y00596362
Y00621762
X00703500Y00658698
X00678100
X00652700
X00627300
X00597575Y00621762
Y00596362
Y00570962
Y00545562
Y00520162
Y00494762
Y00469362
Y00443962
X00571992
Y00469362
Y00494762
Y00520162
Y00545562
Y00570962
Y00596362
Y00621762
X00551256Y00658698
X00525856
X00500456
X00475056
X00444992Y00621762
Y00596362
Y00570962
Y00545562
Y00520162
Y00494762
Y00469362
Y00443962
X00437464Y00390728
X00462864
X00488264
X00513664
Y00365328
X00488264
X00462864
X00437464
X00412064
Y00390728
X00411106Y00501662
X00385706
Y00527062
X00411106
Y00552462
X00385706
X00215308Y00659040
X00189907
X00066116Y00654380
X00040716
X00015316
Y00628980
X00040716
X00066116
Y00603580
X00040716
X00015316
Y00578180
X00040716
X00066116
Y00552780
X00040716
X00015316
X00015316Y00527380
X00040716
X00066116
X00066120Y00477850
Y00452450
Y00427050
X00091520
Y00452450
Y00477850
X00040720
Y00452450
Y00427050
X00015320
Y00452450
Y00477850
X00015320Y00367360
X00040720
Y00341960
X00015320
Y00316560
X00040720
X00113708Y00699040
X00139108
X00164508
X00189908
X00215308
Y00724440
X00189908
X00164508
X00139108
X00113708
X00295826
Y00699040
X00321226
Y00724440
X00346626
Y00699040
X00372026
Y00724440
X00397426
Y00699040
T08
X00434938Y00062052
X00469938
X00518758Y00061290
X00553758
X00602578Y00061544
X00637578
X00685890
X00720890
X00770980Y00062052
X00805980
X00683132Y00712440
X00648132
X00613132
X00565808
X00530808
X00495808
X00460808
X00718132
X00765456Y00712440
X00800457
X00835456
X00870457
X00917781
X00952781
X00987781
X01022781
X01070106Y00712440
X01105106
X01140105
X01175106
X01222430
X01257430
X01292430
X01327430
T09
X00996010Y00060782
X01046010
X01095832
X01145832
X01196162
X01246162
T10
X00036652Y00038430
X01312748Y00036144
X01310208Y00392252
X00037726Y00713248
M30
