G04 Layer_Color=65535*
%FSLAX44Y44*%
%MOMM*%
G71*
G01*
G75*
%ADD50C,0.2000*%
%ADD52C,0.2540*%
%ADD56C,0.6000*%
%ADD75C,0.2500*%
%ADD76C,0.1524*%
%ADD77C,0.0762*%
%ADD78C,0.1000*%
%ADD79C,0.1270*%
%ADD80C,0.1500*%
%ADD81R,1.0000X0.5000*%
%ADD82R,1.5240X2.5782*%
%ADD83R,1.5494X2.5782*%
%ADD84R,2.1590X0.2870*%
%ADD85R,2.1590X0.2870*%
%ADD86R,0.2540X0.3532*%
%ADD87R,0.2540X0.3810*%
%ADD88R,0.3810X0.3810*%
%ADD89R,0.5080X0.3810*%
%ADD90R,0.1270X0.3862*%
%ADD91R,0.3169X0.1119*%
%ADD92R,0.2540X0.3663*%
%ADD93R,0.1778X0.1270*%
%ADD94R,0.3169X0.1119*%
%ADD95R,0.9652X2.5782*%
%ADD96R,1.0480X2.5782*%
%ADD97R,1.0480X2.5782*%
%ADD98R,1.0226X2.5782*%
%ADD99R,3.0480X0.5842*%
%ADD100R,2.5400X0.4318*%
%ADD101R,1.4224X0.9770*%
%ADD102R,0.5000X1.0000*%
G36*
X577775Y399879D02*
X578884Y399800D01*
X580071Y399641D01*
X581495Y399483D01*
X583078Y399245D01*
X584740Y398929D01*
X586482Y398533D01*
X588381Y398058D01*
X590281Y397504D01*
X592180Y396792D01*
X594080Y396001D01*
X596058Y395130D01*
X597958Y394101D01*
X598037Y394022D01*
X598433Y393864D01*
X598908Y393468D01*
X599620Y393072D01*
X600490Y392439D01*
X601440Y391806D01*
X602548Y390935D01*
X603736Y389985D01*
X605002Y388956D01*
X606268Y387769D01*
X607614Y386503D01*
X608959Y385158D01*
X610305Y383654D01*
X611571Y382071D01*
X612758Y380409D01*
X613945Y378667D01*
Y378588D01*
X614104Y378430D01*
X614262Y378193D01*
X614500Y377797D01*
X614737Y377322D01*
X615053Y376768D01*
X615370Y376135D01*
X615766Y375423D01*
X616557Y373760D01*
X617349Y371861D01*
X618219Y369803D01*
X618932Y367587D01*
Y367508D01*
X619011Y367350D01*
X619090Y366954D01*
X619169Y366558D01*
X619327Y366004D01*
X619486Y365371D01*
X619644Y364579D01*
X619802Y363788D01*
X620119Y361888D01*
X620435Y359752D01*
X620594Y357456D01*
X620673Y355003D01*
Y354924D01*
Y354686D01*
Y354370D01*
Y353895D01*
X620594Y353341D01*
Y352628D01*
X620515Y351916D01*
X620435Y351045D01*
X620277Y349146D01*
X619961Y347088D01*
X619486Y344872D01*
X618932Y342577D01*
Y342498D01*
X618853Y342339D01*
X618773Y342023D01*
X618615Y341548D01*
X618378Y340994D01*
X618219Y340440D01*
X617903Y339727D01*
X617665Y338936D01*
X616953Y337195D01*
X616082Y335374D01*
X615053Y333396D01*
X613945Y331496D01*
X613866Y331417D01*
X613708Y331101D01*
X613312Y330546D01*
X612837Y329913D01*
X612283Y329122D01*
X611571Y328172D01*
X610700Y327143D01*
X609751Y326035D01*
X608643Y324848D01*
X607455Y323582D01*
X606110Y322315D01*
X604685Y321049D01*
X603181Y319703D01*
X601519Y318516D01*
X599778Y317250D01*
X597958Y316142D01*
X597879Y316063D01*
X597483Y315904D01*
X596929Y315588D01*
X596217Y315192D01*
X595267Y314796D01*
X594159Y314321D01*
X592813Y313767D01*
X591389Y313213D01*
X589806Y312659D01*
X588144Y312105D01*
X586244Y311630D01*
X584345Y311235D01*
X582287Y310839D01*
X580150Y310522D01*
X578013Y310364D01*
X575718Y310285D01*
X574610D01*
X574056Y310364D01*
X573343D01*
X572631Y310443D01*
X571760Y310522D01*
X569861Y310681D01*
X567803Y310997D01*
X565587Y311472D01*
X563292Y312026D01*
X563213D01*
X563054Y312105D01*
X562738Y312185D01*
X562263Y312343D01*
X561788Y312501D01*
X561155Y312738D01*
X560443Y312976D01*
X559651Y313293D01*
X557989Y314005D01*
X556089Y314876D01*
X554111Y315904D01*
X552132Y317012D01*
X552053Y317092D01*
X551736Y317329D01*
X551182Y317646D01*
X550549Y318120D01*
X549758Y318675D01*
X548808Y319387D01*
X547779Y320257D01*
X546671Y321207D01*
X545484Y322315D01*
X544217Y323502D01*
X542951Y324848D01*
X541685Y326193D01*
X540339Y327776D01*
X539152Y329359D01*
X537886Y331101D01*
X536778Y332921D01*
X536698Y333000D01*
X536540Y333396D01*
X536224Y333950D01*
X535828Y334662D01*
X535432Y335612D01*
X534957Y336720D01*
X534403Y337986D01*
X533849Y339411D01*
X533295Y340994D01*
X532741Y342735D01*
X532266Y344555D01*
X531871Y346455D01*
X531475Y348433D01*
X531158Y350570D01*
X531000Y352787D01*
X530921Y355003D01*
Y355082D01*
Y355319D01*
Y355636D01*
Y356111D01*
X531000Y356744D01*
Y357377D01*
X531079Y358168D01*
X531158Y359039D01*
X531317Y360939D01*
X531633Y363076D01*
X532108Y365292D01*
X532662Y367508D01*
Y367587D01*
X532741Y367745D01*
X532820Y368062D01*
X532979Y368537D01*
X533137Y369091D01*
X533374Y369724D01*
X533612Y370357D01*
X533928Y371149D01*
X534641Y372890D01*
X535511Y374789D01*
X536540Y376689D01*
X537648Y378667D01*
X537727Y378747D01*
X537965Y379063D01*
X538282Y379617D01*
X538756Y380250D01*
X539310Y381042D01*
X540023Y381992D01*
X540893Y383021D01*
X541843Y384208D01*
X542951Y385395D01*
X544138Y386661D01*
X545484Y387928D01*
X546829Y389194D01*
X548412Y390539D01*
X549995Y391727D01*
X551736Y392993D01*
X553557Y394101D01*
X553715Y394180D01*
X554032Y394338D01*
X554586Y394655D01*
X555298Y395051D01*
X556248Y395447D01*
X557435Y395921D01*
X558701Y396475D01*
X560126Y397029D01*
X561709Y397584D01*
X563450Y398138D01*
X565270Y398612D01*
X567170Y399008D01*
X569228Y399404D01*
X571286Y399720D01*
X573502Y399879D01*
X575718Y399958D01*
X576905D01*
X577775Y399879D01*
D02*
G37*
G36*
X844736Y347721D02*
Y347484D01*
Y347088D01*
Y346613D01*
Y345901D01*
Y345030D01*
Y344081D01*
Y342972D01*
X838405D01*
Y343052D01*
Y343289D01*
Y343606D01*
Y344081D01*
Y344793D01*
Y345584D01*
Y346455D01*
Y347563D01*
X839434D01*
Y347484D01*
Y347326D01*
Y347088D01*
Y346692D01*
Y346217D01*
Y345663D01*
Y344951D01*
Y344081D01*
X841096D01*
Y344160D01*
Y344318D01*
Y344555D01*
Y344872D01*
Y345347D01*
Y345901D01*
Y346534D01*
Y347246D01*
X842045D01*
Y347167D01*
Y347009D01*
Y346772D01*
Y346455D01*
Y345980D01*
Y345426D01*
Y344793D01*
Y344081D01*
X843707D01*
Y344160D01*
Y344318D01*
Y344635D01*
Y345030D01*
Y345584D01*
Y346217D01*
Y346930D01*
Y347800D01*
X844736D01*
Y347721D01*
D02*
G37*
G36*
X679399Y391489D02*
X680270Y391410D01*
X681220Y391331D01*
X682328Y391093D01*
X683436Y390856D01*
X684544Y390460D01*
X684702Y390381D01*
X685019Y390223D01*
X685573Y389985D01*
X686285Y389590D01*
X687156Y389115D01*
X688027Y388561D01*
X688976Y387848D01*
X689847Y386978D01*
X689926Y386899D01*
X690243Y386582D01*
X690638Y386107D01*
X691192Y385474D01*
X691746Y384683D01*
X692380Y383812D01*
X692934Y382862D01*
X693408Y381833D01*
X693488Y381675D01*
X693567Y381358D01*
X693804Y380725D01*
X694042Y380013D01*
X694200Y379063D01*
X694437Y377955D01*
X694517Y376768D01*
X694596Y375502D01*
Y375343D01*
Y374948D01*
X694517Y374314D01*
X694437Y373444D01*
X694279Y372494D01*
X694121Y371465D01*
X693804Y370357D01*
X693408Y369249D01*
X693329Y369091D01*
X693171Y368774D01*
X692934Y368220D01*
X692538Y367508D01*
X691984Y366716D01*
X691430Y365846D01*
X690717Y364975D01*
X689847Y364104D01*
X689768Y364025D01*
X689451Y363709D01*
X688976Y363313D01*
X688264Y362759D01*
X687472Y362205D01*
X686602Y361572D01*
X685652Y361018D01*
X684544Y360543D01*
X684386Y360464D01*
X684069Y360385D01*
X683436Y360147D01*
X682645Y359989D01*
X681695Y359752D01*
X680587Y359514D01*
X679399Y359435D01*
X678133Y359356D01*
X677579D01*
X676867Y359435D01*
X675996Y359514D01*
X675046Y359672D01*
X673938Y359831D01*
X672751Y360147D01*
X671643Y360543D01*
X671485Y360622D01*
X671168Y360780D01*
X670614Y361018D01*
X669902Y361414D01*
X669110Y361968D01*
X668240Y362522D01*
X667290Y363234D01*
X666420Y364104D01*
X666340Y364184D01*
X666024Y364500D01*
X665549Y364975D01*
X665074Y365608D01*
X664441Y366321D01*
X663887Y367191D01*
X663254Y368220D01*
X662779Y369249D01*
X662700Y369407D01*
X662620Y369724D01*
X662462Y370357D01*
X662304Y371069D01*
X662066Y372019D01*
X661908Y373127D01*
X661829Y374235D01*
X661750Y375502D01*
Y375581D01*
Y375660D01*
Y376056D01*
X661829Y376768D01*
X661908Y377639D01*
X661987Y378588D01*
X662225Y379696D01*
X662462Y380804D01*
X662779Y381912D01*
X662858Y382071D01*
X663016Y382387D01*
X663254Y382941D01*
X663649Y383654D01*
X664203Y384366D01*
X664837Y385237D01*
X665549Y386107D01*
X666420Y386978D01*
X666499Y387057D01*
X666815Y387374D01*
X667290Y387769D01*
X667923Y388323D01*
X668715Y388877D01*
X669585Y389431D01*
X670614Y389985D01*
X671643Y390460D01*
X671802Y390539D01*
X672197Y390619D01*
X672751Y390777D01*
X673543Y391014D01*
X674492Y391252D01*
X675601Y391410D01*
X676867Y391489D01*
X678133Y391568D01*
X678687D01*
X679399Y391489D01*
D02*
G37*
G36*
X843470Y353736D02*
X843707Y353578D01*
X843787D01*
X843866Y353420D01*
X844261Y353103D01*
X844341Y353024D01*
X844420Y352866D01*
X844578Y352391D01*
X844657Y352312D01*
X844736Y352074D01*
X844816Y351758D01*
Y351362D01*
Y351204D01*
Y350887D01*
X844657Y350412D01*
X844499Y349937D01*
X844420Y349779D01*
X844341Y349462D01*
X844103Y349067D01*
X843787Y348592D01*
X843707Y348671D01*
X843549Y348750D01*
X843312Y349067D01*
X842916Y349383D01*
X842995Y349462D01*
X843153Y349700D01*
X843391Y350017D01*
X843628Y350333D01*
X843707Y350412D01*
X843787Y350650D01*
X843866Y350966D01*
Y351362D01*
Y351441D01*
Y351520D01*
X843787Y351837D01*
Y351916D01*
X843707Y351995D01*
X843549Y352233D01*
X843470Y352312D01*
X843312Y352470D01*
X843233Y352549D01*
X842599D01*
X842520Y352470D01*
X842362Y352312D01*
X842283Y352233D01*
Y352153D01*
X842204Y351916D01*
Y351837D01*
X842124Y351758D01*
X842045Y351283D01*
Y351204D01*
X841966Y351045D01*
X841887Y350570D01*
Y350412D01*
X841729Y350175D01*
X841650Y350096D01*
X841491Y349779D01*
X841412Y349700D01*
X841333Y349542D01*
Y349462D01*
X841254Y349304D01*
X841096Y349146D01*
X840858Y348988D01*
X840779D01*
X840621Y348908D01*
X840383Y348829D01*
X839829D01*
X839513Y348908D01*
X839275Y349067D01*
X839196Y349146D01*
X839117Y349225D01*
X838642Y349621D01*
Y349700D01*
X838484Y349779D01*
X838405Y350017D01*
X838326Y350333D01*
Y350412D01*
Y350650D01*
X838246Y351204D01*
Y351283D01*
Y351441D01*
X838326Y351837D01*
Y351916D01*
Y352074D01*
X838405Y352470D01*
Y352549D01*
X838484Y352707D01*
X838642Y353103D01*
X838721Y353182D01*
X838800Y353261D01*
X838959Y353578D01*
X839038D01*
X839117Y353420D01*
X839354Y353261D01*
X839671Y353024D01*
X839592Y352945D01*
X839434Y352707D01*
X839354Y352549D01*
X839275Y352233D01*
Y352153D01*
X839354Y352074D01*
Y351599D01*
Y351441D01*
X839275Y351124D01*
Y350966D01*
X839354Y350729D01*
Y350650D01*
X839434Y350570D01*
Y350412D01*
Y350333D01*
X839513Y350254D01*
X839671Y350096D01*
X839750D01*
X840067Y350017D01*
X840225D01*
X840383Y350096D01*
X840462Y350175D01*
X840700Y350333D01*
X840779Y350412D01*
Y350570D01*
X840858Y350887D01*
Y350966D01*
X840937Y351124D01*
X841016Y351362D01*
X841096Y351679D01*
Y351758D01*
X841175Y351995D01*
X841333Y352628D01*
Y352707D01*
X841491Y352866D01*
X841808Y353261D01*
Y353341D01*
X841966Y353420D01*
X842283Y353578D01*
X842362Y353657D01*
X842520Y353736D01*
X842679Y353815D01*
X843233D01*
X843470Y353736D01*
D02*
G37*
G36*
X844736Y340994D02*
Y340835D01*
Y340440D01*
Y339965D01*
X838405D01*
Y340044D01*
Y340202D01*
Y340598D01*
Y341073D01*
X844736D01*
Y340994D01*
D02*
G37*
G36*
Y331734D02*
Y331496D01*
Y331101D01*
Y330626D01*
Y329913D01*
Y329043D01*
Y328093D01*
Y326906D01*
X838405D01*
Y326985D01*
Y327222D01*
Y327539D01*
Y328093D01*
Y328726D01*
Y329597D01*
Y330546D01*
Y331655D01*
X839434D01*
Y331575D01*
Y331417D01*
Y331180D01*
Y330784D01*
Y330230D01*
Y329676D01*
Y328964D01*
Y328093D01*
X841096D01*
Y328172D01*
Y328251D01*
Y328568D01*
Y328884D01*
Y329280D01*
Y329834D01*
Y330467D01*
Y331180D01*
X842045D01*
Y331101D01*
Y331021D01*
Y330784D01*
Y330467D01*
Y329992D01*
Y329518D01*
Y328805D01*
Y328093D01*
X843707D01*
Y328172D01*
Y328330D01*
Y328568D01*
Y329043D01*
Y329518D01*
Y330151D01*
Y330942D01*
Y331813D01*
X844736D01*
Y331734D01*
D02*
G37*
G36*
X843470Y325639D02*
X843707Y325481D01*
X843787D01*
X843866Y325402D01*
X844261Y325006D01*
X844341Y324927D01*
X844420Y324769D01*
X844578Y324294D01*
X844657Y324215D01*
X844736Y323977D01*
X844816Y323661D01*
Y323265D01*
Y323107D01*
Y322790D01*
X844657Y322315D01*
X844499Y321840D01*
X844420Y321682D01*
X844341Y321366D01*
X844103Y320970D01*
X843787Y320495D01*
X843707Y320574D01*
X843549Y320653D01*
X843312Y320970D01*
X842916Y321286D01*
X842995Y321366D01*
X843153Y321603D01*
X843391Y321920D01*
X843628Y322236D01*
X843707Y322315D01*
X843787Y322553D01*
X843866Y322869D01*
Y323265D01*
Y323344D01*
Y323423D01*
X843787Y323740D01*
Y323819D01*
X843707Y323898D01*
X843549Y324136D01*
X843470Y324215D01*
X843312Y324373D01*
X843233Y324452D01*
X843153Y324531D01*
X842837D01*
X842599Y324452D01*
X842520Y324373D01*
X842362Y324294D01*
X842283Y324136D01*
X842204Y323819D01*
Y323740D01*
X842124Y323661D01*
X842045Y323186D01*
Y323107D01*
X841966Y322948D01*
X841887Y322473D01*
Y322315D01*
X841729Y322078D01*
X841650Y321999D01*
X841491Y321682D01*
X841412Y321603D01*
X841333Y321445D01*
Y321366D01*
X841254Y321207D01*
X841096Y321049D01*
X840858Y320891D01*
X840621D01*
X840383Y320811D01*
X839829D01*
X839275Y320970D01*
X839196D01*
X839117Y321128D01*
X838879Y321286D01*
X838642Y321524D01*
Y321603D01*
X838484Y321761D01*
X838326Y322236D01*
Y322315D01*
Y322473D01*
X838246Y322790D01*
Y323107D01*
Y323186D01*
Y323344D01*
X838326Y323740D01*
Y323819D01*
Y323977D01*
X838405Y324452D01*
Y324531D01*
X838484Y324610D01*
X838642Y325006D01*
X838721Y325085D01*
X838800Y325164D01*
X838959Y325481D01*
X839038D01*
X839117Y325323D01*
X839354Y325164D01*
X839671Y324927D01*
X839592Y324848D01*
X839434Y324610D01*
X839354Y324531D01*
X839275Y324136D01*
Y324057D01*
X839354Y323898D01*
Y323502D01*
Y323344D01*
X839275Y323027D01*
Y322869D01*
X839354Y322553D01*
X839434Y322473D01*
Y322236D01*
X839513Y322157D01*
X839671Y321999D01*
X839750D01*
X840067Y321920D01*
X840225D01*
X840383Y321999D01*
X840462Y322078D01*
X840700Y322236D01*
X840779Y322394D01*
Y322553D01*
X840858Y322790D01*
Y322869D01*
X840937Y323027D01*
X841016Y323265D01*
X841096Y323582D01*
Y323661D01*
X841175Y323898D01*
X841333Y324531D01*
Y324610D01*
X841491Y324769D01*
X841808Y325164D01*
Y325244D01*
X841966Y325323D01*
X842283Y325481D01*
X842362Y325560D01*
X842520Y325639D01*
X842679Y325718D01*
X843233D01*
X843470Y325639D01*
D02*
G37*
G36*
X844736Y338540D02*
Y338303D01*
Y337828D01*
Y337195D01*
X844578Y337116D01*
X844182Y336799D01*
X843549Y336324D01*
X842599Y335691D01*
Y335612D01*
Y335295D01*
Y334820D01*
Y334187D01*
X844736D01*
Y334108D01*
Y333950D01*
Y333633D01*
Y333158D01*
X838405D01*
Y333317D01*
Y333792D01*
Y334504D01*
Y335533D01*
Y335691D01*
Y336008D01*
X838484Y336403D01*
X838563Y336799D01*
Y336878D01*
X838642Y337116D01*
X838800Y337353D01*
X838959Y337670D01*
X839038Y337749D01*
X839117Y337907D01*
X839354Y338065D01*
X839592Y338224D01*
X839671D01*
X839829Y338303D01*
X840146Y338382D01*
X840700D01*
X840937Y338303D01*
X841412Y338224D01*
X841808Y337986D01*
X841887Y337907D01*
X842045Y337749D01*
X842283Y337353D01*
X842441Y336878D01*
X842599Y337037D01*
X842995Y337353D01*
X843707Y337907D01*
X844736Y338619D01*
Y338540D01*
D02*
G37*
G36*
X820438Y353736D02*
X834368D01*
Y353657D01*
Y353341D01*
Y352945D01*
Y352312D01*
Y351520D01*
Y350650D01*
Y349621D01*
Y348513D01*
Y347326D01*
Y345980D01*
Y343210D01*
Y340202D01*
Y337037D01*
Y336957D01*
Y336641D01*
Y336245D01*
Y335612D01*
Y334899D01*
Y334029D01*
Y333000D01*
Y331892D01*
Y330626D01*
Y329359D01*
Y326589D01*
Y323502D01*
Y320416D01*
X824396D01*
Y320495D01*
Y320732D01*
Y321049D01*
Y321524D01*
Y322078D01*
Y322711D01*
X824475Y323502D01*
Y324294D01*
Y326193D01*
Y328330D01*
X824554Y330546D01*
Y332842D01*
Y332921D01*
Y333158D01*
Y333475D01*
Y333950D01*
Y334504D01*
Y335137D01*
Y335928D01*
Y336720D01*
Y338619D01*
Y340756D01*
X824633Y342972D01*
Y345268D01*
X823050D01*
Y345188D01*
X822892Y345030D01*
X822734Y344635D01*
X822496Y344239D01*
X822259Y343685D01*
X821863Y342972D01*
X821467Y342260D01*
X821072Y341390D01*
X820122Y339490D01*
X819093Y337432D01*
X817985Y335137D01*
X816798Y332842D01*
Y332763D01*
X816639Y332604D01*
X816481Y332209D01*
X816244Y331813D01*
X816006Y331259D01*
X815690Y330546D01*
X815294Y329834D01*
X814819Y328964D01*
X813869Y327064D01*
X812840Y325006D01*
X811653Y322711D01*
X810466Y320416D01*
X802076D01*
Y320495D01*
X801918Y320732D01*
X801760Y321049D01*
X801522Y321524D01*
X801285Y322078D01*
X800889Y322711D01*
X800493Y323502D01*
X800098Y324294D01*
X799148Y326193D01*
X798040Y328330D01*
X796932Y330546D01*
X795745Y332842D01*
Y332921D01*
X795586Y333158D01*
X795428Y333475D01*
X795191Y333950D01*
X794953Y334504D01*
X794557Y335137D01*
X794162Y335928D01*
X793766Y336720D01*
X792816Y338619D01*
X791708Y340756D01*
X790600Y342972D01*
X789413Y345268D01*
X739551D01*
Y345188D01*
Y345109D01*
Y344635D01*
Y343922D01*
Y343131D01*
Y343052D01*
Y342972D01*
Y342498D01*
Y341864D01*
Y341073D01*
X765036D01*
Y340994D01*
Y340756D01*
Y340440D01*
Y339965D01*
Y339411D01*
Y338857D01*
Y337511D01*
Y337432D01*
Y337195D01*
Y336799D01*
Y336324D01*
Y335770D01*
Y335137D01*
Y333792D01*
X739551D01*
Y333712D01*
Y333554D01*
Y333317D01*
Y333000D01*
Y332129D01*
Y331180D01*
Y331101D01*
Y330942D01*
Y330705D01*
Y330309D01*
Y329518D01*
Y328489D01*
X768914D01*
Y328568D01*
X768993Y328647D01*
X769231Y329122D01*
X769626Y329834D01*
X770180Y330784D01*
X770734Y331892D01*
X771368Y333158D01*
X772792Y335770D01*
Y335849D01*
X772871Y335928D01*
X773109Y336403D01*
X773505Y337116D01*
X774059Y338065D01*
X774613Y339173D01*
X775325Y340440D01*
X776037Y341785D01*
X776750Y343131D01*
X780153D01*
X782132Y343052D01*
X787672D01*
X787593Y342972D01*
X787434Y342656D01*
X787197Y342181D01*
X786880Y341548D01*
X786485Y340835D01*
X786089Y339965D01*
X785139Y338144D01*
X785060Y338065D01*
X784902Y337749D01*
X784664Y337274D01*
X784348Y336641D01*
X783952Y335928D01*
X783556Y335058D01*
X782686Y333317D01*
X793370D01*
Y333237D01*
X793529Y333000D01*
X793687Y332683D01*
X793845Y332288D01*
X794162Y331734D01*
X794399Y331101D01*
X795032Y329755D01*
Y329676D01*
X795191Y329438D01*
X795349Y329122D01*
X795507Y328647D01*
X795824Y328093D01*
X796061Y327460D01*
X796694Y326114D01*
X779045D01*
Y326035D01*
X778966Y325877D01*
X778807Y325560D01*
X778649Y325244D01*
X778174Y324294D01*
X777699Y323265D01*
Y323186D01*
X777541Y323027D01*
X777462Y322790D01*
X777225Y322394D01*
X776829Y321524D01*
X776275Y320495D01*
X729816D01*
Y320574D01*
Y320811D01*
Y321128D01*
Y321603D01*
Y322157D01*
Y322790D01*
Y323582D01*
Y324373D01*
Y326273D01*
Y328410D01*
Y330626D01*
Y332921D01*
Y333000D01*
Y333237D01*
Y333554D01*
Y333950D01*
Y334583D01*
Y335216D01*
Y335928D01*
Y336799D01*
Y338619D01*
Y340756D01*
Y342972D01*
Y345268D01*
X727362D01*
X726808Y345188D01*
X726096D01*
Y345109D01*
Y345030D01*
Y344793D01*
Y344476D01*
Y343764D01*
Y342893D01*
Y342814D01*
Y342735D01*
Y342260D01*
Y341548D01*
Y340677D01*
Y340598D01*
X726017Y340281D01*
X725938Y339807D01*
X725858Y339253D01*
X725621Y337907D01*
X725463Y337195D01*
X725304Y336562D01*
Y336482D01*
X725225Y336324D01*
X725067Y336008D01*
X724829Y335612D01*
X724434Y335216D01*
X724038Y334820D01*
X723484Y334425D01*
X722851Y334029D01*
X722772D01*
X722455Y333950D01*
X721980Y333792D01*
X721505Y333633D01*
X721426D01*
X721189Y333554D01*
X720793Y333475D01*
X720318Y333317D01*
X720872D01*
X721268Y333237D01*
X722139Y333079D01*
X723009Y332763D01*
X723088D01*
X723167Y332683D01*
X723642Y332367D01*
X724196Y331892D01*
X724671Y331259D01*
X724750Y331180D01*
X724829Y330942D01*
X724988Y330546D01*
X725225Y329992D01*
X725463Y329280D01*
X725621Y328489D01*
X725700Y327539D01*
X725779Y326510D01*
Y326352D01*
Y326035D01*
Y325402D01*
Y324690D01*
Y323740D01*
Y322711D01*
Y321603D01*
Y320495D01*
X715886D01*
Y320574D01*
Y320811D01*
Y321207D01*
Y321761D01*
Y322394D01*
Y323186D01*
X715807Y323977D01*
Y324927D01*
Y325006D01*
Y325323D01*
X715728Y325798D01*
X715649Y326273D01*
X715411Y327381D01*
X715095Y327855D01*
X714778Y328251D01*
X714620Y328330D01*
X714382Y328489D01*
X714145Y328647D01*
X713749Y328726D01*
X713274Y328884D01*
X712720Y328964D01*
X694912D01*
Y328884D01*
Y328568D01*
Y328172D01*
Y327618D01*
Y326985D01*
Y326273D01*
Y324690D01*
Y324610D01*
Y324294D01*
Y323898D01*
Y323344D01*
Y322711D01*
Y321999D01*
Y320416D01*
X684781D01*
Y320495D01*
Y320653D01*
Y320970D01*
Y321366D01*
Y321920D01*
Y322553D01*
Y323186D01*
Y323977D01*
Y325718D01*
Y327618D01*
Y329676D01*
Y331813D01*
Y331892D01*
Y332050D01*
Y332367D01*
Y332763D01*
Y333237D01*
Y333871D01*
Y334504D01*
Y335295D01*
Y336957D01*
Y338857D01*
Y340915D01*
Y343052D01*
X694912D01*
Y342972D01*
Y342814D01*
Y342498D01*
Y342102D01*
Y341152D01*
Y340123D01*
Y340044D01*
Y339886D01*
Y339569D01*
Y339173D01*
Y338224D01*
Y337116D01*
X712958D01*
X713353Y337195D01*
X714224Y337353D01*
X714620Y337511D01*
X715015Y337749D01*
X715095D01*
X715174Y337907D01*
X715332Y338065D01*
X715490Y338382D01*
X715649Y338778D01*
X715807Y339253D01*
X715965Y339965D01*
X716044Y340756D01*
Y340835D01*
Y341152D01*
X716123Y341548D01*
X716044Y342023D01*
X715965Y343131D01*
X715807Y343685D01*
X715569Y344160D01*
Y344239D01*
X715411Y344397D01*
X715174Y344555D01*
X714778Y344793D01*
X714303Y345030D01*
X713670Y345268D01*
X712878Y345347D01*
X710108D01*
X709317Y345268D01*
X681299D01*
Y345188D01*
Y345030D01*
Y344635D01*
Y344239D01*
Y343685D01*
Y342972D01*
Y342260D01*
Y341390D01*
Y339569D01*
Y337432D01*
Y335216D01*
Y332921D01*
Y332842D01*
Y332683D01*
Y332288D01*
Y331892D01*
Y331338D01*
Y330626D01*
Y329913D01*
Y329043D01*
Y327143D01*
Y325085D01*
Y322790D01*
Y320495D01*
X670693D01*
Y320574D01*
Y320811D01*
Y321128D01*
Y321603D01*
Y322157D01*
Y322790D01*
Y323582D01*
Y324373D01*
Y326273D01*
Y328410D01*
Y330626D01*
Y332921D01*
Y333000D01*
Y333237D01*
Y333554D01*
Y333950D01*
Y334583D01*
Y335216D01*
Y335928D01*
Y336799D01*
Y338619D01*
Y340756D01*
Y342972D01*
Y345268D01*
X639747D01*
X639431Y345188D01*
X638956Y345109D01*
X638481Y344951D01*
X637927Y344714D01*
X637373Y344318D01*
X637056Y343843D01*
X636819Y343131D01*
X636898Y343052D01*
X636977Y342814D01*
X637294Y342577D01*
X637689Y342181D01*
X638243Y341864D01*
X638956Y341627D01*
X639906Y341469D01*
X641568D01*
X642201Y341548D01*
X643863D01*
X644812Y341469D01*
X646712Y341310D01*
X648137D01*
X649007Y341231D01*
X650511D01*
X651302Y341152D01*
X652886D01*
X653439Y341073D01*
X654706Y340994D01*
X655339D01*
X655814Y340915D01*
X656843D01*
X658109Y340835D01*
X658347D01*
X658584Y340756D01*
X658980Y340677D01*
X659850Y340440D01*
X660958Y340123D01*
X662146Y339727D01*
X663412Y339173D01*
X664520Y338540D01*
X665391Y337828D01*
X665470Y337749D01*
X665707Y337432D01*
X666103Y336799D01*
X666420Y335928D01*
X666578Y335453D01*
X666736Y334820D01*
X666894Y334108D01*
X667053Y333317D01*
X667132Y332446D01*
Y331496D01*
Y330467D01*
X667053Y329280D01*
Y329201D01*
Y329043D01*
X666973Y328726D01*
Y328330D01*
X666815Y327301D01*
X666657Y326193D01*
Y326114D01*
X666578Y325956D01*
X666499Y325718D01*
X666420Y325323D01*
X666103Y324531D01*
X665707Y323661D01*
X665628Y323582D01*
X665391Y323265D01*
X665074Y322869D01*
X664599Y322394D01*
X663966Y321840D01*
X663175Y321445D01*
X662304Y321049D01*
X661275Y320891D01*
X661117D01*
X660800Y320811D01*
X660246D01*
X659455Y320732D01*
X658505Y320574D01*
X657476Y320495D01*
X656210Y320257D01*
X654943Y320099D01*
X640697D01*
X639906Y320178D01*
X637531D01*
X637294Y320257D01*
X636977Y320337D01*
X636027Y320495D01*
X634919Y320653D01*
X633653Y320891D01*
X632387Y321128D01*
X631120Y321445D01*
X630012Y321682D01*
X629933Y321761D01*
X629616Y321840D01*
X629142Y322157D01*
X628587Y322632D01*
X627954Y323344D01*
X627717Y323819D01*
X627400Y324373D01*
X627163Y325006D01*
X626925Y325718D01*
X626688Y326510D01*
X626530Y327460D01*
Y327618D01*
X626451Y328014D01*
X626371Y328647D01*
X626292Y329518D01*
Y329597D01*
Y329755D01*
Y329992D01*
Y330230D01*
Y330942D01*
X626451Y331655D01*
X636106D01*
Y331575D01*
Y331496D01*
Y331021D01*
X636186Y330388D01*
X636344Y329676D01*
X636423Y329518D01*
X636581Y329201D01*
X636819Y328726D01*
X637215Y328330D01*
X637294D01*
X637373Y328251D01*
X637610Y328172D01*
X637927Y328014D01*
X638322Y327935D01*
X638956Y327855D01*
X639589Y327776D01*
X640460Y327697D01*
X640934D01*
X641409Y327618D01*
X647820D01*
X649007Y327697D01*
X649561D01*
X649957Y327776D01*
X654785D01*
X655102Y327855D01*
X655814Y328014D01*
X656447Y328251D01*
X656526Y328330D01*
X656764Y328568D01*
X657001Y328964D01*
X657238Y329597D01*
Y329676D01*
Y329755D01*
X657318Y330230D01*
Y330863D01*
X657238Y331655D01*
Y331734D01*
X657159Y331813D01*
X657001Y332050D01*
X656843Y332288D01*
X656526Y332525D01*
X656131Y332763D01*
X655656Y332921D01*
X655022Y333000D01*
X654943D01*
X654706Y333079D01*
X654310D01*
X653835Y333158D01*
X653202D01*
X652490Y333237D01*
X650274D01*
X649561Y333158D01*
X648612D01*
X648137Y333237D01*
X647583D01*
X646949Y333317D01*
X646870D01*
X646712Y333396D01*
X646395D01*
X646000Y333475D01*
X645525D01*
X644971Y333554D01*
X643705Y333633D01*
X638322D01*
X637373Y333712D01*
X636265D01*
X634049Y333871D01*
X633890D01*
X633574Y333950D01*
X633020Y334029D01*
X632387Y334187D01*
X631595Y334425D01*
X630804Y334741D01*
X630012Y335137D01*
X629221Y335612D01*
X629142Y335691D01*
X628983Y335849D01*
X628746Y336087D01*
X628429Y336403D01*
X627875Y337353D01*
X627559Y337828D01*
X627400Y338461D01*
Y338540D01*
X627321Y338778D01*
Y339173D01*
X627242Y339648D01*
X627084Y340202D01*
X627005Y340915D01*
X626925Y341706D01*
X626767Y342577D01*
Y342656D01*
Y342735D01*
X626688Y343131D01*
Y343685D01*
Y344397D01*
Y344476D01*
Y344555D01*
Y345030D01*
X626767Y345663D01*
X626925Y346376D01*
Y346455D01*
X627005Y346692D01*
X627084Y347088D01*
X627163Y347563D01*
X627480Y348671D01*
X627875Y349858D01*
Y349937D01*
X627954Y350096D01*
X628113Y350412D01*
X628350Y350729D01*
X628983Y351520D01*
X629379Y351916D01*
X629854Y352312D01*
X629933Y352391D01*
X630250Y352549D01*
X630724Y352787D01*
X631437Y353103D01*
X632307Y353341D01*
X633336Y353578D01*
X634603Y353815D01*
X796694D01*
Y353736D01*
X796774Y353578D01*
X796932Y353261D01*
X797169Y352866D01*
X797328Y352391D01*
X797644Y351837D01*
X797961Y351124D01*
X798277Y350412D01*
X798990Y348750D01*
X799860Y346930D01*
X800731Y344951D01*
X801601Y342972D01*
Y342893D01*
X801681Y342735D01*
X801839Y342418D01*
X801997Y342102D01*
X802235Y341548D01*
X802551Y340994D01*
X803185Y339648D01*
X803897Y338065D01*
X804767Y336245D01*
X805638Y334346D01*
X806588Y332367D01*
X806667D01*
Y332446D01*
X806746D01*
Y332525D01*
X806825Y332683D01*
X806983Y333000D01*
X807142Y333396D01*
X807379Y333871D01*
X807617Y334425D01*
X808250Y335770D01*
X808962Y337353D01*
X809833Y339173D01*
X810703Y341073D01*
X811653Y343052D01*
Y343131D01*
X811732Y343289D01*
X811891Y343606D01*
X812049Y344001D01*
X812286Y344476D01*
X812524Y345030D01*
X813157Y346455D01*
X813948Y348038D01*
X814740Y349858D01*
X815611Y351837D01*
X816481Y353815D01*
X819172D01*
X820438Y353736D01*
D02*
G37*
G36*
X833972Y391568D02*
X834843Y391489D01*
X835872Y391331D01*
X836980Y391093D01*
X838167Y390777D01*
X839354Y390302D01*
X839513Y390223D01*
X839829Y390065D01*
X840462Y389748D01*
X841175Y389273D01*
X842045Y388719D01*
X842916Y388086D01*
X843866Y387294D01*
X844816Y386345D01*
X844736Y386265D01*
X844578Y386107D01*
X844341Y385791D01*
X843945Y385395D01*
X843470Y384920D01*
X842916Y384208D01*
X842204Y383495D01*
X841412Y382625D01*
X841333Y382704D01*
X841254Y382783D01*
X840779Y383258D01*
X840067Y383891D01*
X839275Y384445D01*
X839196D01*
X839117Y384603D01*
X838642Y384841D01*
X838009Y385237D01*
X837297Y385632D01*
X837217D01*
X837138Y385712D01*
X836663Y385870D01*
X835951Y386107D01*
X835080Y386345D01*
X834843D01*
X834606Y386424D01*
X834289D01*
X833497Y386503D01*
X831677D01*
X831123Y386424D01*
X830490Y386345D01*
X829778Y386186D01*
X828195Y385712D01*
X828116D01*
X827878Y385553D01*
X827482Y385395D01*
X827008Y385158D01*
X825900Y384445D01*
X825266Y383970D01*
X824633Y383416D01*
X824554Y383337D01*
X824396Y383179D01*
X824079Y382862D01*
X823763Y382387D01*
X823367Y381912D01*
X822971Y381279D01*
X822180Y379934D01*
Y379855D01*
X822021Y379617D01*
X821942Y379221D01*
X821784Y378667D01*
X821626Y378034D01*
X821546Y377243D01*
X821388Y375581D01*
Y375502D01*
Y375185D01*
X821467Y374710D01*
Y374156D01*
X821546Y373523D01*
X821705Y372811D01*
X822180Y371228D01*
X822259Y371149D01*
X822338Y370911D01*
X822496Y370515D01*
X822813Y370041D01*
X823525Y368932D01*
X824554Y367666D01*
X824633Y367587D01*
X824871Y367429D01*
X825187Y367112D01*
X825583Y366796D01*
X826058Y366400D01*
X826691Y366004D01*
X827957Y365292D01*
X828036D01*
X828274Y365213D01*
X828670Y365054D01*
X829145Y364975D01*
X829778Y364817D01*
X830411Y364659D01*
X831994Y364579D01*
X832785D01*
X833656Y364659D01*
X834526Y364817D01*
X834606D01*
X834685Y364896D01*
X835239Y364975D01*
X835951Y365213D01*
X836742Y365529D01*
X836822D01*
X836901Y365608D01*
X837376Y365846D01*
X837930Y366162D01*
X838642Y366637D01*
X838721D01*
X838800Y366796D01*
X839354Y367191D01*
X840067Y367745D01*
X840858Y368458D01*
X840937Y368378D01*
X841096Y368220D01*
X841333Y367983D01*
X841729Y367587D01*
X842204Y367033D01*
X842758Y366479D01*
X843470Y365767D01*
X844261Y364896D01*
X844182Y364738D01*
X843866Y364421D01*
X843312Y363946D01*
X842679Y363313D01*
X841887Y362680D01*
X840937Y361968D01*
X839908Y361334D01*
X838800Y360780D01*
X838642Y360701D01*
X838326Y360543D01*
X837692Y360305D01*
X836901Y360068D01*
X835951Y359831D01*
X834764Y359593D01*
X833577Y359435D01*
X832231Y359356D01*
X831677D01*
X830965Y359435D01*
X830094Y359514D01*
X829145Y359672D01*
X828036Y359831D01*
X826928Y360147D01*
X825820Y360543D01*
X825662Y360622D01*
X825346Y360780D01*
X824791Y361018D01*
X824079Y361414D01*
X823208Y361888D01*
X822338Y362522D01*
X821467Y363234D01*
X820518Y364025D01*
X820438Y364104D01*
X820122Y364421D01*
X819726Y364896D01*
X819251Y365529D01*
X818697Y366241D01*
X818143Y367112D01*
X817589Y368062D01*
X817114Y369091D01*
X817035Y369249D01*
X816956Y369566D01*
X816719Y370199D01*
X816560Y370990D01*
X816323Y371861D01*
X816085Y372969D01*
X816006Y374156D01*
X815927Y375423D01*
Y375502D01*
Y375581D01*
Y375976D01*
X816006Y376689D01*
X816085Y377559D01*
X816244Y378509D01*
X816402Y379617D01*
X816719Y380725D01*
X817114Y381833D01*
X817193Y381992D01*
X817352Y382308D01*
X817668Y382862D01*
X818064Y383574D01*
X818539Y384366D01*
X819172Y385237D01*
X819884Y386186D01*
X820676Y387057D01*
X820755Y387136D01*
X821072Y387453D01*
X821626Y387848D01*
X822259Y388402D01*
X823050Y388956D01*
X824000Y389590D01*
X824950Y390144D01*
X826058Y390619D01*
X826216Y390698D01*
X826612Y390777D01*
X827166Y390935D01*
X828036Y391173D01*
X828986Y391331D01*
X830094Y391489D01*
X831361Y391568D01*
X832627Y391647D01*
X833260D01*
X833972Y391568D01*
D02*
G37*
G36*
X795270Y390777D02*
Y390460D01*
Y389827D01*
Y388956D01*
Y387928D01*
Y386582D01*
Y384999D01*
Y383179D01*
Y381121D01*
Y378826D01*
Y376214D01*
Y373444D01*
Y370436D01*
Y367112D01*
Y363630D01*
Y359831D01*
X789888D01*
Y359910D01*
Y360226D01*
Y360701D01*
Y361334D01*
Y362205D01*
Y363234D01*
Y364500D01*
Y365925D01*
Y367508D01*
Y369328D01*
Y371307D01*
Y373523D01*
Y375897D01*
Y378430D01*
Y381200D01*
Y384049D01*
X789730Y383812D01*
X789492Y383337D01*
X789255Y382783D01*
X788859Y381992D01*
X788384Y381121D01*
X787830Y380013D01*
X787197Y378747D01*
X786485Y377322D01*
X785693Y375660D01*
X784822Y373919D01*
X783794Y371940D01*
X782765Y369882D01*
X781578Y367587D01*
X780390Y365133D01*
X779045Y362522D01*
X776196D01*
X776116Y362601D01*
X776037Y362838D01*
X775800Y363313D01*
X775483Y363867D01*
X775167Y364659D01*
X774692Y365529D01*
X774138Y366637D01*
X773505Y367904D01*
X772792Y369328D01*
X771922Y370990D01*
X771051Y372732D01*
X770101Y374710D01*
X768993Y376768D01*
X767885Y379063D01*
X766698Y381517D01*
X765352Y384129D01*
Y384049D01*
Y383733D01*
Y383258D01*
Y382625D01*
Y381754D01*
Y380725D01*
Y379459D01*
Y378034D01*
Y376451D01*
Y374631D01*
Y372652D01*
Y370436D01*
Y368062D01*
Y365529D01*
Y362759D01*
Y359831D01*
X760050D01*
Y359989D01*
Y360305D01*
Y360939D01*
Y361809D01*
Y362838D01*
Y364184D01*
Y365767D01*
Y367587D01*
Y369645D01*
Y372019D01*
Y374552D01*
Y377322D01*
Y380330D01*
Y383654D01*
Y387136D01*
Y390935D01*
X768281D01*
Y390856D01*
X768439Y390619D01*
X768597Y390223D01*
X768914Y389748D01*
X769231Y389036D01*
X769626Y388165D01*
X770101Y387215D01*
X770655Y386028D01*
X771289Y384762D01*
X772001Y383258D01*
X772713Y381675D01*
X773584Y379934D01*
X774533Y378034D01*
X775483Y375976D01*
X776591Y373760D01*
X777699Y371386D01*
X777778Y371465D01*
X777858Y371703D01*
X778016Y372098D01*
X778333Y372573D01*
X778649Y373285D01*
X779045Y374156D01*
X779520Y375106D01*
X780074Y376293D01*
X780707Y377559D01*
X781419Y378984D01*
X782211Y380646D01*
X783081Y382387D01*
X783952Y384287D01*
X784981Y386345D01*
X786089Y388561D01*
X787197Y390935D01*
X795270D01*
Y390777D01*
D02*
G37*
G36*
X896220Y197970D02*
X886060D01*
Y204320D01*
X896220D01*
Y197970D01*
D02*
G37*
G36*
Y163680D02*
X886060D01*
Y170030D01*
X896220D01*
Y163680D01*
D02*
G37*
G36*
X659771Y390777D02*
X659692Y390460D01*
X659455Y389827D01*
X659059Y388956D01*
X658663Y387928D01*
X658109Y386582D01*
X657476Y384999D01*
X656764Y383179D01*
X655893Y381121D01*
X654943Y378826D01*
X653914Y376214D01*
X652806Y373444D01*
X651540Y370436D01*
X650274Y367112D01*
X648770Y363630D01*
X647266Y359831D01*
X641409D01*
X641330Y359989D01*
X641251Y360305D01*
X640934Y360939D01*
X640618Y361809D01*
X640222Y362838D01*
X639668Y364184D01*
X639035Y365767D01*
X638243Y367587D01*
X637452Y369645D01*
X636502Y372019D01*
X635473Y374552D01*
X634365Y377322D01*
X633099Y380330D01*
X631753Y383654D01*
X630329Y387136D01*
X628825Y390935D01*
X634761D01*
X634840Y390856D01*
X634919Y390539D01*
X635078Y390144D01*
X635394Y389510D01*
X635711Y388640D01*
X636106Y387611D01*
X636581Y386424D01*
X637215Y385078D01*
X637848Y383574D01*
X638560Y381833D01*
X639351Y379934D01*
X640222Y377797D01*
X641172Y375581D01*
X642201Y373127D01*
X643230Y370436D01*
X644417Y367666D01*
X644496Y367745D01*
X644575Y368062D01*
X644733Y368458D01*
X645050Y369091D01*
X645367Y369961D01*
X645762Y370911D01*
X646237Y372098D01*
X646791Y373523D01*
X647424Y375027D01*
X648137Y376768D01*
X648928Y378667D01*
X649799Y380725D01*
X650669Y383021D01*
X651698Y385474D01*
X652806Y388086D01*
X653914Y390935D01*
X659850D01*
X659771Y390777D01*
D02*
G37*
G36*
X809120D02*
Y390460D01*
Y389827D01*
Y388956D01*
Y387928D01*
Y386582D01*
Y384999D01*
Y383179D01*
Y381121D01*
Y378826D01*
Y376214D01*
Y373444D01*
Y370436D01*
Y367112D01*
Y363630D01*
Y359831D01*
X803897D01*
Y359989D01*
Y360305D01*
Y360939D01*
Y361809D01*
Y362838D01*
Y364184D01*
Y365767D01*
Y367587D01*
Y369645D01*
Y372019D01*
Y374552D01*
Y377322D01*
Y380330D01*
Y383654D01*
Y387136D01*
Y390935D01*
X809120D01*
Y390777D01*
D02*
G37*
G36*
X706468Y390856D02*
Y390539D01*
Y389985D01*
Y389273D01*
Y388402D01*
Y387294D01*
Y385949D01*
Y384366D01*
Y382625D01*
Y380725D01*
Y378588D01*
Y376214D01*
Y373681D01*
Y370911D01*
Y367904D01*
Y364738D01*
X720714D01*
Y364659D01*
Y364421D01*
Y364025D01*
Y363471D01*
Y362838D01*
Y361968D01*
Y360939D01*
Y359831D01*
X701244D01*
Y359989D01*
Y360305D01*
Y360939D01*
Y361809D01*
Y362838D01*
Y364184D01*
Y365767D01*
Y367587D01*
Y369645D01*
Y372019D01*
Y374552D01*
Y377322D01*
Y380330D01*
Y383654D01*
Y387136D01*
Y390935D01*
X706468D01*
Y390856D01*
D02*
G37*
G36*
X751818D02*
Y390698D01*
Y390302D01*
Y389827D01*
Y389273D01*
Y388482D01*
Y387611D01*
Y386582D01*
Y385395D01*
Y384129D01*
Y382704D01*
Y381121D01*
Y379380D01*
Y377559D01*
Y375581D01*
Y373444D01*
Y373285D01*
Y372890D01*
X751739Y372257D01*
Y371465D01*
X751581Y370515D01*
X751423Y369566D01*
X751185Y368537D01*
X750869Y367508D01*
X750790Y367429D01*
X750710Y367112D01*
X750473Y366558D01*
X750156Y366004D01*
X749761Y365292D01*
X749286Y364500D01*
X748732Y363788D01*
X748099Y363076D01*
X748019Y362996D01*
X747782Y362759D01*
X747386Y362443D01*
X746832Y362126D01*
X746199Y361651D01*
X745487Y361176D01*
X743825Y360385D01*
X743745D01*
X743429Y360226D01*
X742954Y360068D01*
X742321Y359910D01*
X741529Y359752D01*
X740659Y359593D01*
X739630Y359514D01*
X738601Y359435D01*
X738126D01*
X737572Y359514D01*
X736860Y359593D01*
X736068Y359672D01*
X735198Y359831D01*
X734248Y360068D01*
X733298Y360385D01*
X733219Y360464D01*
X732903Y360543D01*
X732507Y360780D01*
X731874Y361097D01*
X731240Y361493D01*
X730528Y361888D01*
X729024Y363076D01*
X728945Y363155D01*
X728708Y363392D01*
X728391Y363788D01*
X727995Y364342D01*
X727521Y364975D01*
X727125Y365687D01*
X726650Y366558D01*
X726254Y367508D01*
Y367666D01*
X726096Y367983D01*
X726017Y368537D01*
X725858Y369249D01*
X725700Y370120D01*
X725542Y371149D01*
X725463Y372257D01*
X725384Y373444D01*
Y373523D01*
Y373681D01*
Y374077D01*
Y374552D01*
Y375185D01*
Y375897D01*
Y376768D01*
Y377797D01*
Y378984D01*
Y380330D01*
Y381754D01*
Y383258D01*
Y384999D01*
Y386819D01*
Y388798D01*
Y390935D01*
X730686D01*
Y390856D01*
Y390698D01*
Y390302D01*
Y389827D01*
Y389273D01*
Y388482D01*
Y387611D01*
Y386582D01*
Y385474D01*
Y384129D01*
Y382783D01*
Y381200D01*
Y379459D01*
Y377639D01*
Y375739D01*
Y373602D01*
Y373523D01*
Y373285D01*
Y372890D01*
Y372336D01*
X730766Y371782D01*
X730845Y371149D01*
X731161Y369803D01*
Y369724D01*
X731240Y369566D01*
X731399Y369249D01*
X731557Y368853D01*
X732032Y367904D01*
X732744Y367033D01*
X732823Y366954D01*
X732903Y366796D01*
X733140Y366558D01*
X733456Y366321D01*
X734248Y365687D01*
X735277Y365054D01*
X735356D01*
X735514Y364975D01*
X735831Y364896D01*
X736227Y364817D01*
X736702Y364659D01*
X737255Y364579D01*
X738601Y364500D01*
X739234D01*
X739709Y364579D01*
X740738Y364738D01*
X741846Y365054D01*
X741925D01*
X742084Y365213D01*
X742400Y365371D01*
X742717Y365608D01*
X743587Y366162D01*
X744458Y367033D01*
X744537Y367112D01*
X744616Y367270D01*
X744854Y367508D01*
X745012Y367824D01*
X745329Y368220D01*
X745566Y368774D01*
X746041Y369961D01*
Y370041D01*
X746120Y370278D01*
X746199Y370594D01*
X746278Y371069D01*
X746357Y371623D01*
X746436Y372257D01*
X746516Y373681D01*
Y373760D01*
Y373919D01*
Y374314D01*
Y374789D01*
Y375343D01*
Y376135D01*
Y377005D01*
Y378034D01*
Y379142D01*
Y380409D01*
Y381833D01*
Y383416D01*
Y385078D01*
Y386899D01*
Y388877D01*
Y390935D01*
X751818D01*
Y390856D01*
D02*
G37*
%LPC*%
G36*
X575797Y391647D02*
X574926D01*
X574451Y391568D01*
X573897D01*
X572552Y391489D01*
X571048Y391331D01*
X569307Y391014D01*
X567486Y390698D01*
X565666Y390223D01*
X565587D01*
X565429Y390144D01*
X565191Y390065D01*
X564795Y389985D01*
X564400Y389827D01*
X563846Y389669D01*
X562659Y389194D01*
X561234Y388640D01*
X559730Y387928D01*
X558068Y387136D01*
X556485Y386265D01*
X556406Y386186D01*
X556169Y386028D01*
X555773Y385791D01*
X555219Y385395D01*
X554506Y384841D01*
X553794Y384287D01*
X552924Y383574D01*
X552053Y382783D01*
X551024Y381912D01*
X549995Y380884D01*
X548966Y379855D01*
X547937Y378667D01*
X546908Y377401D01*
X545880Y376056D01*
X544930Y374631D01*
X543980Y373127D01*
X543901Y373048D01*
X543743Y372732D01*
X543505Y372336D01*
X543268Y371703D01*
X542872Y370911D01*
X542476Y370041D01*
X542080Y368932D01*
X541606Y367745D01*
X541131Y366479D01*
X540735Y365054D01*
X540339Y363630D01*
X539944Y362047D01*
X539706Y360385D01*
X539469Y358643D01*
X539310Y356823D01*
X539231Y355003D01*
Y354924D01*
Y354765D01*
Y354449D01*
Y354132D01*
X539310Y353657D01*
Y353103D01*
X539389Y351758D01*
X539548Y350175D01*
X539864Y348513D01*
X540181Y346692D01*
X540656Y344872D01*
Y344793D01*
X540735Y344635D01*
X540814Y344397D01*
X540973Y344001D01*
X541052Y343606D01*
X541289Y343052D01*
X541764Y341864D01*
X542318Y340440D01*
X543030Y338936D01*
X543822Y337274D01*
X544692Y335691D01*
X544771Y335612D01*
X544930Y335374D01*
X545167Y334979D01*
X545563Y334425D01*
X546117Y333792D01*
X546671Y333000D01*
X547383Y332209D01*
X548175Y331259D01*
X549045Y330309D01*
X550074Y329280D01*
X551103Y328251D01*
X552290Y327222D01*
X553557Y326193D01*
X554823Y325164D01*
X556248Y324215D01*
X557752Y323265D01*
X557831Y323186D01*
X558147Y323027D01*
X558622Y322790D01*
X559176Y322553D01*
X559968Y322157D01*
X560917Y321761D01*
X561946Y321366D01*
X563133Y320891D01*
X564400Y320416D01*
X565824Y320020D01*
X567328Y319624D01*
X568911Y319228D01*
X570494Y318991D01*
X572235Y318754D01*
X573977Y318595D01*
X575797Y318516D01*
X576747D01*
X577221Y318595D01*
X577775D01*
X579121Y318675D01*
X580625Y318833D01*
X582366Y319149D01*
X584186Y319466D01*
X586007Y319941D01*
X586086D01*
X586244Y320020D01*
X586482Y320099D01*
X586877Y320178D01*
X587273Y320337D01*
X587748Y320495D01*
X589014Y320970D01*
X590439Y321524D01*
X591943Y322236D01*
X593605Y323027D01*
X595188Y323977D01*
X595267Y324057D01*
X595504Y324215D01*
X595900Y324452D01*
X596454Y324848D01*
X597166Y325402D01*
X597879Y325956D01*
X598749Y326668D01*
X599699Y327460D01*
X600649Y328330D01*
X601678Y329280D01*
X602707Y330388D01*
X603736Y331496D01*
X604764Y332763D01*
X605793Y334108D01*
X606743Y335453D01*
X607693Y336957D01*
X607772Y337037D01*
X607930Y337353D01*
X608168Y337749D01*
X608405Y338382D01*
X608801Y339173D01*
X609197Y340044D01*
X609592Y341152D01*
X610067Y342339D01*
X610542Y343606D01*
X610938Y344951D01*
X611334Y346455D01*
X611729Y348038D01*
X611967Y349700D01*
X612204Y351441D01*
X612363Y353182D01*
X612442Y355003D01*
Y355082D01*
Y355478D01*
Y355952D01*
X612363Y356665D01*
X612283Y357535D01*
X612204Y358564D01*
X612046Y359752D01*
X611888Y361018D01*
X611571Y362363D01*
X611255Y363788D01*
X610938Y365292D01*
X610463Y366875D01*
X609909Y368458D01*
X609276Y370041D01*
X608563Y371623D01*
X607693Y373206D01*
X607614Y373285D01*
X607455Y373602D01*
X607218Y373998D01*
X606822Y374552D01*
X606347Y375264D01*
X605793Y376056D01*
X605081Y376926D01*
X604369Y377876D01*
X603498Y378905D01*
X602548Y380013D01*
X601519Y381042D01*
X600411Y382150D01*
X599224Y383258D01*
X597958Y384287D01*
X595188Y386265D01*
X595109D01*
X595029Y386345D01*
X594792Y386503D01*
X594475Y386661D01*
X593605Y387136D01*
X592497Y387690D01*
X591151Y388323D01*
X589568Y389036D01*
X587906Y389669D01*
X586086Y390223D01*
X586007D01*
X585849Y390302D01*
X585611Y390381D01*
X585215Y390460D01*
X584820Y390539D01*
X584266Y390698D01*
X582999Y390935D01*
X581416Y391173D01*
X579675Y391410D01*
X577775Y391568D01*
X575797Y391647D01*
D02*
G37*
%LPD*%
G36*
X558226Y375106D02*
X558306Y375027D01*
X558385Y374789D01*
X558464Y374473D01*
X558622Y373998D01*
X558780Y373523D01*
X559018Y372890D01*
X559176Y372178D01*
X559493Y371386D01*
X559730Y370515D01*
X560126Y369566D01*
X560443Y368458D01*
X560838Y367350D01*
X561234Y366083D01*
X561709Y364738D01*
X562184Y363313D01*
X562659Y361730D01*
X563213Y360147D01*
X563767Y358406D01*
X564400Y356586D01*
X565033Y354686D01*
X565745Y352707D01*
X566378Y350650D01*
X567170Y348513D01*
X567882Y346217D01*
X568674Y343843D01*
X569544Y341390D01*
X570415Y338857D01*
X571286Y336245D01*
X572235Y333475D01*
X573185Y330705D01*
X574135Y327776D01*
X567249D01*
Y327855D01*
X567170Y327935D01*
X567091Y328172D01*
X567012Y328489D01*
X566853Y328964D01*
X566695Y329438D01*
X566458Y330072D01*
X566220Y330705D01*
X565983Y331496D01*
X565666Y332367D01*
X565350Y333396D01*
X565033Y334425D01*
X564637Y335612D01*
X564241Y336799D01*
X563767Y338144D01*
X563292Y339648D01*
X562738Y341152D01*
X562184Y342735D01*
X561630Y344476D01*
X561076Y346297D01*
X560363Y348196D01*
X559730Y350175D01*
X559018Y352233D01*
X558306Y354449D01*
X557514Y356665D01*
X556723Y359039D01*
X555931Y361493D01*
X555061Y364025D01*
X554190Y366716D01*
X553240Y369407D01*
X552290Y372257D01*
X551341Y375185D01*
X558226D01*
Y375106D01*
D02*
G37*
G36*
X566537D02*
X566616Y374868D01*
X566774Y374473D01*
X566932Y373919D01*
X567170Y373206D01*
X567486Y372336D01*
X567803Y371386D01*
X568199Y370199D01*
X568674Y368853D01*
X569149Y367350D01*
X569703Y365687D01*
X570336Y363867D01*
X570969Y361888D01*
X571681Y359752D01*
X572473Y357456D01*
X573264Y355003D01*
X573185Y354844D01*
X573027Y354449D01*
X572789Y353657D01*
X572394Y352628D01*
X571919Y351283D01*
X571365Y349700D01*
X570652Y347800D01*
X569861Y345584D01*
Y345663D01*
X569703Y346059D01*
X569544Y346613D01*
X569228Y347405D01*
X568911Y348513D01*
X568436Y349779D01*
X567961Y351283D01*
X567328Y353024D01*
X566695Y355003D01*
X565983Y357140D01*
X565112Y359593D01*
X564241Y362284D01*
X563213Y365133D01*
X562184Y368220D01*
X560997Y371623D01*
X559809Y375185D01*
X566537D01*
Y375106D01*
D02*
G37*
G36*
X591389Y375027D02*
X591230Y374552D01*
X590993Y373760D01*
X590597Y372652D01*
X590122Y371228D01*
X589568Y369487D01*
X588856Y367429D01*
X588065Y365133D01*
X587194Y362443D01*
X586165Y359435D01*
X585057Y356111D01*
X583870Y352549D01*
X582524Y348592D01*
X581100Y344318D01*
X579596Y339807D01*
X577934Y334899D01*
X577855Y335058D01*
X577696Y335533D01*
X577459Y336324D01*
X577063Y337432D01*
X576509Y338778D01*
X576193Y339648D01*
X575876Y340519D01*
X575559Y341548D01*
X575164Y342577D01*
X574768Y343764D01*
X574293Y344951D01*
X574372Y345109D01*
X574451Y345426D01*
X574689Y345980D01*
X574926Y346851D01*
X575322Y347879D01*
X575718Y349225D01*
X576272Y350729D01*
X576905Y352470D01*
X577538Y354528D01*
X578330Y356744D01*
X579200Y359198D01*
X580071Y361968D01*
X581100Y364896D01*
X582208Y368062D01*
X583316Y371544D01*
X584582Y375185D01*
X591468D01*
X591389Y375027D01*
D02*
G37*
G36*
X600095Y375106D02*
X600016Y375027D01*
X599936Y374789D01*
X599857Y374473D01*
X599699Y373998D01*
X599541Y373523D01*
X599303Y372890D01*
X599066Y372178D01*
X598829Y371386D01*
X598512Y370515D01*
X598195Y369566D01*
X597800Y368458D01*
X597404Y367350D01*
X597008Y366083D01*
X596533Y364738D01*
X596058Y363313D01*
X595583Y361730D01*
X595029Y360147D01*
X594475Y358406D01*
X593842Y356586D01*
X593209Y354686D01*
X592497Y352707D01*
X591784Y350650D01*
X591072Y348513D01*
X590281Y346217D01*
X589489Y343843D01*
X588698Y341390D01*
X587827Y338857D01*
X586956Y336245D01*
X586007Y333475D01*
X585057Y330705D01*
X584107Y327776D01*
X577221D01*
Y327855D01*
X577301Y327935D01*
X577380Y328172D01*
X577459Y328489D01*
X577617Y328964D01*
X577775Y329438D01*
X578013Y330072D01*
X578250Y330705D01*
X578488Y331496D01*
X578804Y332367D01*
X579121Y333396D01*
X579438Y334425D01*
X579833Y335612D01*
X580308Y336799D01*
X580704Y338144D01*
X581179Y339648D01*
X581733Y341152D01*
X582287Y342735D01*
X582841Y344476D01*
X583474Y346297D01*
X584107Y348196D01*
X584740Y350175D01*
X585453Y352233D01*
X586165Y354449D01*
X586956Y356665D01*
X587748Y359039D01*
X588539Y361493D01*
X589410Y364025D01*
X590281Y366716D01*
X591230Y369407D01*
X592180Y372257D01*
X593130Y375185D01*
X600095D01*
Y375106D01*
D02*
G37*
%LPC*%
G36*
X679083Y386899D02*
X677817D01*
X677421Y386819D01*
X676788D01*
X676154Y386661D01*
X675442Y386503D01*
X674730Y386345D01*
X673938Y386028D01*
X673859D01*
X673622Y385870D01*
X673226Y385712D01*
X672751Y385395D01*
X672197Y385078D01*
X671643Y384683D01*
X671010Y384129D01*
X670456Y383574D01*
X670377Y383495D01*
X670219Y383258D01*
X669902Y382941D01*
X669506Y382467D01*
X669110Y381912D01*
X668715Y381279D01*
X668319Y380646D01*
X668002Y379855D01*
Y379776D01*
X667844Y379538D01*
X667765Y379142D01*
X667607Y378588D01*
X667448Y377955D01*
X667369Y377164D01*
X667211Y375502D01*
Y375423D01*
Y375106D01*
X667290Y374631D01*
Y374077D01*
X667369Y373444D01*
X667527Y372732D01*
X668002Y371149D01*
X668082Y371069D01*
X668161Y370832D01*
X668319Y370436D01*
X668636Y369961D01*
X668952Y369407D01*
X669348Y368774D01*
X669902Y368141D01*
X670456Y367508D01*
X670535Y367429D01*
X670772Y367270D01*
X671089Y366954D01*
X671485Y366558D01*
X672039Y366162D01*
X672593Y365767D01*
X673938Y364975D01*
X674017D01*
X674255Y364817D01*
X674651Y364738D01*
X675205Y364579D01*
X675838Y364421D01*
X676550Y364342D01*
X678212Y364184D01*
X678608D01*
X679083Y364263D01*
X679637D01*
X680270Y364342D01*
X680982Y364500D01*
X682486Y364975D01*
X682565Y365054D01*
X682803Y365133D01*
X683198Y365371D01*
X683673Y365608D01*
X684781Y366400D01*
X685969Y367508D01*
X686048Y367587D01*
X686206Y367824D01*
X686523Y368141D01*
X686918Y368616D01*
X687314Y369091D01*
X687710Y369724D01*
X688106Y370436D01*
X688422Y371149D01*
Y371228D01*
X688501Y371544D01*
X688660Y371940D01*
X688818Y372494D01*
X688897Y373127D01*
X689055Y373839D01*
X689135Y375502D01*
Y375581D01*
Y375897D01*
Y376372D01*
X689055Y377005D01*
X688976Y377639D01*
X688818Y378430D01*
X688422Y379934D01*
Y380013D01*
X688264Y380250D01*
X688106Y380646D01*
X687789Y381200D01*
X687472Y381754D01*
X687077Y382308D01*
X686523Y382941D01*
X685969Y383574D01*
X685890Y383654D01*
X685731Y383812D01*
X685335Y384129D01*
X684940Y384524D01*
X684465Y384920D01*
X683832Y385316D01*
X683198Y385712D01*
X682486Y386028D01*
X682407Y386107D01*
X682170Y386186D01*
X681774Y386345D01*
X681220Y386503D01*
X680587Y386661D01*
X679874Y386740D01*
X679083Y386899D01*
D02*
G37*
G36*
X840858Y337195D02*
X840304D01*
X839908Y337116D01*
X839829Y337037D01*
X839592Y336878D01*
X839513Y336799D01*
X839434Y336403D01*
Y336324D01*
Y336166D01*
X839354Y335928D01*
Y335612D01*
Y335533D01*
Y335216D01*
Y334741D01*
Y334108D01*
X841571D01*
Y334187D01*
Y334504D01*
Y334979D01*
Y335533D01*
Y335612D01*
Y335849D01*
Y336166D01*
X841491Y336403D01*
Y336482D01*
X841412Y336562D01*
X841333Y336878D01*
X841254Y336957D01*
X841016Y337116D01*
X840858Y337195D01*
D02*
G37*
%LPD*%
D50*
X74500Y159500D02*
X84500D01*
X71000Y156000D02*
X74500Y159500D01*
X71000Y144000D02*
Y156000D01*
Y122750D02*
X113000D01*
X71000D02*
Y144000D01*
X113000Y122750D02*
Y159500D01*
X84500D02*
X113000D01*
X1109902Y347936D02*
Y357936D01*
X1106402Y361436D02*
X1109902Y357936D01*
X1094402Y361436D02*
X1106402D01*
X1073152Y319436D02*
Y361436D01*
X1094402D01*
X1073152Y319436D02*
X1109902D01*
Y347936D01*
X933500Y248000D02*
Y280000D01*
X883500Y248000D02*
Y280000D01*
X145300Y57100D02*
Y184100D01*
X170700D01*
X145300Y57100D02*
X170700D01*
Y184100D01*
X373006Y488962D02*
Y537645D01*
Y488962D02*
Y565162D01*
X423806Y488962D02*
Y565162D01*
X373006D02*
X423806D01*
X373006Y488962D02*
X423806D01*
X868000Y78000D02*
Y83000D01*
Y78000D02*
X948000D01*
Y83000D01*
X868000Y153000D02*
Y158000D01*
X948000D01*
Y153000D02*
Y158000D01*
X1060500Y267500D02*
X1123500D01*
X1060500Y264500D02*
Y267500D01*
X1123500Y264500D02*
Y267500D01*
X1060500Y206500D02*
Y209500D01*
X1123500Y206500D02*
Y209500D01*
X1060500Y206500D02*
X1123500D01*
X103000Y88500D02*
Y111500D01*
X63000Y88500D02*
Y111500D01*
X87000Y88500D02*
X103000D01*
X63000D02*
X79000D01*
X87000Y111500D02*
X103000D01*
X63000D02*
X79000D01*
X2616Y667080D02*
X78816D01*
X2616Y641680D02*
Y667080D01*
Y641680D02*
X78816D01*
Y667080D01*
Y616280D02*
Y641680D01*
X2616Y616280D02*
X78816D01*
X2616D02*
Y641680D01*
X78816D01*
X2616Y616280D02*
X78816D01*
X2616Y590880D02*
Y616280D01*
Y590880D02*
X78816D01*
Y616280D01*
Y565480D02*
Y590880D01*
X2616Y565480D02*
X78816D01*
X2616D02*
Y590880D01*
X78816D01*
X2616Y565480D02*
X78816D01*
X2616Y540080D02*
Y565480D01*
Y540080D02*
X78816D01*
Y565480D01*
X78816Y514680D02*
Y540080D01*
X2616Y514680D02*
X78816D01*
X2616D02*
Y540080D01*
X78816D01*
X2620Y414350D02*
Y439750D01*
X104220D01*
X2620Y414350D02*
X104220D01*
Y439750D01*
Y465150D01*
X2620Y439750D02*
X104220D01*
X2620Y465150D02*
X104220D01*
X2620Y439750D02*
Y465150D01*
Y490550D01*
X104220D01*
X2620Y465150D02*
X104220D01*
Y490550D01*
X919089Y645998D02*
Y671398D01*
X1020689D01*
X919089Y645998D02*
X1020689D01*
Y671398D01*
X1172934Y645744D02*
Y671144D01*
X1071334Y645744D02*
X1172934D01*
X1071334Y671144D02*
X1172934D01*
X1071334Y645744D02*
Y671144D01*
X1223578Y645490D02*
Y670890D01*
X1325178D01*
X1223578Y645490D02*
X1325178D01*
Y670890D01*
X563956Y645998D02*
Y671398D01*
X462356Y645998D02*
X563956D01*
X462356Y671398D02*
X563956D01*
X462356Y645998D02*
Y671398D01*
X614600Y645998D02*
Y671398D01*
X716200D01*
X614600Y645998D02*
X716200D01*
Y671398D01*
X868445Y646252D02*
Y671652D01*
X766845Y646252D02*
X868445D01*
X766845Y671652D02*
X868445D01*
X766845Y646252D02*
Y671652D01*
X399364Y352628D02*
Y403428D01*
X526364Y352628D02*
Y403428D01*
X399364Y352628D02*
X526364D01*
X399364Y403428D02*
X526364D01*
X436584Y675324D02*
Y747324D01*
X254584Y675324D02*
Y747324D01*
Y675324D02*
X436584D01*
X254584Y747324D02*
X436584D01*
X72466D02*
X254466D01*
X72466Y675324D02*
X254466D01*
X72466D02*
Y747324D01*
X254466Y675324D02*
Y747324D01*
X765636Y132180D02*
Y157580D01*
X816436D01*
Y132180D02*
Y157580D01*
X765636Y132180D02*
X816436D01*
X679274Y132184D02*
X730074D01*
Y157584D01*
X679274D02*
X730074D01*
X679274Y132184D02*
Y157584D01*
X345478Y301828D02*
X370878D01*
Y251028D02*
Y301828D01*
X345478Y251028D02*
X370878D01*
X345478D02*
Y301828D01*
X177208Y671740D02*
X228008D01*
X177208Y646340D02*
Y671740D01*
Y646340D02*
X228008D01*
Y671740D01*
X357924Y242392D02*
X383324D01*
Y191592D02*
Y242392D01*
X357924Y191592D02*
X383324D01*
X357924D02*
Y242392D01*
X380784Y9728D02*
Y60528D01*
Y9728D02*
X406184D01*
Y60528D01*
X380784D02*
X406184D01*
X402000Y604500D02*
Y639500D01*
X342000Y604500D02*
Y639500D01*
Y604500D02*
X402000D01*
X342000Y639500D02*
X402000D01*
X172600Y540671D02*
X297600D01*
X172600Y415671D02*
X297600D01*
X172600D02*
Y540671D01*
X297600Y415671D02*
Y540671D01*
X242982Y108736D02*
X301982D01*
X242982Y167736D02*
X301982D01*
X242982Y108736D02*
Y167736D01*
X301982Y108736D02*
Y167736D01*
X2620Y202260D02*
X53420D01*
X2620Y380060D02*
X53420D01*
Y202260D02*
Y380060D01*
X2620Y202260D02*
Y380060D01*
X132118Y251028D02*
X335318D01*
X132118D02*
Y301828D01*
X335318Y251028D02*
Y301828D01*
X132118D02*
X335318D01*
X347764Y191592D02*
Y242392D01*
X271564Y191592D02*
Y242392D01*
X347764D01*
X271564Y191592D02*
X347764D01*
X299081D02*
X347764D01*
X837984Y60528D02*
X863384D01*
Y9728D02*
Y60528D01*
X837984Y9728D02*
X863384D01*
X837984D02*
Y60528D01*
D52*
X462168Y500638D02*
G03*
X462168Y506988I0J3175D01*
G01*
X919288Y500638D02*
G03*
X919288Y506988I0J3175D01*
G01*
X1071688Y500638D02*
G03*
X1071688Y506988I0J3175D01*
G01*
X1225088Y500634D02*
G03*
X1225088Y506984I0J3175D01*
G01*
X614568Y500638D02*
G03*
X614568Y506988I0J3175D01*
G01*
X766968Y500638D02*
G03*
X766968Y506988I0J3175D01*
G01*
X1329012Y19881D02*
G03*
X1329012Y52408I-16264J16264D01*
G01*
X1296485Y52408D02*
G03*
X1296485Y19881I16264J-16264D01*
G01*
X1333254Y15638D02*
G03*
X1333254Y56650I-20506J20506D01*
G01*
X1292242Y56650D02*
G03*
X1292242Y15638I20506J-20506D01*
G01*
X1337497Y11395D02*
G03*
X1337497Y60893I-24749J24749D01*
G01*
X1287999D02*
G03*
X1287999Y11395I24749J-24749D01*
G01*
X1056465Y13030D02*
G03*
X1056465Y13030I-10925J0D01*
G01*
X1156433D02*
G03*
X1156433Y13030I-10925J0D01*
G01*
X649199Y13792D02*
G03*
X649199Y13792I-10925J0D01*
G01*
X565379Y13538D02*
G03*
X565379Y13538I-10925J0D01*
G01*
X481559Y14300D02*
G03*
X481559Y14300I-10925J0D01*
G01*
X732511Y13792D02*
G03*
X732511Y13792I-10925J0D01*
G01*
X817601Y14300D02*
G03*
X817601Y14300I-10925J0D01*
G01*
X1256763Y13030D02*
G03*
X1256763Y13030I-10925J0D01*
G01*
X52916Y22167D02*
G03*
X52916Y54694I-16264J16264D01*
G01*
X20389Y54694D02*
G03*
X20389Y22167I16264J-16264D01*
G01*
X57158Y17924D02*
G03*
X57158Y58936I-20506J20506D01*
G01*
X16146Y58936D02*
G03*
X16146Y17924I20506J-20506D01*
G01*
X61401Y13681D02*
G03*
X61401Y63179I-24749J24749D01*
G01*
X11903D02*
G03*
X11903Y13681I24749J-24749D01*
G01*
X1285459Y417001D02*
G03*
X1285459Y367504I24749J-24749D01*
G01*
X1334957D02*
G03*
X1334957Y417001I-24749J24749D01*
G01*
X1289702Y412758D02*
G03*
X1289702Y371746I20506J-20506D01*
G01*
X1330714Y371746D02*
G03*
X1330714Y412758I-20506J20506D01*
G01*
X1293945Y408516D02*
G03*
X1293945Y375989I16264J-16264D01*
G01*
X1326472Y375989D02*
G03*
X1326472Y408516I-16264J16264D01*
G01*
X53989Y696984D02*
G03*
X53989Y729511I-16264J16264D01*
G01*
X21462Y729511D02*
G03*
X21462Y696985I16264J-16264D01*
G01*
X58232Y692742D02*
G03*
X58232Y733754I-20506J20506D01*
G01*
X17220Y733754D02*
G03*
X17220Y692742I20506J-20506D01*
G01*
X62474Y688499D02*
G03*
X62474Y737997I-24749J24749D01*
G01*
X12977D02*
G03*
X12977Y688499I24749J-24749D01*
G01*
X573758Y26290D02*
Y96290D01*
X498758Y26290D02*
X573758D01*
X498758D02*
Y96290D01*
X573758D01*
X414938Y97052D02*
X489938D01*
X414938Y27052D02*
Y97052D01*
Y27052D02*
X489938D01*
Y97052D01*
X462168Y481080D02*
X512168D01*
X512206D02*
Y526800D01*
X465978Y481080D02*
X512206D01*
X462422Y526800D02*
X512206D01*
X462168Y507115D02*
Y526800D01*
Y481080D02*
Y500765D01*
X919288Y481080D02*
X969288D01*
X969326D02*
Y526800D01*
X923098Y481080D02*
X969326D01*
X919542Y526800D02*
X969326D01*
X919288Y507115D02*
Y526800D01*
Y481080D02*
Y500765D01*
X1071688Y481080D02*
Y500765D01*
Y507115D02*
Y526800D01*
X1071942D02*
X1121726D01*
X1075498Y481080D02*
X1121726D01*
Y526800D01*
X1071688Y481080D02*
X1121688D01*
X1225088Y481076D02*
Y500761D01*
Y507111D02*
Y526796D01*
X1225342D02*
X1275126D01*
X1228898Y481076D02*
X1275126D01*
Y526796D01*
X1225088Y481076D02*
X1275088D01*
X614568Y481080D02*
Y500765D01*
Y507115D02*
Y526800D01*
X614822D02*
X664606D01*
X618378Y481080D02*
X664606D01*
Y526800D01*
X614568Y481080D02*
X664568D01*
X766968D02*
X816968D01*
X817006D02*
Y526800D01*
X770778Y481080D02*
X817006D01*
X767222Y526800D02*
X817006D01*
X766968Y507115D02*
Y526800D01*
Y481080D02*
Y500765D01*
X1287999Y11395D02*
X1296484Y19881D01*
X1329012D02*
X1337497Y11395D01*
X1329011Y52407D02*
X1337496Y60893D01*
X1288000D02*
X1296485Y52407D01*
X745457Y677440D02*
X890456D01*
Y747440D01*
X745457D02*
X890456D01*
X745457Y677440D02*
Y747440D01*
X593132Y677440D02*
X738132D01*
Y747440D01*
X593132D02*
X738132D01*
X593132Y677440D02*
Y747440D01*
X440808Y677440D02*
X585808D01*
Y747440D01*
X440808D02*
X585808D01*
X440808Y677440D02*
Y747440D01*
X1050106Y677440D02*
X1195106D01*
Y747440D01*
X1050106D02*
X1195106D01*
X1050106Y677440D02*
Y747440D01*
X897781Y677440D02*
X1042781D01*
Y747440D01*
X897781D02*
X1042781D01*
X897781Y677440D02*
Y747440D01*
X114046Y175000D02*
X141000D01*
X426542Y727532D02*
X426796Y727278D01*
Y724230D02*
Y727278D01*
X428828Y723722D02*
Y727532D01*
X431114Y722452D02*
Y729818D01*
X433146Y720928D02*
Y731088D01*
X243154Y726008D02*
X243408Y725754D01*
Y722706D02*
Y725754D01*
X245440Y722198D02*
Y726008D01*
X247726Y720928D02*
Y728294D01*
X249758Y719658D02*
Y729818D01*
X317538Y319608D02*
X327698D01*
X319062Y317576D02*
X326428D01*
X321348Y315290D02*
X325158D01*
X321602Y313258D02*
X324650D01*
X321348Y313004D02*
X321602Y313258D01*
X152650Y44682D02*
X162810D01*
X153920Y46714D02*
X161286D01*
X155190Y49000D02*
X159000D01*
X155698Y51032D02*
X158746D01*
X159000Y51286D01*
X542874Y407238D02*
X1227658D01*
X542874D02*
Y428828D01*
X696036Y407492D02*
Y429082D01*
X848436Y407238D02*
Y428828D01*
X1000459Y407238D02*
Y428828D01*
X1152728Y407238D02*
Y428828D01*
X1227404Y408000D02*
Y429590D01*
X11903Y13681D02*
X20388Y22167D01*
X52916Y22167D02*
X61401Y13681D01*
X52916Y54694D02*
X61401Y63179D01*
X11903D02*
X20388Y54694D01*
X1202430Y677440D02*
X1347430D01*
Y747440D01*
X1202430D02*
X1347430D01*
X1202430Y677440D02*
Y747440D01*
X1285459Y417001D02*
X1293945Y408515D01*
X1326472Y408516D02*
X1334957Y417001D01*
X1326472Y375989D02*
X1334957Y367503D01*
X1285459Y367504D02*
X1293945Y375989D01*
X12977Y688499D02*
X21462Y696985D01*
X53989D02*
X62475Y688499D01*
X53989Y729511D02*
X62474Y737997D01*
X12977D02*
X21463Y729511D01*
X582578Y96544D02*
X657578D01*
X582578Y26544D02*
Y96544D01*
Y26544D02*
X657578D01*
Y96544D01*
X740890Y26544D02*
Y96544D01*
X665890Y26544D02*
X740890D01*
X665890D02*
Y96544D01*
X740890D01*
X750980Y97052D02*
X825980D01*
X750980Y27052D02*
Y97052D01*
Y27052D02*
X825980D01*
Y97052D01*
X365032Y551444D02*
Y554492D01*
X363000Y551190D02*
Y555000D01*
X360714Y548904D02*
Y556270D01*
X358682Y547380D02*
Y557540D01*
X1171162Y25782D02*
X1271162D01*
Y95782D01*
X1171162D02*
X1271162D01*
X1171162Y25782D02*
Y95782D01*
X971010Y25782D02*
Y95782D01*
X1071010D01*
Y25782D02*
Y95782D01*
X971010Y25782D02*
X1071010D01*
X1070832D02*
X1170832D01*
Y95782D01*
X1070832D02*
X1170832D01*
X1070832Y25782D02*
Y95782D01*
X88540Y79629D02*
Y71298D01*
X90206Y69632D01*
X93538D01*
X95204Y71298D01*
Y79629D01*
X105201Y77963D02*
X103535Y79629D01*
X100203D01*
X98537Y77963D01*
Y76297D01*
X100203Y74630D01*
X103535D01*
X105201Y72964D01*
Y71298D01*
X103535Y69632D01*
X100203D01*
X98537Y71298D01*
X108534Y79629D02*
Y69632D01*
X113532D01*
X115198Y71298D01*
Y72964D01*
X113532Y74630D01*
X108534D01*
X113532D01*
X115198Y76297D01*
Y77963D01*
X113532Y79629D01*
X108534D01*
X88540Y51540D02*
Y61537D01*
X93538D01*
X95204Y59871D01*
Y56538D01*
X93538Y54872D01*
X88540D01*
X98537Y61537D02*
Y51540D01*
X101869Y54872D01*
X105201Y51540D01*
Y61537D01*
X108534Y51540D02*
Y61537D01*
X113532D01*
X115198Y59871D01*
Y56538D01*
X113532Y54872D01*
X108534D01*
X111866D02*
X115198Y51540D01*
X381038Y67132D02*
Y76129D01*
X385537D01*
X387036Y74630D01*
Y71631D01*
X385537Y70131D01*
X381038D01*
X390035Y76129D02*
Y67132D01*
X393034Y70131D01*
X396033Y67132D01*
Y76129D01*
X399032Y67132D02*
Y76129D01*
X403531D01*
X405030Y74630D01*
Y71631D01*
X403531Y70131D01*
X399032D01*
X402031D02*
X405030Y67132D01*
X389442Y256123D02*
X382778D01*
Y251124D01*
X386110Y252791D01*
X387776D01*
X389442Y251124D01*
Y247792D01*
X387776Y246126D01*
X384444D01*
X382778Y247792D01*
X392775Y256123D02*
Y249458D01*
X396107Y246126D01*
X399439Y249458D01*
Y256123D01*
X177307Y632040D02*
Y642037D01*
X182306D01*
X183972Y640371D01*
Y637038D01*
X182306Y635372D01*
X177307D01*
X193969Y640371D02*
X192303Y642037D01*
X188970D01*
X187304Y640371D01*
Y638704D01*
X188970Y637038D01*
X192303D01*
X193969Y635372D01*
Y633706D01*
X192303Y632040D01*
X188970D01*
X187304Y633706D01*
X197301Y630374D02*
X203965D01*
X212296Y642037D02*
X208964D01*
X207298Y640371D01*
Y633706D01*
X208964Y632040D01*
X212296D01*
X213962Y633706D01*
Y640371D01*
X212296Y642037D01*
X217295Y632040D02*
Y642037D01*
X223959Y632040D01*
Y642037D01*
X620019Y426791D02*
Y424252D01*
X625098Y419174D01*
X630176Y424252D01*
Y426791D01*
X625098Y419174D02*
Y411556D01*
X1195000Y117497D02*
Y107500D01*
Y112498D01*
X1201665D01*
Y117497D01*
Y107500D01*
X1204997Y117497D02*
Y107500D01*
X1209995D01*
X1211661Y109166D01*
Y110832D01*
X1209995Y112498D01*
X1204997D01*
X1209995D01*
X1211661Y114164D01*
Y115831D01*
X1209995Y117497D01*
X1204997D01*
X1214994Y112498D02*
X1221658D01*
X1229989Y117497D02*
X1226656D01*
X1224990Y115831D01*
Y109166D01*
X1226656Y107500D01*
X1229989D01*
X1231655Y109166D01*
Y115831D01*
X1229989Y117497D01*
X1234987D02*
Y109166D01*
X1236653Y107500D01*
X1239986D01*
X1241652Y109166D01*
Y117497D01*
X1244984D02*
X1251648D01*
X1248316D01*
Y107500D01*
X938220Y426283D02*
X928064D01*
Y411048D01*
X938220D01*
X928064Y418666D02*
X933142D01*
X943299Y423744D02*
X945838Y426283D01*
X950916D01*
X953455Y423744D01*
Y413587D01*
X950916Y411048D01*
X945838D01*
X943299Y413587D01*
Y423744D01*
X1086993Y426791D02*
X1076837D01*
Y411556D01*
X1086993D01*
X1076837Y419174D02*
X1081915D01*
X1092072Y411556D02*
X1097150D01*
X1094611D01*
Y426791D01*
X1092072Y424252D01*
X126664Y669997D02*
X120000D01*
Y660000D01*
X126664D01*
X120000Y664998D02*
X123332D01*
X129997Y669997D02*
X136661Y660000D01*
Y669997D02*
X129997Y660000D01*
X139993D02*
Y669997D01*
X144992D01*
X146658Y668331D01*
Y664998D01*
X144992Y663332D01*
X139993D01*
X149990Y660000D02*
X153323D01*
X151657D01*
Y669997D01*
X149990Y668331D01*
X250095Y660077D02*
Y650080D01*
X256759D01*
X266756Y660077D02*
X260092D01*
Y650080D01*
X266756D01*
X260092Y655078D02*
X263424D01*
X270089Y660077D02*
Y650080D01*
X275087D01*
X276753Y651746D01*
Y658411D01*
X275087Y660077D01*
X270089D01*
X280085Y650080D02*
X283417D01*
X281751D01*
Y660077D01*
X280085Y658411D01*
X376000Y119535D02*
Y129531D01*
X380998D01*
X382664Y127865D01*
Y124533D01*
X380998Y122867D01*
X376000D01*
X379332D02*
X382664Y119535D01*
X385997Y129531D02*
X392661Y119535D01*
Y129531D02*
X385997Y119535D01*
X375000Y146648D02*
X381665D01*
X378332D01*
Y136651D01*
X384997Y146648D02*
X391661Y136651D01*
Y146648D02*
X384997Y136651D01*
X84404Y532043D02*
X91068D01*
Y530377D01*
X84404Y523712D01*
Y522046D01*
X91068D01*
X94401Y527045D02*
X101065D01*
X97733Y530377D02*
Y523712D01*
X84658Y557189D02*
X91322D01*
Y555523D01*
X84658Y548858D01*
Y547192D01*
X91322D01*
X94655Y552191D02*
X101319D01*
X477088Y412577D02*
X466931Y427812D01*
Y412577D02*
X477088Y427812D01*
X84658Y582589D02*
Y580923D01*
X87990Y577591D01*
X91322Y580923D01*
Y582589D01*
X87990Y577591D02*
Y572592D01*
X94655Y577591D02*
X101319D01*
X97987Y580923D02*
Y574258D01*
X84404Y608497D02*
Y606831D01*
X87736Y603499D01*
X91068Y606831D01*
Y608497D01*
X87736Y603499D02*
Y598500D01*
X94401Y603499D02*
X101065D01*
X83896Y634659D02*
X90560Y624662D01*
Y634659D02*
X83896Y624662D01*
X93893Y629661D02*
X100557D01*
X97225Y632993D02*
Y626328D01*
X83896Y659805D02*
X90560Y649808D01*
Y659805D02*
X83896Y649808D01*
X93893Y654807D02*
X100557D01*
X772000Y427235D02*
X782157D01*
Y424696D01*
X772000Y414539D01*
Y412000D01*
X782157D01*
X797392Y424696D02*
X794853Y427235D01*
X789774D01*
X787235Y424696D01*
Y414539D01*
X789774Y412000D01*
X794853D01*
X797392Y414539D01*
Y419618D01*
X792313D01*
X355664Y669997D02*
X349000D01*
Y660000D01*
X355664D01*
X349000Y664998D02*
X352332D01*
X358997Y669997D02*
X365661Y660000D01*
Y669997D02*
X358997Y660000D01*
X368993D02*
Y669997D01*
X373992D01*
X375658Y668331D01*
Y664998D01*
X373992Y663332D01*
X368993D01*
X385655Y660000D02*
X378990D01*
X385655Y666665D01*
Y668331D01*
X383989Y669997D01*
X380657D01*
X378990Y668331D01*
X1232722Y426791D02*
X1242879D01*
Y424252D01*
X1232722Y414095D01*
Y411556D01*
X1242879D01*
X1247957Y426791D02*
Y411556D01*
X1255574D01*
X1258114Y414095D01*
Y424252D01*
X1255574Y426791D01*
X1247957D01*
X494674Y346477D02*
X491342D01*
X493008D01*
Y338146D01*
X491342Y336480D01*
X489676D01*
X488010Y338146D01*
X498007Y346477D02*
X504671D01*
X501339D01*
Y336480D01*
X508004D02*
Y343145D01*
X511336Y346477D01*
X514668Y343145D01*
Y336480D01*
Y341479D01*
X508004D01*
X524665Y344811D02*
X522999Y346477D01*
X519666D01*
X518000Y344811D01*
Y338146D01*
X519666Y336480D01*
X522999D01*
X524665Y338146D01*
Y341479D01*
X521333D01*
X351000Y590000D02*
Y599997D01*
X355998D01*
X357664Y598331D01*
Y594998D01*
X355998Y593332D01*
X351000D01*
X354332D02*
X357664Y590000D01*
X365995D02*
X362663D01*
X360997Y591666D01*
Y594998D01*
X362663Y596665D01*
X365995D01*
X367661Y594998D01*
Y593332D01*
X360997D01*
X370994Y590000D02*
X375992D01*
X377658Y591666D01*
X375992Y593332D01*
X372660D01*
X370994Y594998D01*
X372660Y596665D01*
X377658D01*
X385989Y590000D02*
X382657D01*
X380990Y591666D01*
Y594998D01*
X382657Y596665D01*
X385989D01*
X387655Y594998D01*
Y593332D01*
X380990D01*
X392653Y598331D02*
Y596665D01*
X390987D01*
X394319D01*
X392653D01*
Y591666D01*
X394319Y590000D01*
X195933Y318175D02*
X189268D01*
Y308178D01*
X195933D01*
X189268Y313177D02*
X192600D01*
X199265Y318175D02*
X205929Y308178D01*
Y318175D02*
X199265Y308178D01*
X209262D02*
Y318175D01*
X214260D01*
X215926Y316509D01*
Y313177D01*
X214260Y311511D01*
X209262D01*
X219258Y316509D02*
X220924Y318175D01*
X224257D01*
X225923Y316509D01*
Y314843D01*
X224257Y313177D01*
X222591D01*
X224257D01*
X225923Y311511D01*
Y309844D01*
X224257Y308178D01*
X220924D01*
X219258Y309844D01*
X370332Y305562D02*
X373664D01*
X371998D01*
Y315559D01*
X370332Y313893D01*
X385327Y305562D02*
X378663D01*
X385327Y312227D01*
Y313893D01*
X383661Y315559D01*
X380329D01*
X378663Y313893D01*
X388659Y315559D02*
Y308894D01*
X391992Y305562D01*
X395324Y308894D01*
Y315559D01*
X985000Y107500D02*
Y117497D01*
X988332Y114164D01*
X991665Y117497D01*
Y107500D01*
X994997D02*
Y114164D01*
X998329Y117497D01*
X1001661Y114164D01*
Y107500D01*
Y112498D01*
X994997D01*
X1004994Y117497D02*
X1008326D01*
X1006660D01*
Y107500D01*
X1004994D01*
X1008326D01*
X1013324D02*
Y117497D01*
X1019989Y107500D01*
Y117497D01*
X1023321Y112498D02*
X1029986D01*
X1033318Y107500D02*
Y117497D01*
X1038316D01*
X1039982Y115831D01*
Y112498D01*
X1038316Y110832D01*
X1033318D01*
X1043315Y117497D02*
Y107500D01*
X1046647Y110832D01*
X1049979Y107500D01*
Y117497D01*
X1053311Y107500D02*
Y117497D01*
X1058310D01*
X1059976Y115831D01*
Y112498D01*
X1058310Y110832D01*
X1053311D01*
X1056644D02*
X1059976Y107500D01*
X1092500Y117497D02*
Y107500D01*
Y112498D01*
X1099165D01*
Y117497D01*
Y107500D01*
X1102497Y117497D02*
Y107500D01*
X1107495D01*
X1109161Y109166D01*
Y110832D01*
X1107495Y112498D01*
X1102497D01*
X1107495D01*
X1109161Y114164D01*
Y115831D01*
X1107495Y117497D01*
X1102497D01*
X1112494Y112498D02*
X1119158D01*
X1122490Y107500D02*
Y117497D01*
X1127489D01*
X1129155Y115831D01*
Y112498D01*
X1127489Y110832D01*
X1122490D01*
X1132487Y117497D02*
Y107500D01*
X1135819Y110832D01*
X1139152Y107500D01*
Y117497D01*
X1142484Y107500D02*
Y117497D01*
X1147482D01*
X1149148Y115831D01*
Y112498D01*
X1147482Y110832D01*
X1142484D01*
X1145816D02*
X1149148Y107500D01*
X839546Y69164D02*
Y78161D01*
X844044D01*
X845544Y76662D01*
Y73663D01*
X844044Y72163D01*
X839546D01*
X848543Y78161D02*
Y69164D01*
X851542Y72163D01*
X854541Y69164D01*
Y78161D01*
X857540Y69164D02*
Y78161D01*
X862039D01*
X863538Y76662D01*
Y73663D01*
X862039Y72163D01*
X857540D01*
X860539D02*
X863538Y69164D01*
X1313504Y640105D02*
X1311838Y641771D01*
X1308506D01*
X1306840Y640105D01*
Y633440D01*
X1308506Y631774D01*
X1311838D01*
X1313504Y633440D01*
Y636772D01*
X1310172D01*
X1281440Y631774D02*
Y641771D01*
X1286438D01*
X1288104Y640105D01*
Y636772D01*
X1286438Y635106D01*
X1281440D01*
X1284772D02*
X1288104Y631774D01*
X1262704Y641771D02*
X1259372D01*
X1261038D01*
Y633440D01*
X1259372Y631774D01*
X1257706D01*
X1256040Y633440D01*
X1230640Y641771D02*
Y635106D01*
X1233972Y631774D01*
X1237304Y635106D01*
Y641771D01*
X1154257Y631774D02*
Y641771D01*
X1160921Y631774D01*
Y641771D01*
X1128857D02*
Y635106D01*
X1132189Y631774D01*
X1135521Y635106D01*
Y641771D01*
X1103456D02*
Y631774D01*
X1108455D01*
X1110121Y633440D01*
Y635106D01*
X1108455Y636772D01*
X1103456D01*
X1108455D01*
X1110121Y638438D01*
Y640105D01*
X1108455Y641771D01*
X1103456D01*
X1078056Y631774D02*
Y641771D01*
X1083055D01*
X1084721Y640105D01*
Y636772D01*
X1083055Y635106D01*
X1078056D01*
X1081389D02*
X1084721Y631774D01*
X1001673D02*
Y641771D01*
X1008338Y631774D01*
Y641771D01*
X976273D02*
Y635106D01*
X979606Y631774D01*
X982938Y635106D01*
Y641771D01*
X950873D02*
Y631774D01*
X955872D01*
X957538Y633440D01*
Y635106D01*
X955872Y636772D01*
X950873D01*
X955872D01*
X957538Y638438D01*
Y640105D01*
X955872Y641771D01*
X950873D01*
X925473Y631774D02*
Y641771D01*
X930472D01*
X932138Y640105D01*
Y636772D01*
X930472Y635106D01*
X925473D01*
X928806D02*
X932138Y631774D01*
X855755Y640105D02*
X854089Y641771D01*
X850756D01*
X849090Y640105D01*
Y633440D01*
X850756Y631774D01*
X854089D01*
X855755Y633440D01*
Y636773D01*
X852422D01*
X823690Y631774D02*
Y641771D01*
X828689D01*
X830355Y640105D01*
Y636773D01*
X828689Y635107D01*
X823690D01*
X827022D02*
X830355Y631774D01*
X804955Y641771D02*
X801622D01*
X803288D01*
Y633440D01*
X801622Y631774D01*
X799956D01*
X798290Y633440D01*
X772890Y641771D02*
Y635107D01*
X776222Y631774D01*
X779555Y635107D01*
Y641771D01*
X696507Y631774D02*
Y641771D01*
X703171Y631774D01*
Y641771D01*
X671107D02*
Y635107D01*
X674439Y631774D01*
X677771Y635107D01*
Y641771D01*
X645707D02*
Y631774D01*
X650705D01*
X652371Y633440D01*
Y635107D01*
X650705Y636773D01*
X645707D01*
X650705D01*
X652371Y638439D01*
Y640105D01*
X650705Y641771D01*
X645707D01*
X620307Y631774D02*
Y641771D01*
X625305D01*
X626971Y640105D01*
Y636773D01*
X625305Y635107D01*
X620307D01*
X623639D02*
X626971Y631774D01*
X97964Y321477D02*
X104629D01*
X101296D01*
Y311480D01*
X107961D02*
Y321477D01*
X112959D01*
X114625Y319811D01*
Y316479D01*
X112959Y314813D01*
X107961D01*
X97964Y346877D02*
X104629D01*
X101296D01*
Y336880D01*
X107961D02*
X111293D01*
X109627D01*
Y346877D01*
X107961Y345211D01*
X97964Y372277D02*
X104629D01*
X101296D01*
Y362280D01*
X107961Y370611D02*
X109627Y372277D01*
X112959D01*
X114625Y370611D01*
Y363946D01*
X112959Y362280D01*
X109627D01*
X107961Y363946D01*
Y370611D01*
X97964Y296077D02*
X104629D01*
X101296D01*
Y286080D01*
X107961Y296077D02*
Y286080D01*
X112959D01*
X114625Y287746D01*
Y294411D01*
X112959Y296077D01*
X107961D01*
X97964Y270677D02*
X104629D01*
X101296D01*
Y260680D01*
X107961Y270677D02*
Y260680D01*
X112959D01*
X114625Y262346D01*
Y264013D01*
X112959Y265679D01*
X107961D01*
X112959D01*
X114625Y267345D01*
Y269011D01*
X112959Y270677D01*
X107961D01*
X1039190Y12867D02*
X1052519D01*
X1045854Y19532D02*
Y6202D01*
X988390Y12867D02*
X1001719D01*
X1088358D02*
X1101687D01*
X1139158D02*
X1152487D01*
X1145823Y19532D02*
Y6202D01*
X595602Y14899D02*
X608931D01*
X631924Y13629D02*
X645253D01*
X638588Y20294D02*
Y6964D01*
X511782Y14645D02*
X525111D01*
X548104Y13375D02*
X561433D01*
X554768Y20040D02*
Y6711D01*
X427962Y15407D02*
X441291D01*
X464284Y14137D02*
X477613D01*
X470948Y20801D02*
Y7473D01*
X678914Y14899D02*
X692243D01*
X715236Y13629D02*
X728565D01*
X721900Y20294D02*
Y6964D01*
X764004Y15407D02*
X777333D01*
X800326Y14137D02*
X813655D01*
X806991Y20801D02*
Y7473D01*
X1239488Y12867D02*
X1252817D01*
X1246152Y19532D02*
Y6202D01*
X1188688Y12867D02*
X1202017D01*
X467724Y631774D02*
Y641771D01*
X472722D01*
X474388Y640105D01*
Y636773D01*
X472722Y635107D01*
X467724D01*
X471056D02*
X474388Y631774D01*
X493124Y641771D02*
Y631774D01*
X498122D01*
X499788Y633440D01*
Y635107D01*
X498122Y636773D01*
X493124D01*
X498122D01*
X499788Y638439D01*
Y640105D01*
X498122Y641771D01*
X493124D01*
X518524D02*
Y635107D01*
X521856Y631774D01*
X525188Y635107D01*
Y641771D01*
X543924Y631774D02*
Y641771D01*
X550588Y631774D01*
Y641771D01*
X68717Y679475D02*
X67050Y681141D01*
X63718D01*
X62052Y679475D01*
Y677809D01*
X63718Y676143D01*
X67050D01*
X68717Y674476D01*
Y672810D01*
X67050Y671144D01*
X63718D01*
X62052Y672810D01*
X36906Y675889D02*
X43570D01*
X11252D02*
X17917D01*
X14584Y679221D02*
Y672556D01*
X80000Y179997D02*
Y171666D01*
X81666Y170000D01*
X84998D01*
X86664Y171666D01*
Y179997D01*
X96661Y178331D02*
X94995Y179997D01*
X91663D01*
X89997Y178331D01*
Y176665D01*
X91663Y174998D01*
X94995D01*
X96661Y173332D01*
Y171666D01*
X94995Y170000D01*
X91663D01*
X89997Y171666D01*
X99994Y179997D02*
Y170000D01*
X104992D01*
X106658Y171666D01*
Y173332D01*
X104992Y174998D01*
X99994D01*
X104992D01*
X106658Y176665D01*
Y178331D01*
X104992Y179997D01*
X99994D01*
X390436Y230058D02*
X397100D01*
X390436Y204211D02*
X397100D01*
X393768Y207543D02*
Y200878D01*
X965000Y26000D02*
Y29332D01*
Y27666D01*
X955003D01*
X956669Y26000D01*
X965000Y40995D02*
Y34331D01*
X958335Y40995D01*
X956669D01*
X955003Y39329D01*
Y35997D01*
X956669Y34331D01*
X955003Y44327D02*
X961668D01*
X965000Y47660D01*
X961668Y50992D01*
X955003D01*
X965000Y54324D02*
X963334D01*
Y55990D01*
X965000D01*
Y54324D01*
Y62655D02*
X963334D01*
Y64321D01*
X965000D01*
Y62655D01*
X956669Y70985D02*
X955003Y72652D01*
Y75984D01*
X956669Y77650D01*
X958335D01*
X960002Y75984D01*
Y74318D01*
Y75984D01*
X961668Y77650D01*
X963334D01*
X965000Y75984D01*
Y72652D01*
X963334Y70985D01*
X955003Y87647D02*
Y80982D01*
X960002D01*
X958335Y84314D01*
Y85981D01*
X960002Y87647D01*
X963334D01*
X965000Y85981D01*
Y82648D01*
X963334Y80982D01*
X955003Y90979D02*
X961668D01*
X965000Y94311D01*
X961668Y97643D01*
X955003D01*
X370116Y20569D02*
X376781D01*
X373448Y23901D02*
Y17236D01*
X370116Y46416D02*
X376781D01*
X1247216Y396407D02*
Y386410D01*
Y391409D01*
X1253880D01*
Y396407D01*
Y386410D01*
X1257213Y396407D02*
Y386410D01*
X1262211D01*
X1263877Y388076D01*
Y389743D01*
X1262211Y391409D01*
X1257213D01*
X1262211D01*
X1263877Y393075D01*
Y394741D01*
X1262211Y396407D01*
X1257213D01*
X756628Y309539D02*
Y299542D01*
Y304541D01*
X763292D01*
Y309539D01*
Y299542D01*
X773289Y309539D02*
X766625D01*
Y299542D01*
X773289D01*
X766625Y304541D02*
X769957D01*
X793283Y309539D02*
X786618D01*
Y304541D01*
X789951D01*
X786618D01*
Y299542D01*
X796615D02*
Y306207D01*
X799947Y309539D01*
X803280Y306207D01*
Y299542D01*
Y304541D01*
X796615D01*
X806612Y299542D02*
Y309539D01*
X813276Y299542D01*
Y309539D01*
X705695Y309285D02*
X699030D01*
Y304287D01*
X702362D01*
X699030D01*
Y299288D01*
X709027D02*
Y305953D01*
X712359Y309285D01*
X715691Y305953D01*
Y299288D01*
Y304287D01*
X709027D01*
X719024Y299288D02*
Y309285D01*
X725688Y299288D01*
Y309285D01*
X735685Y307619D02*
X734019Y309285D01*
X730686D01*
X729020Y307619D01*
Y305953D01*
X730686Y304287D01*
X734019D01*
X735685Y302621D01*
Y300954D01*
X734019Y299288D01*
X730686D01*
X729020Y300954D01*
X609798Y309539D02*
Y299542D01*
X614796D01*
X616463Y301208D01*
Y302875D01*
X614796Y304541D01*
X609798D01*
X614796D01*
X616463Y306207D01*
Y307873D01*
X614796Y309539D01*
X609798D01*
X619795D02*
Y299542D01*
X626459D01*
X634790Y309539D02*
X631458D01*
X629792Y307873D01*
Y301208D01*
X631458Y299542D01*
X634790D01*
X636456Y301208D01*
Y307873D01*
X634790Y309539D01*
X639788D02*
Y299542D01*
X643121Y302875D01*
X646453Y299542D01*
Y309539D01*
X540296D02*
Y299542D01*
Y304541D01*
X546960D01*
Y309539D01*
Y299542D01*
X556957Y309539D02*
X550293D01*
Y299542D01*
X556957D01*
X550293Y304541D02*
X553625D01*
X560290Y299542D02*
X563622D01*
X561956D01*
Y309539D01*
X560290Y307873D01*
X457746Y309539D02*
Y299542D01*
Y304541D01*
X464411D01*
Y309539D01*
Y299542D01*
X474407Y309539D02*
X467743D01*
Y299542D01*
X474407D01*
X467743Y304541D02*
X471075D01*
X477740Y307873D02*
X479406Y309539D01*
X482738D01*
X484404Y307873D01*
Y301208D01*
X482738Y299542D01*
X479406D01*
X477740Y301208D01*
Y307873D01*
X377594Y262955D02*
X384258D01*
X380926Y266287D02*
Y259623D01*
X377594Y288803D02*
X384258D01*
X432889Y731342D02*
X422732Y726264D01*
X432889Y721186D01*
X249501Y729818D02*
X239344Y724740D01*
X249501Y719661D01*
X317538Y319351D02*
X322616Y309194D01*
X327695Y319351D01*
X162810Y44939D02*
X157732Y55096D01*
X152653Y44939D01*
X11256Y499359D02*
X17920D01*
X14588Y502691D02*
Y496026D01*
X36910Y499359D02*
X43574D01*
X62056Y504611D02*
Y494614D01*
X67054D01*
X68720Y496280D01*
Y502945D01*
X67054Y504611D01*
X62056D01*
X94120Y502945D02*
X92454Y504611D01*
X89122D01*
X87456Y502945D01*
Y496280D01*
X89122Y494614D01*
X92454D01*
X94120Y496280D01*
X358939Y547380D02*
X369096Y552458D01*
X358939Y557537D01*
X848000Y304000D02*
X851332D01*
X849666D01*
Y313997D01*
X848000Y312331D01*
X862995Y304000D02*
X856331D01*
X862995Y310665D01*
Y312331D01*
X861329Y313997D01*
X857997D01*
X856331Y312331D01*
X866328Y313997D02*
Y307332D01*
X869660Y304000D01*
X872992Y307332D01*
Y313997D01*
X1154665Y312997D02*
X1148000D01*
Y307998D01*
X1151332Y309664D01*
X1152998D01*
X1154665Y307998D01*
Y304666D01*
X1152998Y303000D01*
X1149666D01*
X1148000Y304666D01*
X1157997Y312997D02*
Y306332D01*
X1161329Y303000D01*
X1164661Y306332D01*
Y312997D01*
X367348Y432659D02*
Y442656D01*
X372347D01*
X374013Y440989D01*
Y437657D01*
X372347Y435991D01*
X367348D01*
X377345Y442656D02*
Y432659D01*
X380677Y435991D01*
X384009Y432659D01*
Y442656D01*
X387342Y432659D02*
Y442656D01*
X392340D01*
X394006Y440989D01*
Y437657D01*
X392340Y435991D01*
X387342D01*
X390674D02*
X394006Y432659D01*
X874052Y46416D02*
X867387D01*
X874052Y20569D02*
X867387D01*
X870720Y23901D02*
Y17236D01*
X97964Y245277D02*
X104629D01*
X101296D01*
Y235280D01*
X114625Y243611D02*
X112959Y245277D01*
X109627D01*
X107961Y243611D01*
Y236946D01*
X109627Y235280D01*
X112959D01*
X114625Y236946D01*
X97964Y219877D02*
X104629D01*
X101296D01*
Y209880D01*
X107961Y219877D02*
X114625Y209880D01*
Y219877D02*
X107961Y209880D01*
D56*
X290600Y425670D02*
G03*
X290600Y425670I-3000J0D01*
G01*
X255982Y118736D02*
G03*
X255982Y118736I-3000J0D01*
G01*
D75*
X398750Y453000D02*
G03*
X398750Y453000I-1250J0D01*
G01*
X70750Y162250D02*
G03*
X70750Y162250I-1250J0D01*
G01*
X1113902Y362936D02*
G03*
X1113902Y362936I-1250J0D01*
G01*
X882200Y236750D02*
G03*
X882200Y236750I-1250J0D01*
G01*
X311850Y411170D02*
G03*
X311850Y411170I-1250J0D01*
G01*
X237482Y96736D02*
G03*
X237482Y96736I-1250J0D01*
G01*
D76*
X381541Y373710D02*
G03*
X377477Y373710I-2032J4064D01*
G01*
X741268Y633192D02*
X762858D01*
X741268Y432532D02*
X886048D01*
X864204Y633192D02*
X886048D01*
Y432532D02*
Y633192D01*
X741268Y432532D02*
Y633192D01*
X436102Y432532D02*
Y633192D01*
X580882Y432532D02*
Y633192D01*
X559038D02*
X580882D01*
X436102Y432532D02*
X580882D01*
X436102Y633192D02*
X457692D01*
X1046434Y633192D02*
X1068025D01*
X1046434Y432532D02*
X1191215D01*
X1169370Y633192D02*
X1191215D01*
Y432532D02*
Y633192D01*
X1046434Y432532D02*
Y633192D01*
X893851Y432532D02*
Y633192D01*
X1038631Y432532D02*
Y633192D01*
X1016787D02*
X1038631D01*
X893851Y432532D02*
X1038631D01*
X893851Y633192D02*
X915441D01*
X588685Y633192D02*
X610275D01*
X588685Y432532D02*
X733465D01*
X711621Y633192D02*
X733465D01*
Y432532D02*
Y633192D01*
X588685Y432532D02*
Y633192D01*
X381541Y373710D02*
X383827Y367868D01*
X385351Y368630D01*
X388399Y366598D01*
X390685Y368884D01*
X388399Y372186D02*
X390685Y368884D01*
X388399Y372186D02*
X389923Y375488D01*
X393479Y376250D01*
Y379552D01*
X389669Y380314D02*
X393479Y379552D01*
X388399Y383362D02*
X389669Y380314D01*
X388399Y383362D02*
X390685Y386664D01*
X388399Y388950D02*
X390685Y386664D01*
X384843D02*
X388399Y388950D01*
X381795Y387934D02*
X384843Y386664D01*
X381033Y391998D02*
X381795Y387934D01*
X377731Y391998D02*
X381033D01*
X376969Y387934D02*
X377731Y391998D01*
X373921Y386664D02*
X376969Y387934D01*
X370619Y388950D02*
X373921Y386664D01*
X368333D02*
X370619Y388950D01*
X368333Y386664D02*
X370619Y383362D01*
X369095Y380060D02*
X370619Y383362D01*
X365285Y379552D02*
X369095Y380060D01*
X365285Y376250D02*
Y379552D01*
Y376250D02*
X369095Y375488D01*
X370365Y372186D01*
X368333Y368884D02*
X370365Y372186D01*
X368333Y368884D02*
X370619Y366598D01*
X373667Y368630D01*
X374937Y367868D01*
X377477Y373710D01*
X1199018Y432532D02*
Y633192D01*
X1343798Y432532D02*
Y633192D01*
X1321954D02*
X1343798D01*
X1199018Y432532D02*
X1343798D01*
X1199018Y633192D02*
X1220608D01*
D77*
X905634Y332501D02*
G03*
X964626Y332501I29496J9499D01*
G01*
Y351499D02*
G03*
X905634Y351499I-29496J-9499D01*
G01*
X1275723Y617722D02*
G03*
X1275723Y558730I9499J-29496D01*
G01*
X1294720D02*
G03*
X1294720Y617722I-9499J29496D01*
G01*
X1141575Y558730D02*
G03*
X1141575Y617722I-9499J29496D01*
G01*
X1122577D02*
G03*
X1122577Y558730I9499J-29496D01*
G01*
X970177Y617722D02*
G03*
X970177Y558730I9499J-29496D01*
G01*
X989175D02*
G03*
X989175Y617722I-9499J29496D01*
G01*
X837061Y558730D02*
G03*
X837061Y617722I-9499J29496D01*
G01*
X818063D02*
G03*
X818063Y558730I9499J-29496D01*
G01*
X666155Y617722D02*
G03*
X666155Y558730I9499J-29496D01*
G01*
X685153D02*
G03*
X685153Y617722I-9499J29496D01*
G01*
X532234Y558730D02*
G03*
X532234Y617722I-9499J29496D01*
G01*
X513237D02*
G03*
X513237Y558730I9499J-29496D01*
G01*
X1154913Y284230D02*
G03*
X1154913Y225238I9499J-29496D01*
G01*
X1173911D02*
G03*
X1173911Y284230I-9499J29496D01*
G01*
X1005449Y357607D02*
G03*
X1005449Y298614I9499J-29496D01*
G01*
X1024447D02*
G03*
X1024447Y357607I-9499J29496D01*
G01*
X902618Y309742D02*
Y332602D01*
Y309742D02*
X950624D01*
X967388Y326506D01*
Y332602D01*
Y351652D02*
Y357748D01*
X950624Y374512D02*
X967388Y357748D01*
X902618Y374512D02*
X950624D01*
X902618Y351652D02*
Y374512D01*
Y309742D02*
X950624D01*
X967388Y326506D01*
X950624Y374512D02*
X967388Y357748D01*
X902618Y374512D02*
X950624D01*
X1252710Y555714D02*
Y603720D01*
X1269474Y620484D01*
X1300716D02*
X1317480Y603720D01*
Y555714D02*
Y603720D01*
X1252710Y555714D02*
X1275570D01*
X1252710D02*
Y603720D01*
X1269474Y620484D01*
X1275570D01*
X1294620D02*
X1300716D01*
X1317480Y603720D01*
Y555714D02*
Y603720D01*
X1294620Y555714D02*
X1317480D01*
X1141474D02*
X1164334D01*
Y603720D01*
X1147570Y620484D02*
X1164334Y603720D01*
X1141474Y620484D02*
X1147570D01*
X1116328D02*
X1122424D01*
X1099564Y603720D02*
X1116328Y620484D01*
X1099564Y555714D02*
Y603720D01*
Y555714D02*
X1122424D01*
X1164334D02*
Y603720D01*
X1147570Y620484D02*
X1164334Y603720D01*
X1099564D02*
X1116328Y620484D01*
X1099564Y555714D02*
Y603720D01*
X947164Y555714D02*
Y603720D01*
X963928Y620484D01*
X995170D02*
X1011934Y603720D01*
Y555714D02*
Y603720D01*
X947164Y555714D02*
X970024D01*
X947164D02*
Y603720D01*
X963928Y620484D01*
X970024D01*
X989074D02*
X995170D01*
X1011934Y603720D01*
Y555714D02*
Y603720D01*
X989074Y555714D02*
X1011934D01*
X836960D02*
X859820D01*
Y603720D01*
X843056Y620484D02*
X859820Y603720D01*
X836960Y620484D02*
X843056D01*
X811814D02*
X817910D01*
X795050Y603720D02*
X811814Y620484D01*
X795050Y555714D02*
Y603720D01*
Y555714D02*
X817910D01*
X859820D02*
Y603720D01*
X843056Y620484D02*
X859820Y603720D01*
X795050D02*
X811814Y620484D01*
X795050Y555714D02*
Y603720D01*
X643142Y555714D02*
Y603720D01*
X659906Y620484D01*
X691148D02*
X707912Y603720D01*
Y555714D02*
Y603720D01*
X643142Y555714D02*
X666002D01*
X643142D02*
Y603720D01*
X659906Y620484D01*
X666002D01*
X685052D02*
X691148D01*
X707912Y603720D01*
Y555714D02*
Y603720D01*
X685052Y555714D02*
X707912D01*
X532134D02*
X554994D01*
Y603720D01*
X538230Y620484D02*
X554994Y603720D01*
X532134Y620484D02*
X538230D01*
X506988D02*
X513084D01*
X490224Y603720D02*
X506988Y620484D01*
X490224Y555714D02*
Y603720D01*
Y555714D02*
X513084D01*
X554994D02*
Y603720D01*
X538230Y620484D02*
X554994Y603720D01*
X490224D02*
X506988Y620484D01*
X490224Y555714D02*
Y603720D01*
X1131900Y222222D02*
Y270228D01*
X1148664Y286992D01*
X1179906D02*
X1196670Y270228D01*
Y222222D02*
Y270228D01*
X1131900Y222222D02*
X1154760D01*
X1131900D02*
Y270228D01*
X1148664Y286992D01*
X1154760D01*
X1173810D02*
X1179906D01*
X1196670Y270228D01*
Y222222D02*
Y270228D01*
X1173810Y222222D02*
X1196670D01*
X982690Y360622D02*
X1005550D01*
X982690Y312616D02*
Y360622D01*
Y312616D02*
X999454Y295852D01*
X1005550D01*
X1024600D02*
X1030696D01*
X1047460Y312616D01*
Y360622D01*
X1024600D02*
X1047460D01*
X982690Y312616D02*
Y360622D01*
Y312616D02*
X999454Y295852D01*
X1030696D02*
X1047460Y312616D01*
Y360622D01*
D78*
X125904Y55998D02*
X138096D01*
X125251Y56652D02*
X125904Y55998D01*
X125251Y56652D02*
Y64000D01*
X138750Y56652D02*
Y64000D01*
X138096Y55998D02*
X138750Y56652D01*
X138096Y80002D02*
X138750Y79348D01*
Y72000D02*
Y79348D01*
X125251Y72000D02*
Y79348D01*
X125904Y80002D01*
X138096D01*
X229000Y34000D02*
Y45000D01*
X231000Y47000D01*
X246000D01*
X238000Y608000D02*
X253000D01*
X236000Y606000D02*
X238000Y608000D01*
X236000Y595000D02*
Y606000D01*
X381904Y480002D02*
X394096D01*
X394750Y479348D01*
Y467750D02*
Y479348D01*
X381250Y468000D02*
Y479348D01*
X381904Y480002D01*
X381250Y448652D02*
X381904Y447998D01*
X381250Y448652D02*
Y460000D01*
X394750Y448652D02*
Y460000D01*
X394096Y447998D02*
X394750Y448652D01*
X381904Y447998D02*
X394096D01*
X1130904Y322002D02*
X1143096D01*
X1143750Y321348D01*
Y309750D02*
Y321348D01*
X1130250Y310000D02*
Y321348D01*
X1130904Y322002D01*
X1130250Y290652D02*
X1130904Y289998D01*
X1130250Y290652D02*
Y302000D01*
X1143750Y290652D02*
Y302000D01*
X1143096Y289998D02*
X1143750Y290652D01*
X1130904Y289998D02*
X1143096D01*
X368260Y448990D02*
X377740D01*
X376500Y447250D02*
X378240Y448990D01*
X369500Y447250D02*
X376500D01*
X379750Y468500D02*
Y479500D01*
X366250Y468500D02*
Y479500D01*
X379750D01*
Y450500D02*
Y459500D01*
X366250Y450500D02*
Y459500D01*
Y450500D02*
X368550Y448200D01*
X368000Y448750D02*
X369500Y447250D01*
X368550Y448200D02*
X377450D01*
X379750Y450500D01*
X1117142Y291615D02*
X1126622D01*
X1125382Y289875D02*
X1127122Y291615D01*
X1118382Y289875D02*
X1125382D01*
X1128632Y311125D02*
Y322125D01*
X1115132Y311125D02*
Y322125D01*
X1128632D01*
Y293125D02*
Y302125D01*
X1115132Y293125D02*
Y302125D01*
Y293125D02*
X1117432Y290825D01*
X1116882Y291375D02*
X1118382Y289875D01*
X1117432Y290825D02*
X1126332D01*
X1128632Y293125D01*
X885500Y334000D02*
Y347000D01*
X854500Y334000D02*
Y347000D01*
Y334000D02*
X885500D01*
X854500Y347000D02*
X885500D01*
X919998Y209904D02*
Y222096D01*
X920652Y222750D01*
X932250D01*
X920652Y209250D02*
X932000D01*
X919998Y209904D02*
X920652Y209250D01*
X951348D02*
X952002Y209904D01*
X940000Y209250D02*
X951348D01*
X940000Y222750D02*
X951348D01*
X952002Y222096D01*
Y209904D02*
Y222096D01*
X853998Y349404D02*
Y361596D01*
X854652Y362250D01*
X866250D01*
X854652Y348750D02*
X866000D01*
X853998Y349404D02*
X854652Y348750D01*
X885348D02*
X886002Y349404D01*
X874000Y348750D02*
X885348D01*
X874000Y362250D02*
X885348D01*
X886002Y361596D01*
Y349404D02*
Y361596D01*
X885500Y319000D02*
Y332000D01*
X854500Y319000D02*
Y332000D01*
Y319000D02*
X885500D01*
X854500Y332000D02*
X885500D01*
X341507Y136567D02*
Y146047D01*
X339767Y137807D02*
X341507Y136067D01*
X339767Y137807D02*
Y144807D01*
X361017Y134557D02*
X372017D01*
X361017Y148057D02*
X372017D01*
Y134557D02*
Y148057D01*
X343017Y134557D02*
X352017D01*
X343017Y148057D02*
X352017D01*
X340717Y145757D02*
X343017Y148057D01*
X339767Y144807D02*
X341267Y146307D01*
X340717Y136857D02*
Y145757D01*
Y136857D02*
X343017Y134557D01*
X341507Y119367D02*
Y128847D01*
X339767Y120607D02*
X341507Y118867D01*
X339767Y120607D02*
Y127607D01*
X361017Y117357D02*
X372017D01*
X361017Y130857D02*
X372017D01*
Y117357D02*
Y130857D01*
X343017Y117357D02*
X352017D01*
X343017Y130857D02*
X352017D01*
X340717Y128557D02*
X343017Y130857D01*
X339767Y127607D02*
X341267Y129107D01*
X340717Y119657D02*
Y128557D01*
Y119657D02*
X343017Y117357D01*
X110260Y85490D02*
X119740D01*
X118500Y83750D02*
X120240Y85490D01*
X111500Y83750D02*
X118500D01*
X121750Y105000D02*
Y116000D01*
X108250Y105000D02*
Y116000D01*
X121750D01*
Y87000D02*
Y96000D01*
X108250Y87000D02*
Y96000D01*
Y87000D02*
X110550Y84700D01*
X110000Y85250D02*
X111500Y83750D01*
X110550Y84700D02*
X119450D01*
X121750Y87000D01*
X290990Y650260D02*
Y659740D01*
X289250Y651500D02*
X290990Y649760D01*
X289250Y651500D02*
Y658500D01*
X310500Y648250D02*
X321500D01*
X310500Y661750D02*
X321500D01*
Y648250D02*
Y661750D01*
X292500Y648250D02*
X301500D01*
X292500Y661750D02*
X301500D01*
X290200Y659450D02*
X292500Y661750D01*
X289250Y658500D02*
X290750Y660000D01*
X290200Y650550D02*
Y659450D01*
Y650550D02*
X292500Y648250D01*
X803050Y261420D02*
X812530D01*
X811290Y259680D02*
X813030Y261420D01*
X804290Y259680D02*
X811290D01*
X814540Y280930D02*
Y291930D01*
X801040Y280930D02*
Y291930D01*
X814540D01*
Y262930D02*
Y271930D01*
X801040Y262930D02*
Y271930D01*
Y262930D02*
X803340Y260630D01*
X802790Y261180D02*
X804290Y259680D01*
X803340Y260630D02*
X812240D01*
X814540Y262930D01*
X725042Y261420D02*
X734522D01*
X733282Y259680D02*
X735022Y261420D01*
X726282Y259680D02*
X733282D01*
X736532Y280930D02*
Y291930D01*
X723032Y280930D02*
Y291930D01*
X736532D01*
Y262930D02*
Y271930D01*
X723032Y262930D02*
Y271930D01*
Y262930D02*
X725332Y260630D01*
X724782Y261180D02*
X726282Y259680D01*
X725332Y260630D02*
X734232D01*
X736532Y262930D01*
X635155Y261420D02*
X644635D01*
X643395Y259680D02*
X645135Y261420D01*
X636395Y259680D02*
X643395D01*
X646645Y280930D02*
Y291930D01*
X633145Y280930D02*
Y291930D01*
X646645D01*
Y262930D02*
Y271930D01*
X633145Y262930D02*
Y271930D01*
Y262930D02*
X635445Y260630D01*
X634895Y261180D02*
X636395Y259680D01*
X635445Y260630D02*
X644345D01*
X646645Y262930D01*
X552260Y261420D02*
X561740D01*
X560500Y259680D02*
X562240Y261420D01*
X553500Y259680D02*
X560500D01*
X563750Y280930D02*
Y291930D01*
X550250Y280930D02*
Y291930D01*
X563750D01*
Y262930D02*
Y271930D01*
X550250Y262930D02*
Y271930D01*
Y262930D02*
X552550Y260630D01*
X552000Y261180D02*
X553500Y259680D01*
X552550Y260630D02*
X561450D01*
X563750Y262930D01*
X472260Y261420D02*
X481740D01*
X480500Y259680D02*
X482240Y261420D01*
X473500Y259680D02*
X480500D01*
X483750Y280930D02*
Y291930D01*
X470250Y280930D02*
Y291930D01*
X483750D01*
Y262930D02*
Y271930D01*
X470250Y262930D02*
Y271930D01*
Y262930D02*
X472550Y260630D01*
X472000Y261180D02*
X473500Y259680D01*
X472550Y260630D02*
X481450D01*
X483750Y262930D01*
X1250260Y346990D02*
X1259740D01*
X1258500Y345250D02*
X1260240Y346990D01*
X1251500Y345250D02*
X1258500D01*
X1261750Y366500D02*
Y377500D01*
X1248250Y366500D02*
Y377500D01*
X1261750D01*
Y348500D02*
Y357500D01*
X1248250Y348500D02*
Y357500D01*
Y348500D02*
X1250550Y346200D01*
X1250000Y346750D02*
X1251500Y345250D01*
X1250550Y346200D02*
X1259450D01*
X1261750Y348500D01*
X59262Y262944D02*
Y275136D01*
Y262944D02*
X59916Y262290D01*
X71264D01*
X59916Y275790D02*
X71264D01*
X59262Y275136D02*
X59916Y275790D01*
X90612D02*
X91266Y275136D01*
X79264Y275790D02*
X90612D01*
X79014Y262290D02*
X90612D01*
X91266Y262944D01*
Y275136D01*
X224498Y232904D02*
Y245096D01*
Y232904D02*
X225152Y232250D01*
X236500D01*
X225152Y245750D02*
X236500D01*
X224498Y245096D02*
X225152Y245750D01*
X255848D02*
X256502Y245096D01*
X244500Y245750D02*
X255848D01*
X244250Y232250D02*
X255848D01*
X256502Y232904D01*
Y245096D01*
X233972Y54178D02*
Y66370D01*
Y54178D02*
X234626Y53524D01*
X245974D01*
X234626Y67024D02*
X245974D01*
X233972Y66370D02*
X234626Y67024D01*
X265322D02*
X265976Y66370D01*
X253974Y67024D02*
X265322D01*
X253724Y53524D02*
X265322D01*
X265976Y54178D01*
Y66370D01*
X1271516Y459754D02*
Y471946D01*
Y459754D02*
X1272170Y459100D01*
X1283518D01*
X1272170Y472600D02*
X1283518D01*
X1271516Y471946D02*
X1272170Y472600D01*
X1302866D02*
X1303520Y471946D01*
X1291518Y472600D02*
X1302866D01*
X1291268Y459100D02*
X1302866D01*
X1303520Y459754D01*
Y471946D01*
X1279370Y517824D02*
X1291562D01*
X1278716Y517170D02*
X1279370Y517824D01*
X1278716Y505822D02*
Y517170D01*
X1292216Y505822D02*
Y517170D01*
X1291562Y517824D02*
X1292216Y517170D01*
X1291562Y485820D02*
X1292216Y486474D01*
Y497822D01*
X1278716Y486474D02*
Y498072D01*
Y486474D02*
X1279370Y485820D01*
X1291562D01*
X1216904Y378002D02*
X1229096D01*
X1216250Y377348D02*
X1216904Y378002D01*
X1216250Y366000D02*
Y377348D01*
X1229750Y366000D02*
Y377348D01*
X1229096Y378002D02*
X1229750Y377348D01*
X1229096Y345998D02*
X1229750Y346652D01*
Y358000D01*
X1216250Y346652D02*
Y358251D01*
Y346652D02*
X1216904Y345998D01*
X1229096D01*
X59262Y381584D02*
Y393776D01*
Y381584D02*
X59916Y380930D01*
X71264D01*
X59916Y394430D02*
X71264D01*
X59262Y393776D02*
X59916Y394430D01*
X90612D02*
X91266Y393776D01*
X79264Y394430D02*
X90612D01*
X79014Y380930D02*
X90612D01*
X91266Y381584D01*
Y393776D01*
X59262Y351924D02*
Y364116D01*
Y351924D02*
X59916Y351270D01*
X71264D01*
X59916Y364770D02*
X71264D01*
X59262Y364116D02*
X59916Y364770D01*
X90612D02*
X91266Y364116D01*
X79264Y364770D02*
X90612D01*
X79014Y351270D02*
X90612D01*
X91266Y351924D01*
Y364116D01*
X59262Y322264D02*
Y334456D01*
Y322264D02*
X59916Y321610D01*
X71264D01*
X59916Y335110D02*
X71264D01*
X59262Y334456D02*
X59916Y335110D01*
X90612D02*
X91266Y334456D01*
X79264Y335110D02*
X90612D01*
X79014Y321610D02*
X90612D01*
X91266Y322264D01*
Y334456D01*
X59262Y292604D02*
Y304796D01*
Y292604D02*
X59916Y291950D01*
X71264D01*
X59916Y305450D02*
X71264D01*
X59262Y304796D02*
X59916Y305450D01*
X90612D02*
X91266Y304796D01*
X79264Y305450D02*
X90612D01*
X79014Y291950D02*
X90612D01*
X91266Y292604D01*
Y304796D01*
X1232904Y345998D02*
X1245096D01*
X1245750Y346652D01*
Y358000D01*
X1232250Y346652D02*
Y358000D01*
Y346652D02*
X1232904Y345998D01*
X1232250Y377348D02*
X1232904Y378002D01*
X1232250Y366000D02*
Y377348D01*
X1245750Y365750D02*
Y377348D01*
X1245096Y378002D02*
X1245750Y377348D01*
X1232904Y378002D02*
X1245096D01*
X1200904Y378002D02*
X1213096D01*
X1200250Y377348D02*
X1200904Y378002D01*
X1200250Y366000D02*
Y377348D01*
X1213750Y366000D02*
Y377348D01*
X1213096Y378002D02*
X1213750Y377348D01*
X1213096Y345998D02*
X1213750Y346652D01*
Y358000D01*
X1200250Y346652D02*
Y358251D01*
Y346652D02*
X1200904Y345998D01*
X1213096D01*
X1126110Y518626D02*
X1138302D01*
X1125456Y517972D02*
X1126110Y518626D01*
X1125456Y506624D02*
Y517972D01*
X1138956Y506624D02*
Y517972D01*
X1138302Y518626D02*
X1138956Y517972D01*
X1138302Y486622D02*
X1138956Y487276D01*
Y498624D01*
X1125456Y487276D02*
Y498874D01*
Y487276D02*
X1126110Y486622D01*
X1138302D01*
X1118614Y460218D02*
Y472410D01*
Y460218D02*
X1119268Y459564D01*
X1130616D01*
X1119268Y473064D02*
X1130616D01*
X1118614Y472410D02*
X1119268Y473064D01*
X1149964D02*
X1150618Y472410D01*
X1138616Y473064D02*
X1149964D01*
X1138366Y459564D02*
X1149964D01*
X1150618Y460218D01*
Y472410D01*
X973834Y518384D02*
X986026D01*
X973180Y517730D02*
X973834Y518384D01*
X973180Y506382D02*
Y517730D01*
X986680Y506382D02*
Y517730D01*
X986026Y518384D02*
X986680Y517730D01*
X986026Y486380D02*
X986680Y487034D01*
Y498382D01*
X973180Y487034D02*
Y498632D01*
Y487034D02*
X973834Y486380D01*
X986026D01*
X966722Y459710D02*
Y471902D01*
Y459710D02*
X967376Y459056D01*
X978724D01*
X967376Y472556D02*
X978724D01*
X966722Y471902D02*
X967376Y472556D01*
X998072D02*
X998726Y471902D01*
X986724Y472556D02*
X998072D01*
X986474Y459056D02*
X998072D01*
X998726Y459710D01*
Y471902D01*
X821688Y518384D02*
X833880D01*
X821034Y517730D02*
X821688Y518384D01*
X821034Y506382D02*
Y517730D01*
X834534Y506382D02*
Y517730D01*
X833880Y518384D02*
X834534Y517730D01*
X833880Y486380D02*
X834534Y487034D01*
Y498382D01*
X821034Y487034D02*
Y498632D01*
Y487034D02*
X821688Y486380D01*
X833880D01*
X814576Y459964D02*
Y472156D01*
Y459964D02*
X815230Y459310D01*
X826578D01*
X815230Y472810D02*
X826578D01*
X814576Y472156D02*
X815230Y472810D01*
X845926D02*
X846580Y472156D01*
X834578Y472810D02*
X845926D01*
X834328Y459310D02*
X845926D01*
X846580Y459964D01*
Y472156D01*
X670050Y518384D02*
X682242D01*
X669396Y517730D02*
X670050Y518384D01*
X669396Y506382D02*
Y517730D01*
X682896Y506382D02*
Y517730D01*
X682242Y518384D02*
X682896Y517730D01*
X682242Y486380D02*
X682896Y487034D01*
Y498382D01*
X669396Y487034D02*
Y498632D01*
Y487034D02*
X670050Y486380D01*
X682242D01*
X664208Y460980D02*
Y473172D01*
Y460980D02*
X664862Y460326D01*
X676210D01*
X664862Y473826D02*
X676210D01*
X664208Y473172D02*
X664862Y473826D01*
X695558D02*
X696212Y473172D01*
X684210Y473826D02*
X695558D01*
X683960Y460326D02*
X695558D01*
X696212Y460980D01*
Y473172D01*
X516634Y519146D02*
X528826D01*
X515980Y518492D02*
X516634Y519146D01*
X515980Y507144D02*
Y518492D01*
X529480Y507144D02*
Y518492D01*
X528826Y519146D02*
X529480Y518492D01*
X528826Y487142D02*
X529480Y487796D01*
Y499144D01*
X515980Y487796D02*
Y499394D01*
Y487796D02*
X516634Y487142D01*
X528826D01*
X511554Y460980D02*
Y473172D01*
Y460980D02*
X512208Y460326D01*
X523556D01*
X512208Y473826D02*
X523556D01*
X511554Y473172D02*
X512208Y473826D01*
X542904D02*
X543558Y473172D01*
X531556Y473826D02*
X542904D01*
X531306Y460326D02*
X542904D01*
X543558Y460980D01*
Y473172D01*
X339834Y66412D02*
Y78604D01*
Y66412D02*
X340488Y65758D01*
X351836D01*
X340488Y79258D02*
X351836D01*
X339834Y78604D02*
X340488Y79258D01*
X371184D02*
X371838Y78604D01*
X359836Y79258D02*
X371184D01*
X359586Y65758D02*
X371184D01*
X371838Y66412D01*
Y78604D01*
X339834Y49212D02*
Y61405D01*
Y49212D02*
X340488Y48559D01*
X351836D01*
X340488Y62058D02*
X351836D01*
X339834Y61405D02*
X340488Y62058D01*
X371184D02*
X371838Y61405D01*
X359836Y62058D02*
X371184D01*
X359586Y48559D02*
X371184D01*
X371838Y49212D01*
Y61405D01*
X339834Y100812D02*
Y113004D01*
Y100812D02*
X340488Y100158D01*
X351836D01*
X340488Y113658D02*
X351836D01*
X339834Y113004D02*
X340488Y113658D01*
X371184D02*
X371838Y113004D01*
X359836Y113658D02*
X371184D01*
X359586Y100158D02*
X371184D01*
X371838Y100812D01*
Y113004D01*
X339834Y83612D02*
Y95804D01*
Y83612D02*
X340488Y82958D01*
X351836D01*
X340488Y96458D02*
X351836D01*
X339834Y95804D02*
X340488Y96458D01*
X371184D02*
X371838Y95804D01*
X359836Y96458D02*
X371184D01*
X359586Y82958D02*
X371184D01*
X371838Y83612D01*
Y95804D01*
X339890Y152411D02*
Y164603D01*
Y152411D02*
X340544Y151756D01*
X351892D01*
X340544Y165257D02*
X351892D01*
X339890Y164603D02*
X340544Y165257D01*
X371240D02*
X371894Y164603D01*
X359892Y165257D02*
X371240D01*
X359642Y151756D02*
X371240D01*
X371894Y152411D01*
Y164603D01*
X322002Y632904D02*
Y645096D01*
X321348Y645750D02*
X322002Y645096D01*
X310000Y645750D02*
X321348D01*
X310000Y632250D02*
X321348D01*
X322002Y632904D01*
X289998D02*
X290652Y632250D01*
X302000D01*
X290652Y645750D02*
X302250D01*
X289998Y645096D02*
X290652Y645750D01*
X289998Y632904D02*
Y645096D01*
X224498Y212404D02*
Y224596D01*
Y212404D02*
X225152Y211750D01*
X236500D01*
X225152Y225250D02*
X236500D01*
X224498Y224596D02*
X225152Y225250D01*
X255848D02*
X256502Y224596D01*
X244500Y225250D02*
X255848D01*
X244250Y211750D02*
X255848D01*
X256502Y212404D01*
Y224596D01*
X321002Y573904D02*
Y586096D01*
X320348Y586750D02*
X321002Y586096D01*
X309000Y586750D02*
X320348D01*
X309000Y573250D02*
X320348D01*
X321002Y573904D01*
X288998D02*
X289652Y573250D01*
X301000D01*
X289652Y586750D02*
X301250D01*
X288998Y586096D02*
X289652Y586750D01*
X288998Y573904D02*
Y586096D01*
X210984Y133317D02*
Y145509D01*
X210330Y146164D02*
X210984Y145509D01*
X198982Y146164D02*
X210330D01*
X198982Y132663D02*
X210330D01*
X210984Y133317D01*
X178980D02*
X179634Y132663D01*
X190982D01*
X179634Y146164D02*
X191232D01*
X178980Y145509D02*
X179634Y146164D01*
X178980Y133317D02*
Y145509D01*
X210984Y114858D02*
Y127050D01*
X210330Y127704D02*
X210984Y127050D01*
X198982Y127704D02*
X210330D01*
X198982Y114204D02*
X210330D01*
X210984Y114858D01*
X178980D02*
X179634Y114204D01*
X190982D01*
X179634Y127704D02*
X191232D01*
X178980Y127050D02*
X179634Y127704D01*
X178980Y114858D02*
Y127050D01*
X1054302Y326466D02*
X1066494D01*
X1067148Y327120D01*
Y338468D01*
X1053648Y327120D02*
Y338468D01*
Y327120D02*
X1054302Y326466D01*
X1053648Y357816D02*
X1054302Y358470D01*
X1053648Y346468D02*
Y357816D01*
X1067148Y346218D02*
Y357816D01*
X1066494Y358470D02*
X1067148Y357816D01*
X1054302Y358470D02*
X1066494D01*
X1131138Y356438D02*
X1143330D01*
X1130484Y355784D02*
X1131138Y356438D01*
X1130484Y344436D02*
Y355784D01*
X1143984Y344436D02*
Y355784D01*
X1143330Y356438D02*
X1143984Y355784D01*
X1143330Y324434D02*
X1143984Y325088D01*
Y336436D01*
X1130484Y325088D02*
Y336686D01*
Y325088D02*
X1131138Y324434D01*
X1143330D01*
X125904Y83998D02*
X138096D01*
X138750Y84652D01*
Y96000D01*
X125250Y84652D02*
Y96000D01*
Y84652D02*
X125904Y83998D01*
X125250Y115348D02*
X125904Y116002D01*
X125250Y104000D02*
Y115348D01*
X138750Y103750D02*
Y115348D01*
X138096Y116002D02*
X138750Y115348D01*
X125904Y116002D02*
X138096D01*
X222502Y232904D02*
Y245096D01*
X221848Y245750D02*
X222502Y245096D01*
X210500Y245750D02*
X221848D01*
X210500Y232250D02*
X221848D01*
X222502Y232904D01*
X190498D02*
X191152Y232250D01*
X202500D01*
X191152Y245750D02*
X202750D01*
X190498Y245096D02*
X191152Y245750D01*
X190498Y232904D02*
Y245096D01*
X240998Y624904D02*
Y637096D01*
Y624904D02*
X241652Y624250D01*
X253000D01*
X241652Y637750D02*
X253000D01*
X240998Y637096D02*
X241652Y637750D01*
X272348D02*
X273002Y637096D01*
X261000Y637750D02*
X272348D01*
X260750Y624250D02*
X272348D01*
X273002Y624904D01*
Y637096D01*
X292500Y609500D02*
Y622500D01*
X261500Y609500D02*
Y622500D01*
Y609500D02*
X292500D01*
X261500Y622500D02*
X292500D01*
X1115382Y355936D02*
X1128382D01*
X1115382Y324936D02*
X1128382D01*
Y355936D01*
X1115382Y324936D02*
Y355936D01*
X340392Y168956D02*
Y181956D01*
X371392Y168956D02*
Y181956D01*
X340392D02*
X371392D01*
X340392Y168956D02*
X371392D01*
X269056Y53663D02*
Y66662D01*
X300056Y53663D02*
Y66662D01*
X269056D02*
X300056D01*
X269056Y53663D02*
X300056D01*
X230056D02*
Y66662D01*
X199056Y53663D02*
Y66662D01*
Y53663D02*
X230056D01*
X199056Y66662D02*
X230056D01*
X300060Y68760D02*
Y81760D01*
X269060Y68760D02*
Y81760D01*
Y68760D02*
X300060D01*
X269060Y81760D02*
X300060D01*
X179376Y151583D02*
Y164582D01*
X210376Y151583D02*
Y164582D01*
X179376D02*
X210376D01*
X179376Y151583D02*
X210376D01*
X125500Y157500D02*
X138500D01*
X125500Y126500D02*
X138500D01*
Y157500D01*
X125500Y126500D02*
Y157500D01*
X320500Y588500D02*
Y601500D01*
X289500Y588500D02*
Y601500D01*
Y588500D02*
X320500D01*
X289500Y601500D02*
X320500D01*
X182500Y373500D02*
Y386500D01*
X213500Y373500D02*
Y386500D01*
X182500D02*
X213500D01*
X182500Y373500D02*
X213500D01*
X326500Y445500D02*
X339500D01*
X326500Y476500D02*
X339500D01*
X326500Y445500D02*
Y476500D01*
X339500Y445500D02*
Y476500D01*
X132500Y500500D02*
X145500D01*
X132500Y469500D02*
X145500D01*
Y500500D01*
X132500Y469500D02*
Y500500D01*
X304706Y386816D02*
Y399816D01*
X335706Y386816D02*
Y399816D01*
X304706D02*
X335706D01*
X304706Y386816D02*
X335706D01*
X1053390Y291408D02*
X1066390D01*
X1053390Y322408D02*
X1066390D01*
X1053390Y291408D02*
Y322408D01*
X1066390Y291408D02*
Y322408D01*
X861904Y263002D02*
X874096D01*
X874750Y262348D01*
Y250750D02*
Y262348D01*
X861250Y251000D02*
Y262348D01*
X861904Y263002D01*
X861250Y231652D02*
X861904Y230998D01*
X861250Y231652D02*
Y243000D01*
X874750Y231652D02*
Y243000D01*
X874096Y230998D02*
X874750Y231652D01*
X861904Y230998D02*
X874096D01*
X421416Y292430D02*
X433608D01*
X420762Y291776D02*
X421416Y292430D01*
X420762Y280428D02*
Y291776D01*
X434262Y280428D02*
Y291776D01*
X433608Y292430D02*
X434262Y291776D01*
X433608Y260426D02*
X434262Y261080D01*
Y272428D01*
X420762Y261080D02*
Y272679D01*
Y261080D02*
X421416Y260426D01*
X433608D01*
X437926Y292430D02*
X450118D01*
X437272Y291776D02*
X437926Y292430D01*
X437272Y280428D02*
Y291776D01*
X450772Y280428D02*
Y291776D01*
X450118Y292430D02*
X450772Y291776D01*
X450118Y260426D02*
X450772Y261080D01*
Y272428D01*
X437272Y261080D02*
Y272679D01*
Y261080D02*
X437926Y260426D01*
X450118D01*
X454435Y260426D02*
X466627D01*
X467281Y261080D01*
Y272428D01*
X453781Y261080D02*
Y272428D01*
Y261080D02*
X454435Y260426D01*
X453781Y291776D02*
X454435Y292430D01*
X453781Y280428D02*
Y291776D01*
X467281Y280179D02*
Y291776D01*
X466627Y292430D02*
X467281Y291776D01*
X454435Y292430D02*
X466627D01*
X501175Y292430D02*
X513367D01*
X500521Y291776D02*
X501175Y292430D01*
X500521Y280428D02*
Y291776D01*
X514021Y280428D02*
Y291776D01*
X513367Y292430D02*
X514021Y291776D01*
X513367Y260426D02*
X514021Y261080D01*
Y272428D01*
X500521Y261080D02*
Y272678D01*
Y261080D02*
X501175Y260426D01*
X513367D01*
X517684Y292430D02*
X529876D01*
X517031Y291776D02*
X517684Y292430D01*
X517031Y280428D02*
Y291776D01*
X530530Y280428D02*
Y291776D01*
X529876Y292430D02*
X530530Y291776D01*
X529876Y260426D02*
X530530Y261080D01*
Y272428D01*
X517031Y261080D02*
Y272679D01*
Y261080D02*
X517684Y260426D01*
X529876D01*
X534194D02*
X546386D01*
X547040Y261080D01*
Y272428D01*
X533540Y261080D02*
Y272428D01*
Y261080D02*
X534194Y260426D01*
X533540Y291776D02*
X534194Y292430D01*
X533540Y280428D02*
Y291776D01*
X547040Y280178D02*
Y291776D01*
X546386Y292430D02*
X547040Y291776D01*
X534194Y292430D02*
X546386D01*
X584743D02*
X596936D01*
X584090Y291776D02*
X584743Y292430D01*
X584090Y280428D02*
Y291776D01*
X597589Y280428D02*
Y291776D01*
X596936Y292430D02*
X597589Y291776D01*
X596936Y260426D02*
X597589Y261080D01*
Y272428D01*
X584090Y261080D02*
Y272678D01*
Y261080D02*
X584743Y260426D01*
X596936D01*
X601253Y292430D02*
X613445D01*
X600599Y291776D02*
X601253Y292430D01*
X600599Y280428D02*
Y291776D01*
X614099Y280428D02*
Y291776D01*
X613445Y292430D02*
X614099Y291776D01*
X613445Y260426D02*
X614099Y261080D01*
Y272428D01*
X600599Y261080D02*
Y272678D01*
Y261080D02*
X601253Y260426D01*
X613445D01*
X617762D02*
X629954D01*
X630608Y261080D01*
Y272428D01*
X617108Y261080D02*
Y272428D01*
Y261080D02*
X617762Y260426D01*
X617108Y291776D02*
X617762Y292430D01*
X617108Y280428D02*
Y291776D01*
X630608Y280178D02*
Y291776D01*
X629954Y292430D02*
X630608Y291776D01*
X617762Y292430D02*
X629954D01*
X674408D02*
X686600D01*
X673754Y291776D02*
X674408Y292430D01*
X673754Y280428D02*
Y291776D01*
X687254Y280428D02*
Y291776D01*
X686600Y292430D02*
X687254Y291776D01*
X686600Y260426D02*
X687254Y261080D01*
Y272428D01*
X673754Y261080D02*
Y272678D01*
Y261080D02*
X674408Y260426D01*
X686600D01*
X690918Y292430D02*
X703110D01*
X690263Y291776D02*
X690918Y292430D01*
X690263Y280428D02*
Y291776D01*
X703763Y280428D02*
Y291776D01*
X703110Y292430D02*
X703763Y291776D01*
X703110Y260426D02*
X703763Y261080D01*
Y272428D01*
X690263Y261080D02*
Y272678D01*
Y261080D02*
X690918Y260426D01*
X703110D01*
X707427D02*
X719619D01*
X720273Y261080D01*
Y272428D01*
X706773Y261080D02*
Y272428D01*
Y261080D02*
X707427Y260426D01*
X706773Y291776D02*
X707427Y292430D01*
X706773Y280428D02*
Y291776D01*
X720273Y280178D02*
Y291776D01*
X719619Y292430D02*
X720273Y291776D01*
X707427Y292430D02*
X719619D01*
X756196D02*
X768388D01*
X755542Y291776D02*
X756196Y292430D01*
X755542Y280428D02*
Y291776D01*
X769042Y280428D02*
Y291776D01*
X768388Y292430D02*
X769042Y291776D01*
X768388Y260426D02*
X769042Y261080D01*
Y272428D01*
X755542Y261080D02*
Y272678D01*
Y261080D02*
X756196Y260426D01*
X768388D01*
X785914D02*
X798106D01*
X798760Y261080D01*
Y272428D01*
X785260Y261080D02*
Y272428D01*
Y261080D02*
X785914Y260426D01*
X785260Y291776D02*
X785914Y292430D01*
X785260Y280428D02*
Y291776D01*
X798760Y280178D02*
Y291776D01*
X798106Y292430D02*
X798760Y291776D01*
X785914Y292430D02*
X798106D01*
X770928D02*
X783120D01*
X770274Y291776D02*
X770928Y292430D01*
X770274Y280428D02*
Y291776D01*
X783774Y280428D02*
Y291776D01*
X783120Y292430D02*
X783774Y291776D01*
X783120Y260426D02*
X783774Y261080D01*
Y272428D01*
X770274Y261080D02*
Y272678D01*
Y261080D02*
X770928Y260426D01*
X783120D01*
X861904Y267998D02*
X874096D01*
X861250Y268652D02*
X861904Y267998D01*
X861250Y268652D02*
Y280250D01*
X874750Y268652D02*
Y280000D01*
X874096Y267998D02*
X874750Y268652D01*
X874096Y300002D02*
X874750Y299348D01*
Y288000D02*
Y299348D01*
X861250Y288000D02*
Y299348D01*
X861904Y300002D01*
X874096D01*
X880500Y209500D02*
Y222500D01*
X911500Y209500D02*
Y222500D01*
X880500D02*
X911500D01*
X880500Y209500D02*
X911500D01*
X221500Y609500D02*
Y622500D01*
X252500Y609500D02*
Y622500D01*
X221500D02*
X252500D01*
X221500Y609500D02*
X252500D01*
X59764Y379100D02*
X90764D01*
X59764Y366100D02*
X90764D01*
X59764D02*
Y379100D01*
X90764Y366100D02*
Y379100D01*
X59764Y349440D02*
X90764D01*
X59764Y336440D02*
X90764D01*
X59764D02*
Y349440D01*
X90764Y336440D02*
Y349440D01*
X59764Y319780D02*
X90764D01*
X59764Y306780D02*
X90764D01*
X59764D02*
Y319780D01*
X90764Y306780D02*
Y319780D01*
X59764Y290120D02*
X90764D01*
X59764Y277120D02*
X90764D01*
X59764D02*
Y290120D01*
X90764Y277120D02*
Y290120D01*
X59764Y260460D02*
X90764D01*
X59764Y247460D02*
X90764D01*
X59764D02*
Y260460D01*
X90764Y247460D02*
Y260460D01*
X969250Y327000D02*
X979250D01*
X974250Y321750D02*
Y332251D01*
X1294971Y627346D02*
X1305472D01*
X1300222Y622346D02*
Y632346D01*
X1147076Y622346D02*
Y632346D01*
X1141825Y627346D02*
X1152326D01*
X989425D02*
X999926D01*
X994676Y622346D02*
Y632346D01*
X842561Y622346D02*
Y632346D01*
X837311Y627346D02*
X847812D01*
X685403D02*
X695904D01*
X690654Y622346D02*
Y632346D01*
X537735Y622346D02*
Y632346D01*
X532485Y627346D02*
X542986D01*
X1174162Y293854D02*
X1184662D01*
X1179412Y288854D02*
Y298854D01*
X999948Y283990D02*
Y293990D01*
X994698Y288990D02*
X1005198D01*
X846250Y297000D02*
X848550Y299300D01*
X857450D01*
X856500Y300250D02*
X858000Y298750D01*
X857450Y299300D02*
X859750Y297000D01*
Y288000D02*
Y297000D01*
X846250Y288000D02*
Y297000D01*
Y268000D02*
X859750D01*
Y279000D01*
X846250Y268000D02*
Y279000D01*
X849500Y300250D02*
X856500D01*
X847760Y298510D02*
X849500Y300250D01*
X848260Y298510D02*
X857740D01*
X846904Y263002D02*
X859096D01*
X846250Y262348D02*
X846904Y263002D01*
X846250Y251000D02*
Y262348D01*
X859750Y251000D02*
Y262348D01*
X859096Y263002D02*
X859750Y262348D01*
X859096Y230998D02*
X859750Y231652D01*
Y243000D01*
X846250Y231652D02*
Y243250D01*
Y231652D02*
X846904Y230998D01*
X859096D01*
X59764Y230800D02*
X90764D01*
X59764Y217800D02*
X90764D01*
X59764D02*
Y230800D01*
X90764Y217800D02*
Y230800D01*
X59764Y201140D02*
X90764D01*
X59764Y188140D02*
X90764D01*
X59764D02*
Y201140D01*
X90764Y188140D02*
Y201140D01*
X59262Y233284D02*
Y245476D01*
Y233284D02*
X59916Y232630D01*
X71265D01*
X59916Y246130D02*
X71265D01*
X59262Y245476D02*
X59916Y246130D01*
X90613D02*
X91266Y245476D01*
X79264Y246130D02*
X90613D01*
X79015Y232630D02*
X90613D01*
X91266Y233284D01*
Y245476D01*
X59262Y203624D02*
Y215816D01*
Y203624D02*
X59916Y202970D01*
X71265D01*
X59916Y216470D02*
X71265D01*
X59262Y215816D02*
X59916Y216470D01*
X90613D02*
X91266Y215816D01*
X79264Y216470D02*
X90613D01*
X79015Y202970D02*
X90613D01*
X91266Y203624D01*
Y215816D01*
D79*
X944000Y260000D02*
X970000D01*
X944000Y252000D02*
X970000D01*
X886060Y204320D02*
X896220D01*
X886060Y197970D02*
Y204320D01*
X896220D02*
X939400D01*
X896220Y197970D02*
Y204320D01*
X886060Y197970D02*
X896220D01*
X939400D02*
Y204320D01*
Y163680D02*
Y170030D01*
X886060D02*
X896220D01*
Y163680D02*
Y170030D01*
Y163680D02*
X939400D01*
X886060D02*
Y170030D01*
Y163680D02*
X896220D01*
X679500Y129000D02*
X725500D01*
X679500Y101000D02*
X725500D01*
X679500Y124000D02*
Y129000D01*
X725500Y124000D02*
Y129000D01*
X679500Y101000D02*
Y106000D01*
X725500Y101000D02*
Y106000D01*
X715500Y124000D02*
X725500D01*
X715500Y106000D02*
X725500D01*
X715500Y124110D02*
Y129000D01*
Y101000D02*
Y106000D01*
X514500Y144000D02*
X560500D01*
X514500Y116000D02*
X560500D01*
X514500Y139000D02*
Y144000D01*
X560500Y139000D02*
Y144000D01*
X514500Y116000D02*
Y121000D01*
X560500Y116000D02*
Y121000D01*
X550500Y139000D02*
X560500D01*
X550500Y121000D02*
X560500D01*
X550500Y139110D02*
Y144000D01*
Y116000D02*
Y121000D01*
X767000Y129000D02*
X813000D01*
X767000Y101000D02*
X813000D01*
X767000Y124000D02*
Y129000D01*
X813000Y124000D02*
Y129000D01*
X767000Y101000D02*
Y106000D01*
X813000Y101000D02*
Y106000D01*
X803000Y124000D02*
X813000D01*
X803000Y106000D02*
X813000D01*
X803000Y124110D02*
Y129000D01*
Y101000D02*
Y106000D01*
X432000Y144000D02*
X478000D01*
X432000Y116000D02*
X478000D01*
X432000Y139000D02*
Y144000D01*
X478000Y139000D02*
Y144000D01*
X432000Y116000D02*
Y121000D01*
X478000Y116000D02*
Y121000D01*
X468000Y139000D02*
X478000D01*
X468000Y121000D02*
X478000D01*
X468000Y139110D02*
Y144000D01*
Y116000D02*
Y121000D01*
X592000Y144000D02*
X638000D01*
X592000Y116000D02*
X638000D01*
X592000Y139000D02*
Y144000D01*
X638000Y139000D02*
Y144000D01*
X592000Y116000D02*
Y121000D01*
X638000Y116000D02*
Y121000D01*
X628000Y139000D02*
X638000D01*
X628000Y121000D02*
X638000D01*
X628000Y139110D02*
Y144000D01*
Y116000D02*
Y121000D01*
X1229500Y206540D02*
X1275500D01*
X1229500Y178540D02*
X1275500D01*
X1229500Y201540D02*
Y206540D01*
X1275500Y201540D02*
Y206540D01*
X1229500Y178540D02*
Y183540D01*
X1275500Y178540D02*
Y183540D01*
X1265500Y201540D02*
X1275500D01*
X1265500Y183540D02*
X1275500D01*
X1265500Y201650D02*
Y206540D01*
Y178540D02*
Y183540D01*
X1100890Y310620D02*
X1103890D01*
X1100890Y309120D02*
X1103890Y310620D01*
X1100890Y312120D02*
X1103890Y310620D01*
X1100890Y309120D02*
Y312120D01*
X1103890Y309120D02*
Y312120D01*
X1078000Y310500D02*
X1106000D01*
X1078000Y291500D02*
X1106000D01*
X325500Y577750D02*
X340500D01*
X325500D02*
Y590350D01*
X340500Y577750D02*
Y590350D01*
X339000Y572000D02*
X342000D01*
X339000Y575000D02*
X342000D01*
X340500Y572000D02*
X342000Y575000D01*
X339000D02*
X340500Y572000D01*
Y575000D01*
X199250Y211000D02*
Y226000D01*
X211850D01*
X199250Y211000D02*
X211850D01*
X193500Y209500D02*
Y212500D01*
X196500Y209500D02*
Y212500D01*
X193500Y211000D02*
X196500Y209500D01*
X193500Y211000D02*
X196500Y212500D01*
X193500Y211000D02*
X196500D01*
X1023000Y247000D02*
Y252000D01*
Y270110D02*
Y275000D01*
Y252000D02*
X1033000D01*
X1023000Y270000D02*
X1033000D01*
Y247000D02*
Y252000D01*
X987000Y247000D02*
Y252000D01*
X1033000Y270000D02*
Y275000D01*
X987000Y270000D02*
Y275000D01*
Y247000D02*
X1033000D01*
X987000Y275000D02*
X1033000D01*
X997000Y231000D02*
Y236000D01*
Y208000D02*
Y212890D01*
X987000Y231000D02*
X997000D01*
X987000Y213000D02*
X997000D01*
X987000Y231000D02*
Y236000D01*
X1033000Y231000D02*
Y236000D01*
X987000Y208000D02*
Y213000D01*
X1033000Y208000D02*
Y213000D01*
X987000Y236000D02*
X1033000D01*
X987000Y208000D02*
X1033000D01*
X1303070Y146000D02*
X1308070D01*
X1326180D02*
X1331070D01*
X1308070Y136000D02*
Y146000D01*
X1326070Y136000D02*
Y146000D01*
X1303070Y136000D02*
X1308070D01*
X1303070Y182000D02*
X1308070D01*
X1326070Y136000D02*
X1331070D01*
X1326070Y182000D02*
X1331070D01*
X1303070Y136000D02*
Y182000D01*
X1331070Y136000D02*
Y182000D01*
D80*
X762858Y432786D02*
Y633192D01*
X864204Y432532D02*
Y633192D01*
X559038Y432532D02*
Y633192D01*
X457692Y432786D02*
Y633192D01*
X1068025Y432786D02*
Y633192D01*
X1169370Y432532D02*
Y633192D01*
X1016787Y432532D02*
Y633192D01*
X915441Y432786D02*
Y633192D01*
X610275Y432786D02*
Y633192D01*
X711621Y432532D02*
Y633192D01*
X1321954Y432532D02*
Y633192D01*
X1220608Y432786D02*
Y633192D01*
D81*
X720500Y126500D02*
D03*
Y103500D02*
D03*
X555500Y141500D02*
D03*
Y118500D02*
D03*
X808000Y126500D02*
D03*
Y103500D02*
D03*
X473000Y141500D02*
D03*
Y118500D02*
D03*
X633000Y141500D02*
D03*
Y118500D02*
D03*
X1270500Y204040D02*
D03*
Y181040D02*
D03*
X1028000Y249500D02*
D03*
X1028000Y272500D02*
D03*
X992000Y233500D02*
D03*
X992000Y210500D02*
D03*
D82*
X1027760Y12891D02*
D03*
X1127728D02*
D03*
X1228058D02*
D03*
D83*
X1063447D02*
D03*
X1163415D02*
D03*
X1263745D02*
D03*
D84*
X1046175Y1435D02*
D03*
X1146143D02*
D03*
X638909Y2197D02*
D03*
X555089Y1943D02*
D03*
X471269Y2705D02*
D03*
X722221Y2197D02*
D03*
X807311Y2705D02*
D03*
X1246473Y1435D02*
D03*
D85*
X1046175Y24347D02*
D03*
X1146143D02*
D03*
X638909Y25109D02*
D03*
X555089Y24855D02*
D03*
X471269Y25617D02*
D03*
X722221Y25109D02*
D03*
X807311Y25617D02*
D03*
X1246473Y24347D02*
D03*
D86*
X1036650Y21146D02*
D03*
X1136618D02*
D03*
X629384Y21908D02*
D03*
X545564Y21654D02*
D03*
X461744Y22416D02*
D03*
X712696Y21908D02*
D03*
X797786Y22416D02*
D03*
X1236948Y21146D02*
D03*
D87*
X1054430Y21285D02*
D03*
X1154398D02*
D03*
X647164Y22047D02*
D03*
X563344Y21793D02*
D03*
X479524Y22555D02*
D03*
X730476Y22047D02*
D03*
X815566Y22555D02*
D03*
X1254728Y21285D02*
D03*
D88*
X1055065Y4775D02*
D03*
X1155033D02*
D03*
X647799Y5537D02*
D03*
X563979Y5283D02*
D03*
X480159Y6045D02*
D03*
X731111Y5537D02*
D03*
X816201Y6045D02*
D03*
X1255363Y4775D02*
D03*
D89*
X1035380D02*
D03*
X1135348D02*
D03*
X628114Y5537D02*
D03*
X544294Y5283D02*
D03*
X460474Y6045D02*
D03*
X711426Y5537D02*
D03*
X796516Y6045D02*
D03*
X1235678Y4775D02*
D03*
D90*
X1038555Y23851D02*
D03*
X1138523D02*
D03*
X631289Y24613D02*
D03*
X547469Y24359D02*
D03*
X463649Y25121D02*
D03*
X714601Y24613D02*
D03*
X799691Y25121D02*
D03*
X1238853Y23851D02*
D03*
D91*
X1053474Y22631D02*
D03*
X646208Y23393D02*
D03*
X562388Y23139D02*
D03*
X478568Y23901D02*
D03*
X729520Y23393D02*
D03*
X814610Y23901D02*
D03*
D92*
X1037920Y1831D02*
D03*
X1137888D02*
D03*
X630654Y2593D02*
D03*
X546834Y2339D02*
D03*
X463014Y3101D02*
D03*
X713966Y2593D02*
D03*
X799056Y3101D02*
D03*
X1238218Y1831D02*
D03*
D93*
X1052271Y3505D02*
D03*
X1152239D02*
D03*
X645005Y4267D02*
D03*
X561185Y4013D02*
D03*
X477365Y4775D02*
D03*
X728317Y4267D02*
D03*
X813407Y4775D02*
D03*
X1252569Y3505D02*
D03*
D94*
X1153443Y22631D02*
D03*
X1253773D02*
D03*
D95*
X623288Y13653D02*
D03*
X539468Y13399D02*
D03*
X455648Y14161D02*
D03*
X706600Y13653D02*
D03*
X791690Y14161D02*
D03*
D96*
X653674Y13653D02*
D03*
D97*
X569854Y13399D02*
D03*
X486034Y14161D02*
D03*
D98*
X736859Y13653D02*
D03*
X821949Y14161D02*
D03*
D99*
X246926Y305765D02*
D03*
D100*
X462864Y406603D02*
D03*
D101*
X338150Y742439D02*
D03*
X352374D02*
D03*
X170256D02*
D03*
X156032D02*
D03*
D102*
X1305570Y141000D02*
D03*
X1328569D02*
D03*
M02*
